<svg height="512pt" viewBox="0 -4 512 512" width="512pt" xmlns="http://www.w3.org/2000/svg"><path d="m420.273438 343.214844c37.230468-1.648438 83.046874.691406 83.046874 21.257812 0 33.585938-73.152343 132.167969-242.980468 138.589844-2.863282.085938-5.726563.085938-8.679688.085938-2.949218 0-5.8125 0-8.675781-.085938-169.828125-6.421875-242.984375-105.003906-242.984375-138.589844 0-20.566406 45.820312-22.90625 83.046875-21.257812" fill="#2c3e50"/><path d="m408.644531 343.214844c34.660157-1.648438 77.320313.691406 77.320313 21.257812 0 33.585938-68.109375 132.167969-226.226563 138.589844-2.664062.085938-5.328125.085938-8.078125.085938-2.746094 0-5.414062 0-8.078125-.085938-158.117187-6.421875-226.226562-105.003906-226.226562-138.589844 0-20.566406 42.660156-22.90625 77.320312-21.257812" fill="#35495e"/><path d="m420.792969 220.765625v-.085937c3.347656-73.328126 9.445312-148.835938 20.542969-182.441407.722656-2.042969-.191407-4.304687-2.132813-5.269531-14.378906-7.03125-75.023437-32.96875-187.542969-32.96875-112.546875 0-173.195312 25.945312-187.550781 32.976562-1.9375.953126-2.851563 3.199219-2.132813 5.234376 14.464844 43.8125 20.449219 158.90625 22.980469 247.554687l45.210938 130.777344h234.304687zm0 0" fill="#2c3e50"/><path d="m406.234375 220.765625v-.085937c3.058594-73.328126 8.628906-148.835938 18.773437-182.441407.679688-1.996093-.132812-4.195312-1.949218-5.269531-13.140625-7.03125-68.5625-32.96875-171.394532-32.96875-102.851562 0-158.28125 25.945312-171.402343 32.976562-1.808594 1.058594-2.625 3.246094-1.945313 5.234376 13.21875 43.8125 18.6875 158.90625 21 247.554687l41.320313 130.777344h214.128906zm0 0" fill="#35495e"/><path d="m312.40625 182.238281c0 33.546875-27.195312 60.746094-60.746094 60.746094-33.546875 0-60.746094-27.199219-60.746094-60.746094 0-33.550781 27.199219-60.746093 60.746094-60.746093 33.550782 0 60.746094 27.195312 60.746094 60.746093zm0 0" fill="#e57e25"/><path d="m286.371094 182.238281c0-33.550781-15.539063-60.746093-34.710938-60.746093s-34.710937 27.195312-34.710937 60.746093c0 33.546875 15.539062 60.746094 34.710937 60.746094s34.710938-27.199219 34.710938-60.746094zm0 0" fill="#f29c1f"/><path d="m451.253906 260.339844c-3.507812 0-6.671875-2.117188-8.015625-5.359375-1.34375-3.242188-.601562-6.972657 1.878907-9.453125l30.683593-30.683594c2.183594-2.238281 5.402344-3.132812 8.425781-2.335938 3.023438.796876 5.382813 3.160157 6.179688 6.183594.796875 3.023438-.09375 6.242188-2.335938 8.421875l-30.679687 30.683594c-1.625 1.628906-3.835937 2.542969-6.136719 2.542969zm0 0" fill="#a5a5a4"/><path d="m489.90625 280.039062c-1.367188 0-2.714844-.324218-3.929688-.945312l-38.664062-19.699219c-4.269531-2.175781-5.96875-7.402343-3.792969-11.675781 2.179688-4.269531 7.40625-5.96875 11.675781-3.789062l38.660157 19.699218c3.578125 1.820313 5.4375 5.859375 4.5 9.761719-.941407 3.902344-4.433594 6.652344-8.449219 6.648437zm0 0" fill="#a5a5a4"/><path d="m489.90625 280.039062c-1.367188 0-2.714844-.324218-3.929688-.945312l-38.664062-19.699219c-4.269531-2.175781-5.96875-7.402343-3.792969-11.675781 2.179688-4.269531 7.40625-5.96875 11.675781-3.789062l38.660157 19.699218c3.578125 1.820313 5.4375 5.859375 4.5 9.761719-.941407 3.902344-4.433594 6.652344-8.449219 6.648437zm0 0" fill="#a5a5a4"/><path d="m489.90625 280.039062c-1.367188 0-2.714844-.324218-3.929688-.945312l-38.664062-19.699219c-4.269531-2.175781-5.96875-7.402343-3.792969-11.675781 2.179688-4.269531 7.40625-5.96875 11.675781-3.789062l38.660157 19.699218c3.578125 1.820313 5.4375 5.859375 4.5 9.761719-.941407 3.902344-4.433594 6.652344-8.449219 6.648437zm0 0" fill="#a5a5a4"/><path d="m444.476562 303.195312c-.457031 0-.914062-.035156-1.367187-.105468-2.273437-.359375-4.308594-1.609375-5.664063-3.46875-1.351562-1.863282-1.910156-4.1875-1.550781-6.460938l6.789063-42.855468c.484375-3.0625 2.5625-5.632813 5.457031-6.746094 2.894531-1.109375 6.164063-.59375 8.574219 1.355468 2.410156 1.953126 3.597656 5.039063 3.113281 8.101563l-6.789063 42.855469c-.667968 4.214844-4.296874 7.316406-8.5625 7.324218zm0 0" fill="#a5a5a4"/><path d="m451.261719 260.339844c-3.265625.003906-6.257813-1.828125-7.742188-4.738282l-19.695312-38.660156c-1.410157-2.761718-1.238281-6.066406.453125-8.667968 1.6875-2.601563 4.636718-4.101563 7.730468-3.941407 3.097657.164063 5.871094 1.964844 7.28125 4.726563l19.699219 38.660156c1.371094 2.691406 1.246094 5.898438-.332031 8.472656-1.574219 2.574219-4.375 4.144532-7.394531 4.148438zm0 0" fill="#a5a5a4"/><path d="m408.386719 267.125c-4.53125-.003906-8.292969-3.488281-8.644531-8.003906-.351563-4.511719 2.828124-8.539063 7.300781-9.246094l42.855469-6.785156c3.0625-.484375 6.148437.699218 8.101562 3.109375 1.949219 2.410156 2.464844 5.679687 1.355469 8.574219-1.113281 2.894531-3.683594 4.976562-6.746094 5.460937l-42.855469 6.785156c-.453125.074219-.910156.109375-1.367187.105469zm0 0" fill="#a5a5a4"/><path d="m260.339844 503.0625c-2.863282.085938-5.726563.085938-8.679688.085938" fill="#35495e"/><path d="m326.117188 385.996094c-18.570313 2.257812-40.351563 3.816406-65.777344 4.339844-2.171875.085937-4.425782.085937-6.769532.085937h-1.910156c-2.949218 0-5.8125 0-8.675781-.085937-21.988281-.34375-43.941406-1.792969-65.78125-4.339844 0 .085937-.085937 0-.085937 0l-78.796876-18.570313c-4.0625-1.757812-8.03125-3.726562-11.886718-5.902343l-.085938-11.105469c.085938 3.902343.085938 7.636719.085938 11.105469.347656 23.257812.347656 37.664062.347656 37.664062s23.949219 39.917969 156.203125 43.214844c2.863281 0 5.726563.085937 8.675781.085937 2.953125 0 5.816406-.085937 8.679688-.085937 132.25-3.296875 156.203125-43.214844 156.203125-43.214844s0-14.40625.257812-37.578125c.089844-3.554687.089844-7.289063.261719-11.191406v-.089844l-.261719 11.28125c-3.792969 2.128906-7.703125 4.042969-11.714843 5.730469zm0 0" fill="#c03a2b"/><path d="m321.953125 385.996094c-20.621094 2.539062-41.363281 3.988281-62.136719 4.339844-2.046875.085937-4.179687.085937-6.390625.085937h-1.804687c-2.789063 0-5.492188 0-8.199219-.085937-20.773437-.34375-41.511719-1.792969-62.132813-4.339844 0 .085937-.082031 0-.082031 0l-74.433593-18.570313c-3.847657-1.761719-7.597657-3.734375-11.230469-5.902343l-.085938-11.105469c.082031 3.902343.082031 7.636719.082031 11.105469.328126 23.257812.328126 37.664062.328126 37.664062s22.625 39.917969 147.554687 43.214844c2.707031 0 5.410156.085937 8.199219.085937 2.785156 0 5.492187-.085937 8.195312-.085937 124.929688-3.296875 147.554688-43.214844 147.554688-43.214844s0-14.40625.246094-37.578125c.082031-3.554687.082031-7.289063.246093-11.191406v-.089844l-.246093 11.28125c-3.570313 2.125-7.269532 4.039063-11.066407 5.730469zm0 0" fill="#cc4b4c"/><path d="m225.628906 316.746094c0 40.738281-33.027344 73.761718-73.765625 73.761718s-73.761719-33.023437-73.761719-73.761718c0-40.738282 33.023438-73.761719 73.761719-73.761719s73.765625 33.023437 73.765625 73.761719zm0 0" fill="#67b9cc"/><path d="m285.765625 350.242188c-10.351563-6.414063-22.003906-10.445313-34.105469-11.800782-12.101562 1.355469-23.75 5.386719-34.105468 11.800782l5.554687-52.5c9.097656 3.644531 18.757813 5.671874 28.550781 5.988281 9.792969-.316407 19.457032-2.34375 28.550782-5.988281zm0 0" fill="#b19046"/><path d="m251.660156 216.949219c-4.792968 0-8.675781-3.886719-8.675781-8.679688v-26.03125c0-2.300781.914063-4.507812 2.542969-6.136719l17.355468-17.355468c3.402344-3.289063 8.816407-3.242188 12.164063.105468 3.347656 3.347657 3.394531 8.761719.105469 12.164063l-14.8125 14.816406v22.4375c0 4.792969-3.886719 8.679688-8.679688 8.679688zm0 0" fill="#805333"/><path d="m451.253906 303.730469c-24.839844-.003907-46.21875-17.550781-51.066406-41.914063-4.84375-24.363281 8.195312-48.753906 31.144531-58.261718 22.949219-9.503907 49.417969-1.472657 63.214844 19.179687 13.800781 20.652344 11.089844 48.179687-6.476563 65.746094-9.742187 9.792969-23 15.285156-36.816406 15.25zm0-86.765625c-16.550781.015625-30.789062 11.71875-34.003906 27.953125-3.21875 16.234375 5.480469 32.480469 20.777344 38.804687 15.292968 6.324219 32.925781.964844 42.113281-12.804687 9.1875-13.765625 7.371094-32.105469-4.339844-43.804688-6.507812-6.511719-15.339843-10.164062-24.546875-10.148437zm0 0" fill="#5e5f62"/><path d="m451.253906 216.949219c-4.792968 0-8.675781-3.886719-8.675781-8.679688v-8.675781c0-4.792969 3.882813-8.679688 8.675781-8.679688 4.792969 0 8.679688 3.886719 8.679688 8.679688v8.675781c0 4.792969-3.886719 8.679688-8.679688 8.679688zm0 0" fill="#5e5f62"/><path d="m451.253906 312.40625c-4.792968 0-8.675781-3.882812-8.675781-8.675781v-8.679688c0-4.792969 3.882813-8.679687 8.675781-8.679687 4.792969 0 8.679688 3.886718 8.679688 8.679687v8.679688c0 4.792969-3.886719 8.675781-8.679688 8.675781zm0 0" fill="#5e5f62"/><path d="m434.652344 220.253906c-3.511719 0-6.679688-2.117187-8.019532-5.363281l-3.320312-8.015625c-1.257812-2.878906-.863281-6.214844 1.03125-8.71875 1.898438-2.503906 5-3.789062 8.113281-3.359375 3.113281.433594 5.746094 2.515625 6.890625 5.441406l3.316406 8.015625c1.105469 2.675782.800782 5.726563-.804687 8.136719-1.609375 2.40625-4.3125 3.855469-7.207031 3.863281zm0 0" fill="#5e5f62"/><path d="m471.183594 308.449219c-3.515625 0-6.679688-2.117188-8.023438-5.363281l-3.316406-8.019532c-1.25-2.875-.847656-6.203125 1.046875-8.703125 1.894531-2.496093 4.992187-3.78125 8.097656-3.351562 3.109375.429687 5.742188 2.5 6.890625 5.421875l3.320313 8.015625c1.101562 2.675781.800781 5.726562-.808594 8.136719-1.609375 2.40625-4.308594 3.855468-7.207031 3.863281zm0 0" fill="#5e5f62"/><path d="m420.574219 229.65625c-2.304688.003906-4.511719-.910156-6.136719-2.542969l-6.136719-6.132812c-3.390625-3.390625-3.390625-8.882813 0-12.273438 3.386719-3.390625 8.882813-3.390625 12.273438 0l6.132812 6.132813c2.484375 2.480468 3.226563 6.214844 1.882813 9.457031s-4.507813 5.355469-8.015625 5.359375zm0 0" fill="#5e5f62"/><path d="m488.070312 297.15625c-2.300781.003906-4.507812-.910156-6.132812-2.542969l-6.136719-6.132812c-3.316406-3.402344-3.28125-8.835938.078125-12.195313s8.792969-3.394531 12.191406-.078125l6.136719 6.136719c2.480469 2.480469 3.226563 6.214844 1.882813 9.457031-1.34375 3.242188-4.507813 5.355469-8.019532 5.355469zm0 0" fill="#5e5f62"/><path d="m411.160156 243.738281c-1.136718-.003906-2.261718-.230469-3.3125-.664062l-8.015625-3.320313c-2.925781-1.144531-5.007812-3.777344-5.4375-6.890625-.433593-3.113281.851563-6.214843 3.355469-8.109375 2.503906-1.898437 5.839844-2.292968 8.71875-1.035156l8.015625 3.320312c3.828125 1.582032 6.007813 5.648438 5.199219 9.714844-.808594 4.0625-4.378906 6.988282-8.523438 6.984375zm0 0" fill="#5e5f62"/><path d="m499.355469 280.265625c-1.136719 0-2.261719-.226563-3.3125-.664063l-8.019531-3.316406c-4.304688-1.90625-6.304688-6.902344-4.503907-11.253906 1.800781-4.355469 6.746094-6.476562 11.140625-4.777344l8.019532 3.316406c3.828124 1.582032 6.007812 5.652344 5.199218 9.714844s-4.378906 6.988282-8.523437 6.984375zm0 0" fill="#5e5f62"/><path d="m407.863281 260.339844h-8.675781c-4.792969 0-8.679688-3.886719-8.679688-8.679688 0-4.792968 3.886719-8.675781 8.679688-8.675781h8.675781c4.792969 0 8.679688 3.882813 8.679688 8.675781 0 4.792969-3.886719 8.679688-8.679688 8.679688zm0 0" fill="#5e5f62"/><path d="m503.320312 260.339844h-8.675781c-4.792969 0-8.679687-3.886719-8.679687-8.679688 0-4.792968 3.886718-8.675781 8.679687-8.675781h8.675781c4.792969 0 8.679688 3.882813 8.679688 8.675781 0 4.792969-3.886719 8.679688-8.679688 8.679688zm0 0" fill="#5e5f62"/><path d="m403.152344 280.265625c-4.144532.007813-7.710938-2.917969-8.519532-6.984375-.808593-4.0625 1.367188-8.132812 5.199219-9.714844l8.015625-3.316406c4.402344-1.734375 9.382813.382812 11.195313 4.757812 1.808593 4.371094-.21875 9.390626-4.558594 11.277344l-8.019531 3.316406c-1.046875.4375-2.175782.664063-3.3125.664063zm0 0" fill="#5e5f62"/><path d="m491.347656 243.738281c-4.144531.003907-7.714844-2.921875-8.523437-6.984375-.808594-4.066406 1.371093-8.132812 5.199219-9.714844l8.019531-3.320312c2.875-1.257812 6.210937-.863281 8.714843 1.035156 2.503907 1.894532 3.789063 4.996094 3.359376 8.109375-.433594 3.113281-2.511719 5.746094-5.441407 6.890625l-8.015625 3.320313c-1.050781.433593-2.175781.660156-3.3125.664062zm0 0" fill="#5e5f62"/><path d="m414.4375 297.15625c-3.511719 0-6.675781-2.113281-8.019531-5.355469-1.339844-3.242187-.597657-6.976562 1.882812-9.457031l6.136719-6.136719c3.398438-3.316406 8.835938-3.28125 12.191406.078125 3.359375 3.359375 3.394532 8.792969.078125 12.195313l-6.132812 6.132812c-1.628907 1.632813-3.835938 2.546875-6.136719 2.542969zm0 0" fill="#5e5f62"/><path d="m481.9375 229.65625c-3.511719 0-6.675781-2.113281-8.019531-5.355469-1.339844-3.242187-.597657-6.976562 1.882812-9.457031l6.136719-6.136719c3.386719-3.390625 8.882812-3.390625 12.269531 0 3.390625 3.386719 3.390625 8.882813.003907 12.273438l-6.136719 6.132812c-1.625 1.632813-3.835938 2.546875-6.136719 2.542969zm0 0" fill="#5e5f62"/><path d="m431.324219 308.449219c-2.894531-.007813-5.59375-1.457031-7.203125-3.863281-1.609375-2.410157-1.910156-5.460938-.808594-8.136719l3.320312-8.015625c1.148438-2.921875 3.78125-4.992188 6.886719-5.421875 3.109375-.429688 6.207031.855469 8.101563 3.351562 1.894531 2.5 2.292968 5.828125 1.042968 8.703125l-3.316406 8.019532c-1.34375 3.246093-4.507812 5.363281-8.023437 5.363281zm0 0" fill="#5e5f62"/><path d="m467.855469 220.253906c-2.894531-.007812-5.59375-1.457031-7.203125-3.863281-1.605469-2.410156-1.910156-5.460937-.808594-8.136719l3.320312-8.015625c1.144532-2.925781 3.777344-5.007812 6.890626-5.441406 3.113281-.429687 6.214843.855469 8.109374 3.359375 1.898438 2.503906 2.292969 5.839844 1.035157 8.71875l-3.320313 8.015625c-1.339844 3.246094-4.507812 5.363281-8.023437 5.363281zm0 0" fill="#5e5f62"/><path d="m104.136719 338.441406c-4.792969 0-8.679688-3.886718-8.679688-8.679687 0-68.628907 51.546875-69.421875 52.070313-69.421875 4.789062-.019532 8.691406 3.851562 8.707031 8.644531.019531 4.792969-3.851563 8.691406-8.644531 8.710937-3.609375.066407-34.777344 2.117188-34.777344 52.066407 0 4.792969-3.882812 8.679687-8.675781 8.679687zm0 0" fill="#b0d3f0"/><path d="m102.652344 89.554688c-4.234375 0-7.847656-3.0625-8.550782-7.238282-1.675781-9.3125-3.972656-18.5-6.875-27.503906-1.363281-4.085938.476563-8.554688 4.324219-10.492188 8.417969-3.984374 17.15625-7.257812 26.121094-9.78125 2.976563-.867187 6.191406-.082031 8.429687 2.058594 2.242188 2.144532 3.167969 5.320313 2.429688 8.332032-.734375 3.011718-3.023438 5.402343-6 6.269531-6.910156 2.015625-12.546875 4.09375-16.527344 5.703125 2.144532 7.414062 3.886719 14.9375 5.21875 22.539062.792969 4.726563-2.394531 9.199219-7.121094 9.996094-.480468.078125-.964843.117188-1.449218.117188zm0 0" fill="#95a5a5"/><g fill="#805333"><path d="m251.660156 251.660156c-38.339844 0-69.421875-31.082031-69.421875-69.421875 0-38.34375 31.082031-69.425781 69.421875-69.425781 38.34375 0 69.425782 31.082031 69.425782 69.425781-.046876 38.324219-31.101563 69.378907-69.425782 69.421875zm0-121.492187c-28.753906 0-52.066406 23.3125-52.066406 52.070312 0 28.753907 23.3125 52.066407 52.066406 52.066407 28.757813 0 52.070313-23.3125 52.070313-52.066407-.035157-28.746093-23.328125-52.039062-52.070313-52.070312zm0 0"/><path d="m251.660156 130.167969c-4.792968 0-8.675781-3.882813-8.675781-8.675781v-8.679688c0-4.792969 3.882813-8.675781 8.675781-8.675781 4.792969 0 8.679688 3.882812 8.679688 8.675781v8.679688c0 4.792968-3.886719 8.675781-8.679688 8.675781zm0 0"/><path d="m251.660156 260.339844c-4.792968 0-8.675781-3.886719-8.675781-8.679688v-8.675781c0-4.792969 3.882813-8.679687 8.675781-8.679687 4.792969 0 8.679688 3.886718 8.679688 8.679687v8.675781c0 4.792969-3.886719 8.679688-8.679688 8.679688zm0 0"/><path d="m321.085938 190.914062h-8.679688c-4.792969 0-8.675781-3.882812-8.675781-8.675781s3.882812-8.679687 8.675781-8.679687h8.679688c4.792968 0 8.675781 3.886718 8.675781 8.679687s-3.882813 8.675781-8.675781 8.675781zm0 0"/><path d="m190.914062 190.914062h-8.675781c-4.792969 0-8.679687-3.882812-8.679687-8.675781s3.886718-8.679687 8.679687-8.679687h8.675781c4.792969 0 8.679688 3.886718 8.679688 8.679687s-3.886719 8.675781-8.679688 8.675781zm0 0"/><path d="m187.527344 217.488281c-4.144532.003907-7.71875-2.917969-8.527344-6.984375-.808594-4.0625 1.367188-8.132812 5.199219-9.714844l8.015625-3.324218c4.417968-1.789063 9.453125.316406 11.277344 4.722656 1.828124 4.402344-.242188 9.453125-4.632813 11.3125l-8.015625 3.324219c-1.050781.433593-2.179688.660156-3.316406.664062zm0 0"/><path d="m307.789062 167.675781c-4.144531.003907-7.714843-2.917969-8.527343-6.984375-.808594-4.066406 1.371093-8.132812 5.199219-9.714844l8.019531-3.324218c4.425781-1.835938 9.503906.265625 11.335937 4.695312 1.835938 4.425782-.265625 9.503906-4.695312 11.339844l-8.015625 3.320312c-1.050781.4375-2.179688.664063-3.316407.667969zm0 0"/><path d="m228.417969 134.796875c-3.511719 0-6.675781-2.117187-8.019531-5.359375l-3.324219-8.019531c-1.832031-4.425781.269531-9.503907 4.695312-11.335938 4.429688-1.835937 9.507813.265625 11.339844 4.695313l3.324219 8.015625c1.105468 2.675781.804687 5.730469-.804688 8.140625-1.609375 2.40625-4.3125 3.855468-7.210937 3.863281zm0 0"/><path d="m278.234375 255.058594c-3.511719 0-6.679687-2.113282-8.023437-5.359375l-3.320313-8.015625c-1.214844-2.871094-.796875-6.171875 1.09375-8.648438 1.886719-2.476562 4.960937-3.75 8.050781-3.335937 3.089844.414062 5.71875 2.453125 6.886719 5.339843l3.324219 8.015626c1.105468 2.679687.804687 5.730468-.804688 8.140624-1.609375 2.410157-4.3125 3.859376-7.207031 3.863282zm0 0"/><path d="m202.574219 240.003906c-3.511719 0-6.675781-2.113281-8.019531-5.355468-1.339844-3.242188-.601563-6.976563 1.882812-9.457032l6.136719-6.136718c3.402343-3.289063 8.816406-3.242188 12.164062.105468 3.347657 3.347656 3.394531 8.761719.105469 12.164063l-6.136719 6.136719c-1.625 1.632812-3.832031 2.546874-6.132812 2.542968zm0 0"/><path d="m294.617188 147.960938c-3.507813-.003907-6.671876-2.117188-8.015626-5.359376-1.34375-3.242187-.601562-6.972656 1.878907-9.457031l6.136719-6.132812c2.175781-2.265625 5.40625-3.175781 8.445312-2.382813 3.039062.796875 5.410156 3.167969 6.203125 6.207032.792969 3.039062-.117187 6.269531-2.378906 8.445312l-6.136719 6.136719c-1.625 1.628906-3.832031 2.542969-6.132812 2.542969zm0 0"/><path d="m208.707031 147.960938c-2.304687 0-4.511719-.914063-6.136719-2.542969l-6.136718-6.136719c-2.261719-2.175781-3.171875-5.40625-2.378906-8.445312.792968-3.039063 3.167968-5.410157 6.203124-6.203126 3.039063-.792968 6.269532.117188 8.449219 2.378907l6.132813 6.136719c2.480468 2.480468 3.222656 6.214843 1.882812 9.457031-1.34375 3.242187-4.507812 5.355469-8.015625 5.355469zm0 0"/><path d="m300.75 240.003906c-2.300781.003906-4.511719-.910156-6.136719-2.542968l-6.132812-6.136719c-3.289063-3.402344-3.242188-8.816407.105469-12.164063 3.347656-3.347656 8.757812-3.394531 12.164062-.105468l6.136719 6.136718c2.480469 2.480469 3.222656 6.214844 1.878906 9.457032-1.34375 3.242187-4.507813 5.355468-8.015625 5.355468zm0 0"/><path d="m225.089844 255.058594c-2.898438-.003906-5.601563-1.453125-7.210938-3.863282-1.605468-2.410156-1.910156-5.460937-.804687-8.140624l3.324219-8.015626c1.171874-2.886718 3.800781-4.925781 6.890624-5.339843 3.085938-.414063 6.160157.859375 8.050782 3.335937 1.890625 2.476563 2.308594 5.777344 1.09375 8.648438l-3.324219 8.015625c-1.34375 3.246093-4.507813 5.359375-8.019531 5.359375zm0 0"/><path d="m274.902344 134.796875c-2.898438-.007813-5.601563-1.457031-7.207032-3.863281-1.609374-2.410156-1.910156-5.464844-.804687-8.140625l3.320313-8.015625c1.835937-4.429688 6.914062-6.53125 11.339843-4.695313 4.429688 1.832031 6.53125 6.910157 4.695313 11.335938l-3.324219 8.019531c-1.339844 3.242188-4.507813 5.359375-8.019531 5.359375zm0 0"/><path d="m195.535156 167.675781c-1.140625-.003906-2.269531-.230469-3.320312-.667969l-8.015625-3.320312c-4.425781-1.835938-6.53125-6.914062-4.695313-11.339844 1.835938-4.429687 6.910156-6.53125 11.339844-4.695312l8.015625 3.324218c3.832031 1.582032 6.007813 5.648438 5.199219 9.714844s-4.378906 6.988282-8.523438 6.984375zm0 0"/><path d="m315.796875 217.488281c-1.140625-.003906-2.265625-.230469-3.316406-.664062l-8.019531-3.324219c-2.886719-1.171875-4.925782-3.800781-5.339844-6.890625-.414063-3.085937.859375-6.160156 3.335937-8.050781 2.480469-1.890625 5.78125-2.308594 8.648438-1.09375l8.015625 3.324218c3.832031 1.582032 6.011718 5.652344 5.199218 9.714844-.808593 4.066406-4.378906 6.988282-8.523437 6.984375zm0 0"/></g><path d="m151.863281 399.1875c-45.53125 0-82.441406-36.910156-82.441406-82.441406s36.910156-82.441406 82.441406-82.441406 82.441407 36.910156 82.441407 82.441406c-.050782 45.507812-36.929688 82.390625-82.441407 82.441406zm0-147.527344c-35.945312 0-65.082031 29.140625-65.082031 65.085938 0 35.945312 29.136719 65.085937 65.082031 65.085937 35.945313 0 65.085938-29.140625 65.085938-65.085937-.039063-35.929688-29.15625-65.046875-65.085938-65.085938zm0 0" fill="#e4c05c"/><path d="m425.21875 316.746094c0 40.738281-33.023438 73.761718-73.761719 73.761718s-73.761719-33.023437-73.761719-73.761718c0-40.738282 33.023438-73.761719 73.761719-73.761719s73.761719 33.023437 73.761719 73.761719zm0 0" fill="#67b9cc"/><path d="m303.730469 338.441406c-4.792969 0-8.679688-3.886718-8.679688-8.679687 0-68.628907 51.546875-69.421875 52.066407-69.421875 4.792968-.019532 8.695312 3.851562 8.710937 8.644531.019531 4.792969-3.851563 8.691406-8.644531 8.710937-3.613282.066407-34.777344 2.117188-34.777344 52.066407 0 4.792969-3.882812 8.679687-8.675781 8.679687zm0 0" fill="#b0d3f0"/><path d="m351.457031 399.1875c-45.53125 0-82.441406-36.910156-82.441406-82.441406s36.910156-82.441406 82.441406-82.441406 82.441407 36.910156 82.441407 82.441406c-.050782 45.507812-36.929688 82.390625-82.441407 82.441406zm0-147.527344c-35.945312 0-65.085937 29.140625-65.085937 65.085938 0 35.945312 29.140625 65.085937 65.085937 65.085937 35.945313 0 65.085938-29.140625 65.085938-65.085937-.039063-35.929688-29.15625-65.046875-65.085938-65.085938zm0 0" fill="#e4c05c"/></svg>