<svg height="511pt" viewBox="-4 1 511 511.99984" width="511pt" xmlns="http://www.w3.org/2000/svg"><path d="m269.515625 199.59375v-138.847656c-.007813-6.90625 2.730469-13.535156 7.617187-18.417969 4.882813-4.886719 11.511719-7.625 18.417969-7.617187h52.066407v34.710937h-43.386719v137.894531zm0 0" fill="#e4c05c"/><path d="m165.382812 134.941406v-48.160156c.007813-6.910156-2.730468-13.535156-7.617187-18.421875-4.882813-4.882813-11.511719-7.621094-18.417969-7.613281h-52.066406v34.710937h43.386719v54.933594zm0 0" fill="#e4c05c"/><path d="m234.804688 138.328125v-129.648437h-34.710938v122.183593zm0 0" fill="#f0c419"/><path d="m80.425781 225.628906h-36.535156c-4.789063.011719-8.664063 3.890625-8.679687 8.675782v17.355468c.015624 4.789063 3.890624 8.664063 8.679687 8.679688h35.753906l10.671875 34.710937h-55.105468c-9.207032.003907-18.035157-3.652343-24.546876-10.164062-6.511718-6.511719-10.167968-15.339844-10.164062-24.546875v-34.710938c-.003906-9.207031 3.652344-18.039062 10.164062-24.550781 6.511719-6.507813 15.339844-10.164063 24.546876-10.164063h57.535156zm0 0" fill="#e4c05c"/><path d="m321.585938 152.472656v334.707032l-17.792969 19.351562c-3.253907 3.488281-7.808594 5.46875-12.582031 5.46875-4.769532 0-9.328126-1.980469-12.582032-5.46875l-60.050781-65.34375-33.0625-36.011719-72.460937-78.796875c-21.957032-21.257812-34.382813-50.492187-34.453126-81.054687 1.019532-64.230469 53.875-115.492188 118.105469-114.546875 26.84375.648437 52.609375 10.691406 72.808594 28.375 8.007813 6.671875 15.28125 14.175781 21.695313 22.390625 4.007812-5.171875 8.359374-10.070313 13.019531-14.664063 5.382812-5.265625 11.1875-10.082031 17.355469-14.40625zm0 0" fill="#7f5b53"/><path d="m330.261719 355.796875c0 33.546875-27.195313 60.746094-60.746094 60.746094-33.546875 0-60.746094-27.199219-60.746094-60.746094 0-33.550781 27.199219-60.746094 60.746094-60.746094 33.550781 0 60.746094 27.195313 60.746094 60.746094zm0 0" fill="#e4c05c"/><path d="m503.820312 245.324219c-.097656 26.683593-9.628906 52.472656-26.898437 72.808593l-18.3125 19.960938-23.515625 25.601562-113.507812 123.484376v-334.707032c17.890624-13.121094 39.273437-20.640625 61.4375-21.609375.867187-.085937 1.824218-.085937 2.691406-.085937 2.429687 0 4.859375.085937 7.203125.261718l64.304687 23.253907c26.179688 19.011719 42.957032 48.328125 46.078125 80.53125.105469.71875.164063 1.445312.175781 2.171875.257813 2.777344.34375 5.554687.34375 8.328125zm0 0" fill="#7f8c8d"/><path d="m319.105469 152.472656v334.707032l-16.339844 19.351562c-2.835937 3.460938-7.078125 5.46875-11.554687 5.46875-4.476563 0-8.714844-2.007812-11.554688-5.46875l-55.148438-65.34375-30.363281-36.011719-66.546875-78.796875c-20.464844-22.015625-31.777344-50.996094-31.640625-81.054687 0-63.261719 48.613281-114.546875 108.464844-114.546875 25.042969.816406 48.882813 10.933594 66.867187 28.375 7.414063 6.738281 14.089844 14.246094 19.921876 22.390625 3.660156-5.144531 7.652343-10.042969 11.957031-14.664063 4.90625-5.234375 10.238281-10.050781 15.9375-14.40625zm0 0" fill="#7f6e5d"/><path d="m486.464844 245.324219c.042968 15.664062-3.015625 31.175781-9.003906 45.648437-3.9375 9.746094-9.21875 18.886719-15.699219 27.160156l-16.816407 19.960938-21.597656 25.601562-104.242187 123.484376v-334.707032c16.054687-12.976562 35.808593-20.539062 56.425781-21.609375.820312-.070312 1.644531-.101562 2.46875-.085937 2.230469 0 4.464844.085937 6.613281.261718l59.054688 23.253907c24.53125 19.925781 39.828125 49.03125 42.320312 80.53125.09375.722656.148438 1.445312.160157 2.171875.238281 2.777344.316406 5.554687.316406 8.328125zm0 0" fill="#95a5a5"/><path d="m391.007812 269.015625c0 14.378906-11.65625 26.035156-26.035156 26.035156-14.375 0-26.03125-11.65625-26.03125-26.035156 0-14.375 11.65625-26.03125 26.03125-26.03125 14.378906 0 26.035156 11.65625 26.035156 26.03125zm0 0" fill="#7f8c8d"/><path d="m486.464844 260.339844c0 14.378906-11.65625 26.03125-26.03125 26.03125-14.378906 0-26.035156-11.652344-26.035156-26.03125s11.65625-26.035156 26.035156-26.035156c14.375 0 26.03125 11.65625 26.03125 26.035156zm0 0" fill="#f3d55b"/><path d="m460.433594 164.882812c0 23.960938-19.429688 43.386719-43.390625 43.386719-23.964844 0-43.390625-19.425781-43.390625-43.386719 0-23.964843 19.425781-43.390624 43.390625-43.390624 23.960937 0 43.390625 19.425781 43.390625 43.390624zm0 0" fill="#f3d55b"/><path d="m330.261719 355.796875c0 33.546875-27.195313 60.746094-60.746094 60.746094-33.546875 0-60.746094-27.199219-60.746094-60.746094 0-33.550781 27.199219-60.746094 60.746094-60.746094 33.550781 0 60.746094 27.195313 60.746094 60.746094zm0 0" fill="#b19046"/><path d="m252.160156 242.984375c0 33.546875-27.195312 60.746094-60.746094 60.746094-33.546874 0-60.746093-27.199219-60.746093-60.746094 0-33.550781 27.199219-60.746094 60.746093-60.746094 33.550782 0 60.746094 27.195313 60.746094 60.746094zm0 0" fill="#b19046"/><path d="m87.28125 112.8125c-4.792969 0-8.679688-3.882812-8.679688-8.675781v-52.070313c0-4.792968 3.886719-8.675781 8.679688-8.675781s8.675781 3.882813 8.675781 8.675781v52.070313c0 4.792969-3.882812 8.675781-8.675781 8.675781zm0 0" fill="#7f5b53"/><path d="m347.617188 86.78125c-4.792969 0-8.675782-3.886719-8.675782-8.679688v-52.066406c0-4.792968 3.882813-8.679687 8.675782-8.679687 4.792968 0 8.679687 3.886719 8.679687 8.679687v52.066406c0 4.792969-3.886719 8.679688-8.679687 8.679688zm0 0" fill="#7f5b53"/><path d="m243.484375 17.355469h-52.070313c-4.792968 0-8.675781-3.886719-8.675781-8.675781 0-4.792969 3.882813-8.679688 8.675781-8.679688h52.070313c4.792969 0 8.675781 3.886719 8.675781 8.679688 0 4.789062-3.882812 8.675781-8.675781 8.675781zm0 0" fill="#7f5b53"/><path d="m269.515625 425.21875c-9.105469.003906-18.125-1.777344-26.546875-5.246094-2.363281-.980468-4.675781-2.132812-6.886719-3.289062-2.8125-1.402344-4.648437-4.210938-4.800781-7.347656-.152344-3.136719 1.402344-6.109376 4.0625-7.777344 2.660156-1.667969 6.015625-1.765625 8.769531-.257813 1.78125.929688 3.636719 1.859375 5.488281 2.636719 12.785157 5.207031 27.105469 5.199219 39.886719-.023438 12.722657-5.316406 22.839844-15.4375 28.152344-28.164062 5.261719-12.789062 5.257813-27.136719-.003906-39.925781-5.320313-12.722657-15.441407-22.839844-28.167969-28.152344-12.792969-5.230469-27.128906-5.226563-39.921875.007813-12.726563 5.316406-22.839844 15.4375-28.152344 28.164062-5.261719 12.789062-5.261719 27.136719.003907 39.921875.753906 1.796875 1.6875 3.652344 2.613281 5.433594 1.507812 2.753906 1.410156 6.109375-.257813 8.769531-1.664062 2.664062-4.640625 4.214844-7.777344 4.0625-3.136718-.152344-5.945312-1.988281-7.34375-4.796875-1.15625-2.214844-2.3125-4.527344-3.273437-6.835937-7.015625-17.019532-7.023437-36.121094-.019531-53.148438 7.070312-17.023438 20.59375-30.550781 37.613281-37.625 17.015625-6.972656 36.09375-6.972656 53.109375 0 17.019531 7.066406 30.550781 20.589844 37.628906 37.609375 6.996094 17.011719 6.996094 36.097656 0 53.109375-7.070312 17.019531-20.59375 30.546875-37.609375 37.625-8.429687 3.46875-17.453125 5.253906-26.566406 5.25zm0 0" fill="#f0c419"/><path d="m269.515625 381.832031c-3.621094.003907-7.207031-.746093-10.519531-2.210937-3.210938-1.410156-5.257813-4.613282-5.1875-8.117188-3.507813.078125-6.710938-1.972656-8.117188-5.1875-4.660156-10.542968-1.835937-22.894531 6.945313-30.363281 8.777343-7.46875 21.425781-8.277344 31.082031-1.988281 9.660156 6.289062 14.035156 18.183594 10.757812 29.230468-3.28125 11.050782-13.433593 18.632813-24.960937 18.636719zm-7.027344-18.832031c1.199219 0 2.386719.25 3.488281.738281 2.691407 1.070313 5.734376.769531 8.164063-.808593 2.429687-1.578126 3.941406-4.238282 4.054687-7.132813-.011718-3.53125-2.164062-6.703125-5.4375-8.023437-3.277343-1.316407-7.023437-.519532-9.480468 2.019531-2.453125 2.539062-3.125 6.3125-1.699219 9.542969.511719 1.152343.761719 2.402343.734375 3.664062zm0 0" fill="#f0c419"/><path d="m269.515625 303.730469c-4.792969 0-8.675781-3.886719-8.675781-8.679688v-8.679687c0-4.789063 3.882812-8.675782 8.675781-8.675782s8.679687 3.886719 8.679687 8.675782v8.679687c0 4.792969-3.886718 8.679688-8.679687 8.679688zm0 0" fill="#f0c419"/><path d="m269.515625 433.898438c-4.792969 0-8.675781-3.886719-8.675781-8.679688v-8.675781c0-4.792969 3.882812-8.679688 8.675781-8.679688s8.679687 3.886719 8.679687 8.679688v8.675781c0 4.792969-3.886718 8.679688-8.679687 8.679688zm0 0" fill="#f0c419"/><path d="m338.941406 364.472656h-8.679687c-4.792969 0-8.675781-3.882812-8.675781-8.675781s3.882812-8.679687 8.675781-8.679687h8.679687c4.792969 0 8.675782 3.886718 8.675782 8.679687s-3.882813 8.675781-8.675782 8.675781zm0 0" fill="#f0c419"/><path d="m208.769531 364.472656h-8.675781c-4.792969 0-8.679688-3.882812-8.679688-8.675781s3.886719-8.679687 8.679688-8.679687h8.675781c4.792969 0 8.679688 3.886718 8.679688 8.679687s-3.886719 8.675781-8.679688 8.675781zm0 0" fill="#f0c419"/><path d="m205.382812 391.046875c-4.144531.007813-7.714843-2.917969-8.527343-6.984375-.808594-4.0625 1.367187-8.132812 5.199219-9.714844l8.015624-3.320312c4.417969-1.792969 9.453126.3125 11.28125 4.71875 1.824219 4.402344-.246093 9.453125-4.636718 11.3125l-8.015625 3.324218c-1.050781.4375-2.179688.660157-3.316407.664063zm0 0" fill="#f0c419"/><path d="m325.644531 341.234375c-4.144531.003906-7.714843-2.917969-8.523437-6.984375-.8125-4.0625 1.367187-8.132812 5.195312-9.714844l8.019532-3.324218c4.425781-1.835938 9.503906.269531 11.335937 4.695312 1.835937 4.429688-.265625 9.503906-4.695313 11.339844l-8.015624 3.320312c-1.050782.4375-2.179688.664063-3.316407.667969zm0 0" fill="#f0c419"/><path d="m296.089844 428.617188c-3.511719.003906-6.679688-2.113282-8.023438-5.359376l-3.320312-8.015624c-1.792969-4.417969.316406-9.453126 4.71875-11.277344 4.40625-1.824219 9.457031.242187 11.3125 4.632812l3.324218 8.015625c1.105469 2.679688.804688 5.730469-.804687 8.140625s-4.3125 3.859375-7.207031 3.863282zm0 0" fill="#f0c419"/><path d="m312.472656 321.519531c-3.507812 0-6.671875-2.117187-8.015625-5.359375-1.34375-3.242187-.601562-6.972656 1.878907-9.453125l6.136718-6.136719c2.175782-2.265624 5.40625-3.171874 8.445313-2.378906 3.039062.792969 5.410156 3.164063 6.203125 6.203125.792968 3.039063-.117188 6.269531-2.378906 8.445313l-6.136719 6.136718c-1.625 1.628907-3.832031 2.542969-6.132813 2.542969zm0 0" fill="#f0c419"/><path d="m318.605469 413.5625c-2.300781.003906-4.511719-.910156-6.136719-2.542969l-6.132812-6.132812c-3.289063-3.40625-3.242188-8.820313.105468-12.167969s8.757813-3.394531 12.164063-.105469l6.136719 6.136719c2.480468 2.480469 3.222656 6.214844 1.878906 9.457031-1.34375 3.242188-4.507813 5.355469-8.015625 5.355469zm0 0" fill="#f0c419"/><path d="m242.945312 428.617188c-2.898437-.003907-5.601562-1.453126-7.210937-3.863282-1.605469-2.410156-1.910156-5.460937-.800781-8.140625l3.320312-8.015625c1.859375-4.390625 6.910156-6.457031 11.3125-4.632812 4.40625 1.824218 6.511719 6.859375 4.722656 11.277344l-3.324218 8.015624c-1.339844 3.246094-4.507813 5.363282-8.019532 5.359376zm0 0" fill="#f0c419"/><path d="m292.757812 308.355469c-2.898437-.003907-5.601562-1.453125-7.207031-3.863281-1.609375-2.410157-1.910156-5.464844-.804687-8.140626l3.320312-8.015624c1.835938-4.429688 6.914063-6.53125 11.339844-4.695313 4.429688 1.832031 6.53125 6.910156 4.695312 11.339844l-3.324218 8.015625c-1.339844 3.246094-4.507813 5.359375-8.019532 5.359375zm0 0" fill="#f0c419"/><path d="m213.390625 341.234375c-1.140625-.003906-2.265625-.230469-3.320313-.667969l-8.015624-3.320312c-2.863282-1.1875-4.878907-3.8125-5.28125-6.886719-.40625-3.074219.863281-6.128906 3.320312-8.015625 2.460938-1.886719 5.742188-2.320312 8.605469-1.132812l8.015625 3.324218c3.832031 1.582032 6.007812 5.652344 5.199218 9.714844-.808593 4.066406-4.378906 6.988281-8.523437 6.984375zm0 0" fill="#f0c419"/><path d="m333.652344 391.046875c-1.140625-.003906-2.265625-.226563-3.316406-.664063l-8.019532-3.324218c-2.886718-1.171875-4.925781-3.800782-5.339844-6.886719-.414062-3.089844.859376-6.164063 3.339844-8.054687 2.476563-1.890626 5.777344-2.304688 8.644532-1.089844l8.015624 3.320312c3.832032 1.582032 6.011719 5.652344 5.199219 9.714844-.808593 4.066406-4.378906 6.992188-8.523437 6.984375zm0 0" fill="#f0c419"/><path d="m261.445312 375.667969-40.265624 62.917969c-2.394532 3.738281-7.234376 5.050781-11.195313 3.035156l-14.835937-10.585938c-11.109376-15.011718-11.28125-15.359375-11.457032-15.707031-2.011718-3.957031-.699218-8.796875 3.039063-11.195313l62.914062-40.265624c1.195313-.667969 2.535157-1.023438 3.90625-1.042969 3.105469-.082031 6.023438 1.496093 7.652344 4.144531 1.625 2.648438 1.71875 5.964844.242187 8.699219zm0 0" fill="#95a5a5"/><path d="m252.679688 368.640625-40.175782 62.914063c-2.40625 3.730468-7.238281 5.039062-11.195312 3.039062-2.128906-1.050781-4.1875-2.238281-6.160156-3.558594-11.109376-15.011718-11.28125-15.359375-11.457032-15.707031-2.011718-3.957031-.699218-8.796875 3.039063-11.195313l62.914062-40.265624c1.195313-.667969 2.535157-1.023438 3.90625-1.042969.433594 1.980469.125 4.050781-.871093 5.816406zm0 0" fill="#bdc3c7"/><g fill="#e4c05c"><path d="m191.414062 312.40625c-38.339843 0-69.421874-31.082031-69.421874-69.421875 0-38.34375 31.082031-69.425781 69.421874-69.425781 38.34375 0 69.425782 31.082031 69.425782 69.425781-.046875 38.320313-31.101563 69.378906-69.425782 69.421875zm0-121.492188c-28.753906 0-52.066406 23.3125-52.066406 52.070313 0 28.753906 23.3125 52.066406 52.066406 52.066406 28.757813 0 52.070313-23.3125 52.070313-52.066406-.03125-28.746094-23.324219-52.039063-52.070313-52.070313zm0 0"/><path d="m191.414062 269.015625c-14.378906 0-26.03125-11.65625-26.03125-26.03125 0-14.378906 11.652344-26.035156 26.03125-26.035156 14.378907 0 26.035157 11.65625 26.035157 26.035156-.015625 14.371094-11.664063 26.015625-26.035157 26.03125zm0-34.710937c-4.792968 0-8.675781 3.886718-8.675781 8.679687s3.882813 8.675781 8.675781 8.675781c4.792969 0 8.679688-3.882812 8.679688-8.675781-.007812-4.792969-3.886719-8.671875-8.679688-8.679687zm0 0"/><path d="m191.414062 190.914062c-4.792968 0-8.675781-3.882812-8.675781-8.675781v-8.679687c0-4.792969 3.882813-8.675782 8.675781-8.675782 4.792969 0 8.679688 3.882813 8.679688 8.675782v8.679687c0 4.792969-3.886719 8.675781-8.679688 8.675781zm0 0"/><path d="m191.414062 321.085938c-4.792968 0-8.675781-3.886719-8.675781-8.679688v-8.675781c0-4.792969 3.882813-8.679688 8.675781-8.679688 4.792969 0 8.679688 3.886719 8.679688 8.679688v8.675781c0 4.792969-3.886719 8.679688-8.679688 8.679688zm0 0"/><path d="m260.839844 251.660156h-8.679688c-4.792968 0-8.675781-3.882812-8.675781-8.675781s3.882813-8.679687 8.675781-8.679687h8.679688c4.792968 0 8.675781 3.886718 8.675781 8.679687s-3.882813 8.675781-8.675781 8.675781zm0 0"/><path d="m130.667969 251.660156h-8.675781c-4.792969 0-8.679688-3.882812-8.679688-8.675781s3.886719-8.679687 8.679688-8.679687h8.675781c4.792969 0 8.679687 3.886718 8.679687 8.679687s-3.886718 8.675781-8.679687 8.675781zm0 0"/><path d="m127.28125 278.234375c-4.144531.003906-7.714844-2.917969-8.527344-6.984375-.808594-4.0625 1.367188-8.132812 5.199219-9.714844l8.015625-3.324218c2.871094-1.214844 6.171875-.796876 8.648438 1.09375 2.476562 1.890624 3.75 4.964843 3.335937 8.050781-.414063 3.089843-2.453125 5.71875-5.339844 6.890625l-8.015625 3.320312c-1.050781.4375-2.179687.664063-3.316406.667969zm0 0"/><path d="m247.542969 228.417969c-4.144531.007812-7.714844-2.917969-8.527344-6.980469-.808594-4.066406 1.371094-8.136719 5.199219-9.71875l8.019531-3.320312c4.425781-1.835938 9.503906.265624 11.335937 4.695312 1.835938 4.425781-.265624 9.503906-4.695312 11.339844l-8.015625 3.320312c-1.050781.4375-2.179687.664063-3.316406.664063zm0 0"/><path d="m168.175781 195.542969c-3.515625 0-6.679687-2.117188-8.023437-5.359375l-3.324219-8.019532c-1.183594-2.863281-.753906-6.144531 1.132813-8.601562 1.886718-2.460938 4.945312-3.726562 8.019531-3.324219 3.074219.40625 5.695312 2.417969 6.882812 5.28125l3.324219 8.019531c1.105469 2.675782.804688 5.730469-.804688 8.140626-1.609374 2.40625-4.3125 3.855468-7.207031 3.863281zm0 0"/><path d="m142.328125 300.75c-3.511719 0-6.675781-2.113281-8.019531-5.355469-1.339844-3.242187-.597656-6.976562 1.882812-9.457031l6.136719-6.136719c3.402344-3.289062 8.816406-3.242187 12.164063.105469 3.347656 3.347656 3.394531 8.761719.105468 12.164062l-6.136718 6.136719c-1.625 1.628907-3.832032 2.546875-6.132813 2.542969zm0 0"/><path d="m234.371094 208.707031c-3.507813-.003906-6.671875-2.117187-8.015625-5.359375-1.34375-3.242187-.601563-6.972656 1.878906-9.457031l6.136719-6.136719c2.175781-2.261718 5.40625-3.171875 8.445312-2.378906 3.039063.796875 5.410156 3.167969 6.203125 6.207031.792969 3.039063-.117187 6.269531-2.378906 8.445313l-6.136719 6.136718c-1.625 1.628907-3.832031 2.542969-6.132812 2.542969zm0 0"/><path d="m148.460938 208.707031c-2.304688 0-4.511719-.914062-6.136719-2.542969l-6.136719-6.136718c-2.261719-2.175782-3.171875-5.40625-2.378906-8.445313.792968-3.039062 3.167968-5.410156 6.207031-6.203125 3.035156-.792968 6.265625.117188 8.445313 2.378906l6.132812 6.136719c2.480469 2.480469 3.222656 6.214844 1.882812 9.457031-1.34375 3.242188-4.507812 5.355469-8.015624 5.355469zm0 0"/><path d="m164.84375 315.804688c-2.898438-.003907-5.601562-1.453126-7.210938-3.863282-1.605468-2.410156-1.910156-5.464844-.804687-8.140625l3.324219-8.015625c1.859375-4.390625 6.910156-6.460937 11.3125-4.636718 4.40625 1.828124 6.511718 6.863281 4.722656 11.28125l-3.324219 8.015624c-1.339843 3.246094-4.507812 5.359376-8.019531 5.359376zm0 0"/><path d="m214.65625 195.542969c-2.898438-.007813-5.601562-1.457031-7.207031-3.863281-1.609375-2.410157-1.910157-5.464844-.804688-8.140626l3.320313-8.019531c1.1875-2.863281 3.8125-4.875 6.886718-5.28125 3.074219-.402343 6.128907.863281 8.015626 3.324219 1.886718 2.457031 2.320312 5.738281 1.132812 8.601562l-3.324219 8.019532c-1.339843 3.242187-4.507812 5.359375-8.019531 5.359375zm0 0"/><path d="m135.289062 228.417969c-1.140624 0-2.265624-.226563-3.320312-.664063l-8.015625-3.320312c-4.425781-1.835938-6.53125-6.914063-4.695313-11.339844 1.835938-4.429688 6.910157-6.53125 11.339844-4.695312l8.015625 3.320312c3.832031 1.582031 6.007813 5.652344 5.199219 9.71875-.808594 4.0625-4.378906 6.988281-8.523438 6.980469zm0 0"/><path d="m255.550781 278.234375c-1.140625-.003906-2.265625-.230469-3.316406-.667969l-8.019531-3.320312c-2.886719-1.171875-4.925782-3.800782-5.339844-6.890625-.414062-3.085938.859375-6.160157 3.335938-8.050781 2.480468-1.890626 5.78125-2.308594 8.648437-1.09375l8.015625 3.324218c3.832031 1.582032 6.011719 5.652344 5.199219 9.714844-.808594 4.066406-4.378907 6.988281-8.523438 6.984375zm0 0"/></g><path d="m364.972656 308.414062c-21.722656-.019531-39.324218-17.644531-39.316406-39.371093.007812-21.726563 17.617188-39.335938 39.34375-39.34375 21.726562-.007813 39.351562 17.589843 39.371094 39.316406.007812 2.46875-.21875 4.933594-.671875 7.359375-.582031 3.042969-2.742188 5.546875-5.671875 6.566406-2.929688 1.019532-6.179688.402344-8.523438-1.625-2.347656-2.027344-3.4375-5.152344-2.855468-8.199218 1.324218-7.160157-.964844-14.511719-6.113282-19.660157-8.734375-8.246093-22.386718-8.246093-31.121094 0-4.148437 4.113281-6.480468 9.714844-6.480468 15.558594s2.332031 11.445313 6.480468 15.5625c5.132813 5.113281 12.441407 7.394531 19.574219 6.113281 3.042969-.582031 6.167969.507813 8.195313 2.851563 2.027344 2.347656 2.648437 5.597656 1.628906 8.527343-1.019531 2.929688-3.523438 5.089844-6.570312 5.671876-2.398438.449218-4.828126.675781-7.269532.671874zm0 0" fill="#5e5f62"/><path d="m364.988281 247.050781c-4.027343.007813-7.53125-2.761719-8.457031-6.679687-.929688-3.917969.960938-7.960938 4.566406-9.761719l20.453125-10.226563c2.773438-1.386718 6.078125-1.191406 8.664063.519532 2.585937 1.707031 4.066406 4.667968 3.882812 7.761718-.1875 3.09375-2.011718 5.855469-4.785156 7.242188l-20.453125 10.230469c-1.199219.601562-2.527344.914062-3.871094.914062zm0 0" fill="#5e5f62"/><path d="m344.535156 318.640625c-4.027344.003906-7.53125-2.761719-8.457031-6.679687-.929687-3.921876.964844-7.960938 4.566406-9.761719l20.453125-10.230469c4.285156-2.140625 9.5-.40625 11.644532 3.882812 2.144531 4.289063.40625 9.5-3.882813 11.644532l-20.453125 10.230468c-1.203125.601563-2.527344.914063-3.871094.914063zm0 0" fill="#5e5f62"/><path d="m343.285156 256.042969c-2.789062-.003907-5.40625-1.347657-7.039062-3.609375-1.628906-2.265625-2.074219-5.171875-1.195313-7.820313l7.234375-21.695312c1.515625-4.546875 6.429688-7 10.976563-5.484375s7.003906 6.429687 5.488281 10.976562l-7.234375 21.695313c-1.179687 3.542969-4.496094 5.933593-8.230469 5.9375zm0 0" fill="#5e5f62"/><path d="m334.304688 277.734375c-3.289063.003906-6.300782-1.855469-7.769532-4.796875l-10.226562-20.453125c-2.144532-4.289063-.40625-9.503906 3.882812-11.648437 4.285156-2.140626 9.5-.40625 11.644532 3.882812l10.222656 20.453125c1.34375 2.6875 1.203125 5.882813-.375 8.441406-1.582032 2.558594-4.371094 4.117188-7.378906 4.117188zm0 0" fill="#5e5f62"/><path d="m343.285156 299.433594c-.933594 0-1.863281-.152344-2.746094-.449219l-21.695312-7.234375c-4.546875-1.515625-7.003906-6.433594-5.488281-10.980469s6.433593-7 10.980469-5.484375l21.695312 7.230469c4.042969 1.34375 6.515625 5.421875 5.832031 9.628906-.679687 4.207031-4.316406 7.296875-8.578125 7.289063zm0 0" fill="#5e5f62"/><path d="m408.367188 263.269531c-.929688 0-1.855469-.148437-2.738282-.449219l-21.695312-7.226562c-2.980469-.949219-5.222656-3.429688-5.863282-6.488281-.640624-3.0625.414063-6.234375 2.761719-8.296875 2.351563-2.066406 5.628907-2.707032 8.582031-1.679688l21.695313 7.226563c4.046875 1.339843 6.519531 5.421875 5.835937 9.625-.679687 4.207031-4.316406 7.296875-8.578124 7.289062zm0 0" fill="#5e5f62"/><path d="m366.289062 270.363281c6.777344-6.777343 17.765626-6.777343 24.542969 0l78.261719 78.261719c6.777344 6.777344 6.777344 17.765625 0 24.542969-6.777344 6.78125-17.765625 6.78125-24.542969 0l-78.261719-78.261719c-6.78125-6.777344-6.78125-17.765625 0-24.542969zm0 0" fill="#f0c419"/><path d="m366.289062 270.363281c6.777344-6.777343 17.765626-6.777343 24.542969 0l69.582031 69.582031c6.78125 6.777344 6.78125 17.769532 0 24.546876-6.777343 6.777343-17.765624 6.777343-24.542968 0l-69.582032-69.585938c-6.78125-6.777344-6.78125-17.765625 0-24.542969zm0 0" fill="#f3d55b"/><path d="m417.042969 215.214844c-27.796875 0-50.332031-22.535156-50.332031-50.332032 0-27.800781 22.535156-50.332031 50.332031-50.332031s50.332031 22.53125 50.332031 50.332031c-.03125 27.785157-22.546875 50.300782-50.332031 50.332032zm0-83.308594c-18.214844 0-32.976563 14.761719-32.976563 32.976562 0 18.210938 14.761719 32.976563 32.976563 32.976563 18.210937 0 32.976562-14.765625 32.976562-32.976563-.019531-18.207031-14.773437-32.957031-32.976562-32.976562zm0 0" fill="#f0c419"/><path d="m417.042969 225.628906c-4.792969 0-8.679688-3.886718-8.679688-8.679687v-10.414063c0-4.792968 3.886719-8.675781 8.679688-8.675781s8.675781 3.882813 8.675781 8.675781v10.414063c0 4.792969-3.882812 8.679687-8.675781 8.679687zm0 0" fill="#f0c419"/><path d="m417.042969 131.90625c-4.792969 0-8.679688-3.886719-8.679688-8.679688v-10.414062c0-4.792969 3.886719-8.675781 8.679688-8.675781s8.675781 3.882812 8.675781 8.675781v10.414062c0 4.792969-3.882812 8.679688-8.675781 8.679688zm0 0" fill="#f0c419"/><path d="m375.386719 173.558594h-10.414063c-4.789062 0-8.675781-3.882813-8.675781-8.675782 0-4.792968 3.886719-8.679687 8.675781-8.679687h10.414063c4.792969 0 8.679687 3.886719 8.679687 8.679687 0 4.792969-3.886718 8.675782-8.679687 8.675782zm0 0" fill="#f0c419"/><path d="m469.109375 173.558594h-10.414063c-4.792968 0-8.675781-3.882813-8.675781-8.675782 0-4.792968 3.882813-8.679687 8.675781-8.679687h10.414063c4.792969 0 8.679687 3.886719 8.679687 8.679687 0 4.792969-3.886718 8.675782-8.679687 8.675782zm0 0" fill="#f0c419"/><path d="m380.222656 210.378906c-3.507812-.003906-6.671875-2.117187-8.015625-5.359375-1.34375-3.242187-.601562-6.972656 1.882813-9.457031l7.363281-7.363281c2.183594-2.238281 5.402344-3.128907 8.425781-2.332031 3.023438.792968 5.382813 3.15625 6.179688 6.179687s-.09375 6.242187-2.335938 8.421875l-7.363281 7.367188c-1.625 1.628906-3.832031 2.542968-6.136719 2.542968zm0 0" fill="#f0c419"/><path d="m446.496094 144.105469c-3.511719 0-6.675782-2.113281-8.015625-5.355469-1.34375-3.242188-.601563-6.976562 1.878906-9.457031l7.363281-7.363281c3.390625-3.390626 8.886719-3.390626 12.273438-.003907 3.390625 3.390625 3.390625 8.882813.003906 12.273438l-7.367188 7.363281c-1.625 1.632812-3.835937 2.546875-6.136718 2.542969zm0 0" fill="#f0c419"/><path d="m387.589844 144.105469c-2.304688.003906-4.511719-.910157-6.136719-2.542969l-7.363281-7.363281c-3.390625-3.386719-3.390625-8.882813-.003906-12.273438 3.390624-3.386719 8.886718-3.390625 12.273437 0l7.363281 7.363281c2.484375 2.480469 3.226563 6.214844 1.882813 9.457032-1.34375 3.242187-4.507813 5.355468-8.015625 5.359375zm0 0" fill="#f0c419"/><path d="m453.859375 210.378906c-2.300781 0-4.507813-.914062-6.136719-2.542968l-7.363281-7.367188c-3.316406-3.398438-3.28125-8.832031.078125-12.191406s8.792969-3.394532 12.195312-.078125l7.363282 7.363281c2.480468 2.484375 3.222656 6.214844 1.878906 9.457031-1.339844 3.242188-4.503906 5.355469-8.015625 5.359375zm0 0" fill="#f0c419"/><path d="m425.71875 164.882812c0 4.792969-3.882812 8.675782-8.675781 8.675782s-8.679688-3.882813-8.679688-8.675782c0-4.792968 3.886719-8.679687 8.679688-8.679687s8.675781 3.886719 8.675781 8.679687zm0 0" fill="#5e5f62"/><path d="m460.378906 299.078125c-15.664062-.023437-29.769531-9.472656-35.75-23.949219-5.980468-14.476562-2.65625-31.125 8.425782-42.195312 11.078124-11.070313 27.734374-14.375 42.203124-8.382813 17.082032 7.078125 26.78125 25.242188 23.160157 43.375-3.617188 18.132813-19.550781 31.175781-38.039063 31.152344zm.085938-60.121094c-11-.011719-20.214844 8.324219-21.300782 19.269531-1.085937 10.945313 6.308594 20.925782 17.09375 23.078126 10.785157 2.152343 21.445313-4.230469 24.640626-14.753907 3.195312-10.527343-2.113282-21.757812-12.277344-25.964843-2.585938-1.074219-5.359375-1.628907-8.160156-1.628907zm0 0" fill="#e4c05c"/><path d="m432.65625 257.515625c-1.136719 0-2.261719-.226563-3.3125-.664063l-6.941406-2.871093c-4.335938-1.890625-6.359375-6.90625-4.554688-11.273438 1.808594-4.371093 6.785156-6.488281 11.1875-4.761719l6.941406 2.871094c3.832032 1.582032 6.007813 5.652344 5.199219 9.714844-.808593 4.066406-4.375 6.992188-8.519531 6.984375zm0 0" fill="#e4c05c"/><path d="m446.050781 303.734375c-2.894531-.007813-5.597656-1.457031-7.203125-3.867187-1.609375-2.40625-1.914062-5.457032-.808594-8.132813l2.871094-6.945313c1.898438-4.320312 6.902344-6.335937 11.265625-4.53125 4.363281 1.804688 6.480469 6.769532 4.769531 11.167969l-2.875 6.941407c-1.339843 3.25-4.507812 5.367187-8.019531 5.367187zm0 0" fill="#e4c05c"/><path d="m471.933594 241.246094c-2.898438-.007813-5.597656-1.457032-7.207032-3.863282-1.605468-2.40625-1.910156-5.457031-.808593-8.136718l2.875-6.941406c1.890625-4.335938 6.902343-6.359376 11.273437-4.550782s6.488282 6.785156 4.761719 11.1875l-2.875 6.941406c-1.339844 3.246094-4.507813 5.363282-8.019531 5.363282zm0 0" fill="#e4c05c"/><path d="m448.933594 241.246094c-3.515625 0-6.679688-2.117188-8.023438-5.363282l-2.871094-6.941406c-1.726562-4.402344.390626-9.378906 4.757813-11.1875 4.371094-1.808594 9.386719.214844 11.273437 4.550782l2.875 6.941406c1.101563 2.679687.800782 5.730468-.808593 8.136718s-4.308594 3.855469-7.203125 3.863282zm0 0" fill="#e4c05c"/><path d="m425.722656 283.398438c-4.140625.003906-7.710937-2.921876-8.519531-6.984376-.808594-4.066406 1.371094-8.132812 5.199219-9.714843l6.941406-2.871094c4.402344-1.714844 9.363281.402344 11.167969 4.765625 1.808593 4.363281-.207031 9.371094-4.53125 11.265625l-6.941407 2.875c-1.050781.4375-2.175781.660156-3.316406.664063zm0 0" fill="#e4c05c"/><path d="m469.109375 260.339844c0 4.792968-3.882813 8.675781-8.675781 8.675781-4.792969 0-8.679688-3.882813-8.679688-8.675781 0-4.792969 3.886719-8.679688 8.679688-8.679688 4.792968 0 8.675781 3.886719 8.675781 8.679688zm0 0" fill="#5e5f62"/><path d="m304.230469 208.269531c0 4.792969-3.886719 8.679688-8.679688 8.679688s-8.679687-3.886719-8.679687-8.679688 3.886718-8.675781 8.679687-8.675781 8.679688 3.882812 8.679688 8.675781zm0 0" fill="#7f5b53"/><path d="m304.230469 234.304688c0 4.792968-3.886719 8.679687-8.679688 8.679687s-8.679687-3.886719-8.679687-8.679687c0-4.792969 3.886718-8.675782 8.679687-8.675782s8.679688 3.882813 8.679688 8.675782zm0 0" fill="#7f5b53"/><path d="m304.230469 260.339844c0 4.792968-3.886719 8.675781-8.679688 8.675781s-8.679687-3.882813-8.679687-8.675781c0-4.792969 3.886718-8.679688 8.679687-8.679688s8.679688 3.886719 8.679688 8.679688zm0 0" fill="#7f5b53"/><path d="m364.972656 407.863281c0 4.792969-3.882812 8.679688-8.675781 8.679688s-8.679687-3.886719-8.679687-8.679688 3.886718-8.675781 8.679687-8.675781 8.675781 3.882812 8.675781 8.675781zm0 0" fill="#7f8c8d"/><path d="m347.617188 425.21875c0 4.792969-3.882813 8.679688-8.675782 8.679688-4.792968 0-8.679687-3.886719-8.679687-8.679688s3.886719-8.675781 8.679687-8.675781c4.792969 0 8.675782 3.882812 8.675782 8.675781zm0 0" fill="#7f8c8d"/><path d="m382.332031 390.507812c0 4.792969-3.886719 8.679688-8.679687 8.679688-4.792969 0-8.679688-3.886719-8.679688-8.679688 0-4.792968 3.886719-8.675781 8.679688-8.675781 4.792968 0 8.679687 3.882813 8.679687 8.675781zm0 0" fill="#7f8c8d"/><path d="m399.6875 373.152344c0 4.792968-3.886719 8.679687-8.679688 8.679687-4.792968 0-8.675781-3.886719-8.675781-8.679687 0-4.792969 3.882813-8.679688 8.675781-8.679688 4.792969 0 8.679688 3.886719 8.679688 8.679688zm0 0" fill="#7f8c8d"/><path d="m417.042969 355.796875c0 4.792969-3.886719 8.675781-8.679688 8.675781s-8.675781-3.882812-8.675781-8.675781 3.882812-8.679687 8.675781-8.679687 8.679688 3.886718 8.679688 8.679687zm0 0" fill="#7f8c8d"/><path d="m304.230469 477.289062c0 4.792969-3.886719 8.675782-8.679688 8.675782s-8.679687-3.882813-8.679687-8.675782c0-4.792968 3.886718-8.679687 8.679687-8.679687s8.679688 3.886719 8.679688 8.679687zm0 0" fill="#7f5b53"/><path d="m304.230469 451.253906c0 4.792969-3.886719 8.679688-8.679688 8.679688s-8.679687-3.886719-8.679687-8.679688c0-4.792968 3.886718-8.675781 8.679687-8.675781s8.679688 3.882813 8.679688 8.675781zm0 0" fill="#7f5b53"/></svg>