<svg height="90pt" viewBox="-71 0 512 512" width="90pt" xmlns="http://www.w3.org/2000/svg"><path d="m344.277344 450.207031v35.308594h-317.792969v-35.308594c.027344-9.738281 7.914063-17.625 17.652344-17.65625h282.484375c9.738281.03125 17.625 7.917969 17.65625 17.65625zm0 0" fill="#e57e25"/><path d="m344.277344 26.484375v35.308594c-.03125 9.738281-7.917969 17.625-17.65625 17.65625h-282.484375c-9.738281-.03125-17.625-7.917969-17.652344-17.65625v-35.308594zm0 0" fill="#e57e25"/><path d="m212.625 255.605469c-.21875 0-.394531.175781-.394531.394531s.175781.394531.394531.394531c59.453125 4.988281 105.167969 54.699219 105.167969 114.363281v79.449219h-264.828125v-79.449219c0-59.664062 45.714844-109.375 105.167968-114.363281.21875 0 .398438-.175781.398438-.394531s-.179688-.394531-.398438-.394531c-59.453124-4.988281-105.167968-54.699219-105.167968-114.363281v-79.449219h264.828125v79.449219c0 59.664062-45.714844 109.375-105.167969 114.363281zm0 0" fill="#2fa8cc"/><path d="m220.691406 255.605469c-.199218.027343-.347656.195312-.347656.394531s.148438.367188.347656.394531c51.039063 4.871094 79.445313 54.210938 79.445313 114.363281v61.792969h-229.515625v-61.792969c0-60.152343 28.40625-109.492187 79.449218-114.363281.195313-.027343.34375-.195312.34375-.394531s-.148437-.367188-.34375-.394531c-51.042968-4.871094-79.449218-54.210938-79.449218-114.363281v-61.792969h229.515625v61.792969c0 60.152343-28.40625 109.492187-79.445313 114.363281zm0 0" fill="#67b9cc"/><path d="m240.464844 441.378906c-3.398438 0-6.488282-1.949218-7.957032-5.011718s-1.050781-6.695313 1.078126-9.339844c8.835937-10.925782 13.632812-24.5625 13.585937-38.613282 0-34.128906-27.664063-61.792968-61.792969-61.792968s-61.792968 27.664062-61.792968 61.792968c-.046876 14.050782 4.757812 27.6875 13.59375 38.613282 1.976562 2.457031 2.488281 5.785156 1.34375 8.722656-1.144532 2.941406-3.769532 5.046875-6.886719 5.527344-3.117188.480468-6.253907-.738282-8.226563-3.199219-26.054687-32.476563-22.617187-79.554687 7.875-107.90625 30.492188-28.347656 77.695313-28.347656 108.191406 0 30.492188 28.351563 33.925782 75.429687 7.871094 107.90625-1.671875 2.089844-4.207031 3.304687-6.882812 3.300781zm0 0" fill="#f0c419"/><path d="m185.378906 326.621094c-4.875 0-8.828125-3.953125-8.828125-8.828125v-26.484375c0-4.875 3.953125-8.824219 8.828125-8.824219s8.828125 3.949219 8.828125 8.824219v26.484375c0 4.875-3.953125 8.828125-8.828125 8.828125zm0 0" fill="#f0c419"/><path d="m114.757812 397.242188h-26.480468c-4.875 0-8.828125-3.953126-8.828125-8.828126s3.953125-8.828124 8.828125-8.828124h26.480468c4.875 0 8.828126 3.953124 8.828126 8.828124s-3.953126 8.828126-8.828126 8.828126zm0 0" fill="#f0c419"/><path d="m282.484375 397.242188h-26.484375c-4.875 0-8.828125-3.953126-8.828125-8.828126s3.953125-8.828124 8.828125-8.828124h26.484375c4.875 0 8.824219 3.953124 8.824219 8.828124s-3.949219 8.828126-8.824219 8.828126zm0 0" fill="#f0c419"/><path d="m135.445312 347.304688c-2.34375.003906-4.589843-.925782-6.242187-2.585938l-18.730469-18.726562c-2.277344-2.222657-3.183594-5.496094-2.371094-8.570313.808594-3.074219 3.210938-5.476563 6.285157-6.289063 3.078125-.808593 6.351562.097657 8.570312 2.375l18.726563 18.730469c2.523437 2.523438 3.277344 6.320313 1.914062 9.617188-1.367187 3.300781-4.585937 5.449219-8.15625 5.449219zm0 0" fill="#f0c419"/><path d="m235.3125 347.304688c-3.570312 0-6.785156-2.148438-8.152344-5.449219-1.367187-3.296875-.613281-7.09375 1.914063-9.617188l18.726562-18.730469c2.222657-2.277343 5.496094-3.183593 8.570313-2.375 3.074218.8125 5.476562 3.214844 6.289062 6.289063.808594 3.074219-.097656 6.347656-2.375 8.570313l-18.730468 18.726562c-1.652344 1.65625-3.898438 2.589844-6.242188 2.585938zm0 0" fill="#f0c419"/><path d="m185.378906 432.550781c-24.375 0-44.136718-19.761719-44.136718-44.136719 0-24.378906 19.761718-44.136718 44.136718-44.136718 24.378906 0 44.136719 19.757812 44.136719 44.136718-.027344 24.363282-19.773437 44.109376-44.136719 44.136719zm0-70.621093c-14.625 0-26.480468 11.859374-26.480468 26.484374s11.855468 26.484376 26.480468 26.484376 26.484375-11.859376 26.484375-26.484376c-.015625-14.621093-11.863281-26.46875-26.484375-26.484374zm0 0" fill="#f3d55b"/><g fill="#f0c419"><path d="m194.207031 388.414062c0 4.875-3.953125 8.828126-8.828125 8.828126s-8.828125-3.953126-8.828125-8.828126 3.953125-8.828124 8.828125-8.828124 8.828125 3.953124 8.828125 8.828124zm0 0"/><path d="m185.378906 203.035156c-30.554687.015625-58.40625-17.503906-71.628906-45.046875-13.222656-27.546875-9.464844-60.238281 9.660156-84.066406 3.050782-3.800781 8.609375-4.410156 12.410156-1.359375 3.804688 3.050781 4.414063 8.609375 1.359376 12.410156-8.835938 10.925782-13.640626 24.5625-13.59375 38.613282 0 34.128906 27.664062 61.792968 61.792968 61.792968s61.792969-27.664062 61.792969-61.792968c.046875-14.050782-4.753906-27.6875-13.59375-38.613282-3.050781-3.800781-2.445313-9.359375 1.359375-12.410156 3.800781-3.050781 9.359375-2.441406 12.410156 1.359375 19.144532 23.824219 22.910156 56.523437 9.683594 84.074219-13.222656 27.554687-41.089844 45.070312-71.652344 45.039062zm0 0"/><path d="m185.378906 229.515625c-4.875 0-8.828125-3.949219-8.828125-8.824219v-26.484375c0-4.875 3.953125-8.828125 8.828125-8.828125s8.828125 3.953125 8.828125 8.828125v26.484375c0 4.875-3.953125 8.824219-8.828125 8.824219zm0 0"/><path d="m114.757812 132.414062h-26.480468c-4.875 0-8.828125-3.953124-8.828125-8.828124s3.953125-8.828126 8.828125-8.828126h26.480468c4.875 0 8.828126 3.953126 8.828126 8.828126s-3.953126 8.828124-8.828126 8.828124zm0 0"/><path d="m282.484375 132.414062h-26.484375c-4.875 0-8.828125-3.953124-8.828125-8.828124s3.953125-8.828126 8.828125-8.828126h26.484375c4.875 0 8.824219 3.953126 8.824219 8.828126s-3.949219 8.828124-8.824219 8.828124zm0 0"/><path d="m116.714844 201.078125c-3.570313 0-6.789063-2.152344-8.152344-5.449219-1.367188-3.300781-.613281-7.09375 1.910156-9.621094l18.730469-18.726562c3.46875-3.304688 8.941406-3.238281 12.332031.152344 3.386719 3.386718 3.453125 8.859375.148438 12.328125l-18.730469 18.730469c-1.652344 1.65625-3.898437 2.585937-6.238281 2.585937zm0 0"/><path d="m254.042969 201.078125c-2.339844.003906-4.585938-.929687-6.242188-2.585937l-18.726562-18.730469c-3.304688-3.46875-3.238281-8.941407.152343-12.328125 3.386719-3.390625 8.859376-3.457032 12.328126-.152344l18.730468 18.730469c2.523438 2.523437 3.277344 6.320312 1.914063 9.617187-1.367188 3.300782-4.585938 5.449219-8.15625 5.449219zm0 0"/></g><path d="m185.378906 167.722656c-24.375 0-44.136718-19.757812-44.136718-44.136718 0-24.375 19.761718-44.136719 44.136718-44.136719 24.378906 0 44.136719 19.761719 44.136719 44.136719-.027344 24.363281-19.773437 44.109374-44.136719 44.136718zm0-70.621094c-14.625 0-26.480468 11.859376-26.480468 26.484376s11.855468 26.484374 26.480468 26.484374 26.484375-11.859374 26.484375-26.484374c-.015625-14.617188-11.863281-26.464844-26.484375-26.484376zm0 0" fill="#f3d55b"/><path d="m194.207031 123.585938c0 4.875-3.953125 8.828124-8.828125 8.828124s-8.828125-3.953124-8.828125-8.828124 3.953125-8.828126 8.828125-8.828126 8.828125 3.953126 8.828125 8.828126zm0 0" fill="#f0c419"/><path d="m17.65625 467.863281h335.445312c9.753907 0 17.65625 7.902344 17.65625 17.652344v17.65625c0 4.875-3.953124 8.828125-8.828124 8.828125h-353.101563c-4.875 0-8.828125-3.953125-8.828125-8.828125v-17.65625c0-9.75 7.90625-17.652344 17.65625-17.652344zm0 0" fill="#804537"/><path d="m35.308594 467.863281h300.140625c9.75 0 17.652343 7.902344 17.652343 17.652344v26.484375h-335.445312v-26.484375c0-9.75 7.902344-17.652344 17.652344-17.652344zm0 0" fill="#805333"/><path d="m8.828125 0h353.101563c4.875 0 8.828124 3.953125 8.828124 8.828125v17.65625c0 9.75-7.902343 17.652344-17.65625 17.652344h-335.445312c-9.75 0-17.65625-7.902344-17.65625-17.652344v-17.65625c0-4.875 3.953125-8.828125 8.828125-8.828125zm0 0" fill="#804537"/><path d="m17.65625 0h335.445312v26.484375c0 9.75-7.902343 17.652344-17.652343 17.652344h-300.140625c-9.75 0-17.652344-7.902344-17.652344-17.652344zm0 0" fill="#805333"/><path d="m326.621094 450.207031v17.65625h-282.484375v-17.65625c-.480469-9.1875 6.515625-17.054687 15.695312-17.65625h251.09375c9.183594.601563 16.175781 8.46875 15.695313 17.65625zm0 0" fill="#f29c1f"/><path d="m326.621094 44.136719v17.65625c.480468 9.1875-6.511719 17.054687-15.695313 17.65625h-251.09375c-9.179687-.601563-16.175781-8.46875-15.695312-17.65625v-17.65625zm0 0" fill="#f29c1f"/></svg>