<svg height="90pt" viewBox="0 -4 512.00432 512" width="90pt" xmlns="http://www.w3.org/2000/svg"><path d="m475.296875 152.566406c6.246094-7.203125 10.671875-24.214844 10.671875-44.085937 0-26.382813-8.675781-47.730469-17.355469-47.730469-8.675781 0-17.355469 21.347656-17.355469 47.730469-.46875 13.441406 2.082032 26.8125 7.464844 39.136719" fill="#fdd7ad"/><path d="m475.296875 211.921875c6.246094 7.203125 10.671875 24.210937 10.671875 44.085937 0 26.378907-8.675781 47.726563-17.355469 47.726563-8.675781 0-17.355469-21.347656-17.355469-47.726563-.46875-13.441406 2.082032-26.816406 7.464844-39.140624" fill="#fdd7ad"/><path d="m397.367188 321.003906v.085938c.175781 1.464844-.097657 2.945312-.78125 4.253906-5.0625 8.328125-6.414063 18.398438-3.730469 27.769531.902343 2.671875.441406 5.617188-1.238281 7.882813-1.675782 2.265625-4.359376 3.570312-7.179688 3.484375-26.378906-.78125-81.136719-7.808594-107.085938-51.285157.695313-.089843 1.390626-.261718 2.171876-.433593 11.453124-2.777344 13.796874-48.425781 24.210937-52.417969 36.097656-13.882812 74.023437 7.289062 92.246094-17.875-15.621094 41.828125-5.554688 65.519531.085937 74.457031.855469 1.1875 1.308594 2.613281 1.300782 4.078125zm0 0" fill="#e4c05c"/><path d="m397.367188 43.394531v.089844c.007812 1.460937-.445313 2.890625-1.300782 4.078125-5.640625 8.9375-15.707031 32.628906-.085937 74.457031-11.890625-16.488281-45.992188 11.539063-66.214844-.523437-19.523437-11.628906-25.078125-63.695313-50.242187-69.769532-.78125-.171874-1.476563-.347656-2.171876-.433593 25.949219-43.476563 80.707032-50.507813 107.085938-51.2851565 2.820312-.0859375 5.503906 1.2148435 7.179688 3.4804685 1.679687 2.269531 2.140624 5.214844 1.238281 7.886719-2.683594 9.371094-1.332031 19.4375 3.730469 27.769531.683593 1.304688.957031 2.789063.78125 4.25zm0 0" fill="#e4c05c"/><path d="m225.632812 451.261719v-156.203125h-34.714843v155.082031zm0 0" fill="#bdc3c7"/><path d="m216.953125 451.261719v-156.203125h-17.355469v155.082031zm0 0" fill="#95a5a5"/><path d="m416.546875 182.242188c0 1.824218-.085937 3.558593-.261719 5.382812-1.296875 19.863281-8.351562 38.921875-20.304687 54.84375-23.429688 32.457031-65.257813 57.882812-116.457031 70.292969-.78125.171875-1.476563.34375-2.171876.433593-22.640624 5.296876-45.824218 7.945313-69.074218 7.894532-53.40625 1.132812-105.90625-13.867188-150.652344-43.042969-1.820312-1.300781-3.644531-2.601563-5.464844-3.992187-12.410156-9.171876-23.328125-20.207032-32.371094-32.714844-6.808593-9.453125-12.054687-19.945313-15.53125-31.066406-2.550781-8.363282-3.953124-17.035157-4.1679682-25.773438-.0742188-.75-.1015626-1.503906-.08593755-2.257812-.01562505-.433594.01562495-.871094.08593755-1.300782-.0429688-.316406-.0429688-.636718 0-.953125v-.433593c.0156252-.410157.0742182-.820313.1757812-1.214844-.101563.335937-.160156.6875-.1757812 1.039062 0-1.738281.0859372-3.476562.2617182-5.207031 3.933594-31.691406 20.683594-60.386719 46.339844-79.402344 38.183594-31.414062 96.414063-51.375 161.585938-51.375 23.25-.050781 46.433594 2.601563 69.074218 7.898438.695313.085937 1.390626.261719 2.171876.433593 51.199218 12.410157 93.027343 37.835938 116.457031 70.292969 11.953125 15.917969 19.007812 34.976563 20.304687 54.84375.175782 1.820313.261719 3.558594.261719 5.378907zm0 0" fill="#f3d55b"/><path d="m.0898438 179.378906c.0156252-.351562.0742182-.703125.1757812-1.039062-.101563.394531-.160156.804687-.1757812 1.214844zm0 0" fill="#f18d46"/><path d="m.0898438 179.378906c.0156252-.351562.0742182-.703125.1757812-1.039062-.101563.394531-.160156.804687-.1757812 1.214844zm0 0" fill="#d25627"/><path d="m381.835938 164.886719h86.777343v34.710937h-86.777343zm0 0" fill="#bdc3c7"/><path d="m169.660156 502.199219c-7.140625-.675781-14.222656-1.890625-21.175781-3.644531l-30.71875-61.351563-97.976563-195.863281-15.53125-31.066406c-2.800781-9.082032-4.2343745-18.527344-4.25390575-28.03125 0-2.6875.08593755-5.378907.34765575-8.070313 3.664063-.03125 6.945313 2.269531 8.15625 5.726563l49.117188 98.148437 80.273438 160.542969zm0 0" fill="#af8066"/><path d="m503.328125 190.921875h-17.359375c-4.792969 0-8.675781-3.886719-8.675781-8.679687 0-4.792969 3.882812-8.675782 8.675781-8.675782h17.359375c4.789063 0 8.675781 3.882813 8.675781 8.675782 0 4.792968-3.886718 8.679687-8.675781 8.679687zm0 0" fill="#bdc3c7"/><path d="m416.546875 182.242188c0 1.824218-.085937 3.558593-.261719 5.382812-5.550781 55.015625-96.585937 98.753906-208.007812 98.753906-48.863282.839844-97.34375-8.714844-142.234375-28.03125 8.453125-12.539062 14.40625-26.59375 17.53125-41.390625 2.144531-9.984375 3.222656-20.164062 3.210937-30.375.035156-13.117187-1.773437-26.175781-5.382812-38.789062-3.960938-14.355469-10.84375-27.742188-20.21875-39.3125 46.144531-20.992188 96.40625-31.371094 147.09375-30.371094 111.421875 0 202.457031 43.734375 208.007812 98.753906.175782 1.820313.261719 3.558594.261719 5.378907zm0 0" fill="#f9eab0"/><path d="m416.546875 182.242188c0 6.164062-6.160156 12.0625-17.355469 17.355468-20.566406 9.808594-57.96875 17.703125-104.570312 22.128906h-172.691406c-13.625-1.300781-26.46875-2.949218-38.355469-4.769531 2.144531-9.984375 3.222656-20.164062 3.210937-30.375.035156-13.117187-1.773437-26.175781-5.382812-38.789062 42.003906-6.195313 84.417968-9.183594 126.875-8.941407 85.390625 0 158.804687 10.675782 190.914062 26.035157 11.195313 5.292969 17.355469 11.195312 17.355469 17.355469zm0 0" fill="#f3d55b"/><path d="m208.277344 234.3125c-17.070313 0-34.769532-.472656-52.609375-1.402344-3.121094-.125-5.941407-1.917968-7.371094-4.699218-1.433594-2.78125-1.257813-6.113282.457031-8.730469 1.714844-2.617188 4.703125-4.105469 7.824219-3.902344 34.441406 1.828125 68.953125 1.828125 103.394531 0 3.121094-.203125 6.109375 1.285156 7.824219 3.902344 1.714844 2.617187 1.890625 5.949219.457031 8.730469-1.429687 2.78125-4.246094 4.574218-7.371094 4.699218-17.839843.929688-35.539062 1.402344-52.605468 1.402344zm0 0" fill="#af8066"/><path d="m397.367188 43.394531c-39.457032-.992187-78.917969 1.796875-117.84375 8.332031-.78125-.171874-1.476563-.347656-2.171876-.433593 25.949219-43.476563 80.707032-50.507813 107.085938-51.2851565 2.820312-.0859375 5.503906 1.2148435 7.179688 3.4804685 1.679687 2.269531 2.140624 5.214844 1.238281 7.886719-2.683594 9.371094-1.332031 19.4375 3.730469 27.769531.683593 1.304688.957031 2.789063.78125 4.25zm0 0" fill="#b19046"/><path d="m396.585938 325.34375c-5.0625 8.328125-6.414063 18.398438-3.730469 27.769531.902343 2.671875.441406 5.617188-1.238281 7.882813-1.675782 2.265625-4.359376 3.570312-7.179688 3.484375-26.378906-.78125-81.136719-7.808594-107.085938-51.285157.695313-.089843 1.390626-.261718 2.171876-.433593 38.925781 6.535156 78.386718 9.324219 117.84375 8.328125.175781 1.464844-.097657 2.945312-.78125 4.253906zm0 0" fill="#b19046"/><g fill="#af8066"><path d="m459.9375 147.53125c14.378906 0 26.03125 11.65625 26.03125 26.035156v17.355469c0 14.378906-11.652344 26.035156-26.03125 26.035156-4.792969 0-8.679688-3.886719-8.679688-8.679687v-52.066406c0-4.792969 3.886719-8.679688 8.679688-8.679688zm0 0"/><path d="m164.1875 448.570312c-3.925781-.003906-7.359375-2.640624-8.378906-6.429687-11.234375-41.785156-18.84375-84.46875-22.734375-127.5625-.917969-10.699219-1.636719-21.679687-2.195313-33.605469-.46875-11.542968-.707031-22.550781-.707031-32.777344v-5.207031c0-4.792969 3.886719-8.675781 8.679687-8.675781 4.792969 0 8.679688 3.882812 8.679688 8.675781v5.207031c0 9.992188.230469 20.761719.683594 32.019532.546875 11.640625 1.25 22.40625 2.148437 32.84375 3.800781 42.089844 11.230469 83.769531 22.207031 124.578125.699219 2.605469.144532 5.390625-1.496093 7.53125-1.644531 2.144531-4.1875 3.402343-6.886719 3.402343zm0 0"/><path d="m251.753906 450.832031c-2.707031-.003906-5.253906-1.265625-6.898437-3.414062-1.640625-2.148438-2.1875-4.941407-1.480469-7.550781 11.324219-41.519532 18.933594-83.960938 22.730469-126.828126.972656-10.324218 1.6875-21.347656 2.140625-32.8125.515625-10.621093.773437-21.375.773437-32.03125v-5.207031c0-4.792969 3.886719-8.675781 8.679688-8.675781s8.679687 3.882812 8.679687 8.675781v5.207031c0 10.933594-.269531 21.964844-.789062 32.789063-.460938 11.699219-1.203125 23.039063-2.199219 33.632813-3.886719 43.875-11.675781 87.320312-23.269531 129.816406-1.027344 3.773437-4.457032 6.394531-8.367188 6.398437zm0 0"/></g><path d="m156.207031 225.632812c0 9.585938-7.769531 17.355469-17.355469 17.355469-9.585937 0-17.355468-7.769531-17.355468-17.355469 0-9.585937 7.769531-17.355468 17.355468-17.355468 9.585938 0 17.355469 7.769531 17.355469 17.355468zm0 0" fill="#95a5a5"/><path d="m295.054688 225.632812c0 9.585938-7.769532 17.355469-17.355469 17.355469-9.585938 0-17.355469-7.769531-17.355469-17.355469 0-9.585937 7.769531-17.355468 17.355469-17.355468 9.585937 0 17.355469 7.769531 17.355469 17.355468zm0 0" fill="#95a5a5"/><path d="m61.183594 108.480469c-36.792969 18.398437-59.964844 43.5625-61.0937502 71.507812 0-1.996093.0898442-3.90625.2617182-5.816406 3.933594-31.691406 20.683594-60.386719 46.339844-79.402344 5.445313 3.875 10.324219 8.488281 14.492188 13.710938zm0 0" fill="#cb8252"/><path d="m81.402344 147.792969c-47.902344 7.722656-79.402344 19.699219-81.3125002 33.148437-.0429688-.316406-.0429688-.636718 0-.953125v-.347656c1.3046872-27.769531 24.4726562-52.847656 61.0937502-71.160156 9.375 11.570312 16.257812 24.957031 20.21875 39.3125zm0 0" fill="#805333"/><path d="m86.785156 186.582031c.011719 10.210938-1.066406 20.390625-3.210937 30.375-39.574219-6.164062-68.296875-15.1875-78.96875-25.601562v-.085938l-.089844-.089843c-2.660156-2.238282-4.289063-5.464844-4.51171875-8.9375-.01562505-.433594.01562495-.871094.08593755-1.300782 1.9101562-13.449218 33.4101562-25.425781 81.3125002-33.148437 3.609375 12.613281 5.417968 25.671875 5.382812 38.789062zm0 0" fill="#cb8252"/><path d="m83.574219 216.957031c-3.125 14.796875-9.078125 28.851563-17.53125 41.390625-39.570313-18.484375-64.738281-44.691406-65.9531252-73.847656-.0742188-.75-.1015626-1.503906-.08593755-2.257812.22265575 3.472656 1.85156275 6.699218 4.51171875 8.9375l.089844.089843v.085938c10.671875 10.414062 39.394531 19.4375 78.96875 25.601562zm0 0" fill="#805333"/><path d="m66.042969 258.347656c-3.953125 5.796875-8.617188 11.074219-13.882813 15.707032-12.410156-9.171876-23.328125-20.207032-32.371094-32.714844-6.808593-9.453125-12.054687-19.945313-15.53125-31.066406-2.550781-8.363282-3.953124-17.035157-4.1679682-25.773438 1.2148442 29.15625 26.3828122 55.363281 65.9531252 73.847656zm0 0" fill="#cb8252"/><path d="m321.089844 442.582031v37.941407c.03125 3.488281-2.050782 6.648437-5.269532 7.988281-11.828124 4.820312-45.871093 14.816406-124.902343 14.816406-7.101563.042969-14.199219-.335937-21.257813-1.128906-7.140625-.675781-14.222656-1.890625-21.175781-3.644531-41.832031-10.648438-55.304687-36.578126-59.640625-52.167969-.785156-2.773438-.140625-5.753907 1.722656-7.949219 1.867188-2.199219 4.699219-3.320312 7.5625-3 4.730469.523438 11.148438 1.128906 19.640625 1.765625 5.726563.433594 12.40625.953125 20.132813 1.386719 35.3125 2.082031 92.675781 3.992187 183.1875 3.992187zm0 0" fill="#805333"/><path d="m364.46875 479.722656c-1.648438.003906-3.261719-.46875-4.648438-1.355468l-72.027343-45.820313c-2.648438-1.648437-4.207031-4.59375-4.085938-7.710937.125-3.117188 1.914063-5.929688 4.683594-7.363282 2.773437-1.433594 6.101563-1.269531 8.71875.429688l72.023437 45.820312c3.257813 2.074219 4.757813 6.046875 3.675782 9.753906-1.082032 3.703126-4.480469 6.25-8.339844 6.246094zm0 0" fill="#af8066"/><path d="m364.480469 459.9375h34.710937c4.792969 0 8.675782 3.886719 8.675782 8.679688v17.355468c0 4.792969-3.882813 8.675782-8.675782 8.675782h-34.710937c-4.792969 0-8.679688-3.882813-8.679688-8.675782v-17.355468c0-4.792969 3.886719-8.679688 8.679688-8.679688zm0 0" fill="#af8066"/></svg>