<svg height="512pt" viewBox="0 0 512 512.22806" width="512pt" xmlns="http://www.w3.org/2000/svg"><path d="m388.527344 291.539062h-132.414063c-4.875 0-8.828125-3.953124-8.828125-8.828124s3.953125-8.828126 8.828125-8.828126h132.414063c4.875 0 8.828125 3.953126 8.828125 8.828126s-3.953125 8.828124-8.828125 8.828124zm0 0" fill="#805333"/><path d="m460.207031 228.507812c-6.003906-.96875-12.003906-2.117187-17.917969-3.175781-33.371093-5.738281-67.003906-9.710937-100.722656-12.625-6.09375-.527343-12.449218-1.058593-18.804687-1.148437-16.332031-1.507813-32.675781 2.773437-46.167969 12.09375-15.269531 12.007812-20.304688 31.691406-21.449219 50.230468l-20.480469 14.210938-5.03125 3.445312-29.574218-17.65625c1.683594-48.242187 19.742187-94.476562 51.199218-131.089843 49.257813-56.847657 115.289063-88.363281 180.964844-121.644531.089844-.085938.179688-.085938.265625-.175782l.089844.707032zm0 0" fill="#f3d55b"/><path d="m460.207031 228.507812c-5.738281-.96875-11.386719-2.117187-17.125-3.175781-31.777343-5.738281-63.910156-9.710937-96.042969-12.625-8.0625-.871093-16.167968-1.253906-24.277343-1.148437-16.332031-1.507813-32.675781 2.773437-46.167969 12.09375-15.269531 12.007812-20.304688 31.691406-21.449219 50.230468l-20.480469 14.210938-22.6875-14.210938c1.46875-47.863281 18.621094-93.921874 48.816407-131.089843 46.785156-56.585938 109.460937-88.011719 171.785156-121.113281.351563-.175782.617187-.355469.96875-.53125 0-.085938.089844-.085938.179687-.175782zm0 0" fill="#b19046"/><path d="m264.941406 185.605469c27.277344-40.957031 128.441406-97.71875 172.933594-121.378907" fill="#f3d55b"/><path d="m264.933594 194.433594c-3.253906 0-6.242188-1.792969-7.777344-4.660156-1.535156-2.871094-1.367188-6.351563.4375-9.058594 27.464844-41.246094 122.140625-95.566406 176.132812-124.28125 2.78125-1.480469 6.144532-1.363282 8.820313.304687 2.675781 1.671875 4.257813 4.640625 4.152344 7.792969-.109375 3.152344-1.890625 6.007812-4.675781 7.488281-42.285157 22.488281-143.472657 79.042969-169.734376 118.480469-1.636718 2.460938-4.398437 3.941406-7.355468 3.933594zm0 0" fill="#f3d55b"/><path d="m454.828125 201.496094c-.390625 0-.78125-.023438-1.171875-.078125l-119.261719-15.886719c-3.15625-.382812-5.863281-2.429688-7.089843-5.363281-1.222657-2.9375-.777344-6.300781 1.171874-8.8125 1.949219-2.515625 5.101563-3.785157 8.246094-3.324219l119.261719 15.886719c4.605469.617187 7.945313 4.695312 7.640625 9.332031-.304688 4.632812-4.152344 8.238281-8.796875 8.246094zm0 0" fill="#f3d55b"/><path d="m447.230469.183594.21875-.027344c9.667969-1.277344 18.539062 5.523438 19.816406 15.191406l27.015625 204.632813c1.277344 9.667969-5.523438 18.539062-15.191406 19.8125l-.214844.03125c-9.667969 1.273437-18.539062-5.527344-19.816406-15.195313l-27.019532-204.628906c-1.273437-9.667969 5.527344-18.539062 15.191407-19.816406zm0 0" fill="#f3d55b"/><path d="m291.425781 318.019531v-26.480469c-.03125-9.738281-7.917969-17.628906-17.65625-17.65625h-97.105469c-9.738281.027344-17.625 7.917969-17.652343 17.65625v79.449219h132.414062" fill="#fac176"/><path d="m273.769531 318.019531v-26.480469c0-9.710937-5.828125-17.65625-12.949219-17.65625h-71.207031c-7.121093 0-12.949219 7.945313-12.949219 17.65625v79.449219h97.105469" fill="#cb8252"/><path d="m70.734375 212.089844c-4.875 0-8.828125-3.953125-8.828125-8.828125v-8.828125c0-4.875 3.953125-8.828125 8.828125-8.828125s8.828125 3.953125 8.828125 8.828125v8.828125c0 4.875-3.953125 8.828125-8.828125 8.828125zm0 0" fill="#f0c419"/><path d="m114.1875 239.535156c2.5 13.855469-1.765625 28.074219-11.476562 38.269532-9.519532 10.582031-14.644532 24.402343-14.320313 38.632812v19.238281h-35.3125v-19.523437c-.390625-14.898438-6.074219-29.167969-16.03125-40.257813-11.992187-14.167969-13.839844-34.324219-4.628906-50.4375 9.214843-16.109375 27.523437-24.738281 45.816406-21.589843 18.289063 3.148437 32.660156 17.402343 35.953125 35.667968zm0 0" fill="#f0c419"/><path d="m53.078125 318.019531h35.3125c4.875 0 8.828125 3.953125 8.828125 8.828125v44.140625h-52.964844v-44.140625c0-4.875 3.949219-8.828125 8.824219-8.828125zm0 0" fill="#95a5a5"/><path d="m53.078125 265.054688c-4.875 0-8.824219-3.953126-8.824219-8.828126 0-27.929687 17.320313-35.308593 26.480469-35.308593 4.875-.058594 8.875 3.84375 8.9375 8.71875.058594 4.875-3.847656 8.875-8.722656 8.9375-1.59375.113281-9.042969 1.53125-9.042969 17.652343 0 4.875-3.953125 8.828126-8.828125 8.828126zm0 0" fill="#f9eab0"/><path d="m44.253906 459.261719h105.929688v35.3125c0 9.75-7.90625 17.652343-17.65625 17.652343h-70.621094c-9.75 0-17.652344-7.902343-17.652344-17.652343zm0 0" fill="#2c2f38"/><path d="m362.046875 459.261719h105.929687v35.3125c0 9.75-7.90625 17.652343-17.65625 17.652343h-70.621093c-9.75 0-17.652344-7.902343-17.652344-17.652343zm0 0" fill="#2c2f38"/><path d="m17.769531 353.332031h476.6875c9.753907 0 17.65625 7.902344 17.65625 17.65625v88.273438c0 9.75-7.902343 17.65625-17.65625 17.65625h-476.6875c-9.75 0-17.65625-7.90625-17.65625-17.65625v-88.273438c0-9.753906 7.90625-17.65625 17.65625-17.65625zm0 0" fill="#cb8252"/><path d="m35.425781 353.332031h441.378907c9.75 0 17.652343 7.902344 17.652343 17.65625v88.273438c0 9.75-7.902343 17.65625-17.652343 17.65625h-441.378907c-9.753906 0-17.65625-7.90625-17.65625-17.65625v-88.273438c0-9.753906 7.902344-17.65625 17.65625-17.65625zm0 0" fill="#805333"/><path d="m406.183594 335.675781c-4.875 0-8.828125-3.953125-8.828125-8.828125v-26.480468c0-4.875 3.953125-8.828126 8.828125-8.828126s8.828125 3.953126 8.828125 8.828126v26.480468c0 4.875-3.953125 8.828125-8.828125 8.828125zm0 0" fill="#95a5a5"/><g fill="#f29c1f"><path d="m70.734375 450.433594c-19.5 0-35.308594-15.808594-35.308594-35.308594s15.808594-35.3125 35.308594-35.3125 35.3125 15.8125 35.3125 35.3125c-.023437 19.492188-15.820313 35.289062-35.3125 35.308594zm0-52.964844c-9.75 0-17.65625 7.90625-17.65625 17.65625s7.90625 17.65625 17.65625 17.65625 17.65625-7.90625 17.65625-17.65625c-.011719-9.746094-7.910156-17.644531-17.65625-17.65625zm0 0"/><path d="m167.839844 450.453125c-18.207032.03125-33.464844-13.753906-35.277344-31.867187-1.816406-18.113282 10.410156-34.648438 28.261719-38.226563 17.847656-3.574219 35.5 6.972656 40.804687 24.390625 5.304688 17.414062-3.464844 36.011719-20.277344 42.996094-4.28125 1.78125-8.875 2.703125-13.511718 2.707031zm0-52.992187c-9.101563-.011719-16.726563 6.878906-17.628906 15.9375-.90625 9.054687 5.210937 17.316406 14.132812 19.101562s17.746094-3.488281 20.394531-12.195312c2.652344-8.703126-1.734375-18-10.136719-21.492188-2.144531-.890625-4.441406-1.351562-6.761718-1.351562zm0 0"/><path d="m73.472656 397.644531c-4.253906.019531-7.917968-2.996093-8.71875-7.175781-.796875-4.175781 1.492188-8.332031 5.449219-9.886719l13.265625-6.632812c2.820312-1.414063 6.179688-1.210938 8.8125.527343 2.632812 1.738282 4.136719 4.75 3.949219 7.898438-.191407 3.148438-2.042969 5.957031-4.867188 7.367188l-13.945312 6.972656c-1.226563.613281-2.578125.929687-3.945313.929687zm0 0"/><path d="m54.058594 457.230469c-4.097656.007812-7.660156-2.808594-8.601563-6.792969-.941406-3.988281.980469-8.097656 4.644531-9.929688l13.945313-6.972656c2.910156-1.457031 6.382813-1.203125 9.046875.667969 2.660156 1.867187 4.082031 5.046875 3.703125 8.277344-.382813 3.230469-2.507813 5.992187-5.53125 7.1875l-13.265625 6.632812c-1.222656.613281-2.574219.933594-3.941406.929688zm0 0"/><path d="m54.050781 403.476562c-2.835937-.003906-5.5-1.367187-7.160156-3.671874-1.65625-2.300782-2.109375-5.257813-1.214844-7.953126l4.941407-14.828124c1.542968-4.625 6.542968-7.125 11.167968-5.582032 4.628906 1.542969 7.125 6.542969 5.582032 11.167969l-4.941407 14.828125c-1.203125 3.605469-4.574219 6.039062-8.375 6.039062zm0 0"/><path d="m82.476562 459.265625c-2.839843-.003906-5.5-1.367187-7.160156-3.671875-1.660156-2.300781-2.109375-5.257812-1.214844-7.953125l4.941407-14.828125c1.542969-4.625 6.542969-7.125 11.167969-5.582031s7.125 6.542969 5.582031 11.167969l-4.941407 14.828124c-1.203124 3.605469-4.574218 6.039063-8.375 6.039063zm0 0"/><path d="m44.429688 421.257812c-3.640626.011719-6.914063-2.214843-8.238282-5.605468l-6.632812-13.265625c-2.179688-4.359375-.414063-9.664063 3.949218-11.84375 4.359376-2.179688 9.664063-.414063 11.84375 3.949219l6.972657 13.945312c1.367187 2.742188 1.222656 5.996094-.386719 8.605469-1.605469 2.609375-4.445312 4.203125-7.507812 4.214843zm0 0"/><path d="m104.023438 440.636719c-3.347657.003906-6.40625-1.886719-7.90625-4.878907l-6.972657-13.949218c-1.460937-2.90625-1.207031-6.382813.664063-9.050782 1.867187-2.664062 5.050781-4.085937 8.285156-3.703124 3.230469.386718 5.992188 2.515624 7.183594 5.542968l6.636718 13.265625c1.367188 2.734375 1.21875 5.980469-.386718 8.582031-1.605469 2.605469-4.445313 4.1875-7.503906 4.191407zm0 0"/><path d="m50.253906 440.640625c-.949218 0-1.890625-.152344-2.792968-.457031l-14.828126-4.941406c-4.628906-1.542969-7.125-6.542969-5.582031-11.167969 1.539063-4.625 6.542969-7.125 11.167969-5.582031l14.828125 4.941406c4.117187 1.367187 6.632813 5.515625 5.9375 9.792968-.695313 4.28125-4.394531 7.421876-8.730469 7.414063zm0 0"/><path d="m106.046875 412.210938c-.953125 0-1.894531-.152344-2.792969-.457032l-14.832031-4.941406c-4.625-1.542969-7.125-6.542969-5.582031-11.167969 1.542968-4.625 6.542968-7.125 11.167968-5.582031l14.832032 4.941406c4.113281 1.363282 6.628906 5.515625 5.933594 9.792969-.695313 4.28125-4.394532 7.421875-8.726563 7.414063zm0 0"/><path d="m143.367188 413.824219c-1.15625-.003907-2.304688-.234375-3.375-.679688l-8.152344-3.378906c-4.503906-1.863281-6.644532-7.027344-4.777344-11.53125 1.867188-4.507813 7.03125-6.644531 11.535156-4.777344l8.152344 3.378907c3.898438 1.609374 6.113281 5.75 5.289062 9.882812-.824218 4.136719-4.453124 7.109375-8.671874 7.105469zm0 0"/><path d="m200.453125 437.46875c-1.15625 0-2.304687-.230469-3.375-.675781l-8.152344-3.378907c-4.503906-1.867187-6.644531-7.03125-4.777343-11.535156 1.867187-4.503906 7.03125-6.640625 11.535156-4.777344l8.15625 3.378907c3.894531 1.609375 6.109375 5.75 5.285156 9.886719-.824219 4.132812-4.453125 7.109374-8.671875 7.101562zm0 0"/><path d="m177.96875 399.492188c-2.949219-.007813-5.699219-1.480469-7.335938-3.933594-1.636718-2.449219-1.941406-5.554688-.816406-8.277344l3.378906-8.15625c1.867188-4.503906 7.03125-6.644531 11.535157-4.777344 4.503906 1.867188 6.640625 7.03125 4.777343 11.535156l-3.378906 8.15625c-1.367187 3.300782-4.589844 5.453126-8.160156 5.453126zm0 0"/><path d="m154.320312 456.578125c-2.945312-.007813-5.695312-1.480469-7.332031-3.933594-1.636719-2.449219-1.945312-5.554687-.816406-8.277343l3.378906-8.15625c1.863281-4.503907 7.027344-6.640626 11.53125-4.777344 4.503907 1.867187 6.644531 7.03125 4.777344 11.535156l-3.378906 8.15625c-1.367188 3.300781-4.585938 5.453125-8.160157 5.453125zm0 0"/><path d="m157.707031 399.492188c-3.570312 0-6.792969-2.152344-8.15625-5.453126l-3.378906-8.15625c-1.867187-4.503906.269531-9.667968 4.773437-11.535156 4.503907-1.867187 9.667969.273438 11.535157 4.777344l3.378906 8.15625c1.125 2.722656.820313 5.828125-.816406 8.277344-1.636719 2.453125-4.386719 3.925781-7.335938 3.933594zm0 0"/><path d="m181.355469 456.578125c-3.574219 0-6.792969-2.152344-8.160157-5.453125l-3.378906-8.15625c-1.867187-4.503906.273438-9.667969 4.777344-11.535156 4.503906-1.863282 9.667969.273437 11.535156 4.777344l3.378906 8.15625c1.125 2.722656.816407 5.828124-.820312 8.277343-1.636719 2.453125-4.386719 3.925781-7.332031 3.933594zm0 0"/><path d="m192.308594 413.824219c-4.214844.003906-7.847656-2.96875-8.671875-7.105469-.824219-4.132812 1.390625-8.273438 5.289062-9.882812l8.152344-3.378907c4.503906-1.867187 9.667969.269531 11.535156 4.777344 1.867188 4.503906-.269531 9.667969-4.773437 11.53125l-8.15625 3.378906c-1.070313.445313-2.21875.675781-3.375.679688zm0 0"/><path d="m135.222656 437.46875c-4.214844.007812-7.847656-2.96875-8.671875-7.101562-.824219-4.136719 1.390625-8.277344 5.289063-9.886719l8.152344-3.378907c4.503906-1.863281 9.667968.273438 11.535156 4.777344 1.867187 4.503906-.273438 9.667969-4.777344 11.535156l-8.152344 3.378907c-1.070312.445312-2.21875.675781-3.375.675781zm0 0"/></g><path d="m397.355469 415.125c0 9.75-7.90625 17.65625-17.65625 17.65625s-17.652344-7.90625-17.652344-17.65625 7.902344-17.65625 17.652344-17.65625 17.65625 7.90625 17.65625 17.65625zm0 0" fill="#67b9cc"/><path d="m467.976562 415.125c0 9.75-7.90625 17.65625-17.65625 17.65625s-17.65625-7.90625-17.65625-17.65625 7.90625-17.65625 17.65625-17.65625 17.65625 7.90625 17.65625 17.65625zm0 0" fill="#f29c1f"/><path d="m256.113281 415.125c0 4.875-3.953125 8.828125-8.828125 8.828125s-8.828125-3.953125-8.828125-8.828125 3.953125-8.828125 8.828125-8.828125 8.828125 3.953125 8.828125 8.828125zm0 0" fill="#67b9cc"/><path d="m291.425781 415.125c0 4.875-3.953125 8.828125-8.828125 8.828125s-8.828125-3.953125-8.828125-8.828125 3.953125-8.828125 8.828125-8.828125 8.828125 3.953125 8.828125 8.828125zm0 0" fill="#67b9cc"/><path d="m326.734375 415.125c0 4.875-3.953125 8.828125-8.828125 8.828125s-8.828125-3.953125-8.828125-8.828125 3.953125-8.828125 8.828125-8.828125 8.828125 3.953125 8.828125 8.828125zm0 0" fill="#67b9cc"/><path d="m211.976562 318.019531h256c9.75 0 17.65625 7.90625 17.65625 17.65625s-7.90625 17.65625-17.65625 17.65625h-256c-9.75 0-17.65625-7.90625-17.65625-17.65625s7.90625-17.65625 17.65625-17.65625zm0 0" fill="#2c3e50"/><path d="m229.632812 318.019531h220.6875c9.75 0 17.65625 7.90625 17.65625 17.65625s-7.90625 17.65625-17.65625 17.65625h-220.6875c-9.753906 0-17.65625-7.90625-17.65625-17.65625s7.902344-17.65625 17.65625-17.65625zm0 0" fill="#2c2f38"/><path d="m97.21875 415.125c0 14.625-11.859375 26.480469-26.484375 26.480469s-26.480469-11.855469-26.480469-26.480469 11.855469-26.484375 26.480469-26.484375 26.484375 11.859375 26.484375 26.484375zm0 0" fill="#e4c05c"/><path d="m194.320312 415.125c0 14.625-11.855468 26.480469-26.480468 26.480469-14.628906 0-26.484375-11.855469-26.484375-26.480469s11.855469-26.484375 26.484375-26.484375c14.625 0 26.480468 11.859375 26.480468 26.484375zm0 0" fill="#e4c05c"/><path d="m406.183594 309.195312c-10.710938 0-20.367188-6.453124-24.46875-16.351562-4.097656-9.894531-1.832032-21.285156 5.742187-28.859375s18.964844-9.839844 28.859375-5.742187c9.898438 4.101562 16.347656 13.757812 16.347656 24.46875-.015624 14.621093-11.863281 26.464843-26.480468 26.484374zm0-35.3125c-4.875 0-8.828125 3.953126-8.828125 8.828126s3.953125 8.828124 8.828125 8.828124 8.828125-3.953124 8.828125-8.828124c-.007813-4.871094-3.957031-8.820313-8.828125-8.828126zm0 0" fill="#f3d55b"/></svg>