<svg height="511pt" viewBox="-141 0 511 511.99273" width="511pt" xmlns="http://www.w3.org/2000/svg"><path d="m194.71875 466.265625c2.820312 1.070313 5.8125 1.609375 8.828125 1.589844 14.625 0 26.480469-11.855469 26.480469-26.484375 0-14.625-11.855469-26.480469-26.480469-26.480469-3.488281-.019531-6.941406.671875-10.152344 2.027344" fill="#67b9cc"/><path d="m37.144531 416.917969c-3.210937-1.355469-6.664062-2.046875-10.148437-2.027344-14.628906 0-26.484375 11.855469-26.484375 26.480469 0 14.628906 11.855469 26.484375 26.484375 26.484375 3.015625.019531 6.007812-.519531 8.824218-1.589844" fill="#67b9cc"/><path d="m44.648438 441.371094c0 9.75-7.902344 17.65625-17.652344 17.65625-9.753906 0-17.65625-7.90625-17.65625-17.65625s7.902344-17.652344 17.65625-17.652344c9.75 0 17.652344 7.902344 17.652344 17.652344zm0 0" fill="#65ddb9"/><path d="m221.203125 441.371094c0 9.75-7.90625 17.65625-17.65625 17.65625s-17.65625-7.90625-17.65625-17.65625 7.90625-17.652344 17.65625-17.652344 17.65625 7.902344 17.65625 17.652344zm0 0" fill="#65ddb9"/><path d="m3.28125 175.277344c-13.109375-58.699219 21.214844-117.589844 78.75-135.113282 9.355469-2.976562 15.671875-11.703124 15.585938-21.515624v-.011719c-.199219-9.40625 6.753906-17.433594 16.09375-18.5781252 4.925781-.4023438 9.796874 1.2656252 13.441406 4.6054682 3.648437 3.335938 5.738281 8.039063 5.773437 12.984376v1c-.089843 9.8125 6.230469 18.539062 15.582031 21.515624 57.539063 17.523438 91.859376 76.414063 78.753907 135.113282l-41.371094 151.335937-70.621094 17.65625-70.621093-17.65625zm0 0" fill="#f3d55b"/><path d="m20.503906 175.277344c-2.480468-13.171875-2.992187-26.636719-1.523437-39.957032 4.738281-44.945312 32.304687-82.285156 68.164062-95.15625 8.414063-3.765624 13.648438-12.308593 13.1875-21.515624v-.011719c-.707031-8.714844 5.089844-16.628907 13.613281-18.5781252 4.570313-.4140628 9.035157 1.5234372 11.855469 5.1406252 2.914063 3.488281 4.480469 7.90625 4.410157 12.449219v1c-.464844 9.207031 4.773437 17.75 13.1875 21.515624 35.859374 12.871094 63.421874 50.210938 68.160156 95.15625 1.472656 13.320313.960937 26.785157-1.519532 39.957032l-35.003906 151.335937h-119.527344zm0 0" fill="#f0c419"/><g fill="#b19046"><path d="m88.777344 335.441406c-4.203125-.003906-7.820313-2.972656-8.644532-7.09375l-23.039062-115.113281c-.882812-4.746094 2.214844-9.316406 6.945312-10.265625 4.734376-.945312 9.347657 2.082031 10.363282 6.800781l23.039062 115.113281c.519532 2.59375-.152344 5.285157-1.832031 7.328126-1.675781 2.046874-4.183594 3.230468-6.832031 3.230468zm0 0"/><path d="m141.761719 335.441406c-2.644531.003906-5.152344-1.183594-6.832031-3.230468-1.679688-2.042969-2.351563-4.734376-1.832032-7.332032l23.039063-115.109375c1.015625-4.71875 5.632812-7.746093 10.363281-6.800781 4.734375.949219 7.828125 5.519531 6.949219 10.265625l-23.042969 115.109375c-.824219 4.125-4.441406 7.09375-8.644531 7.097656zm0 0"/><path d="m115.382812 247.164062c-3.703124 0-7.011718-2.3125-8.285156-5.789062l-21.484375-58.578125-6.367187 14.878906c-1.1875 2.980469-3.898438 5.085938-7.082032 5.496094-3.183593.40625-6.335937-.945313-8.238281-3.53125-1.898437-2.585937-2.246093-6-.90625-8.914063l15.121094-35.3125c1.425781-3.320312 4.734375-5.4375 8.347656-5.339843 3.613281.09375 6.800781 2.382812 8.050781 5.777343l20.007813 54.554688 21.507813-71.707031c1.121093-3.734375 4.558593-6.292969 8.457031-6.292969h.078125c3.925781.039062 7.359375 2.664062 8.421875 6.445312l14.898437 52.964844c1.316406 4.695313-1.417968 9.570313-6.113281 10.886719-4.695313 1.320313-9.570313-1.417969-10.886719-6.109375l-6.675781-23.722656-20.390625 68.003906c-1.089844 3.644531-4.394531 6.175781-8.195312 6.289062zm0 0"/></g><path d="m62.304688 353.097656h105.929687v88.273438h-105.929687zm0 0" fill="#7f8c8d"/><path d="m53.476562 406.0625h123.585938c9.75 0 17.65625 7.902344 17.65625 17.65625v70.617188h-158.898438v-70.617188c0-9.753906 7.90625-17.65625 17.65625-17.65625zm0 0" fill="#cb8252"/><path d="m71.132812 406.0625h88.277344c9.75 0 17.652344 7.902344 17.652344 17.65625v52.964844h-123.585938v-52.964844c0-9.753906 7.90625-17.65625 17.65625-17.65625zm0 0" fill="#805333"/><path d="m26.996094 476.683594h176.550781c9.75 0 17.65625 7.902344 17.65625 17.652344 0 9.753906-7.90625 17.65625-17.65625 17.65625h-176.550781c-9.753906 0-17.65625-7.902344-17.65625-17.65625 0-9.75 7.902344-17.652344 17.65625-17.652344zm0 0" fill="#bdc3c7"/><path d="m141.753906 441.371094c0 14.628906-11.855468 26.484375-26.484375 26.484375-14.625 0-26.480469-11.855469-26.480469-26.484375 0-14.625 11.855469-26.480469 26.480469-26.480469 14.628907 0 26.484375 11.855469 26.484375 26.480469zm0 0" fill="#67b9cc"/><path d="m132.925781 441.371094c0 9.75-7.90625 17.65625-17.65625 17.65625s-17.652343-7.90625-17.652343-17.65625 7.902343-17.652344 17.652343-17.652344 17.65625 7.902344 17.65625 17.652344zm0 0" fill="#65ddb9"/><path d="m35.832031 141.234375c-2.71875 0-5.289062-1.25-6.964843-3.394531-1.671876-2.140625-2.265626-4.9375-1.605469-7.574219 9.699219-38.804687 47.164062-57.921875 48.75-58.722656 4.359375-2.183594 9.664062-.421875 11.847656 3.9375 2.1875 4.359375.425781 9.664062-3.933594 11.847656-.320312.160156-31.835937 16.421875-39.546875 47.222656-.980468 3.921875-4.503906 6.679688-8.546875 6.683594zm0 0" fill="#f3d55b"/><path d="m49.0625 326.613281h132.414062c12.1875 0 22.070313 9.878907 22.070313 22.070313 0 12.1875-9.882813 22.066406-22.070313 22.066406h-132.414062c-12.1875 0-22.066406-9.878906-22.066406-22.066406 0-12.191406 9.878906-22.070313 22.066406-22.070313zm0 0" fill="#bdc3c7"/><path d="m66.71875 326.613281h97.101562c12.191407 0 22.070313 9.878907 22.070313 22.070313 0 12.1875-9.878906 22.066406-22.070313 22.066406h-97.101562c-12.1875 0-22.070312-9.878906-22.070312-22.066406 0-12.191406 9.882812-22.070313 22.070312-22.070313zm0 0" fill="#95a5a5"/><path d="m79.960938 194.199219c.027343.800781-.03125 1.597656-.175782 2.382812-1.109375 7.800781-7.214844 13.941407-15.007812 15.097657-.820313.105468-1.644532.164062-2.472656.175781-9.75 0-17.65625-7.90625-17.65625-17.65625s7.90625-17.65625 17.65625-17.65625c.828124.011719 1.652343.070312 2.472656.179687 7.792968 1.152344 13.898437 7.292969 15.007812 15.09375.078125.195313.109375.40625.085938.617188.078125.585937.105468 1.175781.089844 1.765625zm0 0" fill="#f9eab0"/><path d="m185.890625 194.199219c0 9.75-7.902344 17.65625-17.65625 17.65625-9.75 0-17.652344-7.90625-17.652344-17.65625s7.902344-17.65625 17.652344-17.65625c9.753906 0 17.65625 7.90625 17.65625 17.65625zm0 0" fill="#f9eab0"/></svg>