<svg height="512pt" viewBox="-13 0 512 512" width="512pt" xmlns="http://www.w3.org/2000/svg"><path d="m242.636719 69.421875c-19.171875 0-34.710938-15.539063-34.710938-34.710937 0-19.167969 15.539063-34.710938 34.710938-34.710938s34.710937 15.542969 34.710937 34.710938c-.019531 19.164062-15.550781 34.691406-34.710937 34.710937zm0-52.066406c-9.585938 0-17.355469 7.769531-17.355469 17.355469 0 9.585937 7.769531 17.355468 17.355469 17.355468 9.585937 0 17.355469-7.769531 17.355469-17.355468-.011719-9.578126-7.777344-17.34375-17.355469-17.355469zm0 0" fill="#cbb292"/><g fill="#7f6e5d"><path d="m260.597656 476.507812v18.136719c.003906 4.601563-1.824218 9.019531-5.082031 12.273438-3.253906 3.253906-7.667969 5.082031-12.273437 5.082031h-1.214844c-4.601563 0-9.019532-1.828125-12.273438-5.082031-3.253906-3.253907-5.082031-7.671875-5.082031-12.273438v-18.136719"/><path d="m35.144531 287.328125h-17.789062c-4.601563 0-9.019531-1.828125-12.273438-5.082031-3.253906-3.253906-5.082031-7.671875-5.082031-12.273438v-1.304687c0-4.601563 1.828125-9.015625 5.082031-12.273438 3.253907-3.253906 7.671875-5.082031 12.273438-5.082031h17.789062"/><path d="m450.125 287.328125h17.789062c4.605469 0 9.019532-1.828125 12.277344-5.082031 3.253906-3.253906 5.082032-7.671875 5.082032-12.273438v-1.304687c0-4.601563-1.828126-9.015625-5.082032-12.273438-3.257812-3.253906-7.671875-5.082031-12.277344-5.082031h-17.789062"/><path d="m108.820312 428.519531-12.753906 12.84375c-6.789062 6.765625-17.773437 6.765625-24.558594 0l-.871093-.871093c-3.289063-3.238282-5.140625-7.660157-5.140625-12.277344 0-4.617188 1.851562-9.039063 5.140625-12.28125l12.757812-12.753906"/><path d="m402.136719 135.203125 12.496093-12.496094c3.289063-3.238281 5.140626-7.664062 5.140626-12.28125 0-4.613281-1.851563-9.039062-5.140626-12.277343l-.867187-.867188c-6.789063-6.769531-17.773437-6.769531-24.558594 0l-12.410156 12.496094"/><path d="m108.472656 109.777344-12.40625-12.496094c-6.789062-6.769531-17.773437-6.769531-24.558594 0l-.871093.867188c-3.289063 3.238281-5.140625 7.664062-5.140625 12.277343 0 4.617188 1.851562 9.042969 5.140625 12.28125l12.5 12.496094"/><path d="m401.875 403.179688 12.757812 12.753906c3.289063 3.242187 5.140626 7.664062 5.140626 12.28125 0 4.617187-1.851563 9.039062-5.140626 12.277344l-.867187.871093c-6.789063 6.765625-17.773437 6.765625-24.558594 0l-12.757812-12.84375"/><path d="m338.527344 453.859375 6.941406 16.746094c1.761719 4.246093 1.761719 9.019531.007812 13.265625-1.757812 4.25-5.132812 7.625-9.378906 9.382812l-1.128906.523438c-8.867188 3.664062-19.027344-.523438-22.734375-9.375l-6.945313-16.746094"/><path d="m179.71875 70.464844-6.679688-16.140625c-1.757812-4.273438-5.140624-7.671875-9.40625-9.445313-4.265624-1.773437-9.0625-1.777344-13.332031-.015625l-1.125.523438c-4.246093 1.757812-7.621093 5.136719-9.378906 9.382812-1.757813 4.246094-1.753906 9.019531.003906 13.265625l6.769531 16.316406"/><path d="m58.054688 365.253906-16.746094 6.945313c-8.867188 3.632812-19-.601563-22.652344-9.460938l-.433594-1.128906c-1.78125-4.242187-1.792968-9.023437-.03125-13.277344 1.757813-4.25 5.144532-7.625 9.40625-9.371093l16.574219-6.855469"/><path d="m441.273438 206.449219 16.402343-6.769531c4.257813-1.746094 7.644531-5.117188 9.40625-9.371094 1.757813-4.253906 1.746094-9.035156-.035156-13.277344l-.433594-1.128906c-1.746093-4.257813-5.117187-7.644532-9.371093-9.40625-4.253907-1.757813-9.03125-1.746094-13.277344.035156l-16.402344 6.769531"/><path d="m179.980469 467.65625-6.941407 16.746094c-3.707031 8.851562-13.871093 13.039062-22.738281 9.375l-1.125-.523438c-4.246093-1.757812-7.621093-5.132812-9.378906-9.382812-1.757813-4.246094-1.753906-9.019532.003906-13.265625l6.945313-16.746094"/><path d="m338.699219 84.351562 6.769531-16.316406c1.761719-4.246094 1.761719-9.019531.007812-13.265625-1.757812-4.246093-5.132812-7.625-9.378906-9.382812l-1.128906-.523438c-4.269531-1.761719-9.0625-1.757812-13.328125.015625-4.265625 1.773438-7.648437 5.171875-9.40625 9.445313l-6.683594 16.140625"/><path d="m57.707031 173.300781-16.398437-6.769531c-4.246094-1.78125-9.027344-1.792969-13.277344-.035156-4.253906 1.761718-7.628906 5.148437-9.375 9.40625l-.433594 1.128906c-1.78125 4.242188-1.792968 9.023438-.03125 13.277344 1.757813 4.253906 5.144532 7.625 9.40625 9.371094l16.398438 6.769531"/><path d="m441.101562 332.105469 16.574219 6.855469c4.257813 1.746093 7.644531 5.121093 9.40625 9.371093 1.757813 4.253907 1.746094 9.035157-.035156 13.277344l-.433594 1.128906c-3.648437 8.859375-13.78125 13.09375-22.648437 9.460938l-16.75-6.945313"/></g><path d="m450.90625 269.015625c0 115.027344-93.246094 208.273437-208.269531 208.273437-115.027344 0-208.273438-93.246093-208.273438-208.273437 0-115.023437 93.246094-208.269531 208.273438-208.269531 115.023437 0 208.269531 93.246094 208.269531 208.269531zm0 0" fill="#b19046"/><path d="m349.636719 132.425781c-61.441407 8.589844-225.542969 48.597657-251.140625 233.265625-47.5625-70.855468-36.542969-165.777344 25.984375-223.851562 62.523437-58.078125 158-62.066406 225.15625-9.414063zm0 0" fill="#f5efca"/><path d="m416.195312 269.015625c.011719 70.289063-42.378906 133.640625-107.355468 160.445313-64.980469 26.804687-139.707032 11.765624-189.257813-38.085938-7.820312-7.878906-14.878906-16.480469-21.085937-25.683594 25.597656-184.667968 189.699218-224.675781 251.140625-233.265625 3.996093 3.054688 7.820312 6.328125 11.453125 9.804688 35.222656 32.746093 55.191406 78.695312 55.105468 126.785156zm0 0" fill="#f9eab0"/><path d="m242.636719 451.253906c-48.546875.164063-95.117188-19.214844-129.214844-53.765625-8.199219-8.261719-15.601563-17.273437-22.113281-26.921875-49.960938-74.394531-38.410156-174.074218 27.246094-235.070312 65.652343-60.992188 165.910156-65.191406 236.433593-9.898438 4.214844 3.226563 8.25 6.683594 12.089844 10.351563 54.667969 51.085937 72.542969 130.402343 45.074219 200-27.46875 69.597656-94.695313 115.324219-169.515625 115.304687zm0-347.117187c-60.886719 0-116.816407 33.554687-145.476563 87.277343-28.65625 53.722657-25.375 118.863282 8.539063 169.433594 5.894531 8.738282 12.601562 16.902344 20.023437 24.390625 42.019532 42.332031 103.628906 58.664063 161.097656 42.703125 57.472657-15.957031 101.839844-61.714844 116.015626-119.652344 14.179687-57.9375-4.046876-119.011718-47.65625-159.703124-3.429688-3.28125-7.03125-6.371094-10.796876-9.253907-28.957031-22.90625-64.828124-35.3125-101.746093-35.195312zm0 0" fill="#7f6e5d"/><path d="m121.144531 269.015625c0 4.792969-3.886719 8.679687-8.679687 8.679687-4.792969 0-8.675782-3.886718-8.675782-8.679687s3.882813-8.675781 8.675782-8.675781c4.792968 0 8.679687 3.882812 8.679687 8.675781zm0 0" fill="#f3d55b"/><path d="m381.484375 269.015625c0 4.792969-3.886719 8.679687-8.679687 8.679687-4.792969 0-8.675782-3.886718-8.675782-8.679687s3.882813-8.675781 8.675782-8.675781c4.792968 0 8.679687 3.882812 8.679687 8.675781zm0 0" fill="#f0c419"/><path d="m138.582031 334.101562c0 4.792969-3.882812 8.679688-8.675781 8.679688s-8.679688-3.886719-8.679688-8.679688c0-4.792968 3.886719-8.679687 8.679688-8.679687s8.675781 3.886719 8.675781 8.679687zm0 0" fill="#f0c419"/><path d="m364.042969 203.933594c0 4.792968-3.882813 8.675781-8.675781 8.675781-4.792969 0-8.679688-3.882813-8.679688-8.675781 0-4.792969 3.886719-8.679688 8.679688-8.679688 4.792968 0 8.675781 3.886719 8.675781 8.679688zm0 0" fill="#f0c419"/><path d="m186.230469 381.746094c0 4.792968-3.886719 8.679687-8.679688 8.679687s-8.675781-3.886719-8.675781-8.679687c0-4.792969 3.882812-8.675782 8.675781-8.675782s8.679688 3.882813 8.679688 8.675782zm0 0" fill="#f0c419"/><path d="m316.398438 156.285156c0 4.792969-3.886719 8.679688-8.679688 8.679688-4.789062 0-8.675781-3.886719-8.675781-8.679688 0-4.792968 3.886719-8.675781 8.675781-8.675781 4.792969 0 8.679688 3.882813 8.679688 8.675781zm0 0" fill="#f0c419"/><path d="m251.3125 399.1875c0 4.792969-3.882812 8.675781-8.675781 8.675781s-8.679688-3.882812-8.679688-8.675781 3.886719-8.679688 8.679688-8.679688 8.675781 3.886719 8.675781 8.679688zm0 0" fill="#f0c419"/><path d="m251.3125 138.847656c0 4.792969-3.882812 8.679688-8.675781 8.679688s-8.679688-3.886719-8.679688-8.679688c0-4.792968 3.886719-8.679687 8.679688-8.679687s8.675781 3.886719 8.675781 8.679687zm0 0"/><path d="m316.398438 381.746094c0 4.792968-3.886719 8.679687-8.679688 8.679687-4.789062 0-8.675781-3.886719-8.675781-8.679687 0-4.792969 3.886719-8.675782 8.675781-8.675782 4.792969 0 8.679688 3.882813 8.679688 8.675782zm0 0" fill="#f0c419"/><path d="m186.230469 156.285156c0 4.792969-3.886719 8.679688-8.679688 8.679688s-8.675781-3.886719-8.675781-8.679688c0-4.792968 3.882812-8.675781 8.675781-8.675781s8.679688 3.882813 8.679688 8.675781zm0 0" fill="#f3d55b"/><path d="m364.042969 334.101562c0 4.792969-3.882813 8.679688-8.675781 8.679688-4.792969 0-8.679688-3.886719-8.679688-8.679688 0-4.792968 3.886719-8.679687 8.679688-8.679687 4.792968 0 8.675781 3.886719 8.675781 8.679687zm0 0" fill="#f0c419"/><path d="m138.582031 203.933594c0 4.792968-3.882812 8.675781-8.675781 8.675781s-8.679688-3.882813-8.679688-8.675781c0-4.792969 3.886719-8.679688 8.679688-8.679688s8.675781 3.886719 8.675781 8.679688zm0 0" fill="#f3d55b"/><path d="m242.636719 338.441406c-38.34375 0-69.425781-31.082031-69.425781-69.425781 0-38.339844 31.082031-69.421875 69.425781-69.421875 38.339843 0 69.421875 31.082031 69.421875 69.421875-.042969 38.324219-31.097656 69.382813-69.421875 69.425781zm0-121.492187c-28.757813 0-52.070313 23.3125-52.070313 52.066406 0 28.757813 23.3125 52.070313 52.070313 52.070313 28.753906 0 52.066406-23.3125 52.066406-52.070313-.03125-28.742187-23.324219-52.035156-52.066406-52.066406zm0 0" fill="#cbb292"/><path d="m181.890625 364.472656c-19.171875 0-34.710937-15.539062-34.710937-34.710937 0-19.167969 15.539062-34.710938 34.710937-34.710938s34.710937 15.542969 34.710937 34.710938c-.019531 19.164062-15.550781 34.691406-34.710937 34.710937zm0-52.066406c-9.585937 0-17.355469 7.769531-17.355469 17.355469 0 9.585937 7.769532 17.355469 17.355469 17.355469s17.355469-7.769532 17.355469-17.355469c-.011719-9.578125-7.773438-17.34375-17.355469-17.355469zm0 0" fill="#cbb292"/><path d="m242.636719 246.703125c-4.792969 0-8.679688-3.886719-8.679688-8.679687v-68.59375c-1.277343 1.28125-2.628906 2.484374-4.050781 3.605468-3.8125 2.824219-9.1875 2.0625-12.066406-1.710937-2.878906-3.773438-2.191406-9.15625 1.542968-12.085938 8.703126-7.230469 13.984376-17.769531 14.574219-29.070312 0-4.792969 3.886719-8.675781 8.679688-8.675781s8.675781 3.882812 8.675781 8.675781v107.855469c0 4.792968-3.882812 8.679687-8.675781 8.679687zm0 0" fill="#e4c05c"/><path d="m260.609375 174.800781c-2.300781.003907-4.507813-.910156-6.132813-2.542969-2.101562-2.101562-20.519531-21.125-20.519531-42.089843 0-4.792969 3.886719-8.675781 8.679688-8.675781s8.675781 3.882812 8.675781 8.675781c1.75 11.359375 7.171875 21.832031 15.433594 29.820312 2.480468 2.480469 3.222656 6.210938 1.882812 9.457031-1.34375 3.242188-4.507812 5.355469-8.019531 5.355469zm0 0" fill="#e4c05c"/><path d="m329.414062 364.472656c-2.292968.003906-4.492187-.902344-6.117187-2.523437l-.023437-.023438-67.707032-67.394531c-2.269531-2.171875-3.1875-5.398438-2.402344-8.4375.785157-3.042969 3.152344-5.421875 6.1875-6.222656 3.035157-.800782 6.265626.097656 8.449219 2.355468l40.457031 40.269532c-.171874-2.457032-.195312-4.179688-.195312-4.8125 0-4.785156 3.878906-8.667969 8.664062-8.667969h.019532c4.78125 0 8.660156 3.867187 8.675781 8.648437-.167969 11.480469 3.382813 22.703126 10.128906 31.992188 2.484375 2.484375 3.226563 6.214844 1.882813 9.460938-1.339844 3.242187-4.507813 5.359374-8.019532 5.355468zm0 0" fill="#e4c05c"/><path d="m329.414062 364.472656c-2.300781.003906-4.507812-.910156-6.132812-2.539062-9.289062-6.773438-20.527344-10.339844-32.023438-10.171875-4.792968-.003907-8.671874-3.890625-8.667968-8.683594s3.894531-8.675781 8.6875-8.671875c2.964844 0 29.449218.429688 44.269531 15.253906 2.480469 2.480469 3.222656 6.214844 1.878906 9.457032-1.339843 3.238281-4.5 5.355468-8.011719 5.355468zm0 0" fill="#e4c05c"/><path d="m268.667969 269.015625c0 14.378906-11.652344 26.035156-26.03125 26.035156-14.378907 0-26.035157-11.65625-26.035157-26.035156 0-14.375 11.65625-26.03125 26.035157-26.03125 14.378906 0 26.03125 11.65625 26.03125 26.03125zm0 0" fill="#e4c05c"/><path d="m242.636719 304.039062c-19.171875 0-34.710938-15.542968-34.710938-34.714843 0-19.167969 15.539063-34.710938 34.710938-34.710938s34.710937 15.542969 34.710937 34.710938c-.019531 19.164062-15.550781 34.695312-34.710937 34.714843zm0-52.070312c-9.585938 0-17.355469 7.773438-17.355469 17.355469 0 9.585937 7.769531 17.359375 17.355469 17.359375 9.585937 0 17.355469-7.773438 17.355469-17.359375-.011719-9.578125-7.777344-17.34375-17.355469-17.355469zm0 0" fill="#f3d55b"/></svg>