<svg height="510pt" viewBox="0 -2 510.75633 510" width="510pt" xmlns="http://www.w3.org/2000/svg"><path d="m445.53125 202.019531c-2.339844 0-4.585938-.929687-6.242188-2.589843l-17.515624-17.511719c-3.34375-3.464844-3.296876-8.96875.109374-12.375 3.402344-3.40625 8.910157-3.453125 12.375-.105469l17.519532 17.511719c2.523437 2.523437 3.28125 6.320312 1.914062 9.617187-1.367187 3.300782-4.585937 5.449219-8.15625 5.453125zm0 0" fill="#7f5b53"/><path d="m501.929688 144.785156c-2.34375.003906-4.589844-.929687-6.242188-2.585937l-17.507812-17.507813c-2.285157-2.21875-3.199219-5.496094-2.390626-8.578125.808594-3.082031 3.214844-5.488281 6.296876-6.296875 3.082031-.808594 6.359374.105469 8.578124 2.390625l17.507813 17.507813c2.523437 2.527344 3.277344 6.324218 1.914063 9.621094-1.367188 3.296874-4.585938 5.449218-8.15625 5.449218zm0 0" fill="#7f5b53"/><path d="m469.84375 169.410156c-2.339844 0-4.585938-.929687-6.242188-2.585937l-13.859374-13.859375c-2.285157-2.21875-3.199219-5.5-2.390626-8.578125.808594-3.082031 3.214844-5.488281 6.296876-6.296875 3.082031-.808594 6.359374.105468 8.578124 2.390625l13.859376 13.859375c2.523437 2.523437 3.277343 6.320312 1.914062 9.621094-1.367188 3.296874-4.585938 5.445312-8.15625 5.449218zm0 0" fill="#7f5b53"/><path d="m381.992188 142.046875 69.3125-69.316406 39.726562 39.726562-69.316406 69.316407zm0 0" fill="#af8066"/><path d="m352.007812 51.574219c-2.339843 0-4.585937-.929688-6.242187-2.582031l-15.601563-15.597657c-2.230468-2.226562-3.105468-5.480469-2.289062-8.527343.816406-3.046876 3.195312-5.429688 6.242188-6.246094 3.046874-.816406 6.296874.054687 8.527343 2.28125l15.605469 15.597656c2.527344 2.523438 3.285156 6.320312 1.917969 9.621094-1.367188 3.300781-4.585938 5.453125-8.160157 5.453125zm0 0" fill="#f29c1f"/><path d="m379.734375 40.089844c-4.878906 0-8.828125-3.953125-8.828125-8.828125v-22.054688c0-4.875 3.949219-8.828125 8.828125-8.828125 4.875 0 8.824219 3.953125 8.824219 8.828125v22.054688c0 4.875-3.949219 8.828125-8.824219 8.828125zm0 0" fill="#f29c1f"/><path d="m340.515625 79.300781h-22.050781c-4.875 0-8.828125-3.953125-8.828125-8.828125s3.953125-8.828125 8.828125-8.828125h22.050781c4.875 0 8.828125 3.953125 8.828125 8.828125s-3.953125 8.828125-8.828125 8.828125zm0 0" fill="#f29c1f"/><path d="m386.664062 86.230469c-2.34375.003906-4.589843-.925781-6.242187-2.585938l-6.929687-6.929687c-3.375-3.460938-3.339844-8.988282.078124-12.40625 3.414063-3.414063 8.945313-3.449219 12.402344-.078125l6.933594 6.933593c2.523438 2.523438 3.277344 6.320313 1.910156 9.617188-1.367187 3.300781-4.582031 5.449219-8.152344 5.449219zm0 0" fill="#f29c1f"/><path d="m370.742188 126.8125c-2.34375.003906-4.589844-.925781-6.242188-2.585938l-17.65625-17.65625c-.878906-.875-1.5625-1.929687-2.007812-3.085937-17.960938-19.097656-17.292969-49.070313 1.5-67.347656 18.792968-18.277344 48.769531-18.113281 67.363281.371093l24.695312 21.917969c1.90625 1.695313 2.984375 4.128907 2.960938 6.675781-.023438 2.550782-1.148438 4.964844-3.082031 6.621094l-61.792969 52.964844c-1.597657 1.375-3.632813 2.128906-5.738281 2.125zm-10.507813-31.8125 10.96875 10.964844 47.914063-41.066406-17.523438-15.554688c-5.777344-5.894531-13.667969-9.234375-21.921875-9.277344-12.289063.015625-23.355469 7.429688-28.046875 18.785156-4.6875 11.359376-2.074219 24.421876 6.625 33.101563.867188.867187 1.546875 1.902344 1.992188 3.046875zm0 0" fill="#f29c1f"/><path d="m369.945312 163.449219-189.617187 189.617187-27.894531-27.542968 189.792968-189.882813zm0 0" fill="#b19046"/><path d="m349.933594 114.128906 73.453125-73.453125c10.34375-10.339843 27.113281-10.339843 37.453125 0l4.136718 4.136719c10.34375 10.34375 10.34375 27.109375 0 37.453125l-73.453124 73.453125c-10.339844 10.34375-27.109376 10.34375-37.449219 0l-4.140625-4.136719c-10.339844-10.34375-10.339844-27.109375 0-37.453125zm0 0" fill="#f0c419"/><g fill="#f29c1f"><path d="m45.84375 349.246094c-2.339844 0-4.585938-.929688-6.242188-2.585938l-8.574218-8.582031c-2.289063-2.21875-3.203125-5.496094-2.394532-8.578125.808594-3.082031 3.214844-5.488281 6.296876-6.296875 3.082031-.808594 6.359374.105469 8.578124 2.390625l8.578126 8.582031c2.523437 2.523438 3.277343 6.320313 1.914062 9.621094-1.367188 3.296875-4.585938 5.449219-8.15625 5.449219zm0 0"/><path d="m174.558594 477.964844c-2.339844.003906-4.585938-.929688-6.242188-2.585938l-8.574218-8.582031c-2.316407-2.210937-3.25-5.503906-2.445313-8.601563.804687-3.097656 3.226563-5.519531 6.324219-6.324218 3.097656-.804688 6.390625.132812 8.601562 2.445312l8.578125 8.582032c2.523438 2.527343 3.28125 6.320312 1.914063 9.621093-1.367188 3.296875-4.585938 5.449219-8.15625 5.449219zm0 0"/><path d="m37.265625 477.964844c-3.570313 0-6.785156-2.152344-8.152344-5.449219-1.367187-3.296875-.613281-7.09375 1.914063-9.621094l8.574218-8.578125c2.21875-2.285156 5.5-3.199218 8.578126-2.390625 3.082031.808594 5.488281 3.214844 6.296874 6.296875.808594 3.082032-.105468 6.359375-2.390624 8.578125l-8.578126 8.582031c-1.652343 1.65625-3.898437 2.585938-6.242187 2.582032zm0 0"/><path d="m68.757812 499.011719c-2.945312-.003907-5.699218-1.476563-7.335937-3.929688-1.636719-2.449219-1.941406-5.554687-.820313-8.277343l4.648438-11.210938c1.890625-4.46875 7.027344-6.570312 11.507812-4.714844 4.480469 1.855469 6.625 6.976563 4.800782 11.472656l-4.644532 11.210938c-1.367187 3.296875-4.585937 5.449219-8.15625 5.449219zm0 0"/><path d="m138.421875 330.835938c-2.949219-.003907-5.699219-1.476563-7.335937-3.929688-1.636719-2.449219-1.945313-5.558594-.820313-8.28125l4.648437-11.210938c1.191407-2.9375 3.867188-5.011718 7.007813-5.433593s6.265625.875 8.191406 3.394531c1.921875 2.519531 2.347657 5.878906 1.109375 8.796875l-4.644531 11.210937c-1.367187 3.300782-4.585937 5.453126-8.15625 5.453126zm0 0"/><path d="m27.429688 376.8125c-1.160157-.003906-2.308594-.230469-3.378907-.675781l-11.210937-4.648438c-2.914063-1.207031-4.960938-3.878906-5.371094-7.003906-.414062-3.128906.875-6.234375 3.378906-8.15625 2.5-1.917969 5.835938-2.359375 8.75-1.152344l11.21875 4.648438c3.894532 1.609375 6.109375 5.75 5.285156 9.882812-.824218 4.136719-4.453124 7.109375-8.671874 7.105469zm0 0"/><path d="m195.613281 446.472656c-1.160156 0-2.308593-.230468-3.382812-.675781l-11.214844-4.648437c-4.503906-1.863282-6.640625-7.027344-4.773437-11.53125 1.863281-4.503907 7.027343-6.644532 11.53125-4.777344l11.21875 4.644531c3.894531 1.609375 6.109374 5.75 5.289062 9.882813-.824219 4.136718-4.453125 7.109374-8.667969 7.105468zm0 0"/><path d="m105.914062 506.398438c-4.875 0-8.828124-3.949219-8.828124-8.824219v-12.136719c0-4.875 3.953124-8.824219 8.828124-8.824219s8.828126 3.949219 8.828126 8.824219v12.136719c0 4.875-3.953126 8.824219-8.828126 8.824219zm0 0"/><path d="m105.914062 324.367188c-4.875 0-8.828124-3.953126-8.828124-8.828126v-12.140624c0-4.875 3.953124-8.824219 8.828124-8.824219s8.828126 3.949219 8.828126 8.824219v12.140624c0 4.875-3.953126 8.828126-8.828126 8.828126zm0 0"/><path d="m20.964844 409.3125h-12.136719c-4.875 0-8.828125-3.949219-8.828125-8.824219s3.953125-8.828125 8.828125-8.828125h12.136719c4.875 0 8.828125 3.953125 8.828125 8.828125s-3.953125 8.824219-8.828125 8.824219zm0 0"/><path d="m203 409.3125h-12.140625c-4.875 0-8.824219-3.949219-8.824219-8.824219s3.949219-8.828125 8.824219-8.828125h12.140625c4.875 0 8.828125 3.953125 8.828125 8.828125s-3.953125 8.824219-8.828125 8.824219zm0 0"/><path d="m143.070312 499.011719c-3.574218 0-6.792968-2.152344-8.15625-5.453125l-4.648437-11.210938c-1.234375-2.917968-.808594-6.277344 1.113281-8.796875s5.046875-3.8125 8.191406-3.394531c3.140626.421875 5.816407 2.496094 7.007813 5.433594l4.644531 11.210937c1.125 2.726563.820313 5.832031-.816406 8.28125-1.636719 2.453125-4.390625 3.925781-7.335938 3.929688zm0 0"/><path d="m73.40625 330.835938c-3.574219 0-6.792969-2.152344-8.15625-5.453126l-4.648438-11.210937c-1.234374-2.917969-.808593-6.277344 1.113282-8.796875s5.050781-3.816406 8.191406-3.394531 5.816406 2.496093 7.007812 5.433593l4.644532 11.210938c1.128906 2.722656.820312 5.832031-.816406 8.28125-1.636719 2.453125-4.390626 3.925781-7.335938 3.929688zm0 0"/><path d="m16.214844 446.472656c-4.214844.003906-7.84375-2.96875-8.667969-7.105468-.820313-4.132813 1.394531-8.273438 5.289063-9.882813l11.210937-4.644531c4.503906-1.867188 9.667969.273437 11.535156 4.777344 1.867188 4.503906-.273437 9.667968-4.777343 11.53125l-11.214844 4.648437c-1.070313.445313-2.214844.675781-3.375.675781zm0 0"/><path d="m184.394531 376.8125c-4.214843.003906-7.84375-2.972656-8.667969-7.105469-.820312-4.136719 1.394532-8.273437 5.289063-9.882812l11.214844-4.648438c2.914062-1.207031 6.25-.765625 8.753906 1.152344 2.503906 1.921875 3.789063 5.027344 3.378906 8.15625-.410156 3.125-2.460937 5.796875-5.371093 7.003906l-11.21875 4.648438c-1.070313.445312-2.21875.671875-3.378907.675781zm0 0"/></g><path d="m194.171875 400.488281c0 48.742188-39.515625 88.257813-88.257813 88.257813-48.746093 0-88.257812-39.515625-88.257812-88.257813 0-48.746093 39.511719-88.257812 88.257812-88.257812 48.742188 0 88.257813 39.511719 88.257813 88.257812zm0 0" fill="#f0c419"/><path d="m105.914062 497.574219c-43.941406 0-82.410156-29.511719-93.78125-71.957031-11.375-42.445313 7.175782-87.238282 45.230469-109.210938 38.058594-21.972656 86.125-15.644531 117.195313 15.429688 27.765625 27.765624 36.074218 69.523437 21.046875 105.800781-15.023438 36.277343-50.425781 59.933593-89.691407 59.9375zm0-176.480469c-37.859374.03125-70.429687 26.800781-77.789062 63.9375s12.539062 74.304688 47.523438 88.773438c34.988281 14.464843 75.324218 2.207031 96.339843-29.28125 21.019531-31.492188 16.871094-73.445313-9.910156-100.203126-14.886719-14.90625-35.101563-23.261718-56.164063-23.226562zm0 0" fill="#f29c1f"/><path d="m132.378906 400.488281c0 14.613281-11.847656 26.464844-26.464844 26.464844-14.617187 0-26.464843-11.851563-26.464843-26.464844 0-14.617187 11.847656-26.464843 26.464843-26.464843 14.617188 0 26.464844 11.847656 26.464844 26.464843zm0 0" fill="#fff"/><path d="m122.246094 463.058594c-4.386719.003906-8.109375-3.207032-8.746094-7.542969-.640625-4.339844 2-8.488281 6.203125-9.742187 15.140625-4.523438 26.988281-16.371094 31.511719-31.515626 1.402344-4.671874 6.324218-7.320312 10.996094-5.917968 4.671874 1.402344 7.320312 6.324218 5.917968 10.996094-6.222656 20.824218-22.515625 37.117187-43.34375 43.34375-.824218.246093-1.679687.375-2.539062.378906zm0 0" fill="#f9eab0"/><path d="m52.152344 392.964844c-.859375-.003906-1.710938-.128906-2.535156-.375-4.667969-1.402344-7.316407-6.324219-5.921876-10.996094 6.226563-20.824219 22.515626-37.117188 43.34375-43.34375 3.03125-.941406 6.335938-.1875 8.652344 1.980469 2.320313 2.167969 3.296875 5.414062 2.558594 8.5-.738281 3.089843-3.074219 5.542969-6.125 6.425781-15.144531 4.523438-26.992188 16.371094-31.515625 31.515625-1.121094 3.734375-4.554687 6.292969-8.457031 6.292969zm0 0" fill="#f9eab0"/></svg>