<svg height="90pt" viewBox="0 -4 512 512" width="90pt" xmlns="http://www.w3.org/2000/svg"><path d="m265.214844 258.046875v40.617187h-34.132813v-40.617187c.003907-6.476563 3.671875-12.394531 9.472657-15.277344.945312-.492187 1.949218-.867187 2.988281-1.109375 5.132812-1.460937 10.660156-.429687 14.917969 2.789063 4.261718 3.222656 6.761718 8.257812 6.753906 13.597656zm0 0" fill="#e4c05c"/><path d="m256 258.046875v40.617187h-24.917969v-40.617187c.003907-6.476563 3.671875-12.394531 9.472657-15.277344.945312-.492187 1.949218-.867187 2.988281-1.109375 1.035156.242188 2.039062.617188 2.984375 1.109375 5.800781 2.882813 9.46875 8.800781 9.472656 15.277344zm0 0" fill="#b19046"/><path d="m188.414062 196.265625v76.800781h-34.132812v-76.800781c.015625-7.636719 5.105469-14.332031 12.460938-16.386719 1.496093-.445312 3.046874-.675781 4.605468-.679687 9.398438.066406 17 7.667969 17.066406 17.066406zm0 0" fill="#e4c05c"/><path d="m179.199219 196.265625v76.800781h-24.917969v-76.800781c.015625-7.636719 5.105469-14.332031 12.460938-16.386719 2.816406.765625 5.382812 2.265625 7.421874 4.355469 3.242188 3.160156 5.058594 7.503906 5.035157 12.03125zm0 0" fill="#b19046"/><path d="m34.132812 315.730469c-4.710937 0-8.53125-3.820313-8.53125-8.53125v-76.800781c0-4.714844 3.820313-8.535157 8.53125-8.535157 4.714844 0 8.535157 3.820313 8.535157 8.535157v76.800781c0 4.710937-3.820313 8.53125-8.535157 8.53125zm0 0" fill="#c03a2b"/><path d="m120.148438 264.53125c-4.710938 0-8.53125-3.820312-8.53125-8.535156v-25.597656c0-4.714844 3.820312-8.535157 8.53125-8.535157 4.714843 0 8.535156 3.820313 8.535156 8.535157v25.597656c0 4.714844-3.820313 8.535156-8.535156 8.535156zm0 0" fill="#c03a2b"/><path d="m76.800781 315.730469c-4.714843 0-8.535156-3.820313-8.535156-8.53125v-76.800781c0-4.714844 3.820313-8.535157 8.535156-8.535157 4.710938 0 8.53125 3.820313 8.53125 8.535157v76.800781c0 4.710937-3.820312 8.53125-8.53125 8.53125zm0 0" fill="#c03a2b"/><path d="m25.601562 307.199219h102.398438v68.265625h-102.398438zm0 0" fill="#802f34"/><path d="m299.351562 213.332031h42.667969v93.867188h-42.667969zm0 0" fill="#7f8c8d"/><path d="m298.667969 213.332031h34.132812v93.867188h-34.132812zm0 0" fill="#5e5f62"/><path d="m359.082031 179.199219-17.066406 42.664062h-42.667969l-17.066406-42.664062c-.023438-18.597657 14.859375-33.78125 33.453125-34.132813h9.214844c9.054687-.003906 17.738281 3.589844 24.136719 9.992188 6.402343 6.402344 10 15.085937 9.996093 24.140625zm0 0" fill="#f0c419"/><path d="m349.867188 179.199219-17.066407 42.664062h-33.453125l-17.066406-42.664062c-.023438-18.597657 14.859375-33.78125 33.453125-34.132813h.679687c18.582032.378906 33.445313 15.546875 33.453126 34.132813zm0 0" fill="#2c3e50"/><path d="m367.617188 255.996094c-4.714844 0-8.535157-3.820313-8.535157-8.53125v-8.535156c0-4.710938 3.820313-8.53125 8.535157-8.53125 4.710937 0 8.53125 3.820312 8.53125 8.53125v8.535156c0 4.710937-3.820313 8.53125-8.53125 8.53125zm0 0" fill="#2c3e50"/><path d="m384.683594 264.53125v8.535156c-.039063 9.339844-7.554688 16.933594-16.898438 17.066406h-8.957031v-42.667968h8.789063c1.707031-.015625 3.40625.242187 5.035156.769531 7.144531 2.210937 12.023437 8.816406 12.03125 16.296875zm0 0" fill="#f9eab0"/><path d="m358.828125 247.464844v42.667968h-8.277344l-8.535156-8.535156v-34.132812zm0 0" fill="#35495e"/><path d="m350.550781 315.730469-171.351562 8.535156 17.75-42.667969h145.066406c4.714844 0 8.535156 3.820313 8.535156 8.535156zm0 0" fill="#f29c1f"/><path d="m332.800781 315.730469-153.601562 8.535156 15.914062-42.667969h130.039063c4.460937.257813 7.878906 4.070313 7.648437 8.535156zm0 0" fill="#7f8c8d"/><path d="m367.617188 358.398438-188.417969 17.066406 17.75-59.734375h153.601562c9.425781 0 17.066407 7.640625 17.066407 17.066406zm0 0" fill="#67b9cc"/><path d="m349.867188 358.398438-170.667969 17.066406 16.078125-59.734375h139.128906c8.972656.464843 15.882812 8.09375 15.460938 17.066406zm0 0" fill="#285680"/><path d="m376.121094 358.246094 91.390625 88.527344c2.042969 2.554687 2.4375 6.058593 1.019531 9.003906-1.421875 2.949218-4.402344 4.820312-7.675781 4.820312h-102.144531l11.480468-58.378906zm0 0" fill="#e64c3c"/><path d="m358.742188 358.246094 91.390624 88.527344c2.042969 2.554687 2.4375 6.058593 1.019532 9.003906-1.421875 2.949218-4.402344 4.820312-7.675782 4.820312h-102.144531l11.484375-58.378906zm0 0" fill="#c03a2b"/><path d="m249.769531 460.796875h32.941407l90.085937-.53125 7.363281-22.082031-4.011718-26.28125v-53.503906h-350.546876v51.199218c.011719 4.707032 3.824219 8.519532 8.53125 8.535156h20.738282l-.472656 42.664063zm0 0" fill="#2c3e50"/><path d="m196.949219 264.53125v93.867188h-85.332031v-102.402344h76.796874c4.707032.015625 8.519532 3.828125 8.535157 8.535156zm0 0" fill="#35495e"/><path d="m179.199219 264.53125v93.867188h-67.582031v-102.402344h59.050781c4.707031.015625 8.519531 3.828125 8.53125 8.535156zm0 0" fill="#2c2f38"/><path d="m359.082031 179.199219h-76.800781c-.023438-18.597657 14.859375-33.78125 33.453125-34.132813h9.214844c9.054687-.003906 17.738281 3.589844 24.136719 9.992188 6.402343 6.402344 10 15.085937 9.996093 24.140625zm0 0" fill="#b19046"/><path d="m349.867188 179.199219h-67.585938c-.023438-18.597657 14.859375-33.78125 33.453125-34.132813h.679687c18.582032.378906 33.445313 15.546875 33.453126 34.132813zm0 0" fill="#35495e"/><path d="m128.597656 225.105469c.292969 1.28125-.007812 2.621093-.820312 3.652343-.8125 1.027344-2.050782 1.632813-3.363282 1.640626h-111.613281c-1.3125.003906-2.546875-.601563-3.351562-1.640626-.800781-1.035156-1.074219-2.382812-.746094-3.652343l6.742187-22.355469c.925782-3.816406 4.351563-6.5 8.277344-6.484375h89.769532c3.929687-.015625 7.351562 2.667969 8.277343 6.484375zm0 0" fill="#fb7b76"/><path d="m110.816406 225.105469c.273438 1.335937-.085937 2.71875-.972656 3.753906-.882812 1.03125-2.195312 1.601563-3.554688 1.539063h-93.136718c-1.359375.074218-2.671875-.492188-3.546875-1.535157-.871094-1.039062-1.203125-2.433593-.890625-3.757812l7.296875-22.355469c1.175781-3.941406 4.851562-6.601562 8.960937-6.484375h69.492188c4.109375-.117187 7.785156 2.542969 8.960937 6.484375zm0 0" fill="#e64c3c"/><path d="m409.609375 247.464844c-4.015625 0-7.492187-2.796875-8.34375-6.722656-.851563-3.921876 1.144531-7.910157 4.800781-9.578126l93.867188-42.664062c4.265625-1.835938 9.21875.074219 11.140625 4.300781 1.921875 4.230469.113281 9.21875-4.074219 11.230469l-93.867188 42.664062c-1.105468.503907-2.308593.765626-3.523437.769532zm0 0" fill="#f3d55b"/><path d="m503.457031 358.398438c-1.214843-.003907-2.417969-.265626-3.523437-.769532l-93.867188-42.664062c-4.1875-2.011719-5.996094-7-4.074218-11.230469 1.925781-4.226563 6.875-6.136719 11.140624-4.300781l93.867188 42.664062c3.65625 1.667969 5.652344 5.65625 4.800781 9.578125-.851562 3.925781-4.328125 6.722657-8.34375 6.722657zm0 0" fill="#f3d55b"/><path d="m494.933594 281.597656h-68.265625c-4.714844 0-8.535157-3.820312-8.535157-8.53125 0-4.714844 3.820313-8.535156 8.535157-8.535156h68.265625c4.710937 0 8.53125 3.820312 8.53125 8.535156 0 4.710938-3.820313 8.53125-8.53125 8.53125zm0 0" fill="#f3d55b"/><path d="m341.761719 100.441406c-.582031.8125-1.289063 1.527344-2.09375 2.117188-23.472657 17.085937-48.773438 5.820312-55.980469-14.050782-1.515625-3.789062-5.695312-5.769531-9.589844-4.542968-11.289062 3.296875-23.484375.539062-32.253906-7.304688-2.976562-2.78125-7.535156-2.976562-10.734375-.453125-17.152344 13.496094-41.730469 11.851563-56.929687-3.8125-2.78125-2.875-7.222657-3.339843-10.539063-1.101562-13.25 8.210937-30.246094 7.128906-42.347656-2.695313-.816407-.589844-1.535157-1.304687-2.125-2.121094-19.980469-27.855468-.570313-57.945312 25.898437-57.945312 6.5625-.015625 12.988282 1.878906 18.492188 5.453125 3.335937 2.265625 7.816406 1.816406 10.632812-1.070313 8.855469-9.097656 21.300782-13.785156 33.957032-12.78125 12.652343 1.003907 24.207031 7.589844 31.511718 17.972657 2.292969 3.1875 6.578125 4.199219 10.050782 2.371093 4.617187-2.253906 9.6875-3.417968 14.824218-3.410156 14.246094-.007812 26.996094 8.847656 31.964844 22.199219 1.617188 3.90625 5.949219 5.933594 9.984375 4.675781 3.007813-.851562 6.121094-1.28125 9.25-1.277344 26.414063 0 45.796875 29.96875 26.027344 57.777344zm0 0" fill="#bdc3c7"/><path d="m85.332031 34.132812c0 9.425782-7.640625 17.066407-17.066406 17.066407s-17.066406-7.640625-17.066406-17.066407c0-9.425781 7.640625-17.066406 17.066406-17.066406s17.066406 7.640625 17.066406 17.066406zm0 0" fill="#bdc3c7"/><path d="m34.132812 51.199219c0 4.710937-3.820312 8.53125-8.53125 8.53125-4.714843 0-8.535156-3.820313-8.535156-8.53125 0-4.714844 3.820313-8.535157 8.535156-8.535157 4.710938 0 8.53125 3.820313 8.53125 8.535157zm0 0" fill="#bdc3c7"/><path d="m17.066406 85.332031c0 4.710938-3.820312 8.53125-8.53125 8.53125-4.714844 0-8.535156-3.820312-8.535156-8.53125 0-4.714843 3.820312-8.535156 8.535156-8.535156 4.710938 0 8.53125 3.820313 8.53125 8.535156zm0 0" fill="#bdc3c7"/><path d="m307.199219 383.996094c0 4.714844-3.820313 8.535156-8.53125 8.535156-4.714844 0-8.535157-3.820312-8.535157-8.535156 0-4.710938 3.820313-8.53125 8.535157-8.53125 4.710937 0 8.53125 3.820312 8.53125 8.53125zm0 0" fill="#95a5a5"/><path d="m281.601562 383.996094c0 4.714844-3.820312 8.535156-8.535156 8.535156-4.710937 0-8.53125-3.820312-8.53125-8.535156 0-4.710938 3.820313-8.53125 8.53125-8.53125 4.714844 0 8.535156 3.820312 8.535156 8.53125zm0 0" fill="#95a5a5"/><path d="m332.800781 383.996094c0 4.714844-3.820312 8.535156-8.535156 8.535156-4.710937 0-8.53125-3.820312-8.53125-8.535156 0-4.710938 3.820313-8.53125 8.53125-8.53125 4.714844 0 8.535156 3.820312 8.535156 8.53125zm0 0" fill="#95a5a5"/><path d="m358.398438 383.996094c0 4.714844-3.820313 8.535156-8.53125 8.535156-4.714844 0-8.535157-3.820312-8.535157-8.535156 0-4.710938 3.820313-8.53125 8.535157-8.53125 4.710937 0 8.53125 3.820312 8.53125 8.53125zm0 0" fill="#95a5a5"/><path d="m145.066406 332.796875c0 4.714844-3.820312 8.535156-8.53125 8.535156-4.714844 0-8.535156-3.820312-8.535156-8.535156 0-4.710937 3.820312-8.53125 8.535156-8.53125 4.710938 0 8.53125 3.820313 8.53125 8.53125zm0 0" fill="#e4c05c"/><path d="m145.066406 307.199219c0 4.710937-3.820312 8.53125-8.53125 8.53125-4.714844 0-8.535156-3.820313-8.535156-8.53125 0-4.714844 3.820312-8.535157 8.535156-8.535157 4.710938 0 8.53125 3.820313 8.53125 8.535157zm0 0" fill="#e4c05c"/><path d="m145.066406 281.597656c0 4.714844-3.820312 8.535156-8.53125 8.535156-4.714844 0-8.535156-3.820312-8.535156-8.535156 0-4.710937 3.820312-8.53125 8.535156-8.53125 4.710938 0 8.53125 3.820313 8.53125 8.53125zm0 0" fill="#e4c05c"/><g fill="#e64c3c"><path d="m82.804688 387.894531 13.0625 31.535157"/><path d="m95.867188 427.96875c-3.453126 0-6.566407-2.082031-7.882813-5.273438l-13.0625-31.539062c-1.238281-2.832031-.851563-6.109375 1.015625-8.570312 1.863281-2.464844 4.914062-3.726563 7.976562-3.300782 3.058594.421875 5.652344 2.46875 6.773438 5.347656l13.058594 31.535157c1.085937 2.632812.789062 5.636719-.792969 8.003906-1.582031 2.371094-4.242187 3.792969-7.089844 3.796875zm0 0"/><path d="m108.929688 450.964844 13.0625 31.535156"/><path d="m121.992188 491.039062c-3.453126 0-6.566407-2.082031-7.882813-5.273437l-13.058594-31.539063c-1.226562-2.828124-.835937-6.101562 1.027344-8.558593 1.867187-2.457031 4.910156-3.71875 7.964844-3.296875 3.058593.421875 5.648437 2.460937 6.777343 5.332031l13.054688 31.535156c1.089844 2.632813.789062 5.636719-.792969 8.003907-1.582031 2.371093-4.242187 3.792968-7.089843 3.796874zm0 0"/><path d="m149.703125 415.605469-31.535156 13.0625"/><path d="m118.167969 437.207031c-4.078125.003907-7.585938-2.871093-8.382813-6.867187-.796875-4 1.347656-8 5.113282-9.554688l31.535156-13.066406c2.820312-1.191406 6.066406-.78125 8.5 1.078125 2.4375 1.855469 3.691406 4.878906 3.28125 7.917969-.40625 3.035156-2.410156 5.621094-5.25 6.773437l-31.53125 13.0625c-1.035156.429688-2.144532.652344-3.265625.65625zm0 0"/><path d="m86.632812 441.730469-31.535156 13.0625"/><path d="m55.101562 463.328125c-4.078124.003906-7.585937-2.875-8.378906-6.871094-.796875-3.996093 1.34375-7.996093 5.109375-9.550781l31.539063-13.0625c2.816406-1.167969 6.042968-.742188 8.460937 1.113281s3.664063 4.859375 3.265625 7.882813c-.398437 3.023437-2.375 5.605468-5.191406 6.769531l-31.539062 13.066406c-1.035157.429688-2.144532.652344-3.265626.652344zm0 0"/><path d="m55.097656 415.605469 31.535156 13.0625"/><path d="m86.632812 437.207031c-1.121093-.003906-2.230468-.222656-3.265624-.65625l-31.535157-13.0625c-4.351562-1.804687-6.421875-6.796875-4.617187-11.152343 1.804687-4.351563 6.796875-6.421876 11.152344-4.617188l31.535156 13.0625c3.765625 1.554688 5.910156 5.558594 5.113281 9.554688-.792969 3.996093-4.304687 6.875-8.382813 6.867187zm0 0"/><path d="m118.167969 441.730469 31.535156 13.0625"/><path d="m149.699219 463.328125c-1.121094 0-2.230469-.222656-3.265625-.652344l-31.535156-13.066406c-2.816407-1.164063-4.796876-3.746094-5.191407-6.769531-.398437-3.023438.847657-6.027344 3.265625-7.882813 2.417969-1.855469 5.644532-2.28125 8.460938-1.113281l31.535156 13.0625c3.765625 1.554688 5.90625 5.554688 5.109375 9.550781-.792969 3.996094-4.304687 6.875-8.378906 6.871094zm0 0"/><path d="m121.992188 387.894531-13.0625 31.535157"/><path d="m108.933594 427.96875c-2.847656-.003906-5.507813-1.425781-7.089844-3.796875-1.582031-2.367187-1.882812-5.371094-.792969-8.003906l13.054688-31.535157c1.125-2.878906 3.714843-4.925781 6.777343-5.347656 3.058594-.425781 6.109376.835938 7.976563 3.300782 1.863281 2.460937 2.25 5.738281 1.011719 8.570312l-13.054688 31.539062c-1.320312 3.1875-4.429687 5.269532-7.882812 5.273438zm0 0"/><path d="m95.867188 450.964844-13.0625 31.535156"/><path d="m82.808594 491.039062c-2.847656-.003906-5.511719-1.425781-7.09375-3.792968-1.582032-2.371094-1.878906-5.375-.792969-8.007813l13.058594-31.535156c1.128906-2.871094 3.71875-4.910156 6.773437-5.332031 3.054688-.421875 6.101563.839844 7.964844 3.296875s2.257812 5.730469 1.027344 8.558593l-13.054688 31.539063c-1.320312 3.191406-4.429687 5.269531-7.882812 5.273437zm0 0"/><path d="m185.207031 387.894531 13.0625 31.535157"/><path d="m198.265625 427.96875c-3.453125 0-6.5625-2.082031-7.882813-5.273438l-13.054687-31.539062c-1.238281-2.832031-.851563-6.109375 1.011719-8.570312 1.867187-2.464844 4.917968-3.726563 7.976562-3.300782 3.0625.421875 5.652344 2.46875 6.777344 5.347656l13.054688 31.535157c1.089843 2.632812.789062 5.636719-.792969 8.003906-1.582031 2.371094-4.242188 3.792969-7.089844 3.796875zm0 0"/><path d="m211.332031 450.964844 13.0625 31.535156"/><path d="m224.390625 491.039062c-3.453125 0-6.566406-2.082031-7.882813-5.273437l-13.054687-31.539063c-1.230469-2.828124-.835937-6.101562 1.027344-8.558593s4.910156-3.71875 7.964843-3.296875c3.054688.421875 5.644532 2.460937 6.773438 5.332031l13.058594 31.535156c1.085937 2.632813.789062 5.636719-.792969 8.003907-1.582031 2.371093-4.242187 3.792968-7.09375 3.796874zm0 0"/><path d="m252.101562 415.605469-31.535156 13.0625"/><path d="m220.566406 437.207031c-4.074218.003907-7.585937-2.871093-8.382812-6.867187-.792969-4 1.347656-8 5.117187-9.554688l31.53125-13.066406c2.820313-1.191406 6.066407-.78125 8.503907 1.078125 2.433593 1.855469 3.6875 4.878906 3.28125 7.917969-.410157 3.035156-2.414063 5.621094-5.253907 6.773437l-31.53125 13.0625c-1.035156.429688-2.144531.652344-3.265625.65625zm0 0"/><path d="m189.03125 441.730469-31.535156 13.0625"/><path d="m157.5 463.328125c-4.074219.003906-7.585938-2.875-8.378906-6.871094-.796875-3.996093 1.347656-7.996093 5.113281-9.550781l31.535156-13.0625c2.816407-1.167969 6.042969-.742188 8.460938 1.113281 2.421875 1.855469 3.664062 4.859375 3.269531 7.882813-.398438 3.023437-2.378906 5.605468-5.195312 6.769531l-31.535157 13.066406c-1.039062.429688-2.148437.652344-3.269531.652344zm0 0"/><path d="m157.496094 415.605469 31.535156 13.0625"/><path d="m189.03125 437.207031c-1.121094-.003906-2.230469-.222656-3.265625-.65625l-31.53125-13.0625c-4.355469-1.804687-6.421875-6.796875-4.617187-11.152343 1.804687-4.351563 6.796874-6.421876 11.152343-4.617188l31.53125 13.0625c3.769531 1.554688 5.910157 5.558594 5.117188 9.554688-.796875 3.996093-4.308594 6.875-8.382813 6.867187zm0 0"/><path d="m220.566406 441.730469 31.535156 13.0625"/><path d="m252.101562 463.328125c-1.121093 0-2.234374-.222656-3.269531-.652344l-31.53125-13.066406c-2.816406-1.164063-4.796875-3.746094-5.195312-6.769531-.398438-3.023438.847656-6.027344 3.265625-7.882813 2.421875-1.855469 5.644531-2.28125 8.460937-1.113281l31.535157 13.0625c3.765624 1.554688 5.90625 5.554688 5.113281 9.550781-.796875 3.996094-4.304688 6.875-8.378907 6.871094zm0 0"/><path d="m224.394531 387.894531-13.0625 31.535157"/><path d="m211.332031 427.96875c-2.847656-.003906-5.507812-1.425781-7.089843-3.796875-1.582032-2.367187-1.878907-5.371094-.792969-8.003906l13.058593-31.535157c1.121094-2.878906 3.714844-4.925781 6.773438-5.347656 3.0625-.425781 6.113281.835938 7.976562 3.300782 1.863282 2.460937 2.253907 5.738281 1.015626 8.570312l-13.058594 31.539062c-1.320313 3.1875-4.429688 5.269532-7.882813 5.273438zm0 0"/><path d="m198.269531 450.964844-13.0625 31.535156"/><path d="m185.207031 491.039062c-2.847656-.003906-5.507812-1.425781-7.089843-3.796874-1.582032-2.367188-1.878907-5.371094-.792969-8.003907l13.058593-31.535156c1.128907-2.871094 3.71875-4.910156 6.773438-5.332031s6.101562.839844 7.964844 3.296875c1.863281 2.457031 2.257812 5.730469 1.027344 8.558593l-13.054688 31.539063c-1.320312 3.191406-4.433594 5.273437-7.886719 5.273437zm0 0"/></g><path d="m102.398438 494.929688c-32.988282 0-59.730469-26.742188-59.730469-59.730469 0-32.992188 26.742187-59.734375 59.730469-59.734375 32.992187 0 59.734374 26.742187 59.734374 59.734375-.039062 32.972656-26.757812 59.695312-59.734374 59.730469zm0-102.398438c-23.5625 0-42.664063 19.101562-42.664063 42.667969 0 23.5625 19.101563 42.664062 42.664063 42.664062 23.566406 0 42.667968-19.101562 42.667968-42.664062-.027344-23.554688-19.113281-42.640625-42.667968-42.667969zm0 0" fill="#2c2f38"/><path d="m204.800781 494.929688c-32.992187 0-59.734375-26.742188-59.734375-59.730469 0-32.992188 26.742188-59.734375 59.734375-59.734375 32.988281 0 59.734375 26.742187 59.734375 59.734375-.039062 32.972656-26.761718 59.695312-59.734375 59.730469zm0-102.398438c-23.566406 0-42.667969 19.101562-42.667969 42.667969 0 23.5625 19.101563 42.664062 42.667969 42.664062 23.5625 0 42.664063-19.101562 42.664063-42.664062-.027344-23.554688-19.113282-42.640625-42.664063-42.667969zm0 0" fill="#2c2f38"/><path d="m102.398438 460.796875c-14.136719 0-25.597657-11.460937-25.597657-25.597656 0-14.140625 11.460938-25.601563 25.597657-25.601563 14.140624 0 25.601562 11.460938 25.601562 25.601563-.015625 14.128906-11.46875 25.582031-25.601562 25.597656zm0-34.132813c-4.710938 0-8.53125 3.820313-8.53125 8.535157 0 4.710937 3.820312 8.53125 8.53125 8.53125 4.714843 0 8.535156-3.820313 8.535156-8.53125-.003906-4.710938-3.824219-8.53125-8.535156-8.535157zm0 0" fill="#802f34"/><path d="m204.800781 460.796875c-14.140625 0-25.601562-11.460937-25.601562-25.597656 0-14.140625 11.460937-25.601563 25.601562-25.601563 14.136719 0 25.597657 11.460938 25.597657 25.601563-.015626 14.128906-11.464844 25.582031-25.597657 25.597656zm0-34.132813c-4.714843 0-8.535156 3.820313-8.535156 8.535157 0 4.710937 3.820313 8.53125 8.535156 8.53125 4.710938 0 8.53125-3.820313 8.53125-8.53125-.003906-4.710938-3.820312-8.53125-8.53125-8.535157zm0 0" fill="#802f34"/><path d="m213.332031 460.796875h-110.933593c-4.710938 0-8.53125-3.820313-8.53125-8.53125 0-4.714844 3.820312-8.535156 8.53125-8.535156h109.683593l84.132813-25.242188c2.921875-.875 6.085937-.125 8.304687 1.964844 2.21875 2.09375 3.152344 5.210937 2.449219 8.175781-.703125 2.96875-2.933594 5.335938-5.855469 6.210938l-85.332031 25.601562c-.792969.234375-1.617188.355469-2.449219.355469zm0 0" fill="#7f8c8d"/><path d="m324.265625 465.066406c0 11.78125-9.550781 21.332032-21.332031 21.332032s-21.332032-9.550782-21.332032-21.332032c0-11.785156 9.550782-21.335937 21.332032-21.335937s21.332031 9.550781 21.332031 21.335937zm0 0" fill="#802f34"/><path d="m392.535156 465.066406c0 11.78125-9.554687 21.332032-21.335937 21.332032s-21.332031-9.550782-21.332031-21.332032c0-11.785156 9.550781-21.335937 21.332031-21.335937s21.335937 9.550781 21.335937 21.335937zm0 0" fill="#802f34"/><path d="m303.617188 494.929688c-16.496094 0-29.867188-13.371094-29.867188-29.863282 0-16.496094 13.371094-29.867187 29.867188-29.867187 16.492187 0 29.867187 13.371093 29.867187 29.867187-.019531 16.484375-13.382813 29.84375-29.867187 29.863282zm0-42.664063c-7.070313 0-12.800782 5.730469-12.800782 12.800781 0 7.066406 5.730469 12.796875 12.800782 12.796875 7.066406 0 12.796874-5.730469 12.796874-12.796875-.003906-7.066406-5.730468-12.792968-12.796874-12.800781zm0 0" fill="#2c2f38"/><path d="m371.882812 494.929688c-16.496093 0-29.867187-13.371094-29.867187-29.863282 0-16.496094 13.371094-29.867187 29.867187-29.867187 16.496094 0 29.867188 13.371093 29.867188 29.867187-.019531 16.484375-13.378906 29.84375-29.867188 29.863282zm0-42.664063c-7.070312 0-12.800781 5.730469-12.800781 12.800781 0 7.066406 5.730469 12.796875 12.800781 12.796875 7.070313 0 12.800782-5.730469 12.800782-12.796875-.007813-7.066406-5.734375-12.792968-12.800782-12.800781zm0 0" fill="#2c2f38"/><path d="m307.882812 409.597656h59.734376c9.425781 0 17.066406 7.640625 17.066406 17.066406 0 9.425782-7.640625 17.066407-17.066406 17.066407h-59.734376c-9.425781 0-17.066406-7.640625-17.066406-17.066407 0-9.425781 7.640625-17.066406 17.066406-17.066406zm0 0" fill="#f3d55b"/><path d="m315.734375 409.597656h42.664063c9.425781 0 17.066406 7.640625 17.066406 17.066406 0 9.425782-7.640625 17.066407-17.066406 17.066407h-42.664063c-9.425781 0-17.066406-7.640625-17.066406-17.066407 0-9.425781 7.640625-17.066406 17.066406-17.066406zm0 0" fill="#f0c419"/><path d="m503.464844 503.464844h-494.929688c-4.714844 0-8.535156-3.820313-8.535156-8.535156 0-4.710938 3.820312-8.53125 8.535156-8.53125h494.929688c4.714844 0 8.535156 3.820312 8.535156 8.53125 0 4.714843-3.820312 8.535156-8.535156 8.535156zm0 0" fill="#a5a5a4"/></svg>