<svg height="512pt" viewBox="0 0 512.57203 512" width="512pt" xmlns="http://www.w3.org/2000/svg"><path d="m459.0625 35.574219-3.792969 15.273437-5.035156 20.039063-317.792969 185.378906-44.136718 52.964844-57.378907 23.128906c-8.101562-.289063-15.855469-3.34375-21.980469-8.652344-2.046874-2-3.75-4.324219-5.03125-6.882812-16.332031-33.015625 22.332032-59.324219 44.492188-76.535157 8.601562-6.179687 16.21875-13.617187 22.597656-22.070312 12.863282-18.894531 23.554688-39.179688 31.867188-60.46875 0-.089844.089844-.089844.089844-.175781 1.625-3.957031 4.59375-7.207031 8.382812-9.183594l37.695312-18.535156 67.441407-33.28125 122.703125-60.46875c4.117187-2.042969 7.257812-5.628907 8.742187-9.976563l3.175781-9.445312c1.460938-4.359375 4.609376-7.957032 8.742188-9.972656l9.445312-4.679688c4.699219-2.261719 10.164063-2.328125 14.917969-.175781zm0 0" fill="#e4c05c"/><path d="m150.097656 220.953125s-70.621094 26.484375-88.273437 79.449219c-17.65625 52.964844 44.136719 0 44.136719 0l26.480468-44.136719 26.484375-17.65625zm0 0" fill="#b19046"/><path d="m265.191406 111.070312 165.535156-81.601562 38.332032 77.300781-165.527344 81.601563zm0 0" fill="#f0c419"/><path d="m265.191406 111.070312 165.507813-81.640624 31.082031 62.625-165.515625 81.636718zm0 0" fill="#f3d55b"/><path d="m507.65625 107.183594-22.9375 11.308594c-4.371094 2.160156-9.660156.375-11.828125-3.988282l-42.089844-84.878906c-1.039062-2.09375-1.199219-4.515625-.449219-6.726562.75-2.214844 2.351563-4.035157 4.453126-5.066407l22.933593-11.308593c4.371094-2.15625 9.660157-.371094 11.832031 3.988281l42.089844 84.878906c1.035156 2.09375 1.195313 4.515625.445313 6.726563-.75 2.214843-2.351563 4.035156-4.449219 5.066406zm0 0" fill="#805333"/><path d="m499.414062 90.511719-22.9375 11.3125c-3.835937 2.300781-8.804687 1.109375-11.179687-2.679688l-35.140625-70.824219c-1.582031-4.179687.488281-8.851562 4.648438-10.488281l22.933593-11.3125c3.835938-2.296875 8.804688-1.105469 11.179688 2.683594l35.140625 70.824219c1.582031 4.175781-.488282 8.847656-4.644532 10.484375zm0 0" fill="#af8066"/><path d="m156.253906 243.953125c-29.324218 4.46875-54.492187 23.261719-67.101562 50.109375 7.058594 10.886719 16.757812 19.804688 28.199218 25.925781 5.644532 2.914063 11.722657 4.902344 18 5.894531 4.054688.671876 8.039063-1.542968 9.609376-5.34375 1.574218-3.800781.316406-8.183593-3.03125-10.574218-7.585938-4.773438-12.933594-12.402344-14.832032-21.164063-1.898437-8.757812-.191406-17.914062 4.738282-25.402343 7.0625-7.730469 15.304687-14.292969 24.417968-19.445313" fill="#7f8c8d"/><path d="m49.292969 194.472656c-13.042969.128906-24.902344-7.539062-30.136719-19.488281-2.171875-4.363281-.394531-9.667969 3.96875-11.839844 4.367188-2.171875 9.667969-.394531 11.839844 3.96875 1.800781 4.289063 5.359375 7.597657 9.769531 9.078125 4.410156 1.480469 9.242187.988282 13.265625-1.34375 4.367188-2.058594 9.574219-.230468 11.695312 4.105469 2.121094 4.332031.367188 9.566406-3.9375 11.75-5.132812 2.480469-10.761718 3.765625-16.464843 3.769531zm0 0" fill="#7f8c8d"/><path d="m102.871094 157.75c-8.3125 21.289062-19.003906 41.574219-31.867188 60.46875-1.589844-3.441406-3.621094-8.035156-5.5625-12.976562-4.5-11.386719-8.738281-24.894532-6.707031-30.898438 6.664063-11.328125 18.992187-18.101562 32.132813-17.652344 4.027343-.0625 8.050781.289063 12.003906 1.058594zm0 0" fill="#a5a5a4"/><path d="m90.867188 156.691406c-6.992188 16.917969-15.5 33.167969-25.425782 48.550782-4.5-11.386719-8.738281-24.894532-6.707031-30.898438 6.664063-11.328125 18.992187-18.101562 32.132813-17.652344zm0 0" fill="#bdc3c7"/><path d="m146.214844 506.4375c-13.296875 5.074219-27.585938 7.007812-41.753906 5.652344-22.441407-1.316406-44.71875-4.652344-66.5625-9.976563-42.28125-46.519531-16.59375-130.738281-7.0625-150.421875 5.738281-11.828125 1.324218-25.246094-1.058594-37.253906-2.378906-13.542969 2.511718-27.34375 12.890625-36.367188 4.433593-4.90625 9.617187-9.078124 15.359375-12.359374 2.121094-1.207032 4.460937-1.988282 6.886718-2.296876 5.648438-.792968 7.855469 2.386719 9.796876 7.0625 3.476562 8.617188 8.335937 16.609376 14.390624 23.660157l28.246094 25.863281v.351562c.292969 8.777344-2.953125 17.300782-9.003906 23.660157-15.625 16.859375-2.648438 33.191406 4.0625 39.722656 1.679688 1.621094 1.757812 4.289063.175781 6.003906-11.828125 11.75-13.21875 30.410157-3.265625 43.785157 1.175782 1.710937.949219 4.019531-.53125 5.472656-3.796875 3.621094-9.179687 12.269531-1.058594 28.691406 11.476563 23.214844 69.472657 23.480469 38.488282 38.75zm0 0" fill="#af8066"/><path d="m132.265625 506.4375c-8.777344 3.789062-18.246094 5.710938-27.804687 5.652344-22.441407-1.316406-44.71875-4.652344-66.5625-9.976563-42.28125-46.519531-16.59375-130.738281-7.0625-150.421875 5.738281-11.828125 1.324218-25.246094-1.058594-37.253906-2.378906-13.542969 2.511718-27.34375 12.890625-36.367188 4.433593-4.90625 9.617187-9.078124 15.359375-12.359374 1.140625 1.445312 2.0625 3.050781 2.734375 4.765624 3.410156 8.652344 8.277343 16.652344 14.390625 23.660157l28.25 25.863281v.351562c.25 8.769532-2.988282 17.277344-9.007813 23.660157-15.621093 16.859375-2.644531 33.191406 4.0625 39.722656.816407.78125 1.285157 1.855469 1.300781 2.984375.019532 1.128906-.417968 2.214844-1.210937 3.019531-11.859375 11.746094-13.214844 30.449219-3.179687 43.785157 1.175781 1.710937.953124 4.019531-.53125 5.472656-3.792969 3.621094-9.265626 12.269531-1.058594 28.691406 11.476562 23.214844 69.472656 23.480469 38.488281 38.75zm0 0" fill="#cb8252"/><path d="m352.753906 172.933594c-4.300781-.007813-7.972656-3.109375-8.699218-7.351563l-15.078126-88.769531c-.816406-4.808594 2.421876-9.367188 7.230469-10.183594 4.808594-.816406 9.367188 2.417969 10.183594 7.226563l15.078125 88.773437c.8125 4.804688-2.425781 9.363282-7.234375 10.179688-.488281.082031-.984375.125-1.480469.125zm0 0" fill="#b19046"/><path d="m383.765625 157.644531c-4.300781-.007812-7.976563-3.109375-8.699219-7.347656l-15.070312-88.769531c-.816406-4.808594 2.417968-9.367188 7.226562-10.183594s9.371094 2.417969 10.1875 7.226562l15.066406 88.773438c.8125 4.808594-2.425781 9.363281-7.230468 10.179688-.492188.082031-.984375.121093-1.480469.121093zm0 0" fill="#b19046"/><path d="m414.78125 142.355469c-4.304688-.007813-7.976562-3.109375-8.699219-7.347657l-15.078125-88.777343c-.816406-4.808594 2.417969-9.367188 7.226563-10.183594 4.808593-.816406 9.371093 2.417969 10.1875 7.226563l15.078125 88.777343c.8125 4.808594-2.425782 9.363281-7.234375 10.179688-.488281.085937-.984375.125-1.480469.125zm0 0" fill="#b19046"/><path d="m53.003906 459.300781c-3.347656.003907-6.410156-1.886719-7.90625-4.878906-12.152344-22.03125-11.941406-48.800781.554688-70.640625 2.71875-3.988281 8.140625-5.046875 12.164062-2.378906 4.027344 2.664062 5.160156 8.070312 2.550782 12.132812-8.960938 16.574219-8.761719 36.59375.523437 52.988282 1.367187 2.738281 1.222656 5.984374-.382813 8.585937-1.609374 2.601563-4.445312 4.1875-7.503906 4.191406zm0 0" fill="#fac176"/><path d="m70.648438 309.230469c0 4.875-3.949219 8.828125-8.824219 8.828125-4.878907 0-8.828125-3.953125-8.828125-8.828125s3.949218-8.828125 8.828125-8.828125c4.875 0 8.824219 3.953125 8.824219 8.828125zm0 0" fill="#805333"/><path d="m79.476562 476.953125c0 4.878906-3.949218 8.828125-8.828124 8.828125-4.875 0-8.824219-3.949219-8.824219-8.828125 0-4.875 3.949219-8.824219 8.824219-8.824219 4.878906 0 8.828124 3.949219 8.828124 8.824219zm0 0" fill="#805333"/><path d="m303.769531 182.785156c0-47.617187-38.714843-86.222656-86.476562-86.222656-47.757813 0-86.472657 38.605469-86.472657 86.222656 0 47.621094 38.714844 86.222656 86.472657 86.222656 47.761719 0 86.476562-38.601562 86.476562-86.222656zm0 0" fill="#e57e25"/><path d="m282.511719 182.785156c0-47.617187-29.640625-86.222656-66.207031-86.222656-36.566407 0-66.207032 38.605469-66.207032 86.222656 0 47.621094 29.640625 86.222656 66.207032 86.222656 36.566406 0 66.207031-38.601562 66.207031-86.222656zm0 0" fill="#f29c1f"/><g fill="#805333"><path d="m217.210938 277.84375c-30.65625.042969-59.449219-14.699219-77.335938-39.59375-17.890625-24.898438-22.675781-56.890625-12.855469-85.929688 12.4375-36.457031 45.582031-61.851562 84.019531-64.382812s74.621094 18.304688 91.730469 52.816406c11.230469 22.550782 12.960938 48.660156 4.804688 72.496094-13.214844 38.636719-49.53125 64.597656-90.363281 64.59375zm.144531-172.457031c-33.265625-.015625-62.855469 21.128906-73.613281 52.605469-6.589844 19.460937-5.160157 40.746093 3.96875 59.148437 9.128906 18.40625 25.210937 32.421875 44.6875 38.953125 40.574218 13.671875 84.570312-8.007812 98.449218-48.511719 6.585938-19.464843 5.15625-40.746093-3.972656-59.152343-9.132812-18.40625-25.210938-32.421876-44.691406-38.953126-7.996094-2.707031-16.382813-4.089843-24.828125-4.089843zm0 0"/><path d="m184.039062 289.648438c-2.847656 0-5.519531-1.375-7.175781-3.6875s-2.101562-5.285157-1.1875-7.980469l4.15625-12.253907c1.011719-2.988281 3.542969-5.207031 6.636719-5.824218 3.09375-.617188 6.28125.464844 8.363281 2.835937 2.078125 2.371094 2.738281 5.671875 1.722657 8.660157l-4.15625 12.253906c-1.214844 3.582031-4.578126 5.992187-8.359376 5.996094zm0 0"/><path d="m315.605469 224.78125c-.957031 0-1.910157-.160156-2.816407-.472656l-12.28125-4.148438c-3.070312-.941406-5.386718-3.476562-6.046874-6.621094-.660157-3.140624.433593-6.394531 2.863281-8.496093 2.429687-2.097657 5.808593-2.714844 8.820312-1.605469l12.285157 4.148438c4.097656 1.378906 6.597656 5.527343 5.894531 9.792968-.699219 4.269532-4.390625 7.402344-8.714844 7.402344zm0 0"/><path d="m113.730469 198.488281c-4.777344.019531-8.703125-3.765625-8.859375-8.539062-.15625-4.773438 3.511718-8.804688 8.28125-9.097657l12.933594-.855468c3.148437-.210938 6.167968 1.273437 7.925781 3.894531 1.753906 2.621094 1.976562 5.980469.585937 8.8125-1.394531 2.832031-4.191406 4.703125-7.339844 4.914063l-12.9375.855468c-.195312.011719-.394531.015625-.589843.015625zm0 0"/><path d="m224.183594 294.871094c-4.644532 0-8.492188-3.605469-8.800782-8.238282l-.863281-12.910156c-.320312-4.867187 3.359375-9.074218 8.226563-9.398437 4.863281-.324219 9.070312 3.359375 9.394531 8.226562l.863281 12.90625c.324219 4.867188-3.359375 9.070313-8.222656 9.394531-.199219.015626-.398438.019532-.597656.019532zm0 0"/><path d="m211.253906 101.265625c-4.644531-.003906-8.492187-3.605469-8.800781-8.242187l-.863281-12.910157c-.324219-4.863281 3.359375-9.070312 8.222656-9.394531 4.867188-.324219 9.074219 3.355469 9.398438 8.222656l.863281 12.910156c.152343 2.335938-.625 4.636719-2.167969 6.398438s-3.722656 2.839844-6.058594 2.992188c-.195312.019531-.398437.023437-.59375.023437zm0 0"/><path d="m298.816406 176.738281c0-4.644531 3.605469-8.492187 8.238282-8.800781l12.910156-.859375c4.867187-.324219 9.074218 3.355469 9.398437 8.222656.324219 4.867188-3.359375 9.074219-8.226562 9.394531l-12.90625.863282c-4.867188.324218-9.070313-3.359375-9.394531-8.222656-.015626-.199219-.019532-.398438-.019532-.597657zm0 0"/><path d="m142.910156 266.914062c-3.285156-3.289062-3.457031-8.558593-.398437-12.050781l8.519531-9.738281c3.210938-3.671875 8.789062-4.042969 12.460938-.832031 3.667968 3.214843 4.039062 8.792969.828124 12.460937l-8.519531 9.738282c-3.210937 3.667968-8.789062 4.039062-12.457031.824218-.152344-.125-.296875-.261718-.433594-.402344zm0 0"/><path d="m270.664062 120.867188c-3.277343-3.285157-3.453124-8.554688-.394531-12.050782l8.519531-9.738281c3.210938-3.667969 8.789063-4.039063 12.457032-.828125 3.671875 3.210938 4.042968 8.789062.832031 12.460938l-8.519531 9.738281c-3.210938 3.667969-8.789063 4.035156-12.457032.824219-.152343-.128907-.296874-.265626-.4375-.40625zm0 0"/><path d="m298.710938 151.480469c-4.105469.007812-7.671876-2.820313-8.609376-6.816407-.933593-4 1.011719-8.113281 4.695313-9.929687l11.628906-5.730469c2.828125-1.394531 6.1875-1.175781 8.808594.574219 2.625 1.753906 4.113281 4.773437 3.90625 7.917969-.207031 3.148437-2.074219 5.949218-4.902344 7.34375l-11.632812 5.734375c-1.210938.59375-2.542969.90625-3.894531.90625zm0 0"/><path d="m124.261719 237.480469c-4.105469.003906-7.671875-2.820313-8.605469-6.820313-.9375-3.996094 1.007812-8.109375 4.691406-9.925781l11.628906-5.730469c4.375-2.15625 9.667969-.359375 11.824219 4.011719 2.160157 4.375.359375 9.667969-4.011719 11.824219l-11.628906 5.734375c-1.214844.597656-2.546875.90625-3.898437.90625zm0 0"/><path d="m263.304688 284.382812c-3.355469.003907-6.425782-1.898437-7.914063-4.90625l-5.75-11.59375c-1.496094-2.835937-1.335937-6.261718.414063-8.949218 1.753906-2.683594 4.824218-4.207032 8.023437-3.980469 3.199219.230469 6.019531 2.175781 7.375 5.082031l5.75 11.597656c1.355469 2.734376 1.203125 5.972657-.402344 8.570313-1.609375 2.59375-4.441406 4.175781-7.496093 4.179687zm0 0"/><path d="m177.054688 110.441406c-3.355469.003906-6.425782-1.894531-7.914063-4.90625l-5.75-11.59375c-1.496094-2.835937-1.335937-6.261718.414063-8.945312 1.753906-2.6875 4.824218-4.210938 8.023437-3.980469 3.199219.226563 6.019531 2.171875 7.375 5.082031l5.75 11.59375c1.355469 2.734375 1.203125 5.976563-.40625 8.570313-1.605469 2.597656-4.4375 4.175781-7.492187 4.179687zm0 0"/><path d="m239.996094 103.175781c-2.378906-2.371093-3.203125-5.882812-2.128906-9.066406l4.132812-12.261719c.953125-3.058594 3.484375-5.363281 6.621094-6.019531 3.132812-.65625 6.378906.433594 8.476562 2.855469 2.097656 2.417968 2.722656 5.785156 1.628906 8.796875l-4.132812 12.261719c-.972656 2.894531-3.371094 5.082031-6.34375 5.78125-2.972656.699218-6.09375-.191407-8.253906-2.347657zm0 0"/><path d="m137.6875 160.085938c-2.371094 2.378906-5.882812 3.203124-9.0625 2.125l-12.265625-4.128907c-3.0625-.949219-5.367187-3.484375-6.023437-6.621093-.660157-3.136719.433593-6.382813 2.855468-8.480469 2.421875-2.101563 5.789063-2.722657 8.800782-1.628907l12.265624 4.132813c2.894532.972656 5.078126 3.375 5.777344 6.347656.699219 2.972657-.191406 6.09375-2.347656 8.253907zm0 0"/><path d="m295.402344 259.765625c-2.136719.003906-4.195313-.769531-5.804688-2.171875l-9.765625-8.519531c-3.675781-3.203125-4.058593-8.78125-.855469-12.457031 3.207032-3.675782 8.78125-4.054688 12.457032-.851563l9.769531 8.515625c2.773437 2.417969 3.757813 6.308594 2.464844 9.753906-1.289063 3.445313-4.585938 5.730469-8.265625 5.730469zm0 0"/><path d="m148.949219 131.980469c-2.136719 0-4.199219-.773438-5.808594-2.175781l-9.757813-8.523438c-3.675781-3.207031-4.050781-8.789062-.839843-12.460938 3.207031-3.671874 8.785156-4.050781 12.460937-.839843l9.757813 8.523437c2.773437 2.417969 3.753906 6.304688 2.460937 9.75-1.296875 3.449219-4.589844 5.730469-8.273437 5.726563zm0 0"/></g><path d="m257.398438 154.042969c-2.441407 0-4.773438-1.011719-6.441407-2.792969-10.523437-11.273438-26.007812-16.496094-41.207031-13.898438-4.808594.808594-9.363281-2.433593-10.171875-7.242187-.8125-4.808594 2.429687-9.363281 7.238281-10.171875 21.039063-3.5625 42.460938 3.664062 57.035156 19.246094 2.40625 2.566406 3.054688 6.316406 1.65625 9.542968-1.398437 3.230469-4.582031 5.316407-8.097656 5.316407zm0 0" fill="#cb8252"/><path d="m217.089844 246.539062c-17.582032.003907-34.375-7.285156-46.378906-20.132812-2.25-2.28125-3.082032-5.605469-2.175782-8.679688.902344-3.078124 3.402344-5.417968 6.53125-6.121093 3.125-.707031 6.390625.339843 8.523438 2.734375 10.535156 11.261718 26.019531 16.484375 41.222656 13.898437 3.121094-.546875 6.296875.621094 8.320312 3.058594 2.023438 2.4375 2.585938 5.773437 1.472657 8.738281-1.113281 2.96875-3.730469 5.109375-6.859375 5.613282-3.523438.59375-7.085938.890624-10.65625.890624zm0 0" fill="#cb8252"/><path d="m238.375 181.230469c0 12.1875-9.882812 22.070312-22.070312 22.070312s-22.070313-9.882812-22.070313-22.070312 9.882813-22.070313 22.070313-22.070313 22.070312 9.882813 22.070312 22.070313zm0 0" fill="#805333"/><path d="m217.261719 217.472656c-11.183594.007813-21.683594-5.375-28.207031-14.460937-6.523438-9.082031-8.269532-20.75-4.6875-31.347657 6.214843-18.121093 25.894531-27.828124 44.058593-21.730468 16.121094 5.421875 25.929688 21.738281 23.15625 38.519531-2.773437 16.785156-17.308593 29.078125-34.320312 29.023437zm-16.171875-40.125c-1.441406 4.277344-1.125 8.957032.886718 13.003906 2.007813 4.042969 5.542969 7.125 9.828126 8.558594 8.933593 3.03125 18.640624-1.746094 21.6875-10.675781 1.445312-4.28125 1.128906-8.960937-.882813-13.011719-2.007813-4.046875-5.546875-7.128906-9.832031-8.566406-8.933594-2.984375-18.605469 1.78125-21.6875 10.683594zm0 0" fill="#cb8252"/></svg>