<svg height="90pt" viewBox="0 0 512 512" width="90pt" xmlns="http://www.w3.org/2000/svg"><path d="m338.875 35.144531c.121094-.140625.269531-.257812.433594-.347656 5.527344-5.492187 12.070312-9.851563 19.265625-12.839844 14.898437-6.132812 31.613281-6.132812 46.511719 0 14.875 6.191407 26.695312 18.015625 32.890624 32.886719 6.132813 14.898438 6.132813 31.617188 0 46.515625-3.054687 7.371094-7.535156 14.066406-13.191406 19.699219-2.5625 2.59375-5.382812 4.921875-8.417968 6.941406l-86.605469 2.167969-8.675781-52.066407zm0 0" fill="#7f8c8d"/><path d="m332.023438 121.492188c-2.820313.003906-5.46875-1.367188-7.097657-3.675782-2.925781-4.105468-5.371093-8.53125-7.289062-13.199218-2.085938-4.976563-3.523438-10.199219-4.273438-15.542969-.445312-3.070313.777344-6.144531 3.210938-8.066407 2.4375-1.921874 5.710937-2.398437 8.589843-1.25 2.882813 1.148438 4.933594 3.746094 5.378907 6.8125.535156 3.910157 1.585937 7.734376 3.117187 11.371094 1.429688 3.484375 3.257813 6.796875 5.449219 9.863282 1.871094 2.648437 2.109375 6.117187.617187 8.996093-1.488281 2.878907-4.460937 4.6875-7.703124 4.691407zm0 0" fill="#95a5a5"/><path d="m416.375 136.679688c-3.835938.003906-7.21875-2.511719-8.320312-6.1875-1.101563-3.675782.34375-7.640626 3.550781-9.746094 2.542969-1.695313 4.902343-3.648438 7.050781-5.828125 4.84375-4.816407 8.683594-10.546875 11.292969-16.863281 5.261719-12.789063 5.261719-27.136719-.003907-39.921876-5.316406-12.726562-15.4375-22.839843-28.164062-28.152343-12.792969-5.234375-27.128906-5.234375-39.921875 0-6.152344 2.558593-11.746094 6.296875-16.46875 11-3.484375 3.410156-9.023437 3.523437-12.648437.257812-1.625-1.617187-2.539063-3.820312-2.539063-6.113281-.003906-2.296875.910156-4.5 2.53125-6.121094.261719-.257812.535156-.5.824219-.726562 6.25-6.132813 13.621094-11.007813 21.714844-14.355469 17.015624-6.964844 36.085937-6.964844 53.101562 0 17.019531 7.074219 30.550781 20.597656 37.628906 37.617187 6.996094 17.011719 6.996094 36.097657 0 53.109376-3.484375 8.441406-8.609375 16.101562-15.082031 22.546874-2.980469 3.011719-6.261719 5.714844-9.796875 8.058594-1.410156.929688-3.058594 1.421875-4.75 1.425782zm0 0" fill="#95a5a5"/><path d="m399.1875 78.101562c0 9.585938-7.773438 17.355469-17.359375 17.355469-9.582031 0-17.355469-7.769531-17.355469-17.355469 0-9.585937 7.773438-17.355468 17.355469-17.355468 9.585937 0 17.359375 7.769531 17.359375 17.355468zm0 0" fill="#bdc3c7"/><g fill="#95a5a5"><path d="m381.828125 26.035156c-4.789063 0-8.675781-3.886718-8.675781-8.679687v-8.675781c0-4.792969 3.886718-8.679688 8.675781-8.679688 4.792969 0 8.679687 3.886719 8.679687 8.679688v8.675781c0 4.792969-3.886718 8.679687-8.679687 8.679687zm0 0"/><path d="m451.253906 86.78125h-8.679687c-4.792969 0-8.675781-3.886719-8.675781-8.679688 0-4.792968 3.882812-8.679687 8.675781-8.679687h8.679687c4.792969 0 8.679688 3.886719 8.679688 8.679687 0 4.792969-3.886719 8.679688-8.679688 8.679688zm0 0"/><path d="m437.957031 63.539062c-4.144531.007813-7.714843-2.917968-8.523437-6.984374-.8125-4.0625 1.367187-8.132813 5.199218-9.714844l8.015626-3.324219c4.425781-1.832031 9.503906.269531 11.339843 4.695313 1.832031 4.429687-.269531 9.503906-4.695312 11.339843l-8.019531 3.320313c-1.050782.441406-2.175782.664062-3.316407.667968zm0 0"/><path d="m358.589844 30.660156c-3.511719 0-6.679688-2.113281-8.023438-5.359375l-3.320312-8.015625c-1.835938-4.429687.265625-9.503906 4.695312-11.339844 4.425782-1.835937 9.503906.265626 11.335938 4.695313l3.324218 8.015625c1.105469 2.679688.804688 5.730469-.804687 8.140625s-4.3125 3.859375-7.207031 3.863281zm0 0"/><path d="m424.785156 43.824219c-3.507812 0-6.671875-2.117188-8.015625-5.359375-1.34375-3.242188-.601562-6.972656 1.882813-9.453125l6.132812-6.136719c2.179688-2.261719 5.410156-3.171875 8.445313-2.378906 3.039062.792968 5.414062 3.164062 6.207031 6.203125.789062 3.039062-.121094 6.269531-2.382812 8.445312l-6.136719 6.136719c-1.625 1.628906-3.832031 2.542969-6.132813 2.542969zm0 0"/><path d="m338.875 43.824219c-2.304688.003906-4.511719-.914063-6.136719-2.542969l-6.136719-6.136719c-2.261718-2.175781-3.171874-5.40625-2.378906-8.445312.792969-3.039063 3.167969-5.410157 6.207032-6.203125 3.039062-.792969 6.265624.117187 8.445312 2.378906l6.132812 6.136719c2.480469 2.484375 3.222657 6.214843 1.878907 9.457031-1.34375 3.238281-4.503907 5.351562-8.011719 5.355469zm0 0"/><path d="m430.917969 135.867188c-2.300781.003906-4.507813-.910157-6.132813-2.539063l-6.136718-6.136719c-3.289063-3.40625-3.242188-8.820312.105468-12.164062 3.347656-3.347656 8.757813-3.394532 12.164063-.109375l6.136719 6.136719c2.480468 2.480468 3.222656 6.214843 1.878906 9.457031-1.339844 3.242187-4.503906 5.355469-8.015625 5.355469zm0 0"/><path d="m405.070312 30.660156c-2.894531-.003906-5.597656-1.453125-7.207031-3.863281s-1.910156-5.460937-.804687-8.140625l3.320312-8.015625c1.835938-4.425781 6.914063-6.53125 11.339844-4.695313 4.429688 1.835938 6.53125 6.910157 4.695312 11.339844l-3.320312 8.015625c-1.34375 3.246094-4.511719 5.359375-8.023438 5.359375zm0 0"/><path d="m445.964844 113.351562c-1.136719 0-2.265625-.226562-3.316406-.664062l-8.015626-3.324219c-2.890624-1.171875-4.925781-3.800781-5.339843-6.886719-.417969-3.089843.859375-6.164062 3.335937-8.054687 2.476563-1.890625 5.777344-2.304687 8.644532-1.089844l8.019531 3.320313c3.828125 1.582031 6.007812 5.652344 5.199219 9.714844-.8125 4.066406-4.382813 6.992187-8.527344 6.984374zm0 0"/></g><path d="m305.203125 112.8125c.917969-.601562 1.691406-1.402344 2.257813-2.34375l14.492187-22.648438 25.773437-40.265624c1.511719-2.8125 1.359376-6.226563-.398437-8.890626-1.757813-2.667968-4.839844-4.152343-8.019531-3.867187-.234375-.011719-.472656.015625-.695313.089844-.949219.085937-1.867187.382812-2.691406.867187l-62.914063 40.265625c-3.726562 2.402344-5.039062 7.234375-3.035156 11.195313 5.386719 10.949218 14.105469 19.910156 24.902344 25.597656" fill="#f0c419"/><path d="m295.050781 112.8125h104.136719c9.582031 0 17.355469 7.773438 17.355469 17.355469v52.070312h-138.847657v-52.070312c0-9.582031 7.769532-17.355469 17.355469-17.355469zm0 0" fill="#cb9080"/><path d="m312.40625 112.8125h69.421875c9.585937 0 17.359375 7.773438 17.359375 17.355469v34.714843h-104.136719v-34.714843c0-9.582031 7.769531-17.355469 17.355469-17.355469zm0 0" fill="#cb8252"/><path d="m321.085938 138.847656c0 4.792969-3.886719 8.679688-8.679688 8.679688s-8.679688-3.886719-8.679688-8.679688c0-4.792968 3.886719-8.679687 8.679688-8.679687s8.679688 3.886719 8.679688 8.679687zm0 0" fill="#7f5b53"/><path d="m355.796875 138.847656c0 4.792969-3.886719 8.679688-8.679687 8.679688-4.792969 0-8.675782-3.886719-8.675782-8.679688 0-4.792968 3.882813-8.679687 8.675782-8.679687 4.792968 0 8.679687 3.886719 8.679687 8.679687zm0 0" fill="#7f5b53"/><path d="m390.507812 138.847656c0 4.792969-3.886718 8.679688-8.679687 8.679688-4.789063 0-8.675781-3.886719-8.675781-8.679688 0-4.792968 3.886718-8.679687 8.675781-8.679687 4.792969 0 8.679687 3.886719 8.679687 8.679687zm0 0" fill="#7f5b53"/><path d="m17.355469 251.660156h52.066406v112.8125h-52.066406zm0 0" fill="#71c285"/><path d="m34.710938 251.660156h17.355468v112.8125h-17.355468zm0 0" fill="#7ed09e"/><path d="m250.988281 53.011719c2.453125 13.625-1.734375 27.601562-11.28125 37.625-9.363281 10.402343-14.398437 23.984375-14.082031 37.976562v1.554688h-34.710938v-1.832031c-.386718-14.648438-5.972656-28.679688-15.761718-39.582032-11.789063-13.925781-13.605469-33.738281-4.546875-49.578125 9.054687-15.839843 27.054687-24.324219 45.035156-21.226562 17.984375 3.09375 32.109375 17.105469 35.347656 35.0625zm0 0" fill="#f0c419"/><path d="m190.914062 130.167969h34.710938c4.792969 0 8.679688 3.886719 8.679688 8.679687v43.390625h-52.066407v-43.390625c0-4.792968 3.882813-8.679687 8.675781-8.679687zm0 0" fill="#bdc3c7"/><path d="m190.914062 78.101562c-4.792968 0-8.675781-3.886718-8.675781-8.679687 0-27.457031 17.027344-34.710937 26.03125-34.710937 4.792969-.058594 8.726563 3.78125 8.785157 8.574218.058593 4.792969-3.78125 8.722656-8.574219 8.78125-1.566407.117188-8.886719 1.507813-8.886719 17.355469 0 4.792969-3.886719 8.679687-8.679688 8.679687zm0 0" fill="#f9eab0"/><path d="m113.679688 199.59375h-52.933594v34.710938h-34.710938v-43.390626c-.011718-6.90625 2.730469-13.535156 7.613282-18.417968 4.882812-4.882813 11.511718-7.625 18.417968-7.613282h104.136719zm0 0" fill="#f29c1f"/><path d="m156.203125 451.253906h-104.136719c-6.90625.007813-13.535156-2.730468-18.417968-7.613281-4.882813-4.886719-7.625-11.511719-7.613282-18.421875v-43.386719h34.710938v34.710938h52.933594zm0 0" fill="#f29c1f"/><path d="m156.203125 164.882812h269.015625c23.964844 0 43.390625 19.425782 43.390625 43.386719v199.59375c0 23.964844-19.425781 43.390625-43.390625 43.390625h-269.015625c-23.964844 0-43.390625-19.425781-43.390625-43.390625v-199.59375c0-23.960937 19.425781-43.386719 43.390625-43.386719zm0 0" fill="#7f5b53"/><path d="m173.558594 164.882812h234.304687c23.964844 0 43.390625 19.425782 43.390625 43.386719v199.59375c0 23.964844-19.425781 43.390625-43.390625 43.390625h-234.304687c-23.964844 0-43.390625-19.425781-43.390625-43.390625v-199.59375c0-23.960937 19.425781-43.386719 43.390625-43.386719zm0 0" fill="#af8066"/><path d="m433.898438 216.949219v182.238281c0 9.585938-7.769532 17.355469-17.355469 17.355469h-251.664063c-9.582031 0-17.355468-7.769531-17.355468-17.355469v-182.238281c0-9.585938 7.773437-17.355469 17.355468-17.355469h251.664063c9.585937 0 17.355469 7.769531 17.355469 17.355469zm0 0" fill="#527f72"/><path d="m422.441406 225.628906v164.878906c0 9.585938-7.769531 17.355469-17.355468 17.355469h-228.75c-9.585938 0-17.355469-7.769531-17.355469-17.355469v-164.878906c0-9.585937 7.769531-17.359375 17.355469-17.359375h228.75c9.585937 0 17.355468 7.773438 17.355468 17.359375zm0 0" fill="#7ed09e"/><path d="m208.269531 26.035156c-4.792969 0-8.675781-3.886718-8.675781-8.679687v-8.675781c0-4.792969 3.882812-8.679688 8.675781-8.679688s8.679688 3.886719 8.679688 8.679688v8.675781c0 4.792969-3.886719 8.679687-8.679688 8.679687zm0 0" fill="#f0c419"/><path d="m242.984375 451.253906h104.132813c28.757812 0 52.070312 23.3125 52.070312 52.066406 0 4.792969-3.886719 8.679688-8.679688 8.679688h-190.914062c-4.792969 0-8.679688-3.886719-8.679688-8.679688 0-28.753906 23.3125-52.066406 52.070313-52.066406zm0 0" fill="#804537"/><path d="m260.339844 451.253906h69.421875c28.757812 0 52.066406 23.3125 52.066406 52.066406 0 4.792969-3.882813 8.679688-8.675781 8.679688h-156.203125c-4.792969 0-8.679688-3.886719-8.679688-8.679688 0-28.753906 23.3125-52.066406 52.070313-52.066406zm0 0" fill="#805333"/><path d="m86.519531 245.066406-4.339843 17.355469c-.941407 3.878906-4.425782 6.609375-8.417969 6.59375h-60.746094c-3.992187.015625-7.472656-2.714844-8.417969-6.59375l-4.335937-17.355469c-.652344-2.589844-.070313-5.335937 1.578125-7.4375 1.644531-2.105468 4.167968-3.332031 6.835937-3.324218h69.425781c2.667969-.007813 5.195313 1.21875 6.839844 3.324218 1.644532 2.101563 2.226563 4.847656 1.578125 7.4375zm0 0" fill="#7f8c8d"/><path d="m73.761719 347.117188h-60.742188c-3.980469.003906-7.449219 2.710937-8.417969 6.574218l-4.335937 17.355469c-.648437 2.59375-.066406 5.339844 1.578125 7.445313 1.644531 2.105468 4.167969 3.339843 6.839844 3.339843h69.417968c2.671876 0 5.195313-1.234375 6.839844-3.339843 1.644532-2.105469 2.226563-4.851563 1.578125-7.445313l-4.339843-17.355469c-.964844-3.863281-4.4375-6.570312-8.417969-6.574218zm0 0" fill="#7f8c8d"/><path d="m69.261719 245.066406-2.601563 17.355469c-.574218 3.90625-2.65625 6.59375-5.050781 6.59375h-36.445313c-2.394531 0-4.476562-2.6875-5.046874-6.59375l-2.605469-17.355469c-.832031-5.46875 1.667969-10.761718 5.050781-10.761718h41.652344c3.386718 0 5.878906 5.292968 5.046875 10.761718zm0 0" fill="#95a5a5"/><path d="m61.605469 347.117188h-36.433594c-2.390625 0-4.472656 2.710937-5.050781 6.574218l-2.601563 17.355469c-.824219 5.476563 1.664063 10.785156 5.050781 10.785156h41.640626c3.382812 0 5.871093-5.308593 5.050781-10.785156l-2.605469-17.355469c-.578125-3.863281-2.660156-6.574218-5.050781-6.574218zm0 0" fill="#95a5a5"/><path d="m199.59375 242.984375h-17.355469c-4.792969 0-8.679687-3.886719-8.679687-8.679687 0-4.792969 3.886718-8.675782 8.679687-8.675782h17.355469c4.792969 0 8.675781 3.882813 8.675781 8.675782 0 4.792968-3.882812 8.679687-8.675781 8.679687zm0 0" fill="#71c285"/><path d="m312.40625 242.984375h-78.101562c-4.792969 0-8.679688-3.886719-8.679688-8.679687 0-4.792969 3.886719-8.675782 8.679688-8.675782h78.101562c4.792969 0 8.679688 3.882813 8.679688 8.675782 0 4.792968-3.886719 8.679687-8.679688 8.679687zm0 0" fill="#71c285"/><path d="m234.304688 485.964844c0 4.792968-3.886719 8.679687-8.679688 8.679687s-8.675781-3.886719-8.675781-8.679687c0-4.792969 3.882812-8.675782 8.675781-8.675782s8.679688 3.882813 8.679688 8.675782zm0 0" fill="#f18d46"/><path d="m269.015625 485.964844c0 4.792968-3.882813 8.679687-8.675781 8.679687-4.792969 0-8.679688-3.886719-8.679688-8.679687 0-4.792969 3.886719-8.675782 8.679688-8.675782 4.792968 0 8.675781 3.882813 8.675781 8.675782zm0 0" fill="#f18d46"/><path d="m303.726562 485.964844c0 4.792968-3.882812 8.679687-8.675781 8.679687s-8.679687-3.886719-8.679687-8.679687c0-4.792969 3.886718-8.675782 8.679687-8.675782s8.675781 3.882813 8.675781 8.675782zm0 0" fill="#f18d46"/><path d="m338.441406 485.964844c0 4.792968-3.886718 8.679687-8.679687 8.679687s-8.675781-3.886719-8.675781-8.679687c0-4.792969 3.882812-8.675782 8.675781-8.675782s8.679687 3.882813 8.679687 8.675782zm0 0" fill="#f18d46"/><path d="m373.152344 485.964844c0 4.792968-3.886719 8.679687-8.679688 8.679687-4.792968 0-8.675781-3.886719-8.675781-8.679687 0-4.792969 3.882813-8.675782 8.675781-8.675782 4.792969 0 8.679688 3.882813 8.679688 8.675782zm0 0" fill="#f18d46"/></svg>