<svg height="511pt" viewBox="0 -4 511.93793 511" width="511pt" xmlns="http://www.w3.org/2000/svg"><path d="m273.625 222.355469v95.875h-35.3125v-132.414063zm0 0" fill="#7f8c8d"/><path d="m418.574219 243.816406-8.476563 20.566406h-.085937zm0 0" fill="#95a5a5"/><path d="m170.78125 74.324219 9.886719 7.0625-21.273438 51.375-20.832031 50.140625-10.242188-1.675782h-.085937l-95.160156-15.976562c-1.859375 4.480469-6.992188 6.613281-11.476563 4.765625l-16.15625-6.707031c-4.5-1.886719-6.632812-7.054688-4.765625-11.566406l30.011719-72.386719 30.367188-73.445313c1.886718-4.5 7.054687-6.632812 11.566406-4.765625l16.152344 6.621094c2.160156.882813 3.875 2.59375 4.769531 4.746094.894531 2.152343.894531 4.574219 0 6.730469zm0 0" fill="#95a5a5"/><path d="m511.261719 249.375-10.503907 25.246094-9.621093 23.304687c-.886719 2.160157-2.59375 3.875-4.75 4.769531-2.152344.894532-4.574219.894532-6.726563 0l-16.15625-6.621093c-4.488281-1.898438-6.613281-7.054688-4.765625-11.566407l-48.640625-20.125 8.476563-20.566406-8.5625 20.566406h.085937l-3.355468 8.03125c-1.878907 4.507813-7.027344 6.667969-11.5625 4.855469l-16.152344-6.707031c-2.160156-.886719-3.875-2.59375-4.769532-4.746094-.894531-2.15625-.894531-4.578125 0-6.730468l-73.003906-30.277344-6.707031 16.242187c-.886719 2.15625-2.59375 3.871094-4.75 4.765625-2.152344.894532-4.574219.894532-6.726563 0l-16.15625-6.707031c-2.15625-.886719-3.871093-2.59375-4.765624-4.75-.894532-2.152344-.894532-4.574219 0-6.726563l-64.265626-26.660156-3.972656-1.589844 19.953125-47.933593 20.476563-49.34375 2.738281 1.144531 65.324219 27.015625c1.945312-4.441406 7.078125-6.515625 11.5625-4.679687l16.066406 6.707031c2.171875.871093 3.902344 2.578125 4.796875 4.738281.898437 2.15625.886719 4.585938-.027344 6.738281l-20.480469 49.433594h.085938l13.773438-33.277344 72.914062 30.277344c1.886719-4.5 7.054688-6.632813 11.566406-4.765625l16.066406 6.707031c4.515626 1.871094 6.683594 7.03125 4.851563 11.566407l-3.351563 8.03125 48.640626 20.128906c.898437-2.144532 2.613281-3.84375 4.765624-4.71875 2.152344-.878906 4.566407-.863282 6.707032.039062l16.15625 6.621094c4.5 1.882812 6.632812 7.054688 4.765625 11.5625zm0 0" fill="#95a5a5"/><path d="m418.574219 243.816406-8.476563 20.566406h-.085937zm0 0" fill="#95a5a5"/><path d="m306.816406 352.21875 52.257813 126.667969c3.789062 9.082031-.46875 19.523437-9.53125 23.363281-4.335938 1.808594-9.214844 1.800781-13.542969-.015625-4.332031-1.816406-7.753906-5.292969-9.5-9.652344l-57.378906-139.023437" fill="#f29c1f"/><path d="m242.816406 353.558594-57.378906 139.023437c-1.746094 4.359375-5.167969 7.835938-9.5 9.652344-4.328125 1.816406-9.207031 1.824219-13.539062.015625-9.066407-3.839844-13.324219-14.28125-9.535157-23.363281l52.257813-126.667969" fill="#f29c1f"/><path d="m180.667969 81.386719-21.273438 51.375-96.308593-39.988281 30.457031-73.445313v-.085937l77.238281 55.082031zm0 0" fill="#bdc3c7"/><path d="m93.542969 19.242188v.085937l-30.457031 73.445313-32.398438-13.417969 30.367188-73.445313c1.886718-4.5 7.054687-6.632812 11.566406-4.765625l16.152344 6.621094c2.160156.882813 3.875 2.59375 4.769531 4.746094.894531 2.152343.894531 4.574219 0 6.730469zm0 0" fill="#f3d55b"/><path d="m63.085938 92.773438-30.011719 72.386718v.089844c-1.859375 4.480469-6.992188 6.613281-11.476563 4.765625l-16.15625-6.707031c-4.5-1.886719-6.632812-7.054688-4.765625-11.566406l30.011719-72.386719zm0 0" fill="#f0c419"/><path d="m302.402344 134.265625v.085937l-20.480469 49.347657-68.058594-28.25 20.476563-49.34375 2.738281 1.144531zm0 0" fill="#bdc3c7"/><path d="m208.464844 85.890625c3.5625 1.480469 6.980468 3.277344 10.21875 5.371094.664062.464843 1.246094.894531 1.910156 1.359375l.046875.117187c5.292969 3.664063 9.9375 8.191407 13.742187 13.386719.476563.675781.960938 1.347656 1.359376 1.988281 4.558593 6.652344 7.753906 14.144531 9.398437 22.039063 3.292969 15.96875.132813 32.59375-8.796875 46.238281-8.992188 13.574219-22.960938 23.074219-38.890625 26.453125-1.125.199219-2.335937.363281-3.542969.53125-14.894531 2.269531-30.101562-1.050781-42.691406-9.324219-.664062-.464843-1.246094-.894531-1.910156-1.359375l-.046875-.113281c-4.011719-2.703125-7.621094-5.960937-10.722657-9.675781-1.582031-1.804688-3.046874-3.710938-4.378906-5.707032-4.558594-6.65625-7.75-14.144531-9.398437-22.039062-3.292969-15.96875-.132813-32.59375 8.796875-46.238281 8.992187-13.574219 22.960937-23.074219 38.890625-26.453125 2.714843-.53125 5.464843-.886719 8.226562-1.058594 4.761719-.34375 9.550781-.117188 14.257813.679688 4.648437.707031 9.195312 1.984374 13.53125 3.804687zm0 0" fill="#cb8252"/><path d="m220.644531 101.5625c-4.425781.019531-8.1875-3.234375-8.804687-7.617188-.617188-4.386718 2.097656-8.554687 6.359375-9.753906 4.261719-1.203125 8.757812.925782 10.523437 4.988282l.046875.113281c1.148438 2.722656.859375 5.84375-.773437 8.308593-1.632813 2.464844-4.390625 3.953126-7.347656 3.960938zm0 0" fill="#805333"/><path d="m149.3125 201.515625c-4.441406.023437-8.214844-3.253906-8.816406-7.65625-.601563-4.402344 2.15625-8.570313 6.441406-9.742187 4.289062-1.167969 8.777344 1.019531 10.496094 5.117187l.050781.117187c1.105469 2.722657.789063 5.816407-.851563 8.257813-1.640624 2.4375-4.382812 3.902344-7.324218 3.90625zm0 0" fill="#805333"/><path d="m334.800781 147.769531-20.480469 49.433594-32.398437-13.503906 20.480469-49.347657v-.085937c1.945312-4.441406 7.078125-6.515625 11.5625-4.679687l16.066406 6.707031c2.171875.871093 3.902344 2.578125 4.796875 4.738281.898437 2.15625.886719 4.585938-.027344 6.738281zm0 0" fill="#f3d55b"/><path d="m314.320312 197.203125-13.066406 31.605469-6.707031 16.242187c-.886719 2.15625-2.59375 3.871094-4.75 4.765625-2.152344.894532-4.574219.894532-6.726563 0l-16.15625-6.707031c-2.15625-.886719-3.871093-2.59375-4.765624-4.75-.894532-2.152344-.894532-4.574219 0-6.726563v-.089843l19.773437-47.84375zm0 0" fill="#f0c419"/><path d="m433.578125 207.710938-3.351563 8.03125-10.507812 25.246093-32.394531-13.503906 13.769531-33.28125c1.886719-4.5 7.054688-6.632813 11.566406-4.765625l16.066406 6.707031c4.515626 1.871094 6.683594 7.03125 4.851563 11.566407zm0 0" fill="#f3d55b"/><path d="m387.324219 227.484375 32.394531 13.503906-1.144531 2.828125-8.476563 20.566406-3.355468 8.03125c-1.878907 4.507813-7.027344 6.667969-11.5625 4.855469l-16.152344-6.707031c-2.160156-.886719-3.875-2.59375-4.769532-4.746094-.894531-2.15625-.894531-4.578125 0-6.730468zm0 0" fill="#f0c419"/><path d="m430.226562 215.742188-10.417968 25.246093h-.089844zm0 0" fill="#f0c419"/><path d="m511.261719 249.375-10.503907 25.246094-32.308593-13.417969 10.417969-25.246094v-.085937c.898437-2.144532 2.613281-3.84375 4.765624-4.71875 2.152344-.878906 4.566407-.863282 6.707032.039062l16.15625 6.621094c4.5 1.882812 6.632812 7.054688 4.765625 11.5625zm0 0" fill="#f3d55b"/><path d="m500.757812 274.621094-9.621093 23.304687c-.886719 2.160157-2.59375 3.875-4.75 4.769531-2.152344.894532-4.574219.894532-6.726563 0l-16.15625-6.621093c-4.488281-1.898438-6.613281-7.054688-4.765625-11.566407l9.710938-23.304687zm0 0" fill="#f0c419"/><path d="m401.09375 194.203125-13.769531 33.28125-72.917969-30.28125 13.773438-33.277344zm0 0" fill="#bdc3c7"/><path d="m478.867188 235.871094v.085937l-10.507813 25.160157-48.550781-20.128907 10.417968-25.246093zm0 0" fill="#bdc3c7"/><g fill="#805333"><path d="m184.742188 212.886719c-13.628907-.003907-26.957032-3.984375-38.355469-11.453125l-2.144531-1.519532c-.273438-.195312-.535157-.402343-.785157-.621093-4.347656-3.039063-8.273437-6.644531-11.679687-10.714844-1.769532-2.023437-3.410156-4.160156-4.902344-6.402344-5.222656-7.601562-8.875-16.167969-10.75-25.199219-3.8125-18.269531-.195312-37.300781 10.050781-52.894531 10.269531-15.527343 26.238281-26.394531 44.453125-30.253906 3.148438-.621094 6.332032-1.03125 9.53125-1.234375 5.433594-.378906 10.890625-.113281 16.261719.792969 5.296875.820312 10.476563 2.277343 15.421875 4.351562 4.046875 1.679688 7.9375 3.726563 11.621094 6.105469l2.195312 1.550781c.300782.214844.589844.445313.863282.691407 5.742187 4.113281 10.796874 9.113281 14.976562 14.808593.773438 1.089844 1.304688 1.855469 1.753906 2.578125 5.113282 7.511719 8.691406 15.960938 10.527344 24.859375 3.8125 18.265625.195312 37.300781-10.054688 52.894531-10.269531 15.53125-26.242187 26.398438-44.460937 30.253907-1.425781.257812-2.648437.425781-3.875.601562-3.523437.535157-7.085937.804688-10.648437.804688zm-29.503907-26.820313 1.050781.75c10.722657 6.972656 23.636719 9.757813 36.28125 7.828125 1.402344-.199219 2.40625-.335937 3.347657-.5 13.542969-2.957031 25.398437-11.070312 33.054687-22.625 7.664063-11.679687 10.367188-25.929687 7.515625-39.605469-1.402343-6.734374-4.132812-13.128906-8.027343-18.800781-.5-.789062-.820313-1.234375-1.136719-1.683593-3.238281-4.4375-7.199219-8.304688-11.714844-11.4375-.332031-.230469-.644531-.480469-.941406-.753907l-1.058594-.75c-2.707031-1.726562-5.5625-3.214843-8.53125-4.445312-3.671875-1.539063-7.519531-2.621094-11.457031-3.222657-4.070313-.699218-8.210938-.902343-12.332032-.609374-2.417968.152343-4.824218.460937-7.203124.929687-13.582032 2.933594-25.484376 11.058594-33.160157 22.644531-7.664062 11.679688-10.367187 25.929688-7.511719 39.601563 1.402344 6.738281 4.128907 13.128906 8.019532 18.804687 1.121094 1.6875 2.351562 3.296875 3.6875 4.824219 2.609375 3.15625 5.65625 5.921875 9.050781 8.214844.375.25.730469.53125 1.066406.835937zm0 0"/><path d="m202.507812 142.652344c0 9.695312-7.859374 17.554687-17.558593 17.554687-9.695313 0-17.554688-7.859375-17.554688-17.554687 0-9.695313 7.859375-17.554688 17.554688-17.554688 9.699219 0 17.558593 7.859375 17.558593 17.554688zm0 0"/><path d="m146.4375 210.207031c-3.238281-.007812-6.21875-1.785156-7.757812-4.640625-1.539063-2.851562-1.390626-6.316406.386718-9.027344l4.816406-7.34375c1.707032-2.6875 4.730469-4.25 7.910157-4.082031 3.183593.164063 6.027343 2.03125 7.445312 4.886719 1.417969 2.851562 1.191407 6.246094-.597656 8.882812l-4.8125 7.339844c-1.632813 2.488282-4.410156 3.988282-7.390625 3.984375zm0 0"/><path d="m218.660156 99.796875c-1.625.003906-3.214844-.453125-4.582031-1.324219-1.976563-1.1875-3.390625-3.121094-3.929687-5.359375-.539063-2.238281-.15625-4.601562 1.0625-6.558593l4.820312-7.445313c1.679688-2.71875 4.703125-4.316406 7.898438-4.171875 3.195312.140625 6.0625 2 7.496093 4.859375 1.433594 2.859375 1.210938 6.269531-.585937 8.917969l-4.464844 6.882812c-1.703125 2.609375-4.601562 4.1875-7.714844 4.199219zm0 0"/><path d="m133.558594 117.789062c-1.71875.003907-3.398438-.5-4.832032-1.445312l-7.339843-4.816406c-2.714844-1.695313-4.300781-4.726563-4.140625-7.921875.160156-3.199219 2.035156-6.058594 4.902344-7.476563 2.871093-1.417968 6.285156-1.175781 8.917968.640625l7.34375 4.816407c3.261719 2.140624 4.730469 6.167968 3.609375 9.90625-1.117187 3.738281-4.558593 6.300781-8.460937 6.296874zm0 0"/><path d="m243.667969 189.980469c-1.71875.003906-3.398438-.5-4.832031-1.449219l-7.339844-4.8125c-2.695313-1.707031-4.257813-4.730469-4.09375-7.914062.164062-3.183594 2.03125-6.027344 4.886718-7.449219 2.851563-1.417969 6.25-1.1875 8.886719.601562l7.339844 4.8125c3.265625 2.144531 4.734375 6.171875 3.613281 9.914063-1.117187 3.738281-4.558594 6.296875-8.460937 6.296875zm0 0"/><path d="m253.949219 164.578125c-.558594 0-1.113281-.050781-1.65625-.15625l-8.621094-1.640625c-3.125-.5625-5.703125-2.757812-6.761719-5.75-1.054687-2.992188-.421875-6.324219 1.65625-8.71875 2.078125-2.398438 5.285156-3.496094 8.398438-2.875l8.621094 1.636719c4.472656.851562 7.566406 4.960937 7.144531 9.496093-.425781 4.535157-4.230469 8.003907-8.78125 8.007813zm0 0"/><path d="m124.59375 140.019531c-.554688 0-1.109375-.050781-1.65625-.15625l-8.625-1.636719c-4.789062-.910156-7.933594-5.53125-7.023438-10.320312.90625-4.789062 5.527344-7.933594 10.316407-7.023438l8.625 1.636719c4.472656.851563 7.566406 4.960938 7.140625 9.496094-.421875 4.53125-4.222656 8-8.777344 8.003906zm0 0"/><path d="m171.863281 220.46875c-.558593 0-1.113281-.050781-1.65625-.15625-4.789062-.910156-7.9375-5.527344-7.027343-10.316406l1.636718-8.628906c.910156-4.789063 5.53125-7.933594 10.320313-7.023438 4.789062.910156 7.9375 5.527344 7.027343 10.320312l-1.640624 8.621094c-.789063 4.164063-4.425782 7.179688-8.660157 7.183594zm0 0"/><path d="m196.421875 91.113281c-.554687.003907-1.109375-.050781-1.65625-.152343-2.300781-.4375-4.332031-1.769532-5.648437-3.707032-1.320313-1.933594-1.8125-4.3125-1.375-6.613281l1.636718-8.625c.921875-4.777344 5.535156-7.90625 10.3125-7 4.78125.90625 7.925782 5.511719 7.03125 10.292969l-1.636718 8.625c-.792969 4.164062-4.425782 7.175781-8.664063 7.179687zm0 0"/><path d="m245.097656 138.96875c-4.523437-.003906-8.308594-3.429688-8.769531-7.929688s2.554687-8.617187 6.980469-9.539062l8.597656-1.789062c4.746094-.9375 9.363281 2.125 10.347656 6.863281.988282 4.738281-2.027344 9.386719-6.753906 10.417969l-8.597656 1.789062c-.59375.125-1.195313.1875-1.804688.1875zm0 0"/><path d="m116.191406 165.777344c-4.519531-.003906-8.308594-3.429688-8.769531-7.925782-.460937-4.5 2.554687-8.621093 6.984375-9.542968l8.59375-1.789063c4.746094-.9375 9.363281 2.125 10.351562 6.863281.984376 4.738282-2.03125 9.386719-6.757812 10.421876l-8.59375 1.789062c-.59375.121094-1.199219.183594-1.808594.183594zm0 0"/><path d="m199.242188 220.226562c-4.179688-.003906-7.785157-2.9375-8.636719-7.03125l-1.78125-8.589843c-.679688-3.101563.359375-6.328125 2.722656-8.453125 2.359375-2.121094 5.679687-2.8125 8.691406-1.808594 3.015625 1.007812 5.253907 3.550781 5.867188 6.667969l1.785156 8.589843c.476563 2.292969.023437 4.679688-1.257813 6.636719-1.285156 1.957031-3.292968 3.328125-5.585937 3.804688-.59375.121093-1.199219.183593-1.804687.183593zm0 0"/><path d="m172.429688 91.320312c-4.179688-.003906-7.78125-2.9375-8.632813-7.027343l-1.789063-8.585938c-.648437-3.09375.402344-6.292969 2.753907-8.398437 2.355469-2.105469 5.65625-2.792969 8.652343-1.800782 3 .988282 5.242188 3.503907 5.878907 6.597657l1.789062 8.589843c.539063 2.605469-.121093 5.3125-1.796875 7.371094-1.679687 2.0625-4.195312 3.257813-6.855468 3.253906zm0 0"/><path d="m235.753906 116.898438c-3.875.007812-7.304687-2.519532-8.445312-6.222657-1.144532-3.703125.261718-7.71875 3.464844-9.902343l7.257812-4.941407c4.027344-2.746093 9.519531-1.703125 12.265625 2.328125 2.746094 4.027344 1.703125 9.519532-2.328125 12.265625l-7.253906 4.9375c-1.460938 1-3.191406 1.535157-4.960938 1.535157zm0 0"/><path d="m126.917969 191c-3.875.003906-7.300781-2.523438-8.445313-6.226562-1.144531-3.703126.261719-7.71875 3.464844-9.898438l7.253906-4.945312c2.609375-1.773438 5.964844-2.023438 8.804688-.65625 2.84375 1.371093 4.738281 4.152343 4.972656 7.300781.234375 3.144531-1.230469 6.175781-3.835938 7.949219l-7.253906 4.945312c-1.460937.996094-3.191406 1.53125-4.960937 1.53125zm0 0"/><path d="m224.480469 209.523438c-2.925781.007812-5.660157-1.441407-7.304688-3.863282l-4.941406-7.257812c-1.835937-2.605469-2.121094-5.996094-.75-8.875 1.367187-2.875 4.183594-4.792969 7.363281-5.011719 3.179688-.21875 6.226563 1.292969 7.980469 3.957031l4.941406 7.257813c1.839844 2.703125 2.035157 6.199219.507813 9.089843-1.527344 2.890626-4.527344 4.699219-7.796875 4.703126zm0 0"/><path d="m150.378906 100.6875c-2.925781.003906-5.660156-1.441406-7.308594-3.859375l-4.9375-7.25c-1.773437-2.609375-2.023437-5.964844-.65625-8.804687 1.371094-2.84375 4.152344-4.738282 7.296876-4.972657 3.148437-.234375 6.179687 1.230469 7.953124 3.835938l4.945313 7.253906c1.839844 2.703125 2.035156 6.203125.507813 9.09375-1.527344 2.890625-4.527344 4.699219-7.796876 4.703125zm0 0"/></g><path d="m211.832031 309.402344h88.273438c9.753906 0 17.65625 7.90625 17.65625 17.65625v17.65625c0 9.75-7.902344 17.652344-17.65625 17.652344h-88.273438c-9.75 0-17.65625-7.902344-17.65625-17.652344v-17.65625c0-9.75 7.90625-17.65625 17.65625-17.65625zm0 0" fill="#5e5f62"/><path d="m229.484375 309.402344h52.96875c9.75 0 17.652344 7.90625 17.652344 17.65625v17.65625c0 9.75-7.902344 17.652344-17.652344 17.652344h-52.96875c-9.75 0-17.652344-7.902344-17.652344-17.652344v-17.65625c0-9.75 7.902344-17.65625 17.652344-17.65625zm0 0" fill="#a5a5a4"/><path d="m282.453125 335.886719c0 14.625-11.859375 26.480469-26.484375 26.480469s-26.484375-11.855469-26.484375-26.480469 11.859375-26.484375 26.484375-26.484375 26.484375 11.859375 26.484375 26.484375zm0 0" fill="#bdc3c7"/></svg>