<svg height="90pt" viewBox="0 0 511.96658 511.96658" width="90pt" xmlns="http://www.w3.org/2000/svg"><g fill="#7f6e5d"><path d="m192.882812 40.785156-3.820312-18.359375c-1.988281-9.699219 4.230469-19.183593 13.917969-21.230469 9.6875-1.941406 19.144531 4.257813 21.226562 13.917969l3.820313 18.359375"/><path d="m319.070312 471.195312 3.820313 18.359376c1.945313 9.691406-4.253906 19.144531-13.917969 21.226562-9.699218 1.988281-19.179687-4.230469-21.226562-13.917969l-3.816406-18.359375"/><path d="m471.179688 192.894531 18.363281-3.820312c9.699219-1.988281 19.183593 4.230469 21.226562 13.917969 1.941407 9.691406-4.253906 19.144531-13.917969 21.226562l-18.359374 3.820312"/><path d="m40.773438 319.085938-18.363282 3.816406c-4.65625.996094-9.515625.054687-13.464844-2.605469-4.015624-2.5625-6.816406-6.644531-7.761718-11.308594-1.988282-9.699219 4.230468-19.183593 13.917968-21.226562l18.359376-3.820313"/><path d="m363.535156 59.203125 10.28125-15.6875c5.453125-8.261719 16.558594-10.570313 24.851563-5.167969 8.226562 5.476563 10.527343 16.542969 5.171875 24.847656l-10.285156 15.6875"/><path d="m148.417969 452.777344-10.28125 15.683594c-5.480469 8.226562-16.546875 10.527343-24.851563 5.171874-8.261718-5.453124-10.570312-16.554687-5.171875-24.847656l10.285157-15.6875"/><path d="m452.765625 363.546875 15.683594 10.285156c8.261719 5.453125 10.574219 16.554688 5.167969 24.847657-5.476563 8.226562-16.542969 10.527343-24.847657 5.171874l-15.683593-10.285156"/><path d="m59.191406 148.433594-15.6875-10.285156c-8.226562-5.476563-10.527344-16.546876-5.167968-24.851563 5.453124-8.261719 16.550781-10.570313 24.847656-5.167969l15.683594 10.28125"/><path d="m115.328125 81.3125-10.554687-15.503906c-5.546876-8.199219-3.433594-19.339844 4.734374-24.9375 8.210938-5.503906 19.316407-3.394532 24.9375 4.734375l10.554688 15.503906"/><path d="m396.625 430.667969 10.554688 15.503906c5.503906 8.207031 3.394531 19.316406-4.734376 24.933594-8.199218 5.550781-19.339843 3.433593-24.9375-4.730469l-10.554687-15.503906"/><path d="m430.65625 115.34375 15.5-10.558594c8.203125-5.546875 19.34375-3.429687 24.9375 4.734375 5.503906 8.210938 3.394531 19.316407-4.734375 24.9375l-15.503906 10.554688"/><path d="m81.300781 396.636719-15.503906 10.554687c-8.210937 5.503906-19.316406 3.394532-24.9375-4.734375-5.546875-8.199219-3.433594-19.339843 4.734375-24.9375l15.503906-10.554687"/><path d="m280.039062 33.023438 3.5-18.429688c1.875-9.71875 11.246094-16.101562 20.980469-14.285156 4.683594.863281 8.8125 3.59375 11.445313 7.5625 2.726562 3.902344 3.753906 8.746094 2.839844 13.417968l-3.5 18.425782"/><path d="m231.914062 478.957031-3.5 18.425781c-1.910156 9.699219-11.257812 16.0625-20.980468 14.289063-9.71875-1.878906-16.101563-11.25-14.285156-20.984375l3.5-18.421875"/><path d="m478.945312 280.054688 18.425782 3.496093c9.722656 1.875 16.105468 11.25 14.285156 20.980469-1.914062 9.695312-11.257812 16.058594-20.980469 14.285156l-18.421875-3.496094"/><path d="m33.007812 231.925781-18.425781-3.496093c-9.695312-1.914063-16.058593-11.257813-14.285156-20.980469 1.875-9.722657 11.25-16.105469 20.980469-14.289063l18.421875 3.5"/></g><path d="m485.496094 255.988281c0 126.761719-102.761719 229.519531-229.519532 229.519531-126.757812 0-229.515624-102.757812-229.515624-229.519531 0-126.757812 102.757812-229.515625 229.515624-229.515625 126.757813 0 229.519532 102.757813 229.519532 229.515625zm0 0" fill="#b19046"/><path d="m441.355469 255.988281c0 102.382813-82.996094 185.378907-185.378907 185.378907-102.382812 0-185.378906-82.996094-185.378906-185.378907 0-102.378906 82.996094-185.378906 185.378906-185.378906 102.382813 0 185.378907 83 185.378907 185.378906zm0 0" fill="#7f6e5d"/><path d="m255.976562 450.195312c-107.257812 0-194.207031-86.949218-194.207031-194.207031 0-107.257812 86.949219-194.207031 194.207031-194.207031 107.257813 0 194.207032 86.949219 194.207032 194.207031-.121094 107.207031-87 194.085938-194.207032 194.207031zm0-370.757812c-97.507812 0-176.550781 79.046875-176.550781 176.550781 0 97.507813 79.042969 176.554688 176.550781 176.554688 97.507813 0 176.550782-79.046875 176.550782-176.554688-.109375-97.460937-79.089844-176.4375-176.550782-176.550781zm0 0" fill="#e4c05c"/><path d="m356.347656 144.585938c-63.117187 9.445312-200.476562 45.375-234.019531 179.464843-10.8125-21.058593-16.441406-44.390625-16.421875-68.0625-.050781-59.28125 34.835938-113.03125 89-137.125 54.167969-24.09375 117.445312-14.011719 161.441406 25.722657zm0 0" fill="#f5efca"/><path d="m406.046875 255.988281c.082031 61.433594-37.335937 116.695313-94.40625 139.429688s-122.238281 8.339843-164.417969-36.320313c-10-10.375-18.390625-22.1875-24.894531-35.046875 33.542969-134.089843 170.902344-170.019531 234.019531-179.464843 4.742188 4.199218 9.167969 8.742187 13.242188 13.59375 23.523437 27.15625 36.46875 61.882812 36.457031 97.808593zm0 0" fill="#f9eab0"/><path d="m255.976562 179.421875c-4.875 0-8.828124-3.953125-8.828124-8.828125v-19.707031c0-4.875 3.953124-8.828125 8.828124-8.828125s8.828126 3.953125 8.828126 8.828125v19.707031c0 4.875-3.953126 8.828125-8.828126 8.828125zm0 0" fill="#f3d55b"/><path d="m316.359375 204.4375c-3.570313 0-6.789063-2.152344-8.15625-5.449219-1.367187-3.300781-.609375-7.097656 1.914063-9.621093l13.933593-13.933594c3.460938-3.375 8.988281-3.339844 12.40625.078125 3.414063 3.414062 3.449219 8.945312.078125 12.402343l-13.933594 13.9375c-1.65625 1.65625-3.902343 2.585938-6.242187 2.585938zm0 0" fill="#f3d55b"/><path d="m195.597656 204.4375c-2.34375 0-4.589844-.929688-6.242187-2.585938l-13.9375-13.9375c-2.277344-2.222656-3.1875-5.496093-2.375-8.570312.808593-3.078125 3.210937-5.476562 6.289062-6.289062 3.074219-.808594 6.347657.097656 8.566407 2.375l13.9375 13.933593c2.523437 2.523438 3.28125 6.320313 1.914062 9.621094-1.363281 3.300781-4.582031 5.453125-8.152344 5.453125zm0 0" fill="#f3d55b"/><path d="m223.300781 185.925781c-3.574219 0-6.796875-2.15625-8.160156-5.457031l-7.539063-18.207031c-1.757812-4.480469.398438-9.539063 4.84375-11.378907 4.445313-1.839843 9.546876.21875 11.46875 4.628907l7.539063 18.207031c1.121094 2.722656.8125 5.824219-.824219 8.277344-1.636718 2.449218-4.382812 3.921875-7.328125 3.929687zm0 0" fill="#f3d55b"/><path d="m334.878906 232.140625c-4.214844.003906-7.847656-2.972656-8.667968-7.105469-.824219-4.132812 1.390624-8.273437 5.289062-9.882812l18.207031-7.539063c4.476563-1.753906 9.539063.398438 11.378907 4.84375 1.839843 4.445313-.21875 9.546875-4.628907 11.46875l-18.207031 7.539063c-1.070312.445312-2.214844.671875-3.371094.675781zm0 0" fill="#f3d55b"/><path d="m288.652344 185.925781c-2.945313-.007812-5.691406-1.480469-7.328125-3.929687-1.636719-2.453125-1.945313-5.554688-.820313-8.277344l7.539063-18.207031c1.921875-4.410157 7.019531-6.46875 11.464843-4.628907 4.445313 1.839844 6.601563 6.898438 4.84375 11.378907l-7.539062 18.207031c-1.363281 3.300781-4.585938 5.457031-8.160156 5.457031zm0 0" fill="#f3d55b"/><path d="m177.074219 232.140625c-1.15625-.003906-2.300781-.230469-3.367188-.675781l-18.207031-7.539063c-4.410156-1.921875-6.472656-7.023437-4.632812-11.46875 1.839843-4.445312 6.902343-6.597656 11.382812-4.84375l18.207031 7.539063c3.894531 1.609375 6.109375 5.75 5.285157 9.882812-.820313 4.132813-4.449219 7.109375-8.667969 7.105469zm0 0" fill="#f3d55b"/><path d="m229.699219 264.402344c-4.875 0-8.824219-3.953125-8.824219-8.828125s3.949219-8.828125 8.824219-8.828125c13.128906 0 17.425781-29.464844 17.449219-43.730469.007812-4.871094 3.957031-8.816406 8.828124-8.816406h.007813c4.871094.007812 8.816406 3.953125 8.820313 8.824219 0 6.285156-.988282 61.378906-35.105469 61.378906zm0 0" fill="#cc6f56"/><path d="m255.976562 277.542969c-4.875 0-8.828124-3.953125-8.828124-8.828125v-65.960938c.074218-4.878906 4.082031-8.769531 8.957031-8.699218 4.875.070312 8.769531 4.082031 8.699219 8.957031.027343 14.265625 4.324218 43.730469 17.449218 43.730469 4.875 0 8.828125 3.953124 8.828125 8.828124s-3.953125 8.828126-8.828125 8.828126c-6.402344.113281-12.621094-2.152344-17.449218-6.355469v10.671875c0 2.339844-.929688 4.585937-2.585938 6.242187-1.65625 1.652344-3.902344 2.585938-6.242188 2.585938zm0 0" fill="#cc6f56"/><path d="m255.976562 335.4375c-4.875 0-8.828124-3.953125-8.828124-8.828125v-61.792969c0-4.875 3.953124-8.828125 8.828124-8.828125s8.828126 3.953125 8.828126 8.828125v61.792969c0 4.875-3.953126 8.828125-8.828126 8.828125zm0 0" fill="#cc6f56"/><path d="m273.632812 344.265625c0 9.75-7.90625 17.65625-17.65625 17.65625s-17.65625-7.90625-17.65625-17.65625 7.90625-17.65625 17.65625-17.65625 17.65625 7.90625 17.65625 17.65625zm0 0" fill="#7f6e5d"/></svg>