<svg height="512pt" viewBox="-4 0 511 512" width="512pt" xmlns="http://www.w3.org/2000/svg"><path d="m356.296875 334.101562c.636719 40.523438-8.1875 80.636719-25.773437 117.152344h-.261719c-9.574219.027344-17.328125 7.78125-17.355469 17.355469-.066406-9.554687-7.796875-17.285156-17.355469-17.355469-9.574219.027344-17.328125 7.78125-17.355469 17.355469v8.679687h-52.066406v-8.679687c-.070312-9.554687-7.800781-17.285156-17.359375-17.355469-9.570312.027344-17.324219 7.78125-17.355469 17.355469-.066406-9.554687-7.796874-17.285156-17.355468-17.355469h-.257813c-17.585937-36.515625-26.410156-76.628906-25.773437-117.152344-.859375-43.460937 9.417968-86.421874 29.851562-124.789062 4.863282-1.898438 9.566406-4.191406 14.058594-6.855469 14.878906-8.53125 28.492188-19.105469 40.4375-31.414062 2.691406 26.035156 10.5 54.585937 19.785156 54.585937s17.097656-28.550781 19.785156-54.585937c11.949219 12.308593 25.558594 22.882812 40.441407 31.414062 4.492187 2.664063 9.191406 4.957031 14.058593 6.855469 5.410157 9.542969 10 19.527344 13.710938 29.851562 1.820312 4.773438 3.472656 9.632813 4.945312 14.753907 7.234376 24.84375 10.972657 50.574219 11.109376 76.453125.085937 1.214844.085937 2.515625.085937 3.730468zm0 0" fill="#2c3e50"/><path d="m187.078125 451.253906h-.21875c-14.796875-37.257812-22.097656-77.070312-21.476563-117.152344-.839843-42.90625 7.648438-85.484374 24.875-124.789062 4.105469-1.925781 8.027344-4.222656 11.714844-6.855469 12.6875-8.792969 24.039063-19.375 33.699219-31.414062 2.242187 26.035156 8.75 54.585937 16.488281 54.585937 7.738282 0 14.246094-28.550781 16.488282-54.585937 9.664062 12.039062 21.011718 22.621093 33.699218 31.414062 3.691406 2.632813 7.613282 4.929688 11.714844 6.855469 4.554688 9.648438 8.371094 19.628906 11.425781 29.851562 1.519531 4.773438 2.894531 9.632813 4.125 14.753907 6.050781 25.035156 9.15625 50.695312 9.253907 76.453125.074218 1.214844.074218 2.515625.074218 3.730468.617188 40.082032-6.679687 79.894532-21.476562 117.152344h-.21875l-13.015625 26.035156h-104.136719zm0 0" fill="#35495e"/><path d="m385.414062 293.699219c0 18.425781-14.9375 33.359375-33.359374 33.359375-18.425782 0-33.363282-14.933594-33.363282-33.359375s14.9375-33.359375 33.363282-33.359375c18.421874 0 33.359374 14.933594 33.359374 33.359375zm0 0" fill="#805333"/><path d="m318.992188 352.324219c-4.027344.007812-7.527344-2.757813-8.457032-6.679688-.925781-3.917969.964844-7.960937 4.566406-9.757812l28.636719-14.320313c2.773438-1.386718 6.078125-1.1875 8.664063.519532 2.585937 1.707031 4.066406 4.667968 3.882812 7.761718-.1875 3.097656-2.007812 5.855469-4.78125 7.242188l-28.640625 14.320312c-1.199219.601563-2.527343.914063-3.871093.914063zm0 0" fill="#e57e25"/><path d="m332.433594 271.191406c-2.789063-.003906-5.40625-1.34375-7.039063-3.605468-1.628906-2.261719-2.078125-5.167969-1.199219-7.816407l7.648438-23.023437c1.21875-4.128906 5.28125-6.734375 9.539062-6.128906 4.261719.605468 7.433594 4.246093 7.453126 8.546874 0 .960938-.148438 1.910157-.441407 2.824219l-7.722656 23.257813c-1.179687 3.546875-4.5 5.941406-8.238281 5.945312zm0 0" fill="#e57e25"/><path d="m320.757812 299.390625c-3.289062.003906-6.296874-1.855469-7.769531-4.796875l-13.296875-26.589844c-1.386718-2.773437-1.1875-6.074218.519532-8.664062 1.707031-2.585938 4.667968-4.066406 7.761718-3.878906 3.097656.183593 5.855469 2.007812 7.242188 4.78125l13.296875 26.589843c1.34375 2.6875 1.203125 5.878907-.375 8.4375-1.582031 2.558594-4.371094 4.117188-7.378907 4.121094zm0 0" fill="#e57e25"/><path d="m332.433594 327.597656c-.933594 0-1.863282-.152344-2.746094-.449218l-28.203125-9.402344c-4.546875-1.515625-7.003906-6.433594-5.488281-10.980469s6.433594-7.003906 10.980468-5.484375l28.203126 9.402344c4.042968 1.339844 6.515624 5.417968 5.832031 9.625-.679688 4.207031-4.316407 7.296875-8.578125 7.289062zm0 0" fill="#e57e25"/><path d="m356.226562 339.046875c-.328124.003906-.652343-.015625-.976562-.054687-18.5625-2.050782-34.300781-14.570313-40.476562-32.195313-6.175782-17.621094-1.695313-37.226563 11.523437-50.417969 4.421875-4.386718 9.621094-7.917968 15.332031-10.414062 2.839844-1.242188 6.128906-.871094 8.625.96875s3.820313 4.871094 3.472656 7.953125c-.34375 3.082031-2.308593 5.746093-5.148437 6.984375-3.726563 1.621094-7.121094 3.917968-10.011719 6.777344-8.472656 8.484374-11.339844 21.074218-7.375 32.394531 3.96875 11.316406 14.066406 19.367187 25.984375 20.707031 4.566407.519531 7.933594 4.507812 7.683594 9.097656s-4.039063 8.1875-8.632813 8.203125zm0 0" fill="#f29c1f"/><path d="m382.332031 477.289062h-34.714843v-8.679687c-.066407-9.453125-7.640626-17.144531-17.09375-17.355469 17.585937-36.515625 26.410156-76.628906 25.773437-117.152344 0-1.214843 0-2.515624-.085937-3.730468-.136719-25.878906-3.875-51.609375-11.109376-76.453125-1.472656-5.121094-3.125-9.980469-4.945312-14.753907-3.246094-8.945312-7.132812-17.644531-11.628906-26.035156-.695313-1.300781-1.386719-2.601562-2.082032-3.816406 10.097657 4.132812 20.789063 6.625 31.675782 7.375.777344.089844 1.472656.089844 2.253906.175781 4.285156.1875 8.578125.070313 12.84375-.347656 19.714844 30.5 33.414062 64.492187 40.351562 100.144531 10.328126 55.566406-.835937 112.980469-31.238281 160.628906zm0 0" fill="#b19046"/><path d="m278.195312 312.40625c0 23.964844-19.425781 43.390625-43.390624 43.390625-23.964844 0-43.390626-19.425781-43.390626-43.390625s19.425782-43.390625 43.390626-43.390625c23.964843 0 43.390624 19.425781 43.390624 43.390625zm0 0" fill="#805333"/><path d="m243.484375 78.101562c0 33.550782-27.199219 60.746094-60.746094 60.746094-33.550781 0-60.746093-27.195312-60.746093-60.746094 0-33.546874 27.195312-60.746093 60.746093-60.746093 33.546875 0 60.746094 27.199219 60.746094 60.746093zm0 0" fill="#a5a5a4"/><path d="m312.90625 78.101562c-3.507812 0-6.671875-2.113281-8.015625-5.355468-1.34375-3.242188-.601563-6.976563 1.882813-9.457032l30.679687-30.683593c2.183594-2.238281 5.402344-3.128907 8.425781-2.332031 3.023438.796874 5.382813 3.15625 6.179688 6.179687s-.09375 6.242187-2.332032 8.425781l-30.683593 30.679688c-1.625 1.628906-3.832031 2.546875-6.136719 2.542968zm0 0" fill="#a5a5a4"/><path d="m339.628906 91.726562c-1.367187 0-2.714844-.324218-3.933594-.945312l-26.726562-13.625c-4.273438-2.175781-5.96875-7.402344-3.792969-11.671875 2.175781-4.273437 7.402344-5.96875 11.671875-3.792969l26.730469 13.625c3.574219 1.820313 5.4375 5.859375 4.496094 9.761719-.9375 3.902344-4.433594 6.652344-8.445313 6.648437zm0 0" fill="#a5a5a4"/><path d="m308.753906 104.65625c-2.535156 0-4.949218-1.105469-6.597656-3.035156-1.652344-1.925782-2.378906-4.480469-1.988281-6.984375l4.167969-26.554688c.804687-4.675781 5.210937-7.835937 9.894531-7.101562 4.6875.734375 7.914062 5.09375 7.25 9.789062l-4.167969 26.554688c-.660156 4.214843-4.289062 7.324219-8.558594 7.332031zm0 0" fill="#a5a5a4"/><path d="m312.914062 78.101562c-3.265624.003907-6.257812-1.828124-7.738281-4.738281l-19.699219-38.660156c-2.179687-4.269531-.480468-9.496094 3.789063-11.671875 4.273437-2.179688 9.5-.480469 11.675781 3.789062l19.699219 38.664063c1.371094 2.6875 1.246094 5.894531-.332031 8.46875-1.574219 2.574219-4.375 4.144531-7.394532 4.148437zm0 0" fill="#a5a5a4"/><path d="m270.039062 84.890625c-4.53125-.003906-8.292968-3.492187-8.644531-8.003906-.351562-4.515625 2.828125-8.542969 7.300781-9.246094l42.855469-6.789063c3.0625-.484374 6.152344.703126 8.101563 3.113282 1.949218 2.410156 2.46875 5.675781 1.355468 8.570312-1.113281 2.894532-3.683593 4.976563-6.746093 5.460938l-42.855469 6.789062c-.453125.070313-.910156.105469-1.367188.105469zm0 0" fill="#a5a5a4"/><g fill="#5e5f62"><path d="m287.039062 112.898438c-1.675781.003906-3.3125-.484376-4.714843-1.398438-2.273438-1.507812-4.378907-3.257812-6.273438-5.21875-4.570312-4.566406-8.238281-9.957031-10.804687-15.886719-.199219-.339843-.378906-.695312-.53125-1.058593-1.542969-3.789063-2.632813-7.746094-3.25-11.792969-.414063-2.6875-.625-5.402344-.625-8.121094-.023438-6.808594 1.285156-13.558594 3.859375-19.863281.160156-.386719.34375-.761719.554687-1.121094 4.804688-11.042969 13.320313-20.058594 24.074219-25.480469.941406-.46875 1.894531-.929687 2.84375-1.324219.28125-.15625.570313-.292968.871094-.417968 12.746093-5.125 26.980469-5.125 39.730469 0 .386718.160156.761718.347656 1.121093.5625 11.957031 5.183594 21.492188 14.722656 26.671875 26.679687.210938.351563.394532.722657.546875 1.101563 3.582031 8.824218 4.699219 18.457031 3.238281 27.867187-.800781 4.664063-5.191406 7.828125-9.871093 7.109375-4.679688-.71875-7.917969-5.054687-7.28125-9.746094.925781-5.960937.3125-12.0625-1.78125-17.722656-.167969-.304687-.320313-.621094-.457031-.945312-3.449219-8.53125-10.214844-15.300782-18.75-18.753906-.328126-.132813-.648438-.285157-.960938-.460938-7.980469-2.910156-16.734375-2.910156-24.710938.007812-.464843.261719-.949218.476563-1.453124.644532-.6875.261718-1.355469.570312-1.996094.925781-7.367188 3.722656-13.136719 9.988281-16.238282 17.636719-.132812.328125-.289062.648437-.460937.957031-1.46875 3.949219-2.214844 8.132813-2.195313 12.34375.003907 4.210937.746094 8.382813 2.1875 12.335937.179688.3125.335938.632813.46875.964844 1.710938 4.226563 4.25 8.0625 7.472657 11.28125 1.042969 1.097656 2.199219 2.078125 3.449219 2.933594 3.230468 2.09375 4.695312 6.0625 3.601562 9.753906-1.09375 3.6875-4.488281 6.214844-8.335938 6.207032zm0 0"/><path d="m312.90625 34.710938c-4.792969 0-8.675781-3.882813-8.675781-8.675782v-8.679687c0-4.792969 3.882812-8.675781 8.675781-8.675781s8.679688 3.882812 8.679688 8.675781v8.679687c0 4.792969-3.886719 8.675782-8.679688 8.675782zm0 0"/><path d="m296.304688 38.015625c-3.511719 0-6.679688-2.117187-8.019532-5.363281l-3.320312-8.015625c-1.261719-2.878907-.867188-6.214844 1.03125-8.71875 1.894531-2.503907 5-3.789063 8.109375-3.355469 3.113281.429688 5.75 2.511719 6.890625 5.4375l3.320312 8.015625c1.101563 2.679687.800782 5.730469-.808594 8.136719-1.609374 2.410156-4.308593 3.859375-7.207031 3.863281zm0 0"/><path d="m282.226562 47.417969c-2.304687.003906-4.511718-.910157-6.136718-2.539063l-6.136719-6.136718c-3.390625-3.390626-3.390625-8.882813 0-12.273438 3.386719-3.390625 8.882813-3.390625 12.273437 0l6.132813 6.132812c2.484375 2.484376 3.226563 6.214844 1.882813 9.457032-1.34375 3.242187-4.507813 5.359375-8.015626 5.359375zm0 0"/><path d="m272.816406 61.5c-1.140625-.003906-2.265625-.230469-3.316406-.667969l-8.015625-3.316406c-2.929687-1.144531-5.007813-3.78125-5.441406-6.890625-.429688-3.113281.855469-6.214844 3.359375-8.113281 2.503906-1.894531 5.839844-2.289063 8.71875-1.03125l8.015625 3.316406c3.832031 1.582031 6.011719 5.652344 5.203125 9.71875s-4.378906 6.992187-8.523438 6.984375zm0 0"/><path d="m364.976562 78.101562h-8.679687c-4.792969 0-8.679687-3.886718-8.679687-8.679687 0-4.789063 3.886718-8.675781 8.679687-8.675781h8.679687c4.789063 0 8.675782 3.886718 8.675782 8.675781 0 4.792969-3.886719 8.679687-8.675782 8.679687zm0 0"/><path d="m264.804688 98.03125c-4.144532.003906-7.710938-2.921875-8.519532-6.984375-.808594-4.066406 1.367188-8.132813 5.199219-9.714844l8.015625-3.316406c2.875-1.25 6.203125-.851563 8.703125 1.042969 2.5 1.898437 3.78125 4.992187 3.351563 8.101562-.429688 3.105469-2.5 5.742188-5.417969 6.890625l-8.015625 3.316407c-1.050782.4375-2.179688.660156-3.316406.664062zm0 0"/><path d="m353 61.5c-4.144531.003906-7.714844-2.921875-8.523438-6.984375-.808593-4.066406 1.371094-8.132813 5.199219-9.714844l8.019531-3.316406c2.878907-1.261719 6.210938-.867187 8.714844 1.03125 2.507813 1.894531 3.789063 5 3.359375 8.109375-.433593 3.113281-2.511719 5.75-5.441406 6.890625l-8.015625 3.316406c-1.046875.4375-2.175781.664063-3.3125.667969zm0 0"/><path d="m276.089844 114.917969c-3.511719 0-6.675782-2.113281-8.015625-5.355469-1.34375-3.242188-.601563-6.976562 1.878906-9.457031l6.136719-6.136719c3.398437-3.3125 8.835937-3.28125 12.195312.078125 3.355469 3.359375 3.390625 8.792969.074219 12.195313l-6.132813 6.136718c-1.628906 1.628906-3.835937 2.542969-6.136718 2.539063zm0 0"/><path d="m343.589844 47.417969c-3.511719 0-6.675782-2.113281-8.019532-5.355469-1.339843-3.242188-.597656-6.976562 1.882813-9.457031l6.136719-6.136719c3.386718-3.386719 8.882812-3.386719 12.273437 0 3.386719 3.390625 3.386719 8.882812 0 12.273438l-6.136719 6.136718c-1.625 1.628906-3.835937 2.542969-6.136718 2.539063zm0 0"/><path d="m329.507812 38.015625c-2.894531-.007813-5.59375-1.457031-7.203124-3.863281-1.605469-2.410156-1.910157-5.457032-.804688-8.136719l3.316406-8.015625c1.144532-2.925781 3.777344-5.007812 6.890625-5.4375 3.113281-.433594 6.214844.851562 8.109375 3.355469 1.898438 2.503906 2.292969 5.839843 1.035156 8.71875l-3.320312 8.015625c-1.339844 3.25-4.507812 5.367187-8.023438 5.363281zm0 0"/></g><path d="m428.671875 181.628906c-11.269531 20.378906-32.207031 33.546875-55.453125 34.886719-15.941406 1.34375-31.976562-1.125-46.773438-7.203125-4.867187-1.898438-9.566406-4.191406-14.058593-6.855469-14.882813-8.53125-28.492188-19.105469-40.441407-31.414062.671876-6.082031 1.019532-12.191407 1.042969-18.3125 0-28.722657-9.285156-31.238281-20.828125-31.238281v-8.679688c11.996094-1.097656 23.753906-3.996094 34.886719-8.589844 6.769531-2.34375 14.058594-5.121094 21.695313-8.246094 9.804687-3.988281 20.21875-8.328124 30.894531-12.929687 5.292969-2.253906 10.757812-4.597656 16.140625-6.941406 20.21875-8.765625 40.4375-17.527344 58.054687-24.296875 10.542969 8.148437 18.402344 19.273437 22.5625 31.933594.953125 2.863281 1.824219 5.902343 2.601563 8.9375 7.175781 29.941406 3.515625 61.453124-10.324219 88.949218zm0 0" fill="#7f6e5d"/><path d="m414.308594 172.078125c-8.949219 17.261719-26.257813 28.601563-45.660156 29.914063-13.148438 1.148437-26.378907-.972657-38.511719-6.175782-4.015625-1.632812-7.886719-3.601562-11.574219-5.878906-12.316406-7.367188-23.527344-16.433594-33.300781-26.941406.554687-5.214844.839843-10.457032.859375-15.703125 0-24.628907-7.648438-38.195313-17.148438-38.195313v-7.441406c6.5 0 16.574219 8.578125 28.722656 4.039062 5.574219-2.011718 11.574219-4.390624 17.863282-7.070312 8.074218-3.421875 16.648437-7.144531 25.4375-11.089844 4.359375-1.933594 8.859375-3.941406 13.289062-5.953125 16.652344-7.515625 33.300782-15.03125 47.804688-20.835937 8.757812 7.097656 15.21875 16.625 18.578125 27.386718.785156 2.453126 1.5 5.058594 2.144531 7.664063 5.90625 25.65625 2.910156 52.554687-8.503906 76.28125zm0 0" fill="#b19046"/><path d="m90.492188 51.808594c-10.546876 8.148437-18.40625 19.273437-22.5625 31.933594-.957032 2.863281-1.824219 5.902343-2.605469 8.9375-30.632813-19.351563-36.359375-57.96875-35.578125-75.324219.199218-3.355469 2.308594-6.292969 5.425781-7.554688 3.113281-1.261719 6.675781-.617187 9.152344 1.652344 9.71875 9.289063 26.292969 32.632813 46.167969 40.355469zm0 0" fill="#f29c1f"/><path d="m438.996094 92.679688c-.777344-3.035157-1.648438-6.074219-2.601563-8.9375-4.160156-12.660157-12.019531-23.785157-22.5625-31.933594 19.871094-7.722656 36.445313-31.066406 46.167969-40.355469 2.476562-2.269531 6.039062-2.914063 9.152344-1.652344 3.113281 1.261719 5.226562 4.199219 5.425781 7.554688.78125 17.355469-4.945313 55.972656-35.582031 75.324219zm0 0" fill="#f29c1f"/><path d="m364.585938 225.597656c-14.203126-.0625-28.261719-2.863281-41.402344-8.242187-5.253906-2.0625-10.335938-4.542969-15.191406-7.417969-15.605469-8.96875-29.878907-20.074219-42.40625-32.992188-1.707032-1.839843-2.535157-4.332031-2.265626-6.828124.632813-5.773438.964844-11.578126.988282-17.386719 0-22.5625-4.832032-22.5625-12.148438-22.5625-4.792968 0-8.675781-3.882813-8.675781-8.675781v-8.679688c0-4.792969 3.882813-8.675781 8.675781-8.675781 11.003906-1.039063 21.78125-3.765625 31.953125-8.085938 6.566407-2.265625 13.710938-4.984375 21.34375-8.105469 9.769531-3.976562 20.128907-8.289062 30.742188-12.867187 5.304687-2.257813 10.75-4.59375 16.109375-6.929687 19.9375-8.640626 40.539062-17.574219 58.402344-24.445313 2.75-1.050781 5.847656-.640625 8.230468 1.089844 12 9.199219 20.945313 21.804687 25.667969 36.167969 1.03125 3.089843 1.953125 6.320312 2.789063 9.550781 7.765624 32.066406 3.828124 65.851562-11.109376 95.269531-12.609374 22.953125-36.125 37.824219-62.269531 39.375-3.121093.296875-6.265625.445312-9.433593.441406zm-83.613282-57.679687c10.773438 10.46875 22.804688 19.5625 35.816406 27.070312 4.085938 2.417969 8.359376 4.503907 12.78125 6.234375 13.550782 5.566406 28.230469 7.847656 42.832032 6.65625 20.359375-1.101562 38.722656-12.574218 48.636718-30.386718 12.78125-25.613282 16.148438-54.902344 9.523438-82.746094-.707031-2.730469-1.519531-5.578125-2.410156-8.253906-3.167969-9.4375-8.625-17.945313-15.882813-24.757813-16.433593 6.46875-35.023437 14.523437-53.046875 22.339844-5.390625 2.347656-10.878906 4.699219-16.191406 6.960937-10.699219 4.613282-21.171875 8.976563-31.023438 12.988282-7.917968 3.238281-15.363281 6.070312-22.128906 8.410156-7.132812 2.558594-13.371094 4.554687-18.832031 6.011718 7.308594 6.039063 10.621094 17.15625 10.621094 34.285157 0 4.824219-.234375 9.917969-.695313 15.1875zm0 0" fill="#f0c419"/><path d="m503.824219 494.644531c-.070313 9.554688-7.800781 17.285157-17.359375 17.355469h-468.609375c-9.574219-.027344-17.328125-7.78125-17.355469-17.355469-.023438-4.605469 1.824219-9.019531 5.121094-12.238281 3.214844-3.292969 7.628906-5.140625 12.234375-5.117188h468.609375c9.574218.027344 17.328125 7.78125 17.359375 17.355469zm0 0" fill="#805333"/><path d="m226.128906 468.609375v26.035156c0 9.585938-7.773437 17.355469-17.359375 17.355469-9.582031 0-17.355469-7.769531-17.355469-17.355469v-26.035156c.03125-9.574219 7.785157-17.328125 17.355469-17.355469 9.558594.070313 17.289063 7.800782 17.359375 17.355469zm0 0" fill="#d25627"/><path d="m191.414062 468.609375v26.035156c0 9.585938-7.769531 17.355469-17.355468 17.355469-9.585938 0-17.355469-7.769531-17.355469-17.355469v-26.035156c.027344-9.472656 7.625-17.183594 17.097656-17.355469h.257813c9.558594.070313 17.289062 7.800782 17.355468 17.355469zm0 0" fill="#e57e25"/><path d="m312.90625 468.609375v26.035156c0 9.585938-7.769531 17.355469-17.355469 17.355469-9.585937 0-17.355469-7.769531-17.355469-17.355469v-26.035156c.027344-9.574219 7.78125-17.328125 17.355469-17.355469 9.558594.070313 17.289063 7.800782 17.355469 17.355469zm0 0" fill="#d25627"/><path d="m347.617188 468.609375v26.035156c0 9.585938-7.769532 17.355469-17.355469 17.355469-9.585938 0-17.355469-7.769531-17.355469-17.355469v-26.035156c.027344-9.574219 7.78125-17.328125 17.355469-17.355469h.261719c9.453124.210938 17.027343 7.902344 17.09375 17.355469zm0 0" fill="#e57e25"/><path d="m226.128906 468.609375v8.679687c0 9.585938-7.773437 17.355469-17.359375 17.355469-9.582031 0-17.355469-7.769531-17.355469-17.355469v-8.679687c.03125-9.574219 7.785157-17.328125 17.355469-17.355469 9.558594.070313 17.289063 7.800782 17.359375 17.355469zm0 0" fill="#e57e25"/><path d="m191.414062 468.609375v8.679687c0 9.585938-7.769531 17.355469-17.355468 17.355469-9.585938 0-17.355469-7.769531-17.355469-17.355469v-8.679687c.027344-9.472656 7.625-17.183594 17.097656-17.355469h.257813c9.558594.070313 17.289062 7.800782 17.355468 17.355469zm0 0" fill="#f29c1f"/><path d="m312.90625 468.609375v8.679687c0 9.585938-7.769531 17.355469-17.355469 17.355469-9.585937 0-17.355469-7.769531-17.355469-17.355469v-8.679687c.027344-9.574219 7.78125-17.328125 17.355469-17.355469 9.558594.070313 17.289063 7.800782 17.355469 17.355469zm0 0" fill="#e57e25"/><path d="m347.617188 468.609375v8.679687c0 9.585938-7.769532 17.355469-17.355469 17.355469-9.585938 0-17.355469-7.769531-17.355469-17.355469v-8.679687c.027344-9.574219 7.78125-17.328125 17.355469-17.355469h.261719c9.453124.210938 17.027343 7.902344 17.09375 17.355469zm0 0" fill="#f29c1f"/><path d="m175.796875 213.128906c-18.988281 37.457032-28.523437 78.988282-27.769531 120.972656-.636719 40.523438 8.1875 80.636719 25.773437 117.152344-9.472656.171875-17.070312 7.882813-17.097656 17.355469v8.679687h-34.449219c-66.820312-109.257812-23.171875-210.09375 9.109375-260.773437 4.15625.378906 8.328125.492187 12.496094.347656.8125-.015625 1.625-.074219 2.429687-.175781 10.863282-.707031 21.535157-3.199219 31.589844-7.375-.695312 1.214844-1.390625 2.515625-2.082031 3.816406zm0 0" fill="#b19046"/><path d="m368.359375 477.289062h-20.742187v-8.679687c-.066407-9.453125-7.640626-17.144531-17.09375-17.355469 17.585937-36.515625 26.410156-76.628906 25.773437-117.152344 0-1.214843 0-2.515624-.085937-3.730468-.136719-25.878906-3.875-51.609375-11.109376-76.453125-1.472656-5.121094-3.125-9.980469-4.945312-14.753907-3.246094-8.945312-7.132812-17.644531-11.628906-26.035156 9.546875 3.070313 19.589844 4.277344 29.59375 3.558594.695312-.011719 1.390625-.070312 2.082031-.171875.085937.085937.085937.261719.171875.347656 17.746094 30.894531 29.90625 64.679688 35.925781 99.796875 9.316407 55.160156-.546875 111.851563-27.941406 160.628906zm0 0" fill="#e4c05c"/><path d="m148.027344 334.101562c-.636719 40.523438 8.1875 80.636719 25.773437 117.152344-9.472656.171875-17.070312 7.882813-17.097656 17.355469v8.679687h-20.738281c-59.621094-108.996093-20.914063-209.660156 7.894531-260.425781.085937-.085937.085937-.261719.175781-.347656.746094.101563 1.5.160156 2.253906.171875 9.972657.71875 19.992188-.488281 29.507813-3.558594-18.988281 37.457032-28.523437 78.988282-27.769531 120.972656zm0 0" fill="#e4c05c"/><path d="m234.539062 118.453125c-3.175781 0-6.097656-1.738281-7.613281-4.523437-1.519531-2.789063-1.394531-6.183594.324219-8.851563 1.414062-2.230469 2.625-4.582031 3.613281-7.03125 5.257813-12.785156 5.253907-27.132813-.007812-39.917969-5.320313-12.722656-15.4375-22.839844-28.167969-28.152344-12.792969-5.230468-27.128906-5.230468-39.921875 0-12.726563 5.320313-22.839844 15.4375-28.152344 28.164063-1.195312 2.882813-2.113281 5.871094-2.746093 8.925781-1 4.6875-5.613282 7.675782-10.300782 6.671875-4.6875-1-7.675781-5.613281-6.675781-10.300781.855469-4.09375 2.09375-8.097656 3.695313-11.960938 7.082031-16.984374 20.59375-30.484374 37.589843-37.546874 17.015625-6.972657 36.089844-6.972657 53.109375 0 17.019532 7.070312 30.546875 20.589843 37.625 37.609374 7 17.011719 7 36.097657 0 53.109376-1.386718 3.421874-3.085937 6.710937-5.070312 9.824218-1.597656 2.484375-4.347656 3.984375-7.300782 3.980469zm0 0" fill="#5e5f62"/><path d="m190.117188 102.488281c-4.0625 0-7.582032-2.816406-8.46875-6.785156-.890626-3.964844 1.09375-8.015625 4.769531-9.746094 3.898437-1.828125 5.871093-6.234375 4.628906-10.359375-1.238281-4.121094-5.316406-6.710937-9.574219-6.085937-4.257812.628906-7.414062 4.285156-7.414062 8.589843 0 .945313.15625 1.882813.46875 2.777344 1.078125 2.941406.488281 6.234375-1.542969 8.621094-2.03125 2.382812-5.191406 3.488281-8.265625 2.890625-3.074219-.601563-5.585938-2.8125-6.574219-5.785156-.957031-2.734375-1.445312-5.609375-1.441406-8.503907 0-12.910156 9.460937-23.875 22.234375-25.757812 12.773438-1.886719 24.996094 5.875 28.726562 18.238281 3.726563 12.359375-2.167968 25.585938-13.855468 31.078125-1.152344.546875-2.414063.828125-3.691406.828125zm0 0" fill="#5e5f62"/><path d="m182.738281 26.035156c-4.792969 0-8.679687-3.886718-8.679687-8.679687v-8.675781c0-4.792969 3.886718-8.679688 8.679687-8.679688s8.675781 3.886719 8.675781 8.679688v8.675781c0 4.792969-3.882812 8.679687-8.675781 8.679687zm0 0" fill="#5e5f62"/><path d="m238.863281 63.539062c-4.144531.007813-7.714843-2.917968-8.523437-6.984374-.808594-4.0625 1.367187-8.132813 5.199218-9.714844l8.015626-3.324219c4.429687-1.832031 9.503906.269531 11.339843 4.695313 1.835938 4.429687-.269531 9.503906-4.695312 11.339843l-8.015625 3.320313c-1.050782.441406-2.179688.664062-3.320313.667968zm0 0" fill="#5e5f62"/><path d="m159.496094 30.660156c-3.511719 0-6.679688-2.113281-8.019532-5.359375l-3.324218-8.015625c-1.835938-4.429687.265625-9.503906 4.695312-11.339844 4.425782-1.835937 9.503906.265626 11.339844 4.695313l3.320312 8.015625c1.105469 2.679688.804688 5.730469-.804687 8.140625-1.605469 2.410156-4.308594 3.859375-7.207031 3.863281zm0 0" fill="#5e5f62"/><path d="m225.695312 43.824219c-3.511718 0-6.675781-2.117188-8.015624-5.359375-1.34375-3.242188-.601563-6.972656 1.878906-9.453125l6.136718-6.136719c2.175782-2.261719 5.40625-3.171875 8.445313-2.378906 3.035156.792968 5.410156 3.164062 6.203125 6.203125.792969 3.039062-.117188 6.269531-2.382812 8.445312l-6.132813 6.136719c-1.625 1.628906-3.832031 2.542969-6.132813 2.542969zm0 0" fill="#5e5f62"/><path d="m139.78125 43.824219c-2.300781.003906-4.507812-.914063-6.136719-2.542969l-6.132812-6.136719c-3.277344-3.40625-3.226563-8.808593.117187-12.152343 3.34375-3.339844 8.746094-3.394532 12.152344-.117188l6.136719 6.136719c2.476562 2.484375 3.21875 6.214843 1.875 9.457031-1.339844 3.238281-4.503907 5.351562-8.011719 5.355469zm0 0" fill="#5e5f62"/><path d="m205.980469 30.660156c-2.898438-.003906-5.601563-1.453125-7.210938-3.863281-1.605469-2.410156-1.910156-5.460937-.804687-8.140625l3.324218-8.015625c1.835938-4.425781 6.910157-6.53125 11.339844-4.695313 4.425782 1.835938 6.527344 6.910157 4.695313 11.339844l-3.324219 8.015625c-1.34375 3.246094-4.507812 5.359375-8.019531 5.359375zm0 0" fill="#5e5f62"/><path d="m126.609375 63.539062c-1.136719-.003906-2.265625-.226562-3.316406-.667968l-8.015625-3.320313c-4.429688-1.835937-6.53125-6.910156-4.695313-11.339843 1.832031-4.425782 6.910157-6.527344 11.335938-4.695313l8.019531 3.324219c3.828125 1.582031 6.007812 5.652344 5.199219 9.714844-.8125 4.066406-4.382813 6.992187-8.527344 6.984374zm0 0" fill="#5e5f62"/><path d="m246.871094 113.351562c-1.136719 0-2.265625-.226562-3.316406-.664062l-8.015626-3.324219c-4.390624-1.859375-6.460937-6.910156-4.632812-11.3125 1.824219-4.402343 6.859375-6.511719 11.277344-4.71875l8.015625 3.320313c3.832031 1.582031 6.007812 5.652344 5.199219 9.714844-.808594 4.066406-4.382813 6.992187-8.527344 6.984374zm0 0" fill="#5e5f62"/><path d="m269.515625 78.101562h-8.675781c-4.792969 0-8.679688-3.886718-8.679688-8.679687 0-4.789063 3.886719-8.675781 8.679688-8.675781h8.675781c4.792969 0 8.679687 3.886718 8.679687 8.675781 0 4.792969-3.886718 8.679687-8.679687 8.679687zm0 0" fill="#5e5f62"/><path d="m234.8125 278.128906c-4.027344.003906-7.527344-2.761718-8.453125-6.679687-.929687-3.917969.960937-7.960938 4.5625-9.761719l28.640625-14.316406c4.285156-2.144532 9.5-.40625 11.640625 3.878906 2.144531 4.289062.410156 9.5-3.878906 11.644531l-28.636719 14.320313c-1.203125.601562-2.527344.914062-3.875.914062zm0 0" fill="#e57e25"/><path d="m206.179688 378.359375c-4.027344.003906-7.53125-2.761719-8.457032-6.679687-.925781-3.917969.964844-7.960938 4.566406-9.761719l28.636719-14.316407c4.285157-2.144531 9.5-.40625 11.644531 3.878907 2.144532 4.289062.40625 9.5-3.882812 11.644531l-28.636719 14.320312c-1.203125.601563-2.527343.914063-3.871093.914063zm0 0" fill="#e57e25"/><path d="m204.433594 290.714844c-2.789063-.003906-5.40625-1.34375-7.039063-3.609375-1.628906-2.261719-2.074219-5.171875-1.195312-7.816407l10.125-30.375c.980469-2.941406 3.453125-5.132812 6.492187-5.753906 3.039063-.621094 6.175782.421875 8.234375 2.742188 2.054688 2.320312 2.71875 5.5625 1.738281 8.503906l-10.125 30.375c-1.179687 3.542969-4.496093 5.933594-8.230468 5.933594zm0 0" fill="#e57e25"/><path d="m255.054688 381.835938c-2.789063-.003907-5.40625-1.347657-7.035157-3.609376-1.632812-2.265624-2.078125-5.171874-1.195312-7.820312l10.121093-30.371094c.980469-2.941406 3.457032-5.136718 6.496094-5.757812 3.035156-.621094 6.175782.425781 8.230469 2.746094 2.058594 2.320312 2.71875 5.5625 1.738281 8.5l-10.121094 30.375c-1.179687 3.542968-4.496093 5.9375-8.234374 5.9375zm0 0" fill="#e57e25"/><path d="m191.859375 321.085938c-3.289063.003906-6.296875-1.855469-7.769531-4.796876l-14.320313-28.636718c-2.140625-4.289063-.40625-9.5 3.882813-11.644532 4.285156-2.144531 9.5-.40625 11.644531 3.878907l14.316406 28.636719c1.347657 2.691406 1.203125 5.882812-.375 8.441406-1.582031 2.558594-4.371093 4.117187-7.378906 4.121094zm0 0" fill="#e57e25"/><path d="m292.085938 349.722656c-3.289063.003906-6.300782-1.855468-7.773438-4.796875l-14.316406-28.636719c-2.144532-4.289062-.40625-9.5 3.878906-11.644531 4.289062-2.144531 9.5-.40625 11.644531 3.878907l14.320313 28.640624c1.34375 2.6875 1.199218 5.878907-.378906 8.4375-1.578126 2.558594-4.371094 4.117188-7.375 4.121094zm0 0" fill="#e57e25"/><path d="m204.433594 351.460938c-.933594 0-1.863282-.152344-2.746094-.449219l-30.375-10.121094c-4.546875-1.515625-7.003906-6.433594-5.484375-10.980469 1.515625-4.546875 6.429687-7.003906 10.976563-5.484375l30.375 10.121094c4.042968 1.339844 6.515624 5.421875 5.832031 9.628906-.679688 4.207031-4.316407 7.292969-8.578125 7.285157zm0 0" fill="#e57e25"/><path d="m295.550781 300.839844c-.933593 0-1.859375-.152344-2.746093-.449219l-30.371094-10.125c-4.546875-1.515625-7.003906-6.429687-5.488282-10.976563 1.515626-4.546874 6.433594-7.003906 10.980469-5.488281l30.371094 10.125c4.046875 1.339844 6.519531 5.417969 5.835937 9.625-.683593 4.207031-4.320312 7.296875-8.582031 7.289063zm0 0" fill="#e57e25"/><path d="m243.484375 312.40625c0 4.792969-3.886719 8.679688-8.679687 8.679688-4.792969 0-8.675782-3.886719-8.675782-8.679688s3.882813-8.675781 8.675782-8.675781c4.792968 0 8.679687 3.882812 8.679687 8.675781zm0 0" fill="#e57e25"/><path d="m314.203125 383.832031c-2.886719-.007812-5.585937-1.449219-7.195313-3.847656-1.609374-2.398437-1.921874-5.441406-.835937-8.117187l3.300781-8.070313c1.839844-4.390625 6.875-6.476563 11.28125-4.679687 4.410156 1.800781 6.542969 6.816406 4.785156 11.238281l-3.296874 8.074219c-1.332032 3.265624-4.511719 5.402343-8.039063 5.402343zm0 0" fill="#cb8252"/><path d="m290.953125 439.980469c-2.890625-.007813-5.585937-1.449219-7.195313-3.847657-1.613281-2.398437-1.925781-5.441406-.835937-8.117187l3.296875-8.070313c1.839844-4.390624 6.875-6.476562 11.285156-4.679687 4.40625 1.800781 6.542969 6.816406 4.785156 11.238281l-3.300781 8.070313c-1.328125 3.269531-4.507812 5.40625-8.035156 5.40625zm0 0" fill="#cb8252"/><path d="m322.140625 395.382812c-2.039063-2.046874-2.929687-4.972656-2.371094-7.808593.558594-2.832031 2.484375-5.207031 5.148438-6.328125l8.039062-3.378906c4.402344-1.785157 9.421875.300781 11.261719 4.679687 1.839844 4.382813-.183594 9.425781-4.539062 11.320313l-8.039063 3.378906c-3.25 1.367187-7.007813.628906-9.5-1.863282zm0 0" fill="#cb8252"/><path d="m265.992188 418.640625c-2.039063-2.046875-2.925782-4.972656-2.371094-7.804687.558594-2.835938 2.488281-5.207032 5.148437-6.332032l8.039063-3.375c2.867187-1.242187 6.175781-.847656 8.667968 1.03125 2.496094 1.878906 3.789063 4.953125 3.382813 8.050782-.402344 3.097656-2.4375 5.738281-5.328125 6.917968l-8.039062 3.375c-3.25 1.367188-7.003907.628906-9.5-1.863281zm0 0" fill="#cb8252"/><path d="m319.582031 409.160156c.007813-2.890625 1.449219-5.585937 3.847657-7.195312 2.398437-1.609375 5.441406-1.921875 8.117187-.835938l8.070313 3.300782c2.90625 1.144531 4.972656 3.765624 5.40625 6.859374.4375 3.09375-.824219 6.183594-3.300782 8.089844-2.476562 1.90625-5.789062 2.332032-8.667968 1.117188l-8.070313-3.296875c-3.265625-1.332031-5.402344-4.511719-5.402344-8.039063zm0 0" fill="#cb8252"/><path d="m263.4375 385.910156c.003906-2.890625 1.445312-5.585937 3.84375-7.195312 2.398438-1.613282 5.441406-1.925782 8.117188-.835938l8.070312 3.296875c4.378906 1.851563 6.453125 6.875 4.65625 11.277344-1.792969 4.398437-6.796875 6.535156-11.214844 4.792969l-8.074218-3.300782c-3.265626-1.332031-5.402344-4.507812-5.398438-8.035156zm0 0" fill="#cb8252"/><path d="m317.507812 439.980469c-3.53125 0-6.707031-2.136719-8.039062-5.40625l-3.296875-8.070313c-1.207031-2.875-.777344-6.179687 1.128906-8.648437 1.902344-2.472657 4.988281-3.730469 8.078125-3.296875 3.089844.429687 5.707032 2.488281 6.859375 5.386718l3.296875 8.070313c1.089844 2.675781.777344 5.71875-.832031 8.117187-1.613281 2.398438-4.308594 3.839844-7.195313 3.847657zm0 0" fill="#cb8252"/><path d="m294.253906 383.832031c-3.527344 0-6.707031-2.136719-8.039062-5.402343l-3.296875-8.074219c-1.757813-4.421875.378906-9.4375 4.785156-11.238281 4.410156-1.796876 9.445313.289062 11.285156 4.679687l3.296875 8.070313c1.085938 2.675781.773438 5.71875-.835937 8.117187s-4.304688 3.839844-7.195313 3.847656zm0 0" fill="#cb8252"/><path d="m210.8125 409.191406c-3.511719 0-6.675781-2.117187-8.019531-5.359375l-3.324219-8.019531c-1.832031-4.425781.269531-9.503906 4.695312-11.339844 4.429688-1.832031 9.507813.269532 11.339844 4.695313l3.324219 8.019531c1.105469 2.675781.804687 5.730469-.804687 8.140625-1.609376 2.410156-4.3125 3.859375-7.210938 3.863281zm0 0" fill="#a5a5a4"/><path d="m233.488281 418.585938c-4.144531.007812-7.71875-2.917969-8.527343-6.984376-.8125-4.066406 1.367187-8.136718 5.199218-9.714843l8.019532-3.324219c4.425781-1.832031 9.503906.269531 11.335937 4.695312 1.835937 4.429688-.265625 9.503907-4.691406 11.339844l-8.019531 3.320313c-1.050782.4375-2.179688.664062-3.316407.667969zm0 0" fill="#a5a5a4"/><path d="m193.402344 435.1875c-4.144532.003906-7.714844-2.917969-8.523438-6.984375-.8125-4.0625 1.367188-8.132813 5.199219-9.714844l8.015625-3.324219c2.863281-1.1875 6.144531-.753906 8.605469 1.132813 2.457031 1.886719 3.726562 4.941406 3.320312 8.015625-.402343 3.074219-2.417969 5.699219-5.28125 6.886719l-8.019531 3.320312c-1.050781.4375-2.175781.664063-3.316406.667969zm0 0" fill="#a5a5a4"/><path d="m215.40625 432.578125c-.007812-4.144531 2.917969-7.714844 6.984375-8.523437 4.0625-.808594 8.132813 1.367187 9.714844 5.199218l3.320312 8.015625c1.1875 2.867188.757813 6.144531-1.128906 8.605469s-4.945313 3.726562-8.019531 3.320312c-3.074219-.402343-5.699219-2.417968-6.882813-5.28125l-3.324219-8.015624c-.4375-1.050782-.660156-2.179688-.664062-3.320313zm0 0" fill="#a5a5a4"/><path d="m230.234375 406.648438c-2.925781 2.9375-7.519531 3.394531-10.96875 1.09375-3.445313-2.304688-4.785156-6.722657-3.191406-10.550782l3.320312-8.019531c1.1875-2.863281 3.808594-4.878906 6.882813-5.28125 3.074218-.40625 6.132812.859375 8.019531 3.316406 1.886719 2.460938 2.320313 5.742188 1.132813 8.605469l-3.320313 8.015625c-.433594 1.054687-1.070313 2.015625-1.875 2.820313zm0 0" fill="#a5a5a4"/><path d="m213.632812 446.730469c-2.925781 2.9375-7.523437 3.394531-10.972656 1.089843-3.445312-2.300781-4.785156-6.722656-3.191406-10.550781l3.320312-8.019531c1.175782-2.878906 3.804688-4.910156 6.886719-5.320312 3.085938-.414063 6.152344.859374 8.042969 3.328124 1.890625 2.472657 2.3125 5.765626 1.105469 8.632813l-3.316407 8.019531c-.433593 1.054688-1.074218 2.011719-1.875 2.820313zm0 0" fill="#a5a5a4"/><path d="m241.496094 435.1875c-1.140625-.003906-2.265625-.230469-3.316406-.667969l-8.019532-3.320312c-2.863281-1.1875-4.878906-3.8125-5.28125-6.886719s.863282-6.128906 3.324219-8.015625c2.457031-1.886719 5.738281-2.320313 8.601563-1.132813l8.019531 3.324219c3.828125 1.582031 6.007812 5.652344 5.195312 9.714844-.808593 4.066406-4.378906 6.988281-8.523437 6.984375zm0 0" fill="#a5a5a4"/><path d="m201.410156 418.585938c-1.136718-.003907-2.265625-.230469-3.316406-.667969l-8.015625-3.320313c-4.429687-1.835937-6.53125-6.910156-4.695313-11.339844 1.832032-4.425781 6.910157-6.527343 11.335938-4.695312l8.019531 3.324219c3.832031 1.578125 6.011719 5.648437 5.199219 9.714843-.808594 4.066407-4.378906 6.992188-8.527344 6.984376zm0 0" fill="#a5a5a4"/><path d="m148.027344 425.21875c0 4.792969-3.886719 8.679688-8.679688 8.679688-4.792968 0-8.679687-3.886719-8.679687-8.679688s3.886719-8.675781 8.679687-8.675781c4.792969 0 8.679688 3.882812 8.679688 8.675781zm0 0" fill="#b19046"/><path d="m139.347656 390.507812c0 4.792969-3.886718 8.679688-8.679687 8.679688-4.789063 0-8.675781-3.886719-8.675781-8.679688 0-4.792968 3.886718-8.675781 8.675781-8.675781 4.792969 0 8.679687 3.882813 8.679687 8.675781zm0 0" fill="#b19046"/><path d="m135.007812 355.796875c0 4.792969-3.882812 8.675781-8.675781 8.675781s-8.679687-3.882812-8.679687-8.675781 3.886718-8.679687 8.679687-8.679687 8.675781 3.886718 8.675781 8.679687zm0 0" fill="#b19046"/><path d="m139.347656 321.085938c0 4.792968-3.886718 8.675781-8.679687 8.675781-4.789063 0-8.675781-3.882813-8.675781-8.675781 0-4.792969 3.886718-8.679688 8.675781-8.679688 4.792969 0 8.679687 3.886719 8.679687 8.679688zm0 0" fill="#b19046"/><path d="m148.027344 286.371094c0 4.792968-3.886719 8.679687-8.679688 8.679687-4.792968 0-8.679687-3.886719-8.679687-8.679687 0-4.789063 3.886719-8.675782 8.679687-8.675782 4.792969 0 8.679688 3.886719 8.679688 8.675782zm0 0" fill="#b19046"/><path d="m373.652344 425.21875c0 4.792969-3.886719 8.679688-8.675782 8.679688-4.792968 0-8.679687-3.886719-8.679687-8.679688s3.886719-8.675781 8.679687-8.675781c4.789063 0 8.675782 3.882812 8.675782 8.675781zm0 0" fill="#b19046"/><path d="m382.332031 390.507812c0 4.792969-3.886719 8.679688-8.679687 8.679688-4.792969 0-8.675782-3.886719-8.675782-8.679688 0-4.792968 3.882813-8.675781 8.675782-8.675781 4.792968 0 8.679687 3.882813 8.679687 8.675781zm0 0" fill="#b19046"/><path d="m386.667969 355.796875c0 4.792969-3.882813 8.675781-8.675781 8.675781-4.792969 0-8.679688-3.882812-8.679688-8.675781s3.886719-8.679687 8.679688-8.679687c4.792968 0 8.675781 3.886718 8.675781 8.679687zm0 0" fill="#b19046"/><path d="m382.332031 321.085938c0 4.792968-3.886719 8.675781-8.679687 8.675781-4.792969 0-8.675782-3.882813-8.675782-8.675781 0-4.792969 3.882813-8.679688 8.675782-8.679688 4.792968 0 8.679687 3.886719 8.679687 8.679688zm0 0" fill="#b19046"/><path d="m373.652344 286.371094c0 4.792968-3.886719 8.679687-8.675782 8.679687-4.792968 0-8.679687-3.886719-8.679687-8.679687 0-4.789063 3.886719-8.675782 8.679687-8.675782 4.789063 0 8.675782 3.886719 8.675782 8.675782zm0 0" fill="#b19046"/><path d="m252.160156 112.8125v8.679688c-11.539062 0-20.824218 2.515624-20.824218 31.238281.019531 6.121093.367187 12.230469 1.039062 18.3125-11.945312 12.308593-25.558594 22.882812-40.4375 31.414062-4.492188 2.664063-9.195312 4.957031-14.058594 6.855469-14.710937 6.078125-30.65625 8.546875-46.515625 7.203125-23.355469-1.210937-44.421875-14.40625-55.710937-34.886719-13.84375-27.496094-17.5-59.007812-10.328125-88.949218.78125-3.035157 1.648437-6.074219 2.605469-8.9375 4.15625-12.660157 12.015624-23.785157 22.5625-31.933594 10.238281 3.992187 21.433593 8.589844 32.886718 13.449218 14.058594 5.988282 28.726563 12.410157 42.957032 18.484376 8.070312 3.472656 16.054687 6.855468 23.777343 10.066406 14.5 6.15625 29.332031 11.484375 44.433594 15.96875 5.722656 1.726562 11.640625 2.746094 17.613281 3.035156zm0 0" fill="#7f6e5d"/><path d="m234.804688 101.707031v7.390625c-9.4375 0-17.027344 13.621094-17.027344 38.085938.015625 5.207031.300781 10.410156.851562 15.589844-9.707031 10.433593-20.835937 19.4375-33.066406 26.753906-3.660156 2.261718-7.503906 4.214844-11.492188 5.835937-11.972656 5.167969-25.042968 7.273438-38.035156 6.136719-19.351562-1.195312-36.652344-12.480469-45.550781-29.710938-11.335937-23.554687-14.3125-50.269531-8.445313-75.746093.640626-2.585938 1.347657-5.171875 2.128907-7.613281 3.335937-10.683594 9.753906-20.144532 18.445312-27.191407 8.375 3.402344 17.53125 7.316407 26.894531 11.457031 11.492188 5.097657 23.484376 10.566407 35.121094 15.738282 6.59375 2.957031 13.128906 5.839844 19.4375 8.574218 11.835938 5.234376 23.96875 9.773438 36.332032 13.597657 5.820312 1.625 10.71875-8.898438 14.40625-8.898438zm0 0" fill="#b19046"/><path d="m139.960938 225.597656c-3.15625 0-6.296876-.148437-9.417969-.441406-26.253907-1.425781-49.90625-16.328125-62.519531-39.398438-14.921876-29.371093-18.867188-63.105468-11.132813-95.128906.867187-3.347656 1.789063-6.578125 2.804687-9.628906 4.722657-14.378906 13.675782-26.996094 25.683594-36.207031 2.390625-1.746094 5.511719-2.152344 8.269532-1.074219 10.308593 4.027344 21.585937 8.65625 33.125 13.550781 7.246093 3.089844 14.652343 6.289063 22.070312 9.496094 6.988281 3.023437 13.992188 6.046875 20.898438 8.992187 8.058593 3.46875 16.011718 6.839844 23.703124 10.039063 14.144532 6.027344 28.625 11.238281 43.367188 15.601563 4.988281 1.519531 10.140625 2.4375 15.347656 2.738281 4.792969 0 8.679688 3.882812 8.679688 8.675781v8.679688c0 4.792968-3.886719 8.675781-8.679688 8.675781-7.3125 0-12.148437 0-12.148437 22.5625.027343 5.808593.355469 11.609375.988281 17.382812.269531 2.496094-.554688 4.988281-2.261719 6.824219-12.527343 12.921875-26.796875 24.027344-42.394531 32.992188-4.902344 2.90625-10.03125 5.402343-15.339844 7.476562-13.023437 5.355469-26.960937 8.136719-41.042968 8.191406zm-47.925782-163.859375c-7.261718 6.820313-12.71875 15.335938-15.886718 24.78125-.878907 2.640625-1.691407 5.488281-2.421876 8.332031-6.597656 27.808594-3.21875 57.054688 9.550782 82.628907 9.925781 17.902343 28.402344 29.398437 48.851562 30.390625 14.476563 1.203125 29.035156-1.058594 42.46875-6.59375 4.476563-1.75 8.808594-3.859375 12.945313-6.304688 13.007812-7.503906 25.035156-16.589844 35.808593-27.054687-.457031-5.265625-.695312-10.359375-.695312-15.179688 0-17.148437 3.3125-28.269531 10.636719-34.3125-.332031-.085937-.664063-.175781-1-.265625-15.453125-4.554687-30.628907-10-45.449219-16.308594-7.820312-3.25-15.832031-6.648437-23.9375-10.136718-6.90625-2.945313-13.9375-5.988282-20.949219-9.015625-7.390625-3.199219-14.757812-6.386719-21.972656-9.457031-9.640625-4.089844-19.097656-7.992188-27.949219-11.503907zm0 0" fill="#f0c419"/><path d="m174.058594 138.847656c0 14.378906-11.65625 26.035156-26.03125 26.035156-14.378906 0-26.035156-11.65625-26.035156-26.035156s11.65625-26.035156 26.035156-26.035156c14.375 0 26.03125 11.65625 26.03125 26.035156zm0 0" fill="#fb7b76"/><path d="m382.332031 138.847656c0 14.378906-11.65625 26.035156-26.035156 26.035156s-26.035156-11.65625-26.035156-26.035156 11.65625-26.035156 26.035156-26.035156 26.035156 11.65625 26.035156 26.035156zm0 0" fill="#fb7b76"/><path d="m148.027344 173.578125c-17.425782.003906-32.15625-12.90625-34.433594-30.183594-2.277344-17.273437 8.601562-33.5625 25.429688-38.074219 16.832031-4.515624 34.398437 4.144532 41.070312 20.242188 4.421875 10.714844 3.210938 22.925781-3.226562 32.5625s-17.253907 15.433594-28.839844 15.453125zm0-52.09375c-7.652344-.007813-14.40625 4.992187-16.632813 12.3125-2.226562 7.316406.597657 15.234375 6.957031 19.488281 6.359376 4.253906 14.753907 3.847656 20.667969-1.003906 5.917969-4.851562 7.960938-13.003906 5.035157-20.074219-2.691407-6.480469-9.011719-10.707031-16.027344-10.71875zm0 0" fill="#5e5f62"/><path d="m138.066406 123.480469c-3.511718 0-6.675781-2.117188-8.019531-5.363281l-3.320313-8.015626c-1.835937-4.425781.265626-9.503906 4.695313-11.339843 4.425781-1.832031 9.503906.269531 11.335937 4.695312l3.324219 8.015625c1.105469 2.679688.804688 5.730469-.804687 8.140625-1.609375 2.410157-4.3125 3.859375-7.210938 3.867188zm0 0" fill="#5e5f62"/><path d="m161.3125 179.597656c-3.511719 0-6.675781-2.117187-8.019531-5.359375l-3.324219-8.019531c-1.183594-2.863281-.753906-6.140625 1.132812-8.601562 1.886719-2.460938 4.945313-3.726563 8.019532-3.324219 3.070312.40625 5.695312 2.417969 6.882812 5.285156l3.324219 8.015625c1.105469 2.675781.804687 5.730469-.804687 8.140625-1.609376 2.410156-4.3125 3.859375-7.210938 3.863281zm0 0" fill="#5e5f62"/><path d="m172.082031 137.566406c-4.144531.007813-7.714843-2.917968-8.527343-6.980468-.808594-4.066407 1.371093-8.136719 5.199218-9.71875l8.015625-3.320313c2.867188-1.1875 6.144531-.753906 8.605469 1.132813 2.460938 1.886718 3.726562 4.941406 3.324219 8.015624-.40625 3.074219-2.417969 5.699219-5.285157 6.886719l-8.015624 3.320313c-1.050782.4375-2.179688.664062-3.316407.664062zm0 0" fill="#5e5f62"/><path d="m115.960938 160.8125c-4.144532.007812-7.714844-2.917969-8.523438-6.980469-.808594-4.066406 1.367188-8.136719 5.199219-9.71875l8.015625-3.320312c4.429687-1.835938 9.503906.265625 11.339844 4.695312 1.835937 4.425781-.269532 9.503907-4.695313 11.339844l-8.015625 3.320313c-1.054688.4375-2.179688.664062-3.320312.664062zm0 0" fill="#5e5f62"/><path d="m157.984375 123.480469c-2.898437-.007813-5.601563-1.457031-7.210937-3.867188-1.609376-2.410156-1.910157-5.460937-.804688-8.140625l3.324219-8.015625c1.835937-4.425781 6.910156-6.527343 11.339843-4.695312 4.425782 1.835937 6.527344 6.914062 4.695313 11.339843l-3.324219 8.015626c-1.34375 3.246093-4.507812 5.363281-8.019531 5.363281zm0 0" fill="#5e5f62"/><path d="m134.738281 179.597656c-2.898437-.003906-5.601562-1.453125-7.210937-3.863281-1.605469-2.410156-1.910156-5.464844-.800782-8.140625l3.320313-8.015625c1.1875-2.867187 3.8125-4.878906 6.886719-5.285156 3.074218-.402344 6.128906.863281 8.015625 3.324219 1.886719 2.460937 2.320312 5.738281 1.132812 8.601562l-3.324219 8.019531c-1.339843 3.242188-4.507812 5.359375-8.019531 5.359375zm0 0" fill="#5e5f62"/><path d="m180.089844 160.8125c-1.140625 0-2.265625-.226562-3.320313-.664062l-8.015625-3.320313c-2.863281-1.1875-4.878906-3.8125-5.28125-6.886719-.40625-3.074218.863282-6.128906 3.320313-8.015625 2.460937-1.890625 5.742187-2.320312 8.605469-1.132812l8.015624 3.320312c3.832032 1.582031 6.007813 5.652344 5.199219 9.71875-.808593 4.0625-4.378906 6.988281-8.523437 6.980469zm0 0" fill="#5e5f62"/><path d="m123.96875 137.566406c-1.136719 0-2.265625-.226562-3.316406-.664062l-8.015625-3.320313c-4.429688-1.835937-6.53125-6.914062-4.695313-11.339843 1.835938-4.429688 6.910156-6.53125 11.339844-4.695313l8.015625 3.320313c3.832031 1.582031 6.007813 5.652343 5.199219 9.71875-.808594 4.0625-4.382813 6.988281-8.527344 6.980468zm0 0" fill="#5e5f62"/><path d="m272.988281 152.730469c-.023437 6.121093-.371093 12.230469-1.042969 18.3125-2.6875 26.035156-10.5 54.585937-19.785156 54.585937s-17.09375-28.550781-19.785156-54.585937c-.671875-6.082031-1.019531-12.191407-1.039062-18.3125 0-28.722657 9.285156-31.238281 20.824218-31.238281 11.542969 0 20.828125 2.515624 20.828125 31.238281zm0 0" fill="#f18d46"/><path d="m260.839844 152.730469c0 5.640625-.144532 11.890625-.433594 18.3125-1.121094 26.035156-4.375 54.585937-8.246094 54.585937-3.867187 0-7.121094-28.550781-8.242187-54.585937-.289063-6.421875-.433594-12.671875-.433594-18.3125 0-28.722657 3.867187-31.238281 8.675781-31.238281s8.679688 2.515624 8.679688 31.238281zm0 0" fill="#f29c1f"/><path d="m356.296875 173.558594c-19.171875 0-34.710937-15.539063-34.710937-34.710938s15.539062-34.710937 34.710937-34.710937 34.710937 15.539062 34.710937 34.710937c-.019531 19.160156-15.550781 34.691406-34.710937 34.710938zm0-52.066406c-9.585937 0-17.355469 7.769531-17.355469 17.355468 0 9.585938 7.769532 17.355469 17.355469 17.355469s17.355469-7.769531 17.355469-17.355469c-.007813-9.582031-7.773438-17.347656-17.355469-17.355468zm0 0" fill="#5e5f62"/><path d="m346.339844 123.480469c-3.511719 0-6.679688-2.117188-8.023438-5.363281l-3.320312-8.015626c-1.835938-4.425781.265625-9.503906 4.695312-11.339843 4.425782-1.832031 9.503906.269531 11.339844 4.695312l3.320312 8.015625c1.105469 2.679688.804688 5.730469-.804687 8.140625-1.605469 2.410157-4.3125 3.859375-7.207031 3.867188zm0 0" fill="#5e5f62"/><path d="m369.585938 179.597656c-3.511719 0-6.679688-2.117187-8.023438-5.359375l-3.320312-8.019531c-1.835938-4.425781.265624-9.503906 4.695312-11.335938 4.425781-1.835937 9.503906.265626 11.339844 4.695313l3.320312 8.015625c1.105469 2.675781.804688 5.730469-.804687 8.140625s-4.3125 3.859375-7.207031 3.863281zm0 0" fill="#5e5f62"/><path d="m380.351562 137.566406c-4.144531.007813-7.714843-2.917968-8.523437-6.980468-.8125-4.066407 1.367187-8.136719 5.199219-9.71875l8.015625-3.320313c4.425781-1.835937 9.503906.265625 11.339843 4.695313 1.832032 4.425781-.269531 9.503906-4.695312 11.339843l-8.019531 3.320313c-1.050781.4375-2.175781.664062-3.316407.664062zm0 0" fill="#5e5f62"/><path d="m324.234375 160.8125c-4.144531.007812-7.714844-2.917969-8.527344-6.980469-.808593-4.066406 1.371094-8.136719 5.199219-9.71875l8.019531-3.320312c4.425781-1.835938 9.503907.265625 11.335938 4.695312 1.835937 4.425781-.265625 9.503907-4.695313 11.339844l-8.015625 3.320313c-1.050781.4375-2.179687.664062-3.316406.664062zm0 0" fill="#5e5f62"/><path d="m366.253906 123.480469c-2.894531-.007813-5.601562-1.457031-7.207031-3.867188-1.609375-2.410156-1.910156-5.460937-.804687-8.140625l3.320312-8.015625c1.835938-4.425781 6.914062-6.527343 11.339844-4.695312 4.429687 1.835937 6.53125 6.914062 4.695312 11.339843l-3.320312 8.015626c-1.34375 3.246093-4.511719 5.363281-8.023438 5.363281zm0 0" fill="#5e5f62"/><path d="m343.007812 179.597656c-2.894531-.003906-5.597656-1.453125-7.207031-3.863281s-1.910156-5.464844-.804687-8.140625l3.320312-8.015625c1.835938-4.429687 6.914063-6.53125 11.339844-4.695313 4.429688 1.832032 6.53125 6.910157 4.695312 11.335938l-3.320312 8.019531c-1.34375 3.242188-4.511719 5.359375-8.023438 5.359375zm0 0" fill="#5e5f62"/><path d="m388.359375 160.8125c-1.136719 0-2.265625-.226562-3.316406-.664062l-8.015625-3.320313c-4.429688-1.835937-6.53125-6.914063-4.695313-11.339844 1.832031-4.429687 6.910157-6.53125 11.335938-4.695312l8.019531 3.320312c3.828125 1.582031 6.007812 5.652344 5.199219 9.71875-.8125 4.0625-4.382813 6.988281-8.527344 6.980469zm0 0" fill="#5e5f62"/><path d="m332.242188 137.566406c-1.140626 0-2.265626-.226562-3.316407-.664062l-8.019531-3.320313c-4.425781-1.835937-6.527344-6.914062-4.695312-11.339843 1.835937-4.429688 6.914062-6.53125 11.339843-4.695313l8.015625 3.320313c3.832032 1.582031 6.007813 5.652343 5.199219 9.71875-.808594 4.0625-4.378906 6.988281-8.523437 6.980468zm0 0" fill="#5e5f62"/><path d="m304.230469 433.914062c-17.898438.035157-32.898438-13.515624-34.679688-31.324218-1.785156-17.808594 10.234375-34.0625 27.78125-37.578125s34.902344 6.855469 40.117188 23.972656c5.214843 17.121094-3.410157 35.40625-19.9375 42.269531-4.207031 1.753906-8.722657 2.65625-13.28125 2.660156zm0-52.09375c-8.714844 0-16.074219 6.457032-17.214844 15.09375-1.136719 8.640626 4.304687 16.78125 12.71875 19.039063 8.414063 2.253906 17.199219-2.074219 20.535156-10.121094v-.007812c2.210938-5.355469 1.605469-11.460938-1.613281-16.28125-3.222656-4.820313-8.632812-7.714844-14.425781-7.722657zm0 0" fill="#f29c1f"/><path d="m234.804688 364.039062c-28.515626 0-51.632813-23.117187-51.632813-51.632812s23.117187-51.632812 51.632813-51.632812c28.515624 0 51.632812 23.117187 51.632812 51.632812-.027344 28.503906-23.128906 51.605469-51.632812 51.632812zm0-85.910156c-18.929688 0-34.277344 15.347656-34.277344 34.277344 0 18.933594 15.347656 34.277344 34.277344 34.277344 18.933593 0 34.277343-15.34375 34.277343-34.277344-.019531-18.921875-15.355469-34.257812-34.277343-34.277344zm0 0" fill="#f29c1f"/><path d="m217.449219 442.589844c-13.070313.003906-24.117188-9.679688-25.824219-22.636719s6.453125-25.171875 19.074219-28.558594c12.621093-3.382812 25.800781 3.113281 30.800781 15.1875 3.316406 8.035157 2.40625 17.191407-2.421875 24.417969-4.824219 7.226562-12.9375 11.574219-21.628906 11.589844zm0-34.726563c-3.824219-.003906-7.203125 2.496094-8.316407 6.15625-1.113281 3.660157.296876 7.621094 3.476563 9.746094 3.179687 2.128906 7.378906 1.925781 10.335937-.5 2.960938-2.425781 3.984376-6.5 2.519532-10.035156v-.003907c-1.34375-3.242187-4.507813-5.355468-8.015625-5.363281zm0 0" fill="#7f8c8d"/></svg>