<svg height="90pt" viewBox="0 -4 504.19909 504" width="90pt" xmlns="http://www.w3.org/2000/svg"><path d="m168.464844 235.144531c-3.15625.003907-6.050782-1.769531-7.484375-4.582031l-38.105469-74.785156c-1.445312-2.683594-1.324219-5.933594.3125-8.5 1.636719-2.570313 4.539062-4.046875 7.578125-3.863282 3.039063.179688 5.742187 1.996094 7.0625 4.738282l38.105469 74.785156c1.324218 2.601562 1.203125 5.703125-.320313 8.191406-1.523437 2.492188-4.230469 4.011719-7.148437 4.015625zm0 0" fill="#e57e25"/><path d="m168.457031 235.144531c-3.394531-.003906-6.453125-2.046875-7.753906-5.183593-1.296875-3.136719-.578125-6.746094 1.820313-9.144532l59.351562-59.355468c3.292969-3.179688 8.53125-3.132813 11.765625.105468 3.238281 3.238282 3.285156 8.472656.105469 11.765625l-59.355469 59.351563c-1.570313 1.578125-3.707031 2.460937-5.933594 2.460937zm0 0" fill="#e57e25"/><path d="m248.53125 209.96875c-3.648438-.007812-6.875-2.363281-7.992188-5.832031-.6875-2.152344-1.457031-4.308594-2.300781-6.378907-7.71875-18.453124-22.394531-33.117187-40.855469-40.8125-18.546874-7.503906-39.285156-7.503906-57.835937 0-1.8125.75-3.609375 1.578126-5.328125 2.472657-7.089844 3.59375-13.5625 8.300781-19.171875 13.933593-4.621094 4.5625-8.601563 9.734376-11.828125 15.371094-2.308594 4.019532-7.441406 5.40625-11.460938 3.09375-4.019531-2.3125-5.40625-7.445312-3.09375-11.464844 3.972657-6.9375 8.871094-13.304687 14.5625-18.921874 6.832032-6.851563 14.707032-12.574219 23.335938-16.953126 2.066406-1.070312 4.285156-2.09375 6.515625-3.023437 22.691406-9.1875 48.070313-9.1875 70.761719 0 22.570312 9.417969 40.515625 27.363281 49.925781 49.9375 1.023437 2.527344 1.929687 5.078125 2.753906 7.621094.816407 2.554687.367188 5.34375-1.214843 7.507812-1.578126 2.167969-4.09375 3.449219-6.777344 3.457031zm0 0" fill="#f29c1f"/><path d="m246.007812 203.027344c-4.007812.003906-7.460937-2.824219-8.242187-6.753906-.785156-3.933594 1.324219-7.867188 5.027344-9.398438l15.507812-6.425781c2.777344-1.171875 5.96875-.769531 8.363281 1.058593 2.398438 1.828126 3.628907 4.800782 3.230469 7.789063-.402343 2.984375-2.375 5.527344-5.167969 6.660156l-15.507812 6.429688c-1.015625.421875-2.109375.640625-3.210938.640625zm0 0" fill="#f29c1f"/><path d="m227.808594 175.789062c-3.394532 0-6.453125-2.042968-7.75-5.179687-1.300782-3.136719-.582032-6.746094 1.816406-9.148437l11.871094-11.867188c3.289062-3.207031 8.542968-3.171875 11.792968.074219 3.25 3.25 3.28125 8.503906.074219 11.792969l-11.867187 11.871093c-1.574219 1.578125-3.710938 2.460938-5.9375 2.457031zm0 0" fill="#f29c1f"/><path d="m200.578125 157.601562c-2.800781-.003906-5.417969-1.402343-6.972656-3.734374-1.554688-2.328126-1.847657-5.28125-.78125-7.871094l6.421875-15.507813c1.105468-2.832031 3.652344-4.84375 6.664062-5.261719 3.007813-.417968 6.011719.824219 7.84375 3.246094 1.835938 2.421875 2.214844 5.648438 1 8.433594l-6.417968 15.507812c-1.296876 3.140626-4.359376 5.1875-7.757813 5.1875zm0 0" fill="#f29c1f"/><path d="m285.964844 235.144531h-58.753906v-25.183593c0-9.269532 7.515624-16.785157 16.789062-16.785157h25.179688c9.269531 0 16.785156 7.515625 16.785156 16.785157zm0 0" fill="#e4c05c"/><path d="m252.390625 193.175781h8.394531c9.269532 0 16.785156 7.515625 16.785156 16.785157v16.789062h-41.964843v-16.789062c0-9.269532 7.515625-16.785157 16.785156-16.785157zm0 0" fill="#f3d55b"/><path d="m294.359375 260.324219h67.148437v109.113281h-67.148437zm0 0" fill="#464f5d"/><path d="m168.457031 151.207031c-4.636719 0-8.394531-3.757812-8.394531-8.390625v-16.789062c0-4.632813 3.757812-8.390625 8.394531-8.390625s8.394531 3.757812 8.394531 8.390625v16.789062c0 4.632813-3.757812 8.390625-8.394531 8.390625zm0 0" fill="#f29c1f"/><path d="m136.335938 157.601562c-3.398438 0-6.457032-2.046874-7.753907-5.1875l-6.417969-15.507812c-1.21875-2.785156-.839843-6.011719.996094-8.433594 1.835938-2.421875 4.835938-3.664062 7.84375-3.246094 3.011719.417969 5.5625 2.429688 6.667969 5.261719l6.417969 15.507813c1.070312 2.589844.777344 5.542968-.78125 7.871094-1.554688 2.332031-4.171875 3.730468-6.972656 3.734374zm0 0" fill="#f29c1f"/><path d="m109.105469 175.789062c-2.226563.003907-4.363281-.878906-5.933594-2.457031l-11.871094-11.871093c-2.164062-2.109376-3.027343-5.222657-2.257812-8.144532.773437-2.925781 3.054687-5.210937 5.980469-5.980468 2.921874-.769532 6.035156.09375 8.148437 2.257812l11.867187 11.867188c2.398438 2.402343 3.117188 6.011718 1.820313 9.148437-1.300781 3.136719-4.359375 5.179687-7.753906 5.179687zm0 0" fill="#f29c1f"/><path d="m269.179688 478.554688h25.179687c9.257813-.027344 16.757813-7.527344 16.785156-16.789063v-218.230469c-.027343-9.257812-7.527343-16.757812-16.785156-16.785156h-188.179687l-80.410157 19.808594v215.207031c.027344 9.261719 7.527344 16.761719 16.785157 16.789063zm0 0" fill="#805333"/><path d="m257.328125 478.554688h22.21875c8.699219-.605469 15.296875-8.082032 14.8125-16.789063v-218.230469c.484375-8.703125-6.113281-16.183594-14.8125-16.785156h-166.042969l-70.949218 19.808594v215.207031c-.484376 8.707031 6.117187 16.183594 14.8125 16.789063zm0 0" fill="#cb8252"/><path d="m124.308594 260.324219h128.082031c9.261719.027343 16.761719 7.527343 16.789063 16.785156v201.445313c-.027344 9.257812-7.527344 16.757812-16.789063 16.785156h-167.867187c-9.261719-.027344-16.761719-7.527344-16.789063-16.785156v-201.445313c.007813-4.28125 1.660156-8.398437 4.617187-11.5" fill="#f29c1f"/><path d="m131.667969 260.324219h106.734375c8.449218.863281 14.664062 8.316406 13.988281 16.785156v201.445313c.675781 8.464843-5.539063 15.921874-13.988281 16.785156h-139.890625c-8.449219-.863282-14.664063-8.320313-13.988281-16.785156v-201.445313c-.039063-4.15625 1.316406-8.203125 3.847656-11.5" fill="#fac176"/><path d="m202.03125 377.832031c0 18.542969-15.03125 33.574219-33.574219 33.574219s-33.574219-15.03125-33.574219-33.574219 15.03125-33.574219 33.574219-33.574219 33.574219 15.03125 33.574219 33.574219zm0 0" fill="#e4c05c"/><path d="m168.457031 444.980469c-37.085937 0-67.148437-30.0625-67.148437-67.148438 0-37.085937 30.0625-67.148437 67.148437-67.148437 37.085938 0 67.148438 30.0625 67.148438 67.148437-.042969 37.066407-30.082031 67.101563-67.148438 67.148438zm0-107.4375c-22.25 0-40.289062 18.039062-40.289062 40.289062s18.039062 40.289063 40.289062 40.289063 40.289063-18.039063 40.289063-40.289063c-.023438-22.242187-18.046875-40.265625-40.289063-40.289062zm0 0" fill="#e57e25"/><path d="m353.113281 209.960938h100.722657v209.835937h-100.722657zm0 0" fill="#805333"/><path d="m369.898438 235.144531h83.9375v159.472657h-83.9375zm0 0" fill="#cb8252"/><path d="m453.835938 436.585938h-100.722657c-9.269531 0-16.785156-7.515626-16.785156-16.789063v-8.390625c0-9.273438 7.515625-16.789062 16.785156-16.789062h100.722657c9.269531 0 16.785156 7.515624 16.785156 16.789062v8.390625c0 9.273437-7.515625 16.789063-16.785156 16.789063zm0 0" fill="#e4c05c"/><path d="m386.6875 285.503906c-4.636719 0-8.394531-3.757812-8.394531-8.394531v-8.390625c0-4.636719 3.757812-8.394531 8.394531-8.394531s8.394531 3.757812 8.394531 8.394531v8.390625c0 4.636719-3.757812 8.394531-8.394531 8.394531zm0 0" fill="#fac176"/><path d="m386.6875 369.4375c-4.636719 0-8.394531-3.757812-8.394531-8.394531v-58.753907c0-4.632812 3.757812-8.390624 8.394531-8.390624s8.394531 3.757812 8.394531 8.390624v58.753907c0 4.636719-3.757812 8.394531-8.394531 8.394531zm0 0" fill="#fac176"/><path d="m378.292969 189.652344c-44.332031-12.570313-72.613281-55.898438-66.269531-101.539063 6.347656-45.644531 45.371093-79.617187 91.449218-79.617187 46.082032 0 85.105469 33.972656 91.449219 79.617187 6.34375 45.640625-21.933594 88.96875-66.269531 101.539063" fill="#7f8c8d"/><path d="m444.789062 84.976562c2.375 13.175782-1.675781 26.691407-10.910156 36.386719-9.054687 10.0625-13.925781 23.203125-13.617187 36.734375v1.503906h-33.574219v-1.773437c-.375-14.167969-5.777344-27.738281-15.246094-38.28125-11.402344-13.472656-13.160156-32.636719-4.398437-47.957031 8.761719-15.320313 26.167969-23.523438 43.558593-20.527344 17.394532 2.992188 31.054688 16.546875 34.1875 33.914062zm0 0" fill="#f3d55b"/><path d="m386.6875 109.242188c-4.636719 0-8.394531-3.757813-8.394531-8.394532 0-26.558594 16.46875-33.574218 25.179687-33.574218 4.636719-.054688 8.441406 3.65625 8.496094 8.292968.058594 4.632813-3.65625 8.4375-8.289062 8.496094-1.515626.109375-8.597657 1.457031-8.597657 16.785156 0 4.636719-3.757812 8.394532-8.394531 8.394532zm0 0" fill="#f9eab0"/><path d="m403.472656 58.878906c-4.632812 0-8.390625-3.757812-8.390625-8.390625v-8.394531c0-4.636719 3.757813-8.394531 8.390625-8.394531 4.636719 0 8.394532 3.757812 8.394532 8.394531v8.394531c0 4.632813-3.757813 8.390625-8.394532 8.390625zm0 0" fill="#f3d55b"/><path d="m428.644531 198.050781c-4.191406 0-7.742187-3.097656-8.316406-7.25-.570313-4.15625 2.011719-8.09375 6.050781-9.226562 40.296875-11.433594 65.996094-50.824219 60.222656-92.3125-5.769531-41.488281-41.246093-72.371094-83.132812-72.371094s-77.363281 30.882813-83.132812 72.371094c-5.773438 41.488281 19.925781 80.878906 60.222656 92.3125 2.957031.75 5.269531 3.046875 6.046875 5.992187.777343 2.949219-.105469 6.085938-2.304688 8.195313-2.199219 2.113281-5.367187 2.863281-8.28125 1.96875-48.371093-13.703125-79.230469-60.972657-72.3125-110.765625 6.914063-49.796875 49.488281-86.8671878 99.761719-86.8671878s92.847656 37.0703128 99.765625 86.8671878c6.914063 49.792968-23.945313 97.0625-72.3125 110.765625-.742187.210937-1.507813.320312-2.277344.320312zm0 0" fill="#bdc3c7"/><path d="m386.6875 159.601562h33.574219c4.632812 0 8.390625 3.757813 8.390625 8.394532v33.574218h-50.359375v-33.574218c0-4.636719 3.757812-8.394532 8.394531-8.394532zm0 0" fill="#95a5a5"/><path d="m168.457031 319.078125c-4.636719 0-8.394531-3.757813-8.394531-8.394531v-8.394532c0-4.632812 3.757812-8.390624 8.394531-8.390624s8.394531 3.757812 8.394531 8.390624v8.394532c0 4.636718-3.757812 8.394531-8.394531 8.394531zm0 0" fill="#805333"/><path d="m109.703125 461.765625c0 4.636719-3.757813 8.394531-8.394531 8.394531-4.632813 0-8.390625-3.757812-8.390625-8.394531s3.757812-8.394531 8.390625-8.394531c4.636718 0 8.394531 3.757812 8.394531 8.394531zm0 0" fill="#805333"/><path d="m244 293.898438c0 4.632812-3.757812 8.390624-8.394531 8.390624s-8.394531-3.757812-8.394531-8.390624c0-4.636719 3.757812-8.394532 8.394531-8.394532s8.394531 3.757813 8.394531 8.394532zm0 0" fill="#805333"/><path d="m244 461.765625c0 4.636719-3.757812 8.394531-8.394531 8.394531s-8.394531-3.757812-8.394531-8.394531 3.757812-8.394531 8.394531-8.394531 8.394531 3.757812 8.394531 8.394531zm0 0" fill="#805333"/><path d="m397.0625 470.160156h12.824219c6.359375 0 12.171875-3.59375 15.015625-9.28125l12.144531-24.292968-33.574219-16.789063-33.574218 16.789063 12.148437 24.292968c2.84375 5.6875 8.65625 9.28125 15.015625 9.28125zm0 0" fill="#bdc3c7"/><path d="m100.300781 251.511719c-6.988281 7.015625-15.65625 12.128906-25.179687 14.855469l-25.597656-6.882813-.167969-.085937h-.167969l-7.050781-1.929688 64.210937-64.210938.082032.503907 1.761718 6.632812v.167969l.085938.167969 6.882812 25.597656c-2.726562 9.523437-7.839844 18.191406-14.859375 25.183594zm0 0" fill="#95a5a5"/><path d="m119.019531 240.765625 7.136719 26.355469c.789062 2.886718-.03125 5.976562-2.148438 8.09375-2.117187 2.117187-5.207031 2.9375-8.09375 2.148437l-26.355468-7.136719zm0 0" fill="#bdc3c7"/><path d="m115.160156 226.328125 3.859375 14.4375c-6.4375 12.703125-16.757812 23.023437-29.460937 29.460937l-14.4375-3.859374zm0 0" fill="#95a5a5"/><g fill="#805333"><path d="m168.457031 453.371094c-41.71875 0-75.539062-33.820313-75.539062-75.539063s33.820312-75.542969 75.539062-75.542969 75.542969 33.824219 75.542969 75.542969c-.046875 41.699219-33.839844 75.496094-75.542969 75.539063zm0-134.292969c-32.449219 0-58.753906 26.304687-58.753906 58.753906s26.304687 58.753907 58.753906 58.753907 58.753907-26.304688 58.753907-58.753907c-.035157-32.433593-26.320313-58.71875-58.753907-58.753906zm0 0"/><path d="m168.457031 461.765625c-4.636719 0-8.394531-3.757813-8.394531-8.394531v-8.390625c0-4.636719 3.757812-8.394531 8.394531-8.394531s8.394531 3.757812 8.394531 8.394531v8.390625c0 4.636718-3.757812 8.394531-8.394531 8.394531zm0 0"/><path d="m244 386.226562h-8.394531c-4.636719 0-8.394531-3.757812-8.394531-8.394531s3.757812-8.394531 8.394531-8.394531h8.394531c4.632812 0 8.390625 3.757812 8.390625 8.394531s-3.757813 8.394531-8.390625 8.394531zm0 0"/><path d="m101.308594 386.226562h-8.390625c-4.636719 0-8.394531-3.757812-8.394531-8.394531s3.757812-8.394531 8.394531-8.394531h8.390625c4.636718 0 8.394531 3.757812 8.394531 8.394531s-3.757813 8.394531-8.394531 8.394531zm0 0"/><path d="m215.941406 338.746094c-3.394531 0-6.457031-2.046875-7.753906-5.183594-1.300781-3.136719-.582031-6.746094 1.820312-9.144531l5.933594-5.933594c3.289063-3.207031 8.546875-3.175781 11.792969.074219 3.25 3.246094 3.28125 8.503906.074219 11.792968l-5.933594 5.933594c-1.570312 1.578125-3.707031 2.464844-5.933594 2.460938zm0 0"/><path d="m115.039062 439.640625c-3.394531 0-6.453124-2.046875-7.753906-5.183594-1.296875-3.136719-.582031-6.746093 1.820313-9.144531l5.933593-5.9375c3.28125-3.253906 8.574219-3.242188 11.84375.027344 3.269532 3.265625 3.28125 8.5625.027344 11.84375l-5.933594 5.933594c-1.574218 1.578124-3.710937 2.460937-5.9375 2.460937zm0 0"/><path d="m221.875 439.640625c-2.226562 0-4.363281-.882813-5.933594-2.460937l-5.933594-5.933594c-3.171874-3.296875-3.121093-8.523438.113282-11.753906 3.234375-3.234376 8.460937-3.285157 11.753906-.113282l5.933594 5.933594c2.402344 2.402344 3.121094 6.011719 1.820312 9.148438-1.296875 3.136718-4.359375 5.179687-7.753906 5.179687zm0 0"/><path d="m120.972656 338.746094c-2.226562.003906-4.359375-.882813-5.933594-2.460938l-5.933593-5.933594c-3.207031-3.289062-3.175781-8.546874.074219-11.792968 3.25-3.25 8.503906-3.28125 11.792968-.074219l5.9375 5.933594c2.398438 2.398437 3.117188 6.007812 1.816406 9.144531-1.296874 3.136719-4.359374 5.183594-7.753906 5.183594zm0 0"/><path d="m142.761719 324.191406c-3.394531 0-6.457031-2.046875-7.753907-5.183594l-3.214843-7.753906c-1.773438-4.28125.257812-9.191406 4.542969-10.96875 4.28125-1.773437 9.191406.257813 10.964843 4.542969l3.214844 7.753906c1.070313 2.589844.777344 5.542969-.78125 7.875-1.554687 2.328125-4.171875 3.730469-6.972656 3.734375zm0 0"/><path d="m197.367188 456.019531c-3.394532 0-6.457032-2.046875-7.753907-5.183593l-3.214843-7.753907c-1.773438-4.285156.261718-9.195312 4.542968-10.96875 4.28125-1.773437 9.191406.257813 10.96875 4.542969l3.210938 7.753906c1.070312 2.589844.777344 5.542969-.777344 7.875-1.558594 2.332032-4.171875 3.730469-6.976562 3.734375zm0 0"/><path d="m230.488281 360.53125c-4.007812.007812-7.460937-2.824219-8.242187-6.753906-.78125-3.933594 1.324218-7.867188 5.03125-9.398438l7.753906-3.210937c4.28125-1.773438 9.191406.257812 10.96875 4.539062 1.773438 4.285157-.257812 9.195313-4.542969 10.96875l-7.753906 3.214844c-1.019531.421875-2.109375.640625-3.214844.640625zm0 0"/><path d="m98.671875 415.140625c-4.007813.003906-7.460937-2.828125-8.242187-6.757813-.78125-3.929687 1.324218-7.867187 5.027343-9.394531l7.753907-3.214843c4.285156-1.773438 9.195312.257812 10.96875 4.542968 1.773437 4.28125-.257813 9.191406-4.542969 10.964844l-7.753907 3.214844c-1.015624.421875-2.109374.640625-3.210937.644531zm0 0"/><path d="m194.152344 324.191406c-2.800782-.003906-5.417969-1.40625-6.972656-3.734375-1.558594-2.332031-1.847657-5.285156-.78125-7.875l3.214843-7.753906c1.773438-4.285156 6.683594-6.316406 10.96875-4.542969 4.28125 1.777344 6.3125 6.6875 4.539063 10.96875l-3.210938 7.753906c-1.300781 3.136719-4.359375 5.183594-7.757812 5.183594zm0 0"/><path d="m139.546875 456.019531c-2.800781-.003906-5.417969-1.402343-6.976563-3.734375-1.554687-2.332031-1.847656-5.285156-.777343-7.875l3.214843-7.753906c1.144532-2.769531 3.683594-4.71875 6.65625-5.109375 2.976563-.390625 5.929688.832031 7.757813 3.210937 1.824219 2.382813 2.242187 5.554688 1.09375 8.324219l-3.214844 7.753907c-1.296875 3.136718-4.359375 5.183593-7.753906 5.183593zm0 0"/><path d="m238.246094 415.140625c-1.105469-.003906-2.195313-.222656-3.214844-.644531l-7.753906-3.214844c-4.28125-1.773438-6.316406-6.683594-4.542969-10.964844 1.777344-4.285156 6.6875-6.316406 10.96875-4.542968l7.753906 3.214843c3.707031 1.527344 5.8125 5.464844 5.03125 9.394531-.785156 3.929688-4.234375 6.761719-8.242187 6.757813zm0 0"/><path d="m106.425781 360.53125c-1.105469 0-2.195312-.21875-3.214843-.640625l-7.753907-3.214844c-4.28125-1.773437-6.316406-6.683593-4.539062-10.96875 1.773437-4.28125 6.683593-6.3125 10.964843-4.539062l7.753907 3.210937c3.707031 1.53125 5.8125 5.464844 5.03125 9.398438-.78125 3.929687-4.234375 6.761718-8.242188 6.753906zm0 0"/><path d="m168.457031 419.796875c-23.175781 0-41.964843-18.789063-41.964843-41.964844 0-23.179687 18.789062-41.96875 41.964843-41.96875 23.179688 0 41.96875 18.789063 41.96875 41.96875-.027343 23.167969-18.800781 41.9375-41.96875 41.964844zm0-67.144531c-13.90625 0-25.179687 11.273437-25.179687 25.179687s11.273437 25.179688 25.179687 25.179688 25.179688-11.273438 25.179688-25.179688c-.015625-13.902343-11.277344-25.164062-25.179688-25.179687zm0 0"/></g><path d="m109.136719 209.960938c0 27.816406-22.546875 50.363281-50.363281 50.363281-27.8125 0-50.359376-22.546875-50.359376-50.363281 0-27.8125 22.546876-50.359376 50.359376-50.359376 27.816406 0 50.363281 22.546876 50.363281 50.359376zm0 0" fill="#b0d3f0"/><path d="m100.300781 168.414062c-18.800781-18.800781-47.890625-22.628906-70.917969-9.332031-23.03125 13.292969-34.257812 40.398438-27.375 66.085938 6.878907 25.683593 30.15625 43.546875 56.746094 43.550781 5.542969.023438 11.058594-.769531 16.367188-2.351562 19.34375-5.574219 34.460937-20.695313 40.039062-40.039063 1.582032-5.308594 2.375-10.824219 2.347656-16.367187.039063-15.589844-6.15625-30.546876-17.207031-41.546876zm-41.546875 83.515626c-3.3125.003906-6.613281-.417969-9.820312-1.257813-7.511719-1.707031-14.386719-5.519531-19.808594-10.996094-16.332031-16.398437-16.316406-42.925781.039062-59.304687 16.355469-16.378906 42.882813-16.433594 59.304688-.121094 5.46875 5.4375 9.308594 12.300781 11.078125 19.808594.773437 3.246094 1.167969 6.570312 1.175781 9.902344.035156 11.140624-4.375 21.835937-12.253906 29.714843-7.878906 7.878907-18.574219 12.289063-29.714844 12.253907zm0 0" fill="#bdc3c7"/><path d="m34.164062 226.75c-4.636718 0-8.394531-3.757812-8.394531-8.394531 0-30.871094 29.65625-41.113281 30.917969-41.535157 4.375-1.421874 9.082031.941407 10.550781 5.304688 1.464844 4.363281-.851562 9.09375-5.199219 10.605469-11.09375 3.792969-18.796874 13.917969-19.484374 25.625 0 4.636719-3.757813 8.394531-8.390626 8.394531zm0 0" fill="#ecf0f1"/><path d="m453.835938 235.144531h-100.722657c-9.269531 0-16.785156-7.515625-16.785156-16.789062v-8.394531c0-9.269532 7.515625-16.785157 16.785156-16.785157h100.722657c9.269531 0 16.785156 7.515625 16.785156 16.785157v8.394531c0 9.273437-7.515625 16.789062-16.785156 16.789062zm0 0" fill="#e4c05c"/><path d="m437.046875 436.585938h-67.148437c-9.269532 0-16.785157-7.515626-16.785157-16.789063v-8.390625c0-9.273438 7.515625-16.789062 16.785157-16.789062h67.148437c9.273437 0 16.789063 7.515624 16.789063 16.789062v8.390625c0 9.273437-7.515626 16.789063-16.789063 16.789063zm0 0" fill="#f3d55b"/><path d="m437.046875 235.144531h-67.148437c-9.269532 0-16.785157-7.515625-16.785157-16.789062v-8.394531c0-9.269532 7.515625-16.785157 16.785157-16.785157h67.148437c9.273437 0 16.789063 7.515625 16.789063 16.785157v8.394531c0 9.273437-7.515626 16.789062-16.789063 16.789062zm0 0" fill="#f3d55b"/></svg>