<svg height="512pt" viewBox="-56 0 512 512.31761" width="512pt" xmlns="http://www.w3.org/2000/svg"><path d="m285.492188 164.882812c-33.648438 1.476563-64.832032 18.058594-84.871094 45.125-16.292969-21.421874-39.457032-36.589843-65.605469-42.957031-11.773437 4.957031-21.25 14.15625-26.554687 25.773438-4.5625 11.175781-4.183594 23.757812 1.039062 34.636719 5.226562 10.878906 14.808594 19.039062 26.382812 22.464843.773438.1875 1.554688.332031 2.34375.433594l-1.042968 5.554687c2.277344.109376 4.40625 1.140626 5.902344 2.863282 5.03125 7.027344-7.898438 27.160156-21.4375 36.96875-1.820313 1.300781-3.816407 2.515625-5.640626 3.558594-8.332031-1.980469-17.078124-1.28125-24.992187 1.996093-22.214844 9.457031-29.242187 31.671875-35.839844 53.019531l134.164063 144.402344c2.925781 3.113282 7.007812 4.882813 11.28125 4.882813 4.273437 0 8.355468-1.769531 11.28125-4.882813l35.144531-37.835937 98.929687-106.566407c-6.507812-21.261718-13.625-43.390624-35.753906-52.847656-7.914062-3.277344-16.660156-3.972656-24.992187-1.996094-1.824219-1.042968-3.730469-2.257812-5.554688-3.558593-13.625-9.804688-26.554687-29.9375-21.433593-36.96875 5.03125-7.027344 28.203124-.953125 41.742187 8.851562 1.214844.867188 2.253906 1.738281 3.382813 2.605469-.113282 9.886719 3.375 19.476562 9.804687 26.988281 16.921875 19.265625 42.089844 17.875 65.605469 17.617188 8.378906-14.730469 12.777344-31.390625 12.757812-48.335938-1.21875-57.375-48.671875-102.921875-106.042968-101.792969zm-60.226563 207.054688c.34375 2.488281-.402344 5-2.050781 6.898438-1.644532 1.894531-4.03125 2.988281-6.539063 2.996093h-32.109375c-2.511718-.007812-4.898437-1.101562-6.542968-2.996093-1.644532-1.898438-2.394532-4.410157-2.050782-6.898438l6.769532-46.949219c.136718-1.304687-.308594-2.605469-1.214844-3.554687-9.601563-10.359375-9.195313-26.480469.917968-36.339844 10.109376-9.859375 26.238282-9.859375 36.351563 0 10.109375 9.859375 10.515625 25.980469.914063 36.339844-.90625.949218-1.347657 2.25-1.214844 3.554687zm0 0" fill="#7ed09e"/><path d="m247.035156 469.566406c-3.082031-.003906-5.929687-1.640625-7.488281-4.300781-1.554687-2.660156-1.582031-5.945313-.070313-8.632813 7.152344-12.386718 5.765626-27.929687-3.46875-38.855468-5.34375-5.523438-13.242187-7.765625-20.691406-5.871094-6.21875 1.894531-10.742187 7.269531-11.550781 13.71875-.921875 6.871094 3.09375 13.441406 9.625 15.761719.78125.234375 1.605469.277343 2.40625.121093.828125-2.609374.414063-5.457031-1.128906-7.722656-2.667969-3.984375-1.601563-9.375 2.382812-12.042968 3.984375-2.667969 9.375-1.601563 12.042969 2.382812 5.597656 8.097656 5.976562 18.710938.976562 27.1875-4.585937 6.460938-12.773437 9.289062-20.367187 7.03125-15.382813-4.175781-25.289063-19.101562-23.160156-34.898438 1.671875-13.238281 10.964843-24.257812 23.726562-28.144531 13.703125-3.800781 28.386719.210938 38.253907 10.449219 14.566406 16.4375 17.015624 40.335938 6.089843 59.390625-1.539062 2.734375-4.4375 4.429687-7.578125 4.425781zm0 0" fill="#4c8056"/><path d="m218.496094 324.988281 6.769531 46.949219c.34375 2.488281-.402344 5-2.050781 6.898438-1.644532 1.894531-4.03125 2.988281-6.539063 2.996093h-32.109375c-2.511718-.007812-4.898437-1.101562-6.542968-2.996093-1.644532-1.898438-2.394532-4.410157-2.050782-6.898438l6.769532-46.949219c.136718-1.304687-.308594-2.605469-1.214844-3.554687-9.601563-10.359375-9.195313-26.480469.917968-36.339844 10.109376-9.859375 26.238282-9.859375 36.351563 0 10.109375 9.859375 10.515625 25.980469.914063 36.339844-.90625.949218-1.347657 2.25-1.214844 3.554687zm0 0" fill="#2c2f38"/><path d="m121.648438 295.746094c-1.820313 1.300781-3.816407 2.515625-5.640626 3.558594-8.332031-1.980469-17.078124-1.28125-24.992187 1.996093-22.214844 9.457031-29.242187 31.671875-35.839844 53.019531l-14.492187-15.621093c-7.253906-7.019531-13.449219-15.058594-18.394532-23.863281 23.601563.261718 48.855469 1.734374 65.777344-17.617188 6.359375-7.515625 9.835938-17.054688 9.804688-26.898438 1.128906-.957031 2.171875-1.824218 3.386718-2.691406 10.417969-7.636718 23.007813-11.742187 35.925782-11.714844 2.277344.109376 4.40625 1.140626 5.902344 2.863282 5.03125 7.027344-7.898438 27.160156-21.4375 36.96875zm0 0" fill="#7ed09e"/><path d="m378.777344 315.011719c-3.222656 5.855469-7.0625 11.355469-11.453125 16.398437l-21.347657 22.910156c-6.507812-21.261718-13.625-43.390624-35.753906-52.847656-7.914062-3.277344-16.660156-3.972656-24.992187-1.996094-1.824219-1.042968-3.730469-2.257812-5.554688-3.558593-13.625-9.804688-26.554687-29.9375-21.433593-36.96875 5.03125-7.027344 28.203124-.953125 41.742187 8.851562 1.214844.867188 2.253906 1.738281 3.382813 2.605469-.113282 9.886719 3.375 19.476562 9.804687 26.988281 16.921875 19.265625 42.089844 17.875 65.605469 17.617188zm0 0" fill="#7ed09e"/><path d="m138.226562 250.359375-1.042968 5.554687c-12.917969-.027343-25.507813 4.078126-35.925782 11.714844-1.214843.867188-2.257812 1.734375-3.386718 2.691406.03125 9.84375-3.445313 19.382813-9.804688 26.898438-16.921875 19.351562-42.175781 17.878906-65.777344 17.617188-8.226562-14.722657-12.558593-31.296876-12.585937-48.160157 1.222656-57.375 48.671875-102.921875 106.046875-101.792969 6.480469.015626 12.941406.742188 19.265625 2.167969-11.773437 4.957031-21.25 14.15625-26.554687 25.773438-4.5625 11.175781-4.183594 23.757812 1.039062 34.636719 5.226562 10.878906 14.808594 19.039062 26.382812 22.464843.773438.1875 1.554688.332031 2.34375.433594zm0 0" fill="#4c8056"/><path d="m296.078125 95.457031v69.945313l-34.710937 2.777344v-72.722657c0-33.546875-27.199219-60.746093-60.746094-60.746093-33.550782 0-60.746094 27.199218-60.746094 60.746093v72.722657l-34.710938-2.777344v-69.945313c-.058593-51.1875 40.316407-93.285156 91.464844-95.3710935 1.300782-.0859375 2.601563-.0859375 3.992188-.0859375 1.386718 0 2.6875 0 3.992187.0859375 51.132813 2.1093745 91.496094 44.1914065 91.464844 95.3710935zm0 0" fill="#7f8c8d"/><path d="m278.722656 95.457031v69.945313l-17.355468 1.734375v-71.679688c0-33.546875-27.199219-60.746093-60.746094-60.746093-33.550782 0-60.746094 27.199218-60.746094 60.746093v71.679688l-17.355469-1.734375v-69.945313c0-51.113281 32.800781-92.765625 74.109375-95.3710935 1.300782-.0859375 2.601563-.0859375 3.992188-.0859375 1.386718 0 2.6875 0 3.992187.0859375 20.242188 1.6914065 38.847657 11.7968745 51.285157 27.8554685 15.089843 19.242188 23.144531 43.066406 22.824218 67.515625zm0 0" fill="#95a5a5"/><path d="m234.117188 483.535156h-.085938c-4.785156-.023437-8.644531-3.917968-8.632812-8.699218.011718-4.785157 3.894531-8.65625 8.679687-8.65625 4.78125 0 8.664063 3.871093 8.675781 8.65625.015625 4.78125-3.847656 8.675781-8.628906 8.699218zm0 0"/><g fill="#4c8056"><path d="m34.867188 323.644531c-2.984376 0-5.933594-.042969-8.839844-.082031l-3.828125-.046875c-3.097657-.035156-5.945313-1.71875-7.46875-4.421875-1.519531-2.699219-1.484375-6.007812.09375-8.675781s4.460937-4.292969 7.5625-4.257813l3.882812.046875c21.558594.320313 41.90625.585938 55.269531-14.695312 6.324219-7.535157 8.980469-17.488281 7.246094-27.171875-1.234375-9.179688-6.414062-17.363282-14.1875-22.40625-6.617187-3.941406-14.847656-4.023438-21.542968-.210938-5.492188 3.449219-8.441407 9.8125-7.515626 16.238282.945313 6.863281 6.535157 12.152343 13.441407 12.71875.816406.035156 1.628906-.144532 2.355469-.523438.136718-2.730469-1.015626-5.367188-3.109376-7.125-3.515624-3.144531-3.878906-8.519531-.8125-12.105469 3.0625-3.585937 8.425782-4.066406 12.082032-1.085937 7.582031 6.289062 10.796875 16.421875 8.230468 25.929687-2.710937 7.476563-9.878906 12.402344-17.832031 12.242188-15.898437-.089844-29.320312-11.824219-31.535156-27.566407-1.898437-13.199218 4.144531-26.285156 15.425781-33.394531 12.226563-7.28125 27.453125-7.292969 39.691406-.035156 12.246094 7.628906 20.46875 20.304687 22.441407 34.597656 2.554687 14.765625-1.589844 29.90625-11.304688 41.3125-16.339843 18.679688-38.714843 20.71875-59.746093 20.71875zm0 0"/><path d="m122.382812 373.003906c-5.214843.003906-10.359374-1.210937-15.027343-3.542968-14.308594-6.917969-21.304688-23.34375-16.378907-38.457032 2.3125-7.621094 9.21875-12.925781 17.179688-13.191406 9.800781.667969 18.375 6.839844 22.113281 15.925781 1.28125 2.882813.894531 6.234375-1.003906 8.75-1.902344 2.519531-5.019531 3.808594-8.140625 3.367188-3.125-.441407-5.761719-2.542969-6.890625-5.488281-1.066406-2.550782-3.25-4.46875-5.914063-5.195313-.5.613281-.890624 1.308594-1.144531 2.058594-1.628906 6.722656 1.65625 13.667969 7.878907 16.679687 5.820312 2.910156 12.808593 2.109375 17.824218-2.035156 5.738282-5.160156 8.230469-13.023438 6.507813-20.546875-2.402344-8.96875-8.597657-16.445313-16.964844-20.472656-8.644531-4.648438-18.910156-5.21875-28.019531-1.5625-18.695313 7.957031-24.914063 28.109375-30.941406 47.589843-.839844 3.050782-3.273438 5.402344-6.351563 6.136719s-6.308594-.261719-8.4375-2.605469c-2.125-2.34375-2.8125-5.65625-1.785156-8.648437 6.507812-21.089844 14.621093-47.332031 40.730469-58.445313 13.84375-5.679687 29.496093-4.914062 42.71875 2.085938 12.988281 6.316406 22.503906 18.070312 25.984374 32.085938 3.148438 13.925781-1.625 28.453124-12.425781 37.792968-6.054687 4.992188-13.664062 7.71875-21.511719 7.71875zm0 0"/><path d="m116.042969 307.949219c-3.960938.003906-7.421875-2.675781-8.410157-6.511719-.988281-3.835938.746094-7.855469 4.214844-9.769531 1.625-.886719 3.191406-1.871094 4.695313-2.949219 8.460937-6.144531 14.984375-14.589844 18.789062-24.328125-10.449219.570313-20.511719 4.140625-28.984375 10.277344-.941406.6875-1.796875 1.394531-2.660156 2.097656l-5.773438-6.488281-5.226562-6.933594c1.109375-.914062 2.226562-1.824219 3.464844-2.722656 13.886718-10.054688 43.761718-20.96875 53.933594-6.929688 10.167968 14.035156-9.492188 39.03125-23.363282 49.085938-2.082031 1.496094-4.253906 2.863281-6.5 4.09375-1.28125.707031-2.71875 1.078125-4.179687 1.078125zm0 0"/><path d="m366.039062 323.628906c-21.035156 0-43.40625-2.039062-59.738281-20.710937-9.722656-11.410157-13.871093-26.550781-11.3125-41.324219 1.96875-14.285156 10.183594-26.957031 22.421875-34.585938 12.246094-7.273437 27.496094-7.261718 39.730469.035157 11.285156 7.117187 17.320313 20.214843 15.390625 33.414062-2.140625 15.769531-15.605469 27.535157-31.515625 27.535157-7.953125.160156-15.125-4.761719-17.832031-12.242188-2.566406-9.507812.648437-19.640625 8.226562-25.929688 3.65625-2.960937 9.007813-2.472656 12.0625 1.105469 3.054688 3.574219 2.707032 8.9375-.789062 12.085938-2.125 1.761719-3.261719 4.449219-3.050782 7.199219.730469.292968 1.507813.445312 2.296876.449218 6.964843-.398437 12.632812-5.757812 13.417968-12.691406.945313-6.421875-1.988281-12.796875-7.484375-16.253906-6.699219-3.832032-14.949219-3.753906-21.574219.210937-7.765624 5.039063-12.9375 13.21875-14.167968 22.394531-1.738282 9.6875.921875 19.644532 7.253906 27.175782 13.355469 15.273437 33.710938 15.027344 55.261719 14.695312l3.882812-.050781h.09375c4.792969-.023437 8.699219 3.839844 8.722657 8.632813.027343 4.792968-3.839844 8.699218-8.632813 8.722656l-3.828125.050781c-2.90625.039063-5.863281.082031-8.835938.082031zm0 0"/><path d="m278.898438 373.167969c-7.863282.003906-15.480469-2.730469-21.550782-7.730469-10.792968-9.335938-15.5625-23.859375-12.410156-37.777344 3.480469-14.015625 12.992188-25.769531 25.980469-32.089844 13.21875-7.007812 28.867187-7.777343 42.710937-2.101562 26.136719 11.132812 34.238282 37.375 40.746094 58.457031 1.027344 2.996094.34375 6.308594-1.785156 8.652344-2.128906 2.339844-5.359375 3.339844-8.4375 2.605469s-5.511719-3.085938-6.351563-6.136719c-6.027343-19.484375-12.246093-39.632813-30.949219-47.601563-9.113281-3.65625-19.375-3.078124-28.019531 1.578126-8.363281 4.027343-14.558593 11.507812-16.957031 20.476562-1.722656 7.511719.761719 15.367188 6.492188 20.523438 4.996093 4.140624 11.964843 4.953124 17.78125 2.070312 6.265624-3 9.570312-9.980469 7.921874-16.730469-.214843-.785156-.636718-1.496093-1.21875-2.066406-1.128906-.171875-4.449218 1.910156-5.816406 5.222656-1.824218 4.433594-6.898437 6.546875-11.332031 4.722657-4.433594-1.828126-6.546875-6.902344-4.722656-11.335938 3.605469-9.105469 12.140625-15.3125 21.917969-15.929688h.191406c7.957031.253907 14.867187 5.546876 17.183594 13.160157 4.949218 15.140625-2.070313 31.605469-16.421876 38.511719-4.644531 2.320312-9.761718 3.523437-14.953124 3.519531zm0 0"/><path d="m285.222656 308.113281c-1.460937.003907-2.898437-.367187-4.179687-1.074219-2.246094-1.234374-4.417969-2.601562-6.5-4.097656-8.027344-6.015625-14.832031-13.511718-20.050781-22.082031-8.582032-14.25-6.542969-22.550781-3.3125-27.003906 10.167968-14.035157 40.050781-3.125 53.921874 6.925781 1.28125.925781 2.429688 1.871094 3.59375 2.824219 3.71875 3.054687 4.285157 8.535156 1.273438 12.285156-1.4375 1.785156-3.527344 2.917969-5.808594 3.15625-2.277344.234375-4.558594-.449219-6.328125-1.902344-1.050781-.867187-1.933593-1.59375-2.90625-2.304687-8.503906-6.09375-18.550781-9.65625-28.992187-10.289063 3.804687 9.746094 10.328125 18.191407 18.796875 24.339844 1.5 1.074219 3.066406 2.058594 4.6875 2.945313 3.46875 1.910156 5.203125 5.929687 4.214843 9.765624-.988281 3.835938-4.449218 6.515626-8.410156 6.511719zm0 0"/><path d="m142.652344 259.378906c-2.949219.003906-5.886719-.335937-8.753906-1.007812-13.980469-3.613282-25.632813-13.25-31.804688-26.304688-6.847656-13.296875-7.429688-28.953125-1.585938-42.722656 6.125-13.539062 17.109376-24.289062 30.773438-30.128906 2.800781-1.332032 6.097656-1.074219 8.65625.683594 2.554688 1.753906 3.980469 4.742187 3.734375 7.832031-.242187 3.09375-2.117187 5.820312-4.914063 7.15625-9.886718 4.050781-17.867187 11.699219-22.339843 21.402343-3.777344 9.066407-3.332031 19.34375 1.21875 28.046876 3.929687 8.398437 11.332031 14.660156 20.265625 17.148437 7.5 1.757813 15.363281-.640625 20.609375-6.28125 4.203125-4.949219 5.09375-11.910156 2.28125-17.761719-2.941407-6.28125-9.875-9.652344-16.628907-8.085937-.796874.207031-1.527343.625-2.109374 1.207031.707031 2.644531 2.601562 4.808594 5.125 5.863281 4.332031 1.925781 6.316406 6.96875 4.460937 11.332031-1.855469 4.359376-6.867187 6.425782-11.257813 4.636719-9.125-3.726562-15.238281-12.433593-15.640624-22.285156.335937-7.933594 5.691406-14.769531 13.3125-17 15.1875-4.832031 31.601562 2.347656 38.363281 16.78125 5.800781 12.027344 3.972656 26.339844-4.660157 36.527344-7.371093 8.324219-17.988281 13.050781-29.105468 12.960937zm0 0"/></g><path d="m58.40625 288.046875c-15.347656-.785156-27.96875-12.378906-30.050781-27.605469-1.898438-13.199218 4.144531-26.28125 15.425781-33.390625 12.226562-7.285156 27.457031-7.300781 39.695312-.035156 14.804688 9.367187 23.574219 25.84375 23.074219 43.351563-.027343 4.773437-3.90625 8.628906-8.679687 8.628906h-.050782c-2.300781-.015625-4.503906-.941406-6.121093-2.578125-1.617188-1.636719-2.519531-3.851563-2.503907-6.152344.375-11.328125-5.140624-22.046875-14.578124-28.324219-6.625-3.953125-14.867188-4.039062-21.570313-.222656-5.496094 3.453125-8.441406 9.816406-7.515625 16.238281.945312 6.867188 6.53125 12.152344 13.441406 12.722657.816406.035156 1.628906-.144532 2.355469-.527344.132813-2.730469-1.015625-5.367188-3.109375-7.121094-3.621094-3.121094-4.035156-8.582031-.929688-12.210938 3.105469-3.632812 8.5625-4.070312 12.207032-.980468 7.582031 6.289062 10.796875 16.421875 8.230468 25.929687-2.710937 7.476563-9.878906 12.402344-17.832031 12.242188-.496093.023437-.996093.035156-1.488281.035156zm0 0" fill="#7ed09e"/><path d="m122.382812 373.003906c-5.214843.003906-10.359374-1.210937-15.027343-3.542968-14.308594-6.917969-21.304688-23.34375-16.378907-38.457032 2.3125-7.621094 9.21875-12.925781 17.179688-13.191406 9.800781.667969 18.375 6.839844 22.113281 15.925781 1.28125 2.882813.894531 6.234375-1.003906 8.75-1.902344 2.519531-5.019531 3.808594-8.140625 3.367188-3.125-.441407-5.761719-2.542969-6.890625-5.488281-1.066406-2.550782-3.25-4.46875-5.914063-5.195313-.503906.609375-.894531 1.308594-1.144531 2.058594-1.628906 6.722656 1.65625 13.667969 7.878907 16.679687 5.820312 2.910156 12.808593 2.109375 17.824218-2.035156 5.738282-5.160156 8.230469-13.023438 6.507813-20.546875-3.390625-11.972656-13.164063-21.058594-25.347657-23.570313-3.019531-.699218-5.4375-2.960937-6.339843-5.929687-.898438-2.964844-.148438-6.1875 1.96875-8.453125 2.117187-2.261719 5.285156-3.226562 8.304687-2.523438 18.703125 3.945313 33.558594 18.140626 38.347656 36.644532 3.148438 13.925781-1.628906 28.449218-12.425781 37.789062-6.058593 4.992188-13.664062 7.71875-21.511719 7.71875zm0 0" fill="#4c8056"/><path d="m342.832031 288.21875c-.492187 0-.984375-.011719-1.484375-.035156-7.949218.15625-15.121094-4.765625-17.828125-12.242188-2.566406-9.507812.644531-19.640625 8.222657-25.929687 3.65625-2.996094 9.03125-2.519531 12.101562 1.074219 3.066406 3.589843 2.703125 8.976562-.824219 12.117187-2.125 1.765625-3.261719 4.449219-3.050781 7.203125.730469.292969 1.507812.445312 2.296875.449219 6.945313-.457031 12.585937-5.789063 13.429687-12.699219.9375-6.421875-2-12.796875-7.492187-16.253906-6.703125-3.832032-14.949219-3.75-21.574219.210937-9.429687 6.25-14.949218 16.9375-14.585937 28.242188.015625 2.300781-.886719 4.515625-2.503907 6.152343-1.617187 1.636719-3.820312 2.5625-6.121093 2.578126h-.050781c-4.773438 0-8.652344-3.855469-8.679688-8.628907-.484375-17.488281 8.289062-33.933593 23.085938-43.269531 12.238281-7.269531 27.480468-7.253906 39.703124.042969 11.28125 7.121093 17.3125 20.210937 15.398438 33.410156-2.089844 15.21875-14.703125 26.796875-30.042969 27.578125zm0 0" fill="#4c8056"/><path d="m378.953125 323.6875h-.175781c-4.773438-.046875-8.613282-3.945312-8.589844-8.71875.023438-4.777344 3.902344-8.636719 8.679688-8.636719 4.773437 0 8.652343 3.859375 8.675781 8.636719.023437 4.773438-3.816407 8.671875-8.589844 8.71875zm0 0"/><path d="m278.875 373.183594c-7.863281-.003906-15.484375-2.738282-21.550781-7.738282-10.789063-9.335937-15.558594-23.851562-12.410157-37.765624 4.78125-18.511719 19.640626-32.714844 38.347657-36.660157 3.019531-.703125 6.183593.261719 8.304687 2.523438 2.117188 2.265625 2.867188 5.488281 1.964844 8.457031-.902344 2.964844-3.316406 5.226562-6.335938 5.929688-12.1875 2.511718-21.960937 11.601562-25.347656 23.574218-1.722656 7.515625.761719 15.371094 6.488282 20.53125 4.996093 4.140625 11.964843 4.953125 17.78125 2.074219 6.265624-3.003906 9.570312-9.984375 7.921874-16.734375-.21875-.785156-.636718-1.5-1.21875-2.070312-2.628906.777343-4.769531 2.699218-5.820312 5.234374-1.128906 2.945313-3.765625 5.046876-6.890625 5.488282s-6.242187-.847656-8.140625-3.363282c-1.902344-2.519531-2.285156-5.871093-1.003906-8.753906 3.703125-9.109375 12.292968-15.300781 22.109375-15.921875 7.953125.253907 14.859375 5.550781 17.171875 13.164063 4.949218 15.136718-2.074219 31.601562-16.421875 38.511718-4.640625 2.320313-9.761719 3.523438-14.949219 3.519532zm0 0" fill="#4c8056"/><path d="m346.0625 363.171875c-3.960938.039063-7.449219-2.589844-8.511719-6.40625-1.058593-3.816406.578125-7.867187 3.988281-9.878906 3.414063-2.007813 7.75-1.476563 10.574219 1.296875 1.65625 1.6875 2.597657 3.949218 2.628907 6.3125 0 4.792968-3.886719 8.675781-8.679688 8.675781zm0 0"/><path d="m142.804688 259.375c-1.953126 0-3.90625-.144531-5.835938-.429688-3.117188-.394531-5.78125-2.4375-6.960938-5.351562-1.179687-2.910156-.691406-6.230469 1.269532-8.683594 1.964844-2.453125 5.101562-3.652344 8.199218-3.136718 7.039063 1.136718 14.183594-1.328126 19.023438-6.566407 4.210938-4.949219 5.105469-11.914062 2.289062-17.765625-2.9375-6.28125-9.871093-9.652344-16.628906-8.085937-.796875.207031-1.523437.625-2.109375 1.207031.710938 2.644531 2.601563 4.808594 5.128907 5.863281 4.332031 1.925781 6.316406 6.96875 4.460937 11.332031-1.855469 4.359376-6.867187 6.425782-11.257813 4.636719-9.125-3.726562-15.238281-12.433593-15.644531-22.285156.339844-7.933594 5.691407-14.769531 13.3125-17 15.1875-4.832031 31.605469 2.347656 38.367188 16.78125 5.800781 12.027344 3.972656 26.339844-4.664063 36.527344-7.292968 8.339843-17.867187 13.074219-28.949218 12.957031zm0 0" fill="#4c8056"/><path d="m235.332031 234.304688c0 4.792968-3.886719 8.679687-8.679687 8.679687-4.792969 0-8.675782-3.886719-8.675782-8.679687 0-4.792969 3.882813-8.675782 8.675782-8.675782 4.792968 0 8.679687 3.882813 8.679687 8.675782zm0 0" fill="#4c8056"/><path d="m261.367188 208.269531c0 4.792969-3.886719 8.679688-8.679688 8.679688s-8.679688-3.886719-8.679688-8.679688 3.886719-8.675781 8.679688-8.675781 8.679688 3.882812 8.679688 8.675781zm0 0" fill="#4c8056"/><path d="m296.078125 199.59375c0 4.792969-3.886719 8.675781-8.679687 8.675781-4.792969 0-8.675782-3.882812-8.675782-8.675781s3.882813-8.679688 8.675782-8.679688c4.792968 0 8.679687 3.886719 8.679687 8.679688zm0 0" fill="#4c8056"/><path d="m148.550781 399.1875c0 4.792969-3.882812 8.675781-8.675781 8.675781s-8.679688-3.882812-8.679688-8.675781 3.886719-8.679688 8.679688-8.679688 8.675781 3.886719 8.675781 8.679688zm0 0" fill="#4c8056"/><path d="m174.585938 425.21875c0 4.792969-3.886719 8.679688-8.679688 8.679688-4.789062 0-8.675781-3.886719-8.675781-8.679688s3.886719-8.675781 8.675781-8.675781c4.792969 0 8.679688 3.882812 8.679688 8.675781zm0 0" fill="#4c8056"/><path d="m200.621094 494.644531c-6.3125.011719-12.355469-2.546875-16.738282-7.085937l-141.15625-148.214844c-20.085937-18.644531-31.53125-44.785156-31.617187-72.191406 0-56.390625 48.875-102.269532 108.949219-102.269532 30.839844.917969 59.957031 14.433594 80.5625 37.402344 20.601562-22.96875 49.71875-36.484375 80.558594-37.402344 60.074218 0 108.949218 45.878907 108.949218 102.269532-.09375 24.042968-8.972656 47.222656-24.960937 65.179687l-147.8125 155.222657c-4.378907 4.542968-10.425781 7.101562-16.734375 7.089843zm-80.5625-313.691406c-50.988282 0-92.46875 38.667969-92.46875 86.199219.125 23.171875 9.871094 45.25 26.90625 60.953125l141.457031 148.507812c2.597656 2.53125 6.738281 2.527344 9.332031-.003906l147.605469-154.988281c13.308594-15.027344 20.6875-34.390625 20.757813-54.464844 0-47.53125-41.480469-86.199219-92.46875-86.199219-29.234376 1.195313-56.402344 15.390625-74.074219 38.710938-1.644531 1.855469-4.003907 2.917969-6.484375 2.917969-2.480469 0-4.84375-1.0625-6.484375-2.917969-17.675781-23.320313-44.84375-37.519531-74.078125-38.714844zm0 0" fill="#46b29d"/><path d="m200.621094 512.316406c-6.707032 0-13.113282-2.765625-17.703125-7.652344l-149.316407-160.0625c-21.324218-20.328124-33.410156-48.492187-33.441406-77.953124 0-60.894532 51.695313-110.445313 115.242188-110.445313 32.777344 1.0625 63.644531 15.691406 85.21875 40.390625 21.574218-24.699219 52.4375-39.328125 85.214844-40.390625 63.546874 0 115.246093 49.550781 115.246093 110.445313-.066406 25.871093-9.441406 50.855468-26.402343 70.386718l-156.355469 167.625c-4.59375 4.886719-11 7.660156-17.703125 7.65625zm-85.21875-338.757812c-52.679688-1.210938-96.417969 40.414062-97.8125 93.089844.085937 24.910156 10.371094 48.699218 28.464844 65.820312l149.628906 160.378906c1.308594 1.3125 3.085937 2.046875 4.9375 2.046875 1.851562 0 3.628906-.738281 4.9375-2.050781l156.132812-167.378906c14.117188-16.347656 21.90625-37.214844 21.953125-58.816406-1.394531-52.675782-45.128906-94.300782-97.808593-93.089844-31.09375 1.378906-59.894532 16.746094-78.355469 41.804687-1.71875 2.003907-4.222657 3.152344-6.859375 3.152344-2.636719 0-5.144532-1.148437-6.859375-3.152344-18.460938-25.058593-47.265625-40.425781-78.359375-41.804687zm0 0" fill="#65ddb9"/></svg>