<svg height="512pt" viewBox="-4 0 512 512" width="512pt" xmlns="http://www.w3.org/2000/svg"><path d="m4.777344 236.734375-4.511719-67.6875v-.085937l-.1757812-3.039063v-.171875c-.0117188-.292969.0195312-.585938.0859372-.867188 2.519531-19.351562 48.078125-34.714843 103.964844-34.714843 55.882813 0 101.445313 15.363281 103.960937 34.714843.066407.28125.097657.574219.085938.867188v.171875l-.171875 3.039063v.085937l-4.515625 67.6875zm0 0" fill="#e57e25"/><path d="m8.679688 295.050781c.625 35.605469 6.472656 70.925781 17.359374 104.828125l167.917969-31.5 5.640625-73.328125v-60.746093h-187.300781zm0 0" fill="#b19046"/><path d="m17.359375 295.050781c.558594 35.492188 5.863281 70.746094 15.777344 104.828125l152.652343-31.5 5.128907-73.328125v-60.746093h-170.269531zm0 0" fill="#e4c05c"/><path d="m195.863281 231.875c-17.527343-8.9375-52.066406-14.925781-91.722656-14.925781-39.660156 0-74.113281 5.988281-91.640625 14.839843-2.769531 1.324219-5.363281 2.984376-7.722656 4.945313l3.902344 58.316406c0-3.90625 3.210937-7.636719 8.851562-10.933593 15.1875-8.9375 48.25-15.101563 86.609375-15.101563 38.441406 0 71.503906 6.164063 86.691406 15.101563 5.640625 3.296874 8.765625 7.027343 8.765625 10.933593l3.902344-58.316406c-2.308594-1.960937-4.878906-3.597656-7.636719-4.859375zm0 0" fill="#7f8c8d"/><path d="m199.597656 165.75v.171875l-.160156 3.039063v.085937l-4.140625 67.6875c-12.101563-11.453125-48.324219-19.785156-91.15625-19.785156-42.835937 0-79.058594 8.332031-91.160156 19.785156l-4.140625-67.6875v-.085937l-.160156-3.039063v-.171875c-.007813-.292969.019531-.582031.082031-.867188 2.308593-19.351562 44.105469-34.714843 95.378906-34.714843 51.269531 0 93.066406 15.363281 95.375 34.714843.0625.285157.089844.574219.082031.867188zm0 0" fill="#f29c1f"/><path d="m.265625 168.960938c-.1757812-.769532-.26171875-1.554688-.26171875-2.34375-.01562505-.234376.01562495-.46875.08593755-.695313" fill="#e4c05c"/><path d="m.175781 164.882812h-.17187475l.08593755.867188" fill="#e4c05c"/><path d="m195.863281 231.875-5.03125 52.242188c-15.1875-8.9375-48.25-15.101563-86.691406-15.101563-38.359375 0-71.421875 6.164063-86.609375 15.101563l-5.03125-52.328126c17.527344-8.851562 51.980469-14.839843 91.640625-14.839843 39.65625 0 74.195313 5.988281 91.722656 14.925781zm0 0" fill="#95a5a5"/><path d="m395.285156 210.007812c-55.367187 25.078126-23.082031 44.167969-65.519531 154.464844-37.835937 98.410156-95.457031 110.992188-178.679687 112.554688l12.757812-26.640625 33.671875-70.03125c91.464844-11.457031 106.910156-89.902344 114.894531-146.050781 7.117188-49.722657 54.929688-64.5625 72.027344-68.296876l4.425781 17.792969zm0 0" fill="#e4c05c"/><path d="m388.863281 183.800781c-54.671875 24.90625-22.5625 44.777344-65.867187 154.378907-35.058594 88.949218-86.691406 108.128906-159.152344 112.207031l33.671875-70.03125c91.464844-11.457031 106.910156-89.902344 114.894531-146.050781 7.117188-49.722657 54.929688-64.5625 72.027344-68.296876zm0 0" fill="#f3d55b"/><path d="m43.394531 251.660156c0 4.792969-3.886719 8.679688-8.679687 8.679688-4.792969 0-8.675782-3.886719-8.675782-8.679688 0-4.792968 3.882813-8.675781 8.675782-8.675781 4.792968 0 8.679687 3.882813 8.679687 8.675781zm0 0" fill="#bdc3c7"/><path d="m78.105469 242.984375c0 4.792969-3.886719 8.675781-8.679688 8.675781s-8.675781-3.882812-8.675781-8.675781 3.882812-8.679687 8.675781-8.679687 8.679688 3.886718 8.679688 8.679687zm0 0" fill="#bdc3c7"/><path d="m112.816406 242.984375c0 4.792969-3.882812 8.675781-8.675781 8.675781s-8.679687-3.882812-8.679687-8.675781 3.886718-8.679687 8.679687-8.679687 8.675781 3.886718 8.675781 8.679687zm0 0" fill="#bdc3c7"/><path d="m147.527344 242.984375c0 4.792969-3.882813 8.675781-8.675782 8.675781-4.792968 0-8.679687-3.882812-8.679687-8.675781s3.886719-8.679687 8.679687-8.679687c4.792969 0 8.675782 3.886718 8.675782 8.679687zm0 0" fill="#bdc3c7"/><path d="m182.242188 251.660156c0 4.792969-3.886719 8.679688-8.679688 8.679688s-8.675781-3.886719-8.675781-8.679688c0-4.792968 3.882812-8.675781 8.675781-8.675781s8.679688 3.882813 8.679688 8.675781zm0 0" fill="#bdc3c7"/><path d="m199.578125 399.1875c0 47.917969-38.84375 86.761719-86.761719 86.761719-47.917968 0-86.761718-38.84375-86.761718-86.761719s38.84375-86.761719 86.761718-86.761719c47.917969 0 86.761719 38.84375 86.761719 86.761719zm0 0" fill="#d25627"/><path d="m182.242188 399.1875c0-43.136719-31.082032-78.101562-69.425782-78.101562-38.339844 0-69.421875 34.964843-69.421875 78.101562 0 43.132812 31.082031 78.101562 69.421875 78.101562 38.34375 0 69.425782-34.96875 69.425782-78.101562zm0 0" fill="#e57e25"/><path d="m138.851562 398.101562c0 14.179688-11.496093 25.671876-25.671874 25.671876-14.179688 0-25.671876-11.492188-25.671876-25.671876 0-14.179687 11.492188-25.671874 25.671876-25.671874 14.175781 0 25.671874 11.492187 25.671874 25.671874zm0 0" fill="#805333"/><path d="m384.554688 167.089844 12.222656 48.882812c.589844 2.410156 2.191406 4.453125 4.390625 5.601563 2.203125 1.148437 4.792969 1.296875 7.109375.398437 27.910156-11.277344 57.21875-18.71875 87.128906-22.113281 4.496094-.347656 7.957031-4.121094 7.917969-8.632813v-11.832031c.03125-3.625-2.21875-6.878906-5.621094-8.132812-12.164063-4.441407-44.777344-13.875-104.492187-14.957031-2.707032-.0625-5.292969 1.140624-6.988282 3.253906-1.699218 2.117187-2.3125 4.898437-1.667968 7.53125zm0 0" fill="#b19046"/><path d="m236.179688 59.242188c-5.953126 7.851562-15.859376 11.617187-25.527344 9.707031-5.28125-1.695313-10.683594-2.984375-16.164063-3.859375-5.953125-.242188-10.414062 4.253906-15.226562 7.246094-8.820313 5.484374-17.28125 4.007812-26.902344 6.21875-4.605469 1.128906-8.535156 4.121093-10.847656 8.261718-14.453125 24.976563-56.960938 22.421875-62.742188-7.941406-3.773437-17.488281 6.148438-35.027344 23.082031-40.796875 6.207032-.734375 12.230469-2.59375 17.769532-5.484375 7.628906-5.902344 8.425781-16.730469 15.207031-23.398438 15.144531-14.890624 40.195313-8.542968 54.285156 4.609376 7.84375 7.324218 17.886719 3.277343 27.308594 3.917968 9.867187.644532 18.609375 6.597656 22.824219 15.542969 3.90625 8.550781 2.722656 18.570313-3.066406 25.976563zm0 0" fill="#d1d4d1"/><path d="m328.453125 26.035156c0 14.375-11.65625 26.03125-26.035156 26.03125-14.378907 0-26.035157-11.65625-26.035157-26.03125 0-14.378906 11.65625-26.035156 26.035157-26.035156 14.378906 0 26.035156 11.65625 26.035156 26.035156zm0 0" fill="#d1d4d1"/><path d="m389.195312 52.066406c0 9.585938-7.769531 17.355469-17.355468 17.355469-9.585938 0-17.355469-7.769531-17.355469-17.355469 0-9.585937 7.769531-17.355468 17.355469-17.355468 9.585937 0 17.355468 7.769531 17.355468 17.355468zm0 0" fill="#d1d4d1"/><path d="m433.902344 69.421875c0 4.792969-3.886719 8.679687-8.679688 8.679687-4.792968 0-8.675781-3.886718-8.675781-8.679687 0-4.789063 3.882813-8.675781 8.675781-8.675781 4.792969 0 8.679688 3.886718 8.679688 8.675781zm0 0" fill="#d1d4d1"/><path d="m112.816406 433.863281c-15.699218 0-29.445312-10.546875-33.507812-25.710937-4.0625-15.167969 2.570312-31.171875 16.167968-39.019532 13.597657-7.847656 30.773438-5.585937 41.875 5.519532 9.925782 9.917968 12.898438 24.84375 7.527344 37.808594-5.371094 12.964843-18.027344 21.414062-32.0625 21.402343zm0-52.007812c-8.265625.007812-15.378906 5.855469-16.984375 13.964843-1.605469 8.109376 2.742188 16.226563 10.382813 19.382813s16.445312.480469 21.035156-6.398437c4.589844-6.878907 3.679688-16.039063-2.171875-21.882813-3.25-3.25-7.664063-5.074219-12.261719-5.066406zm0 0" fill="#f29c1f"/><g fill="#805333"><path d="m48.386719 343.433594c-2.304688 0-4.511719-.914063-6.136719-2.542969l-9.203125-9.203125c-3.316406-3.402344-3.28125-8.835938.074219-12.195312 3.359375-3.359376 8.796875-3.394532 12.195312-.078126l9.199219 9.203126c2.480469 2.484374 3.222656 6.214843 1.878906 9.457031-1.339843 3.242187-4.503906 5.355469-8.015625 5.359375zm0 0"/><path d="m39.179688 481.5c-3.507813 0-6.671876-2.113281-8.015626-5.355469-1.34375-3.246093-.601562-6.976562 1.882813-9.457031l9.203125-9.203125c3.40625-3.289063 8.816406-3.242187 12.164062.105469 3.347657 3.347656 3.394532 8.757812.105469 12.164062l-9.199219 9.203125c-1.625 1.632813-3.835937 2.546875-6.140624 2.542969zm0 0"/><path d="m72.96875 504.074219c-2.894531-.003907-5.597656-1.453125-7.207031-3.863281-1.605469-2.40625-1.910157-5.457032-.808594-8.132813l4.972656-12.027344c1.890625-4.335937 6.90625-6.359375 11.273438-4.550781 4.371093 1.808594 6.488281 6.78125 4.761719 11.1875l-4.976563 12.023438c-1.339844 3.246093-4.503906 5.363281-8.015625 5.363281zm0 0"/><path d="m147.691406 323.6875c-2.898437-.007812-5.597656-1.457031-7.207031-3.863281s-1.914063-5.457031-.8125-8.136719l4.976563-12.023438c1.894531-4.332031 6.902343-6.347656 11.269531-4.542968 4.363281 1.808594 6.480469 6.777344 4.761719 11.175781l-4.972657 12.027344c-1.339843 3.246093-4.503906 5.363281-8.015625 5.363281zm0 0"/><path d="m209.027344 447.71875c-1.140625 0-2.269532-.226562-3.320313-.664062l-12.023437-4.984376c-2.867188-1.183593-4.878906-3.808593-5.285156-6.882812-.402344-3.074219.863281-6.132812 3.324218-8.019531 2.457032-1.886719 5.738282-2.316407 8.601563-1.128907l12.027343 4.984376c3.828126 1.578124 6.007813 5.648437 5.199219 9.710937-.808593 4.066406-4.378906 6.992187-8.523437 6.984375zm0 0"/><path d="m112.816406 512c-4.792968 0-8.675781-3.886719-8.675781-8.679688v-13.015624c0-4.792969 3.882813-8.675782 8.675781-8.675782 4.792969 0 8.679688 3.882813 8.679688 8.675782v13.015624c0 4.792969-3.886719 8.679688-8.679688 8.679688zm0 0"/><path d="m112.816406 316.746094c-4.792968 0-8.675781-3.886719-8.675781-8.679688v-13.015625c0-4.792969 3.882813-8.679687 8.675781-8.679687 4.792969 0 8.679688 3.886718 8.679688 8.679687v13.015625c0 4.792969-3.886719 8.679688-8.679688 8.679688zm0 0"/><path d="m177.25 343.433594c-3.511719-.003906-6.671875-2.117188-8.015625-5.359375-1.34375-3.242188-.601563-6.972657 1.878906-9.457031l9.203125-9.203126c3.402344-3.316406 8.835938-3.28125 12.195313.078126 3.359375 3.359374 3.390625 8.792968.078125 12.195312l-9.207032 9.203125c-1.625 1.628906-3.832031 2.542969-6.132812 2.542969zm0 0"/><path d="m21.699219 407.863281h-13.019531c-4.789063 0-8.67578175-3.882812-8.67578175-8.675781s3.88671875-8.679688 8.67578175-8.679688h13.019531c4.792969 0 8.675781 3.886719 8.675781 8.679688s-3.882812 8.675781-8.675781 8.675781zm0 0"/><path d="m216.953125 407.863281h-13.015625c-4.792969 0-8.679688-3.882812-8.679688-8.675781s3.886719-8.679688 8.679688-8.679688h13.015625c4.792969 0 8.675781 3.886719 8.675781 8.679688s-3.882812 8.675781-8.675781 8.675781zm0 0"/><path d="m186.453125 481.5c-2.300781.003906-4.511719-.910156-6.136719-2.542969l-9.203125-9.203125c-2.253906-2.179687-3.160156-5.40625-2.367187-8.4375.796875-3.035156 3.164062-5.40625 6.199218-6.199218 3.035157-.792969 6.261719.109374 8.4375 2.367187l9.207032 9.203125c2.480468 2.480469 3.222656 6.210938 1.878906 9.457031-1.34375 3.242188-4.507812 5.355469-8.015625 5.355469zm0 0"/><path d="m152.664062 504.074219c-3.511718 0-6.675781-2.117188-8.015624-5.363281l-4.976563-12.023438c-1.726563-4.40625.390625-9.378906 4.761719-11.1875s9.382812.214844 11.273437 4.550781l4.972657 12.027344c1.105468 2.675781.800781 5.726563-.808594 8.132813-1.609375 2.410156-4.3125 3.859374-7.207032 3.863281zm0 0"/><path d="m77.945312 323.6875c-3.511718 0-6.675781-2.117188-8.019531-5.363281l-4.972656-12.027344c-1.71875-4.398437.398437-9.367187 4.765625-11.175781 4.363281-1.804688 9.375.210937 11.265625 4.542968l4.976563 12.023438c1.101562 2.679688.796874 5.730469-.8125 8.136719-1.605469 2.40625-4.308594 3.855469-7.203126 3.863281zm0 0"/><path d="m16.605469 447.71875c-4.144531.007812-7.714844-2.917969-8.523438-6.980469-.808593-4.066406 1.367188-8.136719 5.199219-9.714843l12.023438-4.984376c2.867187-1.1875 6.144531-.757812 8.605468 1.128907 2.460938 1.886719 3.726563 4.945312 3.320313 8.019531-.402344 3.074219-2.417969 5.699219-5.28125 6.882812l-12.023438 4.984376c-1.054687.4375-2.179687.664062-3.320312.664062zm0 0"/><path d="m197.003906 373c-4.144531.003906-7.710937-2.921875-8.519531-6.984375-.808594-4.066406 1.367187-8.132813 5.199219-9.714844l12.023437-4.984375c2.871094-1.214844 6.167969-.796875 8.648438 1.09375 2.476562 1.890625 3.75 4.964844 3.335937 8.050782-.414062 3.089843-2.453125 5.71875-5.339844 6.890624l-12.027343 4.984376c-1.050781.4375-2.179688.664062-3.320313.664062zm0 0"/><path d="m28.628906 373c-1.140625 0-2.269531-.226562-3.320312-.664062l-12.027344-4.984376c-4.390625-1.859374-6.460938-6.910156-4.632812-11.3125 1.824218-4.40625 6.859374-6.511718 11.277343-4.722656l12.023438 4.984375c3.832031 1.582031 6.007812 5.648438 5.199219 9.714844-.808594 4.0625-4.378907 6.988281-8.519532 6.984375zm0 0"/></g><path d="m128.871094 460.699219c-4.308594.007812-7.96875-3.152344-8.597656-7.414063-.625-4.265625 1.96875-8.339844 6.097656-9.578125 14.886718-4.445312 26.535156-16.09375 30.980468-30.980469 1.378907-4.589843 6.21875-7.195312 10.808594-5.816406 4.59375 1.378906 7.199219 6.21875 5.820313 10.808594-6.121094 20.472656-22.136719 36.488281-42.609375 42.609375-.8125.242187-1.652344.367187-2.5.371094zm0 0" fill="#f29c1f"/><path d="m59.96875 391.796875c-.84375-.003906-1.683594-.128906-2.492188-.367187-4.589843-1.382813-7.195312-6.222657-5.820312-10.8125 6.117188-20.476563 22.132812-36.492188 42.609375-42.609376 2.980469-.945312 6.242187-.207031 8.53125 1.925782 2.289063 2.132812 3.25 5.332031 2.519531 8.375-.730468 3.042968-3.042968 5.457031-6.050781 6.316406-14.886719 4.445312-26.535156 16.09375-30.980469 30.980469-1.101562 3.671875-4.480468 6.191406-8.316406 6.191406zm0 0" fill="#f29c1f"/><path d="m112.816406 494.625c-43.195312.003906-81.007812-29.011719-92.1875-70.734375-11.183594-41.726563 7.054688-85.757813 44.464844-107.355469 37.410156-21.601562 84.660156-15.378906 115.207031 15.164063 27.296875 27.292969 35.460938 68.34375 20.691407 104.007812-14.773438 35.664063-49.574219 58.917969-88.175782 58.917969zm0-173.484375c-37.21875.027344-69.234375 26.34375-76.46875 62.851563-7.234375 36.507812 12.324219 73.046874 46.71875 87.269531 34.394532 14.222656 74.046875 2.167969 94.707032-28.785157 20.664062-30.957031 16.582031-72.199218-9.746094-98.507812-14.632813-14.648438-34.503906-22.867188-55.210938-22.828125zm0 0" fill="#805333"/></svg>