<svg height="512pt" viewBox="0 -33 512.07155 512" width="512pt" xmlns="http://www.w3.org/2000/svg"><path d="m71.6875 7.9375c.628906-2.175781 2.097656-4.011719 4.082031-5.105469s4.320313-1.351562 6.496094-.71875c85.921875 24.851563 86.964844 69.339844 79.941406 93.644531-8.960937 30.941407-53.277343 54.351563-94.886719 54.359376-9.0625.058593-18.089843-1.160157-26.8125-3.617188-2.175781-.628906-4.011718-2.09375-5.105468-4.078125s-1.355469-4.316406-.726563-6.492187zm0 0" fill="#7f6e5d"/><path d="m71.6875 15.992188c1.648438-4.210938 6.238281-6.464844 10.578125-5.191407 85.921875 22.160157 86.964844 61.828125 79.941406 83.5-8.960937 27.589844-53.277343 48.460938-94.886719 48.46875-9.035156.054688-18.046874-1.027343-26.8125-3.226562-2.070312-.394531-3.878906-1.640625-4.988281-3.429688-1.105469-1.792969-1.414062-3.96875-.84375-5.996093zm0 0" fill="#b19046"/><path d="m162.890625 142.195312c-2.816406.003907-5.449219-1.382812-7.039063-3.703124-1.59375-2.320313-1.9375-5.277344-.921874-7.902344 2.96875-8.652344 6.191406-24.535156-5.464844-34.007813-.644532-.511719-1.308594-1.054687-2.117188-1.59375-10.695312-6.382812-24.222656-5.472656-33.960937 2.289063-2.554688 1.667968-5.804688 1.84375-8.527344.464844-2.71875-1.378907-4.496094-4.105469-4.660156-7.152344-.164063-3.046875 1.3125-5.949219 3.867187-7.609375 15.359375-11.804688 36.472656-12.679688 52.753906-2.195313 1.269532.851563 2.308594 1.675782 3.351563 2.507813 14.46875 11.742187 18.417969 31.007812 10.875 52.890625-.472656 1.449218-1.304687 2.75-2.417969 3.789062-1.566406 1.433594-3.613281 2.226563-5.738281 2.222656zm0 0" fill="#805333"/><path d="m502.9375 351.71875c-11.5625 29.976562-30.519531 56.542969-55.101562 77.230469-49.949219 42.382812-139.640626 3.828125-185.589844-46.109375-1.597656-1.738282-3.851563-2.726563-6.214844-2.726563s-4.617188.988281-6.21875 2.726563c-45.945312 49.9375-135.640625 88.492187-185.585938 46.109375-24.585937-20.6875-43.539062-47.253907-55.101562-77.230469-1.269531-3.335938-.40625-7.109375 2.191406-9.558594 2.597656-2.449218 6.414063-3.089844 9.667969-1.628906 81.605469 39.503906 107.0625 6.835938 147.867187-18.109375 25.664063-14.835937 57.121094-15.585937 83.464844-1.992187 2.339844 1.167968 5.09375 1.167968 7.433594 0 26.347656-13.59375 57.800781-12.84375 83.46875 1.992187 40.800781 24.945313 66.257812 57.613281 147.863281 18.109375 3.257813-1.457031 7.070313-.8125 9.664063 1.636719 2.59375 2.445312 3.457031 6.214843 2.191406 9.550781zm0 0" fill="#2c2f38"/><path d="m119.242188 423.28125c-20.988282.242188-41.308594-7.363281-56.976563-21.328125-2.160156-2.152344-3.007813-5.292969-2.222656-8.238281.785156-2.945313 3.082031-5.25 6.023437-6.042969 2.945313-.796875 6.089844.042969 8.246094 2.195313 16.703125 14.257812 39.1875 19.734374 60.578125 14.753906 4.597656-.878906 9.042969 2.117187 9.964844 6.707031.917969 4.589844-2.035157 9.066406-6.617188 10.027344-6.253906 1.265625-12.617187 1.910156-18.996093 1.925781zm0 0" fill="#35495e"/><path d="m392.820312 423.28125c-6.382812-.015625-12.746093-.660156-19-1.925781-3.015624-.574219-5.488281-2.722657-6.476562-5.625-.992188-2.902344-.351562-6.117188 1.683594-8.414063 2.03125-2.296875 5.140625-3.324218 8.140625-2.695312 21.382812 4.914062 43.828125-.546875 60.5625-14.734375 3.347656-3.234375 8.671875-3.1875 11.960937.105469 3.292969 3.289062 3.339844 8.613281.105469 11.960937-15.667969 13.964844-35.988281 21.570313-56.976563 21.328125zm0 0" fill="#35495e"/><path d="m79.140625 10.09375c-26.867187-7.773438-56.9375 14.578125-67.160156 49.921875-10.222657 35.34375 3.269531 70.296875 30.140625 78.066406 26.871094 7.773438 56.941406-14.578125 67.164062-49.921875s-3.273437-70.296875-30.144531-78.066406zm0 0" fill="#2fa8cc"/><path d="m53.148438 148.179688c-4.535157 0-9.042969-.640626-13.398438-1.902344-16.25-5.121094-29.089844-17.679688-34.570312-33.816406-6.390626-17.636719-6.882813-36.875-1.394532-54.816407 11.519532-39.804687 46.375-64.824219 77.734375-55.75 16.25 5.121094 29.085938 17.683594 34.566407 33.816407 6.390624 17.640624 6.882812 36.875 1.398437 54.816406-4.933594 18.101562-15.617187 34.109375-30.441406 45.609375-9.699219 7.574219-21.59375 11.796875-33.894531 12.042969zm14.964843-131.109376c-19.867187 0-40.175781 18.480469-47.933593 45.316407-4.453126 14.359375-4.128907 29.773437.929687 43.929687 3.613281 11.121094 12.296875 19.871094 23.390625 23.570313 11.355469 2.785156 23.359375.023437 32.359375-7.445313 11.832031-9.273437 20.332031-22.136718 24.222656-36.65625 4.460938-14.355468 4.140625-29.769531-.914062-43.925781-3.617188-11.125-12.300781-19.871094-23.394531-23.570313-2.816407-.8125-5.730469-1.222656-8.660157-1.21875zm0 0" fill="#e4c05c"/><path d="m40.679688 88.207031c-.40625 0-.8125-.027343-1.214844-.082031-2.242188-.320312-4.261719-1.519531-5.621094-3.328125-1.359375-1.8125-1.941406-4.085937-1.621094-6.328125.945313-13.898438 7.667969-26.769531 18.53125-35.488281 7.527344-5.324219 16.839844-7.484375 25.941406-6.019531 4.628907.898437 7.652344 5.375 6.753907 10.003906-.898438 4.625-5.375 7.648437-10.003907 6.75-4.609374-.566406-9.265624.628906-13.03125 3.347656-6.792968 6.113281-10.859374 14.695312-11.292968 23.824219-.601563 4.199219-4.199219 7.320312-8.441406 7.320312zm0 0" fill="#67b9cc"/><path d="m233.765625 95.371094c.621094-2.179688 2.089844-4.019532 4.074219-5.113282s4.324218-1.351562 6.5-.710937c107.417968 31.070313 110.039062 82.109375 102.039062 109.773437-9.988281 34.523438-62.140625 59.792969-112.722656 59.796876-12.484375.078124-24.917969-1.597657-36.933594-4.980469-4.527344-1.308594-7.132812-6.039063-5.824218-10.566407zm0 0" fill="#7f6e5d"/><path d="m233.765625 110.441406c1.792969-4.058594 6.316406-6.15625 10.574219-4.898437 107.417968 26.136719 110.039062 69.074219 102.039062 92.34375-9.988281 29.042969-62.140625 50.296875-112.722656 50.300781-12.433594.070312-24.832031-1.335938-36.933594-4.1875-2.011718-.292969-3.800781-1.433594-4.914062-3.132812-1.117188-1.699219-1.445313-3.796876-.910156-5.757813zm0 0" fill="#b19046"/><path d="m241.964844 97.742188c-36.375-10.519532-75.460938 14.125-87.296875 55.050781-11.839844 40.921875 8.054687 82.628906 44.433593 93.148437 36.375 10.523438 75.460938-14.121094 87.296876-55.046875 11.835937-40.921875-8.054688-82.628906-44.433594-93.152343zm0 0" fill="#2fa8cc"/><path d="m216.324219 256.925781c-6.632813-.003906-13.230469-.941406-19.601563-2.789062-40.835937-11.808594-63.375-58.335938-50.261718-103.714844 13.132812-45.375 56.964843-72.726563 97.878906-60.875 20.234375 6.003906 36.878906 20.484375 45.625 39.699219 18.851562 41.539062 4.65625 90.621094-33.460938 115.683594-11.984375 7.726562-25.921875 11.886718-40.179687 11.996093zm8.546875-153.070312c-29.699219 1.613281-54.859375 22.433593-62.007813 51.304687-10.507812 36.339844 6.808594 73.386719 38.609375 82.585938 15.640625 4.339844 32.390625 1.695312 45.933594-7.253906 15.058594-9.742188 26.015625-24.675782 30.792969-41.964844 5.191406-17.171875 3.898437-35.652344-3.636719-51.933594-6.675781-14.796875-19.429688-25.976562-34.972656-30.65625-4.785156-1.382812-9.738282-2.085938-14.71875-2.082031zm0 0" fill="#e4c05c"/><path d="m177.8125 190.707031c-.40625 0-.8125-.027343-1.214844-.082031-4.664062-.667969-7.90625-4.988281-7.242187-9.65625 3.367187-23.527344 12.117187-40.4375 26-50.265625 10.34375-7.234375 23.070312-10.210937 35.550781-8.316406 4.5625.964843 7.503906 5.414062 6.605469 9.988281-.898438 4.574219-5.300781 7.585938-9.890625 6.757812-7.984375-1.0625-16.078125.964844-22.625 5.660157-9.78125 7.050781-16.089844 20.035156-18.742188 38.59375-.601562 4.199219-4.195312 7.320312-8.441406 7.320312zm0 0" fill="#67b9cc"/><path d="m484.988281 284.988281c-3.917969.003907-7.339843-2.664062-8.289062-6.46875-.949219-3.804687.816406-7.765625 4.28125-9.601562 8.988281-4.773438 13.140625-9.054688 13.890625-14.316407.898437-6.203124-2.84375-12.132812-8.824219-13.996093-.894531-.222657-15.316406-3.734375-35.191406-8.5625-36.859375-8.960938-92.402344-22.457031-114.46875-27.867188-4.578125-1.121093-7.375-5.742187-6.253907-10.320312 1.125-4.578125 5.746094-7.378907 10.320313-6.253907 22.058594 5.402344 77.585937 18.898438 114.433594 27.859376 35.40625 8.605468 35.40625 8.605468 35.800781 8.730468 14.1875 4.203125 23.160156 18.164063 21.085938 32.816406-2.75 12.167969-11.253907 22.234376-22.789063 26.984376-1.230469.652343-2.601563.996093-3.996094.996093zm0 0" fill="#805333"/></svg>