<svg height="512pt" viewBox="-13 0 512 512.20583" width="512pt" xmlns="http://www.w3.org/2000/svg"><path d="m330.648438 435.058594c10.078124-14.140625 16.949218-30.308594 20.132812-47.382813l-6.25-85.128906v-.085937c-4.511719-14.199219-10.414062-27.921876-17.617188-40.960938l-27.160156-36.796875c-13.453125-14.523437-30.199218-25.597656-48.828125-32.296875-5.085937-1.714844-10.59375-1.714844-15.679687 0-18.628906 6.699219-35.375 17.773438-48.828125 32.296875l-27.160157 36.796875c-7.203124 13.039062-13.105468 26.761719-17.617187 40.960938v.085937l-6.25 85.128906c3.183594 17.074219 10.054687 33.242188 20.132813 47.382813zm0 0" fill="#fac176"/><path d="m320.699219 435.058594c9.050781-14.445313 15.121093-30.554688 17.84375-47.382813l-5.539063-85.128906v-.085937c-3.957031-14.097657-9.183594-27.808594-15.613281-40.960938l-24.074219-36.796875c-11.488281-14.226563-26.371094-25.335937-43.28125-32.296875-4.476562-1.714844-9.421875-1.714844-13.898437 0-16.910157 6.960938-31.792969 18.070312-43.28125 32.296875l-24.074219 36.796875c-6.429688 13.152344-11.65625 26.863281-15.613281 40.960938v.085937l-5.539063 85.128906c2.722656 16.828125 8.792969 32.9375 17.84375 47.382813zm0 0" fill="#cb8252"/><g fill="#805333"><path d="m125.238281 380.472656.261719.175782 9.890625 7.027343 10.675781 7.636719 1.214844.867188-1.214844-.867188 1.214844.867188c2.574219 2.035156 5.746094 3.164062 9.023438 3.210937 14.40625 0 26.035156-23.34375 26.035156-52.066406 0-28.722657-11.628906-52.066407-26.035156-52.066407-3.128907.050782-6.164063 1.082032-8.675782 2.949219l-5.988281 4.253907v.085937l-15.707031 11.195313zm0 0"/><path d="m360.933594 380.472656-.261719.175782-9.890625 7.027343-10.675781 7.636719-1.214844.867188 1.214844-.867188-1.214844.867188c-2.574219 2.035156-5.746094 3.164062-9.023437 3.210937-14.40625 0-26.035157-23.34375-26.035157-52.066406 0-28.722657 11.628907-52.066407 26.035157-52.066407 3.128906.050782 6.164062 1.082032 8.675781 2.949219l5.988281 4.253907v.085937l15.707031 11.195313zm0 0"/><path d="m243.085938 130.375c9.585937 0 11.445312 10 14.753906 16.941406 4.273437 9.015625 10.042968 17.238282 17.070312 24.324219 30.554688 30.644531 80.460938 34.761719 118.90625 17.820313 30.488282-12.96875 49.890625-43.324219 48.863282-76.441407 0-86.78125-86.78125-95.457031-86.78125-95.457031h-225.625s-86.78125 8.675781-86.78125 95.457031c-1.027344 33.117188 18.375 63.472657 48.867187 76.441407 38.445313 16.941406 88.351563 12.824218 118.90625-17.820313 7.023437-7.085937 12.796875-15.308594 17.066406-24.324219 3.308594-6.941406 5.167969-16.941406 14.753907-16.941406zm0 0"/></g><path d="m243.085938 131.597656c8.332031 0 9.953124 8.570313 12.824218 14.515625 3.726563 7.742188 8.75 14.792969 14.847656 20.847657 26.570313 26.261718 69.960938 29.789062 103.394532 15.269531 26.382812-10.90625 43.289062-36.972657 42.492187-65.507813 0-74.367187-75.460937-81.804687-75.460937-81.804687h-196.195313s-75.460937 7.4375-75.460937 81.804687c-.792969 28.535156 16.113281 54.597656 42.492187 65.507813 33.433594 14.519531 76.824219 10.992187 103.394531-15.273438 6.097657-6.054687 11.121094-13.101562 14.847657-20.847656 2.871093-5.941406 4.492187-14.511719 12.824219-14.511719zm0 0" fill="#cb8252"/><path d="m208.375 108.679688c0 35.945312-29.140625 65.085937-65.085938 65.085937-35.945312 0-65.085937-29.140625-65.085937-65.085937 0-35.945313 29.140625-65.085938 65.085937-65.085938 35.945313 0 65.085938 29.140625 65.085938 65.085938zm0 0" fill="#2fa8cc"/><path d="m147.628906 347.324219c0-19.171875-7.769531-34.710938-17.355468-34.710938-9.585938 0-17.355469 15.539063-17.355469 34.710938s7.769531 34.710937 17.355469 34.710937c9.585937 0 17.355468-15.539062 17.355468-34.710937zm0 0" fill="#cb8252"/><path d="m106.929688 194.679688c7.894531 10.414062 31.761718 41.828124 49.808593 63.871093.871094 1.039063 1.652344 1.992188 2.519531 2.949219 1.820313 2.253906 3.558594 4.425781 5.292969 6.335938 3.738281 4.046874 8.976563 6.382812 14.484375 6.464843 5.511719.082031 10.8125-2.097656 14.671875-6.03125 15.015625-15.1875 4.949219-30.632812-7.289062-43.566406-2.34375-2.515625-4.683594-4.859375-7.027344-7.113281-3.558594-3.386719-6.855469-6.507813-9.460937-9.375-3.210938-3.46875-6.421876-7.027344-9.542969-10.671875" fill="#805333"/><path d="m43.492188 121.699219h-34.710938c-4.792969 0-8.679688-3.886719-8.679688-8.679688s3.886719-8.679687 8.679688-8.679687h34.710938c4.792968 0 8.679687 3.886718 8.679687 8.679687s-3.886719 8.679688-8.679687 8.679688zm0 0" fill="#bdc3c7"/><path d="m51.203125 81.257812c-1.574219 0-3.117187-.425781-4.464844-1.242187l-33.757812-20.304687c-4.105469-2.472657-5.433594-7.804688-2.960938-11.914063 2.472657-4.105469 7.804688-5.429687 11.914063-2.960937l33.757812 20.308593c3.34375 2.011719 4.933594 6.003907 3.886719 9.761719s-4.472656 6.355469-8.375 6.351562zm0 0" fill="#bdc3c7"/><path d="m72.746094 51.753906c-3.046875.003906-5.871094-1.589844-7.441406-4.203125l-20.566407-34.191406c-1.703125-2.660156-1.828125-6.035156-.324219-8.8125 1.503907-2.777344 4.394532-4.5195312 7.554688-4.546875 3.15625-.0273438 6.082031 1.660156 7.632812 4.410156l20.566407 34.191406c1.613281 2.675782 1.660156 6.015626.125 8.738282-1.539063 2.722656-4.417969 4.410156-7.546875 4.414062zm0 0" fill="#bdc3c7"/><path d="m407.96875 108.679688c0 35.945312-29.140625 65.085937-65.085938 65.085937-35.945312 0-65.085937-29.140625-65.085937-65.085937 0-35.945313 29.140625-65.085938 65.085937-65.085938 35.945313 0 65.085938 29.140625 65.085938 65.085938zm0 0" fill="#2fa8cc"/><path d="m143.289062 182.441406c-40.738281 0-73.761718-33.023437-73.761718-73.761718 0-40.738282 33.023437-73.761719 73.761718-73.761719 40.738282 0 73.761719 33.023437 73.761719 73.761719-.046875 40.71875-33.042969 73.714843-73.761719 73.761718zm0-130.167968c-31.152343 0-56.40625 25.253906-56.40625 56.40625 0 31.152343 25.253907 56.40625 56.40625 56.40625 31.152344 0 56.40625-25.253907 56.40625-56.40625-.035156-31.136719-25.269531-56.371094-56.40625-56.40625zm0 0" fill="#f3d55b"/><path d="m342.882812 182.441406c-40.738281 0-73.761718-33.023437-73.761718-73.761718 0-40.738282 33.023437-73.761719 73.761718-73.761719 40.738282 0 73.761719 33.023437 73.761719 73.761719-.046875 40.71875-33.042969 73.714843-73.761719 73.761718zm0-130.167968c-31.152343 0-56.40625 25.253906-56.40625 56.40625 0 31.152343 25.253907 56.40625 56.40625 56.40625 31.152344 0 56.40625-25.253907 56.40625-56.40625-.035156-31.136719-25.269531-56.371094-56.40625-56.40625zm0 0" fill="#f3d55b"/><path d="m243.605469 272.695312-.519531 5.207032v138.847656c-8.070313 0-15.878907.34375-23.34375.953125-8.613282-16.285156-12.546876-34.636719-11.367188-53.023437 0-50.246094 18.222656-77.753907 28.203125-89.121094 1.761719-2.007813 4.367187-3.066406 7.027344-2.863282zm0 0" fill="#fac176"/><path d="m277.796875 364.679688c1.179687 18.386718-2.753906 36.738281-11.367187 53.023437-7.464844-.609375-15.273438-.953125-23.34375-.953125v-138.847656l.519531-5.207032c2.304687.085938 4.472656 1.125 5.988281 2.863282 9.980469 11.367187 28.203125 38.875 28.203125 89.121094zm0 0" fill="#f18d46"/><path d="m338.542969 447.121094v39.050781h-190.914063v-39.050781c.554688-5.050782 3.488282-9.53125 7.894532-12.0625 6.40625-4.320313 13.46875-7.574219 20.914062-9.632813 14.105469-4.164062 28.628906-6.753906 43.304688-7.722656 7.464843-.609375 15.273437-.953125 23.34375-.953125 8.070312 0 15.878906.34375 23.34375.953125 14.675781.96875 29.199218 3.558594 43.304687 7.722656 7.445313 2.058594 14.507813 5.3125 20.914063 9.632813 4.40625 2.53125 7.339843 7.011718 7.894531 12.0625zm0 0" fill="#f3d55b"/><path d="m329.867188 447.121094v39.050781h-173.5625v-39.050781c.429687-4.90625 3.074218-9.347656 7.179687-12.0625 5.738281-4.277344 12.171875-7.535156 19.015625-9.632813 12.761719-4.152343 25.980469-6.746093 39.363281-7.722656 6.785157-.609375 13.886719-.953125 21.222657-.953125 7.335937 0 14.4375.34375 21.222656.953125 13.382812.976563 26.601562 3.570313 39.363281 7.722656 6.84375 2.097657 13.277344 5.355469 19.015625 9.632813 4.105469 2.714844 6.75 7.15625 7.179688 12.0625zm0 0" fill="#e4c05c"/><path d="m373.253906 347.324219c0-19.171875-7.769531-34.710938-17.355468-34.710938-9.585938 0-17.355469 15.539063-17.355469 34.710938s7.769531 34.710937 17.355469 34.710937c9.585937 0 17.355468-15.539062 17.355468-34.710937zm0 0" fill="#cb8252"/><path d="m325.785156 197.542969c-3.121094 3.644531-6.332031 7.203125-9.542968 10.671875-2.605469 2.867187-5.902344 5.988281-9.460938 9.375-2.34375 2.253906-4.683594 4.597656-7.027344 7.113281-12.238281 12.933594-22.304687 28.378906-7.289062 43.566406 3.859375 3.933594 9.160156 6.113281 14.671875 6.03125 5.507812-.082031 10.746093-2.417969 14.484375-6.464843 1.734375-1.910157 3.472656-4.082032 5.292968-6.335938.867188-.957031 1.648438-1.910156 2.519532-2.949219 18.046875-22.042969 41.914062-53.457031 49.808594-63.871093" fill="#805333"/><path d="m477.390625 121.699219h-34.710937c-4.792969 0-8.679688-3.886719-8.679688-8.679688s3.886719-8.679687 8.679688-8.679687h34.710937c4.792969 0 8.679687 3.886718 8.679687 8.679687s-3.886718 8.679688-8.679687 8.679688zm0 0" fill="#bdc3c7"/><path d="m434.96875 81.257812c-3.902344.003907-7.328125-2.59375-8.371094-6.351562-1.046875-3.757812.542969-7.75 3.886719-9.761719l33.757813-20.308593c4.105468-2.46875 9.4375-1.144532 11.910156 2.964843 2.46875 4.105469 1.144531 9.4375-2.960938 11.910157l-33.757812 20.304687c-1.347656.8125-2.890625 1.242187-4.464844 1.242187zm0 0" fill="#bdc3c7"/><path d="m413.425781 51.753906c-3.128906-.003906-6.007812-1.691406-7.546875-4.414062-1.535156-2.722656-1.488281-6.058594.121094-8.738282l20.566406-34.191406c1.554688-2.75 4.480469-4.4335935 7.636719-4.40624975 3.15625.03124995 6.046875 1.76953175 7.550781 4.54687475 1.5 2.777344 1.378906 6.148438-.324218 8.808594l-20.566407 34.191406c-1.566406 2.609375-4.390625 4.207031-7.4375 4.203125zm0 0" fill="#bdc3c7"/><path d="m104.238281 121.699219c-4.792969 0-8.679687-3.886719-8.679687-8.679688-.527344-13.964843 4.789062-27.519531 14.667968-37.398437 9.882813-9.882813 23.4375-15.199219 37.402344-14.667969 4.792969-.011719 8.683594 3.867187 8.695313 8.660156.007812 4.792969-3.871094 8.683594-8.660157 8.695313-9.320312-.378906-18.375 3.15625-24.972656 9.746094-6.601562 6.59375-10.144531 15.644531-9.773437 24.964843 0 4.792969-3.886719 8.679688-8.679688 8.679688zm0 0" fill="#67b9cc"/><path d="m234.40625 243.1875c0 4.792969-3.882812 8.679688-8.675781 8.679688s-8.679688-3.886719-8.679688-8.679688 3.886719-8.675781 8.679688-8.675781 8.675781 3.882812 8.675781 8.675781zm0 0" fill="#7f5b53"/><path d="m269.121094 243.1875c0 4.792969-3.886719 8.679688-8.679688 8.679688-4.792968 0-8.675781-3.886719-8.675781-8.679688s3.882813-8.675781 8.675781-8.675781c4.792969 0 8.679688 3.882812 8.679688 8.675781zm0 0" fill="#7f5b53"/><path d="m251.765625 225.832031c0 4.792969-3.886719 8.679688-8.679687 8.679688-4.792969 0-8.679688-3.886719-8.679688-8.679688s3.886719-8.675781 8.679688-8.675781c4.792968 0 8.679687 3.882812 8.679687 8.675781zm0 0" fill="#7f5b53"/><path d="m346.59375 208.058594c-28.921875.566406-56.898438-10.324219-77.828125-30.292969-7.730469-7.773437-14.074219-16.808594-18.765625-26.714844-.683594-1.445312-1.320312-2.992187-1.957031-4.566406-2.726563-6.757813-3.570313-7.429687-4.957031-7.429687-1.386719 0-2.226563.671874-4.957032 7.429687-.636718 1.574219-1.273437 3.121094-1.949218 4.554687-4.691407 9.914063-11.042969 18.953126-18.773438 26.730469-31.101562 31.207031-83.972656 39.277344-128.550781 19.632813-33.550781-14.457032-54.941407-47.859375-54.039063-84.382813 0-93.546875 93.640625-104 94.589844-104.09375l226.492188-.042969c1.816406.136719 95.457031 10.589844 95.457031 104.136719.902343 36.523438-20.488281 69.921875-54.039063 84.382813-15.988281 7.023437-33.257812 10.652344-50.722656 10.65625zm-103.507812-86.359375c13.667968 0 18.289062 11.445312 21.050781 18.285156.507812 1.246094.992187 2.476563 1.535156 3.605469 3.84375 8.128906 9.046875 15.539062 15.378906 21.921875 26.160157 26.242187 71.09375 32.824219 109.265625 16.007812 27.34375-11.578125 44.71875-38.820312 43.683594-68.5 0-78.03125-75.734375-86.5-78.96875-86.824219l-224.277344.042969c-6.746094.800781-78.582031 11.117188-78.582031 86.78125-1.035156 29.679688 16.339844 56.921875 43.683594 68.5 38.164062 16.816407 83.09375 10.242188 109.265625-16.007812 6.335937-6.386719 11.539062-13.800781 15.386718-21.929688.535157-1.121093 1.019532-2.351562 1.527344-3.597656 2.761719-6.839844 7.382813-18.285156 21.050782-18.285156zm0 0" fill="#f0c419"/><path d="m338.542969 486.171875c0-14.378906-42.738281-26.035156-95.457031-26.035156s-95.457032 11.65625-95.457032 26.035156 42.738282 26.035156 95.457032 26.035156 95.457031-11.65625 95.457031-26.035156zm0 0" fill="#805333"/><path d="m329.867188 486.171875c0-14.378906-38.855469-26.035156-86.78125-26.035156-47.925782 0-86.78125 11.65625-86.78125 26.035156s38.855468 26.035156 86.78125 26.035156c47.925781 0 86.78125-11.65625 86.78125-26.035156zm0 0" fill="#b19046"/><path d="m217.050781 486.171875c0 4.792969-3.882812 8.679687-8.675781 8.679687s-8.679688-3.886718-8.679688-8.679687 3.886719-8.679687 8.679688-8.679687 8.675781 3.886718 8.675781 8.679687zm0 0" fill="#805333"/><path d="m251.765625 486.171875c0 4.792969-3.886719 8.679687-8.679687 8.679687-4.792969 0-8.679688-3.886718-8.679688-8.679687s3.886719-8.679687 8.679688-8.679687c4.792968 0 8.679687 3.886718 8.679687 8.679687zm0 0" fill="#805333"/><path d="m286.476562 486.171875c0 4.792969-3.886718 8.679687-8.679687 8.679687s-8.675781-3.886718-8.675781-8.679687 3.882812-8.679687 8.675781-8.679687 8.679687 3.886718 8.679687 8.679687zm0 0" fill="#805333"/></svg>