<svg height="512pt" viewBox="0 -34 512.03163 512" width="512pt" xmlns="http://www.w3.org/2000/svg"><path d="m228.726562 344.355469c8.984376-1.816407 18.140626-2.644531 27.304688-2.472657 9.164062-.171874 18.320312.65625 27.308594 2.472657l2.730468-50.515625c-9.835937-2.351563-19.933593-3.414063-30.039062-3.15625-8.582031-.140625-17.15625.574218-25.601562 2.132812zm0 0" fill="#95a5a5"/><path d="m57.972656 181.285156c-3.328125-14.507812-7.507812-48.128906 18.859375-61.269531 34.132813-17.066406 102.398438-8.53125 110.933594-42.667969 3.964844-17.359375 18.09375-30.558594 35.683594-33.332031 4.042969-.75 6.976562-4.273437 6.980469-8.382813v-27.0625c.027343-4.65625-3.703126-8.46875-8.359376-8.5429682-17.113281-.2304688-55.582031 3.8320312-68.4375 43.1875002-16.726562 51.199218-85.335937 8.535156-119.46875 59.734375-24.488281 36.691406-18.261718 91.050781-12.714843 118.785156" fill="#cb8252"/><path d="m490.613281 221.734375c5.546875-27.734375 11.777344-82.09375-12.714843-118.785156-34.132813-51.199219-102.742188-8.535157-119.46875-59.734375-12.855469-39.355469-51.324219-43.417969-68.433594-43.1914065-4.660156.0742187-8.390625 3.8867185-8.363282 8.5468745v27.0625c.003907 4.109376 2.9375 7.632813 6.980469 8.382813 17.589844 2.773437 31.71875 15.972656 35.683594 33.332031 8.535156 34.136719 76.800781 25.601563 110.933594 42.667969 26.371093 13.140625 22.1875 46.761719 18.859375 61.269531" fill="#cb8252"/><path d="m230.429688 323.535156v-49.917968c0-61.269532-49.664063-110.933594-110.929688-110.933594-61.269531 0-110.933594 49.664062-110.933594 110.933594v51.199218" fill="#f3d55b"/><path d="m213.363281 323.535156v-49.917968c0-61.269532-42.023437-110.933594-93.863281-110.933594-51.84375 0-93.867188 49.664062-93.867188 110.933594v51.199218" fill="#e4c05c"/><path d="m503.5 323.535156v-49.917968c0-61.269532-49.667969-110.933594-110.933594-110.933594-61.269531 0-110.933594 49.664062-110.933594 110.933594v51.199218" fill="#f3d55b"/><path d="m486.429688 323.535156v-49.917968c0-61.269532-42.019532-110.933594-93.863282-110.933594s-93.867187 49.664062-93.867187 110.933594v51.199218" fill="#e4c05c"/><path d="m230.429688 323.632812v1.183594c0 6.050782-.574219 12.089844-1.703126 18.039063-9.21875 47.96875-54.613281 84.359375-109.226562 84.359375-61.269531 0-110.933594-45.84375-110.933594-102.398438-.011718-7.972656.992188-15.914062 2.984375-23.632812 11.519531-45.132813 55.46875-78.769532 107.949219-78.769532 47.757812-1.136718 90.792969 28.6875 106.496094 73.808594 2.863281 8.859375 4.359375 18.101563 4.433594 27.410156zm0 0" fill="#f0c419"/><path d="m204.832031 323.535156v1.28125c0 6.535156-.441406 13.0625-1.3125 19.539063-7.089843 51.96875-42.011719 91.394531-84.019531 91.394531-47.132812 0-85.335938-49.664062-85.335938-110.933594-.011718-8.585937.757813-17.15625 2.296876-25.601562 8.863281-48.894532 42.667968-85.332032 83.039062-85.332032 38.855469 0 71.679688 33.792969 81.917969 79.957032 2.21875 9.746094 3.363281 19.703125 3.414062 29.695312zm0 0" fill="#f3d55b"/><path d="m503.5 324.816406c0 61.265625-49.667969 110.933594-110.933594 110.933594-61.269531 0-110.933594-49.667969-110.933594-110.933594s49.664063-110.933594 110.933594-110.933594c61.265625 0 110.933594 49.667969 110.933594 110.933594zm0 0" fill="#f0c419"/><path d="m477.898438 324.816406c0-56.554687-38.207032-102.402344-85.332032-102.402344-47.128906 0-85.335937 45.847657-85.335937 102.402344 0 56.554688 38.207031 102.398438 85.335937 102.398438 47.125 0 85.332032-45.84375 85.332032-102.398438zm0 0" fill="#f3d55b"/><path d="m187.765625 324.816406c0 37.703125-30.566406 68.265625-68.265625 68.265625-37.703125 0-68.269531-30.5625-68.269531-68.265625s30.566406-68.265625 68.269531-68.265625c37.699219 0 68.265625 30.5625 68.265625 68.265625zm0 0" fill="#67b9cc"/><path d="m460.832031 324.816406c0 37.703125-30.5625 68.265625-68.265625 68.265625s-68.269531-30.5625-68.269531-68.265625 30.566406-68.265625 68.269531-68.265625 68.265625 30.5625 68.265625 68.265625zm0 0" fill="#67b9cc"/><g fill="#e6e7e8"><path d="m119.5 239.484375c-4.714844 0-8.535156-3.824219-8.535156-8.535156v-17.066407c0-4.714843 3.820312-8.535156 8.535156-8.535156 4.710938 0 8.53125 3.820313 8.53125 8.535156v17.066407c0 4.710937-3.820312 8.535156-8.53125 8.535156zm0 0"/><path d="m119.5 444.28125c-4.714844 0-8.535156-3.820312-8.535156-8.53125v-17.066406c0-4.714844 3.820312-8.535156 8.535156-8.535156 4.710938 0 8.53125 3.820312 8.53125 8.535156v17.066406c0 4.710938-3.820312 8.53125-8.53125 8.53125zm0 0"/><path d="m392.566406 239.484375c-4.714844 0-8.535156-3.824219-8.535156-8.535156v-17.066407c0-4.714843 3.820312-8.535156 8.535156-8.535156 4.710938 0 8.53125 3.820313 8.53125 8.535156v17.066407c0 4.710937-3.820312 8.535156-8.53125 8.535156zm0 0"/><path d="m503.5 333.347656h-17.070312c-4.710938 0-8.53125-3.820312-8.53125-8.53125 0-4.714844 3.820312-8.535156 8.53125-8.535156h17.070312c4.710938 0 8.53125 3.820312 8.53125 8.535156 0 4.710938-3.820312 8.53125-8.53125 8.53125zm0 0"/><path d="m298.699219 333.347656h-17.066407c-4.714843 0-8.535156-3.820312-8.535156-8.53125 0-4.714844 3.820313-8.535156 8.535156-8.535156h17.066407c4.710937 0 8.53125 3.820312 8.53125 8.535156 0 4.710938-3.820313 8.53125-8.53125 8.53125zm0 0"/><path d="m392.566406 444.28125c-4.714844 0-8.535156-3.820312-8.535156-8.53125v-17.066406c0-4.714844 3.820312-8.535156 8.535156-8.535156 4.710938 0 8.53125 3.820312 8.53125 8.535156v17.066406c0 4.710938-3.820312 8.53125-8.53125 8.53125zm0 0"/></g><path d="m85.363281 324.816406c-3.449219 0-6.558593-2.082031-7.878906-5.269531s-.59375-6.855469 1.847656-9.296875l17.066407-17.066406c3.347656-3.234375 8.671874-3.1875 11.960937.101562 3.292969 3.292969 3.339844 8.617188.105469 11.964844l-17.066406 17.066406c-1.597657 1.601563-3.769532 2.503906-6.035157 2.5zm0 0" fill="#41767f"/><path d="m93.898438 358.949219c-3.449219 0-6.5625-2.078125-7.882813-5.269531-1.320313-3.1875-.589844-6.855469 1.847656-9.296876l42.667969-42.667968c3.347656-3.234375 8.671875-3.1875 11.960938.105468 3.292968 3.292969 3.339843 8.613282.105468 11.960938l-42.667968 42.667969c-1.597657 1.601562-3.769532 2.503906-6.03125 2.5zm0 0" fill="#41767f"/><path d="m358.429688 324.816406c-3.449219 0-6.558594-2.082031-7.878907-5.269531-1.320312-3.1875-.59375-6.855469 1.847657-9.296875l17.066406-17.066406c3.347656-3.234375 8.671875-3.1875 11.960937.101562 3.292969 3.292969 3.339844 8.617188.105469 11.964844l-17.066406 17.066406c-1.597656 1.601563-3.769532 2.503906-6.035156 2.5zm0 0" fill="#41767f"/><path d="m366.964844 358.949219c-3.449219 0-6.5625-2.078125-7.882813-5.269531-1.320312-3.1875-.589843-6.855469 1.851563-9.296876l42.664062-42.667968c3.347656-3.234375 8.671875-3.1875 11.964844.105468 3.289062 3.292969 3.335938 8.613282.101562 11.960938l-42.667968 42.667969c-1.597656 1.601562-3.765625 2.503906-6.03125 2.5zm0 0" fill="#41767f"/><path d="m25.632812 333.347656h-17.066406c-4.714844 0-8.535156-3.820312-8.535156-8.53125 0-4.714844 3.820312-8.535156 8.535156-8.535156h17.066406c4.710938 0 8.53125 3.820312 8.53125 8.535156 0 4.710938-3.820312 8.53125-8.53125 8.53125zm0 0" fill="#e6e7e8"/><path d="m230.429688 333.347656h-17.066407c-4.710937 0-8.53125-3.820312-8.53125-8.53125 0-4.714844 3.820313-8.535156 8.53125-8.535156h12.570313c2.632812-1.628906 5.941406-1.707031 8.648437-.203125 2.707031 1.507813 4.382813 4.359375 4.382813 7.457031v1.28125c0 4.710938-3.820313 8.53125-8.535156 8.53125zm0 0" fill="#e6e7e8"/><path d="m119.5 444.28125c-61.628906.015625-113.152344-46.851562-118.960938-108.203125-5.808593-61.351563 36-117.054687 96.535157-128.609375 60.535156-11.554688 119.921875 24.832031 137.121093 84.011719 3.082032 10.382812 4.6875 21.152343 4.769532 31.984375v1.351562c0 7.046875-.617188 14.078125-1.835938 21.019532-10.097656 57.03125-59.714844 98.554687-117.628906 98.445312zm0-221.867188c-54.203125.015626-99.007812 42.265626-102.199219 96.371094-3.191406 54.109375 36.335938 101.335938 90.160157 107.71875 53.828124 6.382813 103.304687-30.285156 112.859374-83.636718 1.046876-5.960938 1.574219-12 1.578126-18.050782v-1.242187c-.074219-9.246094-1.449219-18.4375-4.082032-27.300781-12.789062-43.683594-52.800781-73.742188-98.316406-73.859376zm0 0" fill="#b19046"/><path d="m392.566406 444.28125c-65.980468 0-119.46875-53.484375-119.46875-119.464844 0-65.980468 53.488282-119.46875 119.46875-119.46875 65.976563 0 119.464844 53.488282 119.464844 119.46875-.074219 65.949219-53.515625 119.390625-119.464844 119.464844zm0-221.867188c-56.554687 0-102.402344 45.847657-102.402344 102.402344 0 56.554688 45.847657 102.398438 102.402344 102.398438 56.550782 0 102.398438-45.84375 102.398438-102.398438-.0625-56.527344-45.871094-102.335937-102.398438-102.402344zm0 0" fill="#b19046"/></svg>