<svg height="512pt" viewBox="-106 0 512 512.00243" width="512pt" xmlns="http://www.w3.org/2000/svg"><path d="m52.964844 414.898438c-4.875 0-8.824219-3.953126-8.824219-8.828126v-158.894531c0-4.875 3.949219-8.828125 8.824219-8.828125 4.878906 0 8.828125 3.953125 8.828125 8.828125v158.894531c0 4.875-3.949219 8.828126-8.828125 8.828126zm0 0" fill="#bdc3c7"/><path d="m44.140625 406.070312h17.652344c4.875 0 8.828125 3.953126 8.828125 8.828126v35.3125c0 4.875-3.953125 8.824218-8.828125 8.824218h-17.652344c-4.875 0-8.828125-3.949218-8.828125-8.824218v-35.3125c0-4.875 3.953125-8.828126 8.828125-8.828126zm0 0" fill="#cb8252"/><g fill="#7f5b53"><path d="m114.761719 414.898438c-3.800781 0-7.175781-2.433594-8.375-6.039063l-46.523438-139.476563c-1.542969-4.625.957031-9.625 5.582031-11.167968 4.625-1.542969 9.625.957031 11.167969 5.582031l46.519531 139.476563c.894532 2.691406.445313 5.652343-1.214843 7.953124-1.65625 2.300782-4.320313 3.667969-7.15625 3.671876zm0 0"/><path d="m185.378906 414.898438c-2.835937-.003907-5.5-1.371094-7.15625-3.671876-1.660156-2.300781-2.113281-5.261718-1.21875-7.953124l46.523438-139.476563c.996094-2.992187 3.515625-5.222656 6.605468-5.855469 3.089844-.632812 6.28125.433594 8.375 2.792969s2.765626 5.65625 1.769532 8.648437l-46.523438 139.476563c-1.199218 3.605469-4.574218 6.039063-8.375 6.039063zm0 0"/><path d="m132.402344 414.898438c-4.648438-.289063-8.371094-3.964844-8.710938-8.613282l-13.773437-103.28125c-.96875-5.203125 2.257812-10.265625 7.386719-11.578125 2.472656-.273437 4.949218.480469 6.851562 2.085938s3.0625 3.921875 3.210938 6.40625l13.769531 103.285156c.972656 5.199219-2.257813 10.261719-7.382813 11.578125-.445312.078125-.898437.117188-1.351562.117188zm0 0"/><path d="m167.738281 414.898438c-.453125 0-.90625-.039063-1.355469-.117188-5.125-1.316406-8.351562-6.378906-7.382812-11.578125l13.773438-103.285156c.148437-2.484375 1.3125-4.796875 3.210937-6.402344 1.902344-1.601563 4.378906-2.359375 6.851563-2.089844 5.125 1.3125 8.355468 6.375 7.382812 11.578125l-13.769531 103.28125c-.34375 4.644532-4.0625 8.324219-8.710938 8.613282zm0 0"/></g><path d="m150.070312.00390625c82.878907 0 150.070313 67.18749975 150.070313 150.06640575 0 50.085938-24.277344 89.417969-62.902344 119.386719-32.246093 25.023438-63.710937 49.699219-87.167969 83.648438-23.457031-33.949219-54.921874-58.625-87.167968-83.648438-38.625-29.96875-62.902344-69.300781-62.902344-119.386719 0-82.878906 67.1875-150.06640575 150.070312-150.06640575zm0 0" fill="#f9eab0"/><path d="m156.425781.179688c21 7.691406 40.003907 20 55.613281 36.015624 28.3125 29.109376 44.09375 68.148438 43.960938 108.757813 0 51.375-24.273438 91.71875-62.941406 122.4375-32.21875 25.597656-42.988282 40.429687-42.988282 85.714844 0-45.285157-10.769531-60.117188-42.992187-85.714844-38.664063-30.71875-62.9375-71.0625-62.9375-122.4375-.132813-40.609375 15.648437-79.648437 43.960937-108.757813 15.609376-16.015624 34.613282-28.324218 55.613282-36.015624" fill="#f5efca"/><path d="m88.277344 167.726562c-4.875 0-8.828125-3.953124-8.828125-8.828124-.722657-49.457032 15.484375-97.671876 45.929687-136.652344 5.78125-7.171875 12.132813-13.863282 18.996094-20.007813 3.644531-3.242187 9.222656-2.917969 12.464844.722657 3.242187 3.644531 2.917968 9.226562-.722656 12.46875-6.152344 5.5-11.839844 11.5-17.011719 17.929687-27.90625 35.835937-42.722657 80.128906-42 125.539063 0 4.875-3.953125 8.828124-8.828125 8.828124zm0 0" fill="#af8066"/><path d="m150.070312 247.175781c-4.871093 0-8.824218-3.949219-8.828124-8.820312l-.175782-229.515625c-.003906-3.480469 2.035156-6.636719 5.210938-8.0625 3.171875-1.429688 6.886718-.855469 9.488281 1.457031 6.867187 6.148437 13.222656 12.847656 19.003906 20.027344 30.441407 38.976562 46.644531 87.1875 45.921875 136.636719 0 4.875-3.953125 8.828124-8.828125 8.828124s-8.828125-3.953124-8.828125-8.828124c.722656-45.40625-14.089844-89.695313-41.992187-125.527344-.761719-.941406-1.53125-1.871094-2.304688-2.792969l.160157 207.765625c.003906 4.871094-3.945313 8.828125-8.820313 8.832031zm0 0" fill="#af8066"/><path d="m105.933594 459.035156h88.273437v26.484375c0 14.625-11.855469 26.484375-26.480469 26.484375h-35.3125c-14.625 0-26.480468-11.859375-26.480468-26.484375zm0 0" fill="#cb8252"/><path d="m123.585938 459.035156h52.96875v26.484375c0 14.625-11.859376 26.484375-26.484376 26.484375s-26.484374-11.859375-26.484374-26.484375zm0 0" fill="#cc6f56"/><path d="m105.933594 406.070312h88.273437v52.964844h-88.273437zm0 0" fill="#f29c1f"/><path d="m123.585938 406.070312h52.96875v52.964844h-52.96875zm0 0" fill="#f18d46"/></svg>