<svg height="512pt" viewBox="-4 0 512 512.0099" width="512pt" xmlns="http://www.w3.org/2000/svg"><path d="m402.816406 246.71875c23.503906 8.652344 39.292969 30.839844 39.773438 55.882812.480468 25.042969-14.449219 47.816407-37.605469 57.363282l-44.175781-41.046875-.703125-36.890625zm0 0" fill="#804537"/><path d="m404.992188 368.648438c-4.15625.007812-7.734376-2.933594-8.53125-7.011719-.800782-4.078125 1.402343-8.148438 5.253906-9.710938 19.859375-8.175781 32.660156-27.699219 32.246094-49.171875-.414063-21.46875-13.964844-40.484375-34.121094-47.886718-4.386719-1.722657-6.597656-6.632813-4.980469-11.058594 1.617187-4.425782 6.472656-6.75 10.9375-5.238282 26.871094 9.886719 44.925781 35.246094 45.46875 63.875.546875 28.628907-16.53125 54.65625-43.007813 65.558594-1.035156.421875-2.144531.640625-3.265624.644532zm0 0" fill="#cb8252"/><path d="m451.328125 312.410156h-8.679687c-4.792969 0-8.679688-3.886718-8.679688-8.679687s3.886719-8.675781 8.679688-8.675781h8.679687c4.792969 0 8.675781 3.882812 8.675781 8.675781s-3.882812 8.679687-8.675781 8.679687zm0 0" fill="#cb8252"/><path d="m438.03125 289.167969c-4.144531.007812-7.714844-2.917969-8.527344-6.980469-.808594-4.066406 1.371094-8.136719 5.199219-9.71875l8.015625-3.320312c2.867188-1.1875 6.144531-.757813 8.605469 1.128906 2.460937 1.886718 3.726562 4.945312 3.324219 8.019531-.40625 3.074219-2.417969 5.699219-5.285157 6.882813l-8.015625 3.324218c-1.050781.4375-2.179687.664063-3.316406.664063zm0 0" fill="#cb8252"/><path d="m424.859375 269.453125c-3.511719 0-6.671875-2.113281-8.015625-5.355469-1.34375-3.242187-.601562-6.976562 1.878906-9.457031l6.136719-6.136719c2.175781-2.261718 5.40625-3.171875 8.445313-2.378906 3.039062.792969 5.410156 3.167969 6.203124 6.207031.792969 3.039063-.117187 6.265625-2.378906 8.445313l-6.136718 6.132812c-1.625 1.628906-3.832032 2.546875-6.132813 2.542969zm0 0" fill="#cb8252"/><path d="m430.992188 361.5c-2.300782 0-4.511719-.914062-6.136719-2.542969l-6.132813-6.136719c-3.289062-3.40625-3.242187-8.816406.105469-12.164062s8.757813-3.394531 12.164063-.105469l6.136718 6.132813c2.480469 2.484375 3.222656 6.214844 1.878906 9.457031s-4.507812 5.359375-8.015624 5.359375zm0 0" fill="#cb8252"/><path d="m446.039062 338.980469c-1.140624 0-2.265624-.226563-3.320312-.664063l-8.015625-3.320312c-4.390625-1.859375-6.457031-6.910156-4.632813-11.316406 1.824219-4.402344 6.859376-6.511719 11.277344-4.71875l8.015625 3.320312c3.832031 1.582031 6.007813 5.652344 5.199219 9.71875-.808594 4.0625-4.378906 6.988281-8.523438 6.980469zm0 0" fill="#cb8252"/><path d="m119.488281 163.0625c-3.238281.003906-6.207031-1.796875-7.703125-4.664062l-76.019531-145.703126c-2.21875-4.25-.566406-9.492187 3.683594-11.710937 4.25-2.214844 9.492187-.566406 11.707031 3.683594l76.019531 145.703125c1.402344 2.6875 1.300781 5.914062-.273437 8.507812-1.570313 2.59375-4.378906 4.179688-7.414063 4.183594zm0 0" fill="#95a5a5"/><path d="m383.980469 163.0625c-3.035157-.003906-5.84375-1.589844-7.414063-4.183594-1.574218-2.59375-1.675781-5.820312-.273437-8.507812l76.019531-145.703125c2.214844-4.25 7.457031-5.898438 11.707031-3.679688 4.25 2.214844 5.898438 7.457031 3.679688 11.707031l-76.015625 145.703126c-1.5 2.867187-4.46875 4.667968-7.703125 4.664062zm0 0" fill="#95a5a5"/><path d="m202.183594 181.632812c-10.148438-20.898437-31.355469-34.148437-54.585938-34.105468-16.121094-.027344-31.585937 6.363281-42.984375 17.761718-11.398437 11.398438-17.789062 26.867188-17.761719 42.984376-.039062 19.917968 9.730469 38.582031 26.121094 49.898437zm0 0" fill="#e57e25"/><path d="m202.183594 181.632812c-8.589844-20.359374-28.382813-33.734374-50.480469-34.105468-9.109375.023437-18.0625 2.382812-26 6.855468-17.640625 10.855469-28.867187 29.648438-30.066406 50.328126-1.199219 20.679687 7.777343 40.640624 24.046875 53.460937zm0 0" fill="#f29c1f"/><path d="m301.285156 181.632812c10.144532-20.898437 31.351563-34.148437 54.582032-34.105468 16.121093-.027344 31.589843 6.363281 42.988281 17.761718 11.398437 11.398438 17.789062 26.867188 17.757812 42.984376.042969 19.917968-9.726562 38.582031-26.121093 49.898437zm0 0" fill="#e57e25"/><path d="m301.285156 181.632812c8.585938-20.359374 28.382813-33.734374 50.476563-34.105468 9.109375.023437 18.0625 2.382812 26 6.855468 17.644531 10.855469 28.871093 29.648438 30.070312 50.328126 1.199219 20.679687-7.78125 40.640624-24.050781 53.460937zm0 0" fill="#f29c1f"/><path d="m385.199219 512.003906h-8.761719c-.414062.027344-.828125-.03125-1.214844-.175781-1.636718-.175781-3.179687-.839844-4.425781-1.90625l-47.992187-41.136719h-142.144532l-47.988281 41.136719c-1.25 1.066406-2.792969 1.730469-4.425781 1.90625-.386719.144531-.800782.203125-1.214844.175781h-8.765625c-3.019531.007813-5.828125-1.546875-7.417969-4.109375-1.59375-2.566406-1.742187-5.773437-.390625-8.472656l30.023438-59.964844h222.503906l30.027344 59.964844c1.347656 2.699219 1.199219 5.90625-.390625 8.472656-1.59375 2.5625-4.402344 4.117188-7.421875 4.109375zm0 0" fill="#95a5a5"/><path d="m375.222656 511.828125c-1.636718-.175781-3.179687-.839844-4.425781-1.90625l-47.992187-41.136719h-142.144532l-47.988281 41.136719c-1.25 1.066406-2.792969 1.730469-4.425781 1.90625-2.609375-.59375-4.800782-2.359375-5.9375-4.785156-1.136719-2.421875-1.089844-5.234375.121094-7.621094l27.425781-59.964844h203.757812l27.421875 59.964844c1.214844 2.386719 1.257813 5.199219.121094 7.621094-1.132812 2.425781-3.324219 4.191406-5.933594 4.785156zm0 0" fill="#bdc3c7"/><path d="m124.6875 420.539062c-10.6875 8.6875-24.058594 13.410157-37.835938 13.363282-33.546874 0-60.746093-27.199219-60.746093-60.746094 0-33.550781 27.199219-60.746094 60.746093-60.746094 3.199219-.007812 6.390626.253906 9.546876.78125" fill="#805333"/><g fill="#e57e25"><path d="m86.851562 442.578125c-38.339843 0-69.421874-31.082031-69.421874-69.421875 0-38.34375 31.082031-69.425781 69.421874-69.425781 3.675782-.007813 7.347657.292969 10.972657.898437 4.703125.816406 7.867187 5.273438 7.082031 9.980469s-5.222656 7.894531-9.9375 7.140625c-2.679688-.449219-5.398438-.667969-8.117188-.660156-28.753906 0-52.066406 23.308594-52.066406 52.066406 0 28.753906 23.3125 52.066406 52.066406 52.066406 11.773438.023438 23.199219-4.003906 32.351563-11.410156 2.398437-2.003906 5.6875-2.5625 8.613281-1.464844 2.925782 1.101563 5.035156 3.6875 5.523438 6.773438.484375 3.085937-.726563 6.195312-3.171875 8.144531-12.25 9.925781-27.546875 15.332031-43.316407 15.3125zm0 0"/><path d="m86.851562 399.191406c-14.378906 0-26.035156-11.65625-26.035156-26.035156s11.65625-26.035156 26.035156-26.035156c6.625-.035156 13 2.527344 17.757813 7.136718 2.230469 2.15625 3.136719 5.339844 2.382813 8.351563-.757813 3.007813-3.0625 5.382813-6.046876 6.230469-2.984374.847656-6.195312.039062-8.417968-2.125-1.527344-1.460938-3.5625-2.261719-5.675782-2.238282-4.441406-.007812-8.171874 3.339844-8.644531 7.757813-.472656 4.414063 2.46875 8.472656 6.808594 9.40625 4.34375.933594 8.6875-1.566406 10.070313-5.785156.957031-2.949219 3.414062-5.164063 6.449218-5.808594 3.03125-.644531 6.179688.378906 8.253906 2.683594 2.074219 2.304687 2.761719 5.539062 1.804688 8.488281-3.464844 10.730469-13.464844 17.992188-24.742188 17.972656zm0 0"/><path d="m86.851562 451.257812c-4.792968 0-8.675781-3.886718-8.675781-8.679687v-8.675781c0-4.792969 3.882813-8.679688 8.675781-8.679688 4.792969 0 8.679688 3.886719 8.679688 8.679688v8.675781c0 4.792969-3.886719 8.679687-8.679688 8.679687zm0 0"/><path d="m26.105469 381.832031h-8.675781c-4.792969 0-8.679688-3.882812-8.679688-8.675781s3.886719-8.679688 8.679688-8.679688h8.675781c4.792969 0 8.679687 3.886719 8.679687 8.679688s-3.886718 8.675781-8.679687 8.675781zm0 0"/><path d="m22.714844 408.40625c-4.144532.007812-7.714844-2.917969-8.523438-6.984375-.808594-4.0625 1.367188-8.132813 5.199219-9.714844l8.015625-3.324219c2.871094-1.210937 6.171875-.796874 8.648438 1.09375 2.476562 1.890626 3.75 4.964844 3.335937 8.054688-.414063 3.085938-2.453125 5.714844-5.339844 6.886719l-8.015625 3.324219c-1.050781.4375-2.179687.660156-3.320312.664062zm0 0"/><path d="m63.609375 325.714844c-3.511719 0-6.675781-2.113282-8.019531-5.359375l-3.324219-8.015625c-1.832031-4.429688.269531-9.507813 4.695313-11.339844 4.429687-1.835938 9.503906.265625 11.339843 4.695312l3.320313 8.015626c1.109375 2.675781.804687 5.730468-.800782 8.140624-1.609374 2.410157-4.3125 3.859376-7.210937 3.863282zm0 0"/><path d="m37.761719 430.921875c-3.507813 0-6.671875-2.113281-8.015625-5.355469-1.34375-3.242187-.601563-6.976562 1.882812-9.457031l6.132813-6.136719c3.40625-3.289062 8.820312-3.242187 12.167969.105469 3.347656 3.347656 3.394531 8.761719.105468 12.167969l-6.136718 6.132812c-1.625 1.632813-3.832032 2.546875-6.136719 2.542969zm0 0"/><path d="m43.894531 338.878906c-2.300781 0-4.507812-.914062-6.132812-2.542968l-6.136719-6.136719c-2.261719-2.175781-3.171875-5.40625-2.378906-8.445313.792968-3.039062 3.167968-5.410156 6.203125-6.203125 3.039062-.792969 6.269531.117188 8.445312 2.378907l6.136719 6.136718c2.480469 2.484375 3.21875 6.214844 1.878906 9.453125-1.34375 3.242188-4.507812 5.355469-8.015625 5.359375zm0 0"/><path d="m60.28125 445.976562c-2.898438-.003906-5.601562-1.453124-7.210938-3.863281-1.605468-2.410156-1.910156-5.460937-.804687-8.140625l3.324219-8.015625c1.859375-4.390625 6.910156-6.460937 11.3125-4.632812 4.40625 1.824219 6.511718 6.859375 4.71875 11.277343l-3.320313 8.015626c-1.34375 3.246093-4.507812 5.363281-8.019531 5.359374zm0 0"/><path d="m30.726562 358.59375c-1.140624-.003906-2.269531-.230469-3.320312-.667969l-8.015625-3.320312c-2.863281-1.1875-4.878906-3.8125-5.28125-6.886719-.40625-3.074219.859375-6.128906 3.320313-8.015625 2.460937-1.886719 5.742187-2.320313 8.605468-1.132813l8.015625 3.324219c3.832031 1.582031 6.007813 5.652344 5.199219 9.714844-.808594 4.066406-4.382812 6.988281-8.523438 6.984375zm0 0"/><path d="m113.425781 445.976562c-3.515625.003907-6.679687-2.113281-8.023437-5.359374l-3.320313-8.015626c-1.214843-2.871093-.796875-6.171874 1.089844-8.648437 1.890625-2.476563 4.964844-3.75 8.054687-3.335937 3.085938.414062 5.71875 2.453124 6.886719 5.339843l3.324219 8.015625c1.105469 2.679688.804688 5.730469-.804688 8.140625-1.609374 2.410157-4.3125 3.859375-7.207031 3.863281zm0 0"/></g><path d="m407.9375 329.765625c0 86.269531-69.933594 156.203125-156.203125 156.203125s-156.203125-69.933594-156.203125-156.203125 69.933594-156.203125 156.203125-156.203125 156.203125 69.933594 156.203125 156.203125zm0 0" fill="#f0c419"/><path d="m156.277344 36.882812c-6.476563-11.78125-19.179688-18.757812-32.597656-17.902343-13.417969.855469-25.132813 9.386719-30.058594 21.894531-.484375 1.1875-.890625 2.40625-1.214844 3.644531-2.792969 6.074219-7.058594 11.355469-12.410156 15.363281-2.359375 1.835938-4.851563 3.488282-7.460938 4.945313-2.5 1.347656-5.078125 2.535156-7.726562 3.558594-6.355469 2.542969-13.257813 3.410156-20.042969 2.515625-.089844 0-.089844 0-.261719-.085938-.046875 0-.085937-.039062-.085937-.085937-.9375-.144531-1.867188-.347657-2.777344-.609375-.175781 0-.347656-.171875-.523437-.085938-7.917969-1.53125-16.128907-.207031-23.167969 3.730469-13.574219 7.496094-20.535157 23.082031-17.054688 38.191406 3.476563 15.113281 16.554688 26.085938 32.039063 26.890625 15.488281.800782 29.628906-8.757812 34.652344-23.425781 2.585937-6.796875 7.039062-12.722656 12.84375-17.097656 2.4375-1.972657 5.050781-3.714844 7.8125-5.207031 2.324218-1.339844 4.761718-2.472657 7.289062-3.382813 7.109375-2.9375 14.921875-3.722656 22.476562-2.257813 13.351563 3.105469 27.285157-1.9375 35.554688-12.875 8.269531-10.933593 9.335938-25.710937 2.714844-37.71875zm-117.242188 74.804688c-2.710937 1.503906-6.019531 1.445312-8.679687-.152344-2.65625-1.597656-4.261719-4.492187-4.207031-7.589844.054687-3.101562 1.757812-5.941406 4.46875-7.441406 4.195312-2.328125 9.480468-.8125 11.804687 3.382813 2.324219 4.195312.808594 9.476562-3.386719 11.800781zm91.03125-50.417969c-4.191406 2.320313-9.46875.804688-11.792968-3.386719-2.320313-4.191406-.808594-9.472656 3.382812-11.792968 4.191406-2.324219 9.472656-.8125 11.796875 3.378906 2.3125 4.195312.800781 9.46875-3.386719 11.800781zm0 0" fill="#bdc3c7"/><path d="m485.519531 73.765625c-7.042969-3.9375-15.25-5.261719-23.171875-3.730469-.171875-.085937-.347656.085938-.519531.085938-.914063.261718-1.839844.464844-2.777344.609375 0 .046875-.039062.085937-.085937.085937-.175782.085938-.175782.085938-.261719.085938-6.789063.894531-13.691406.027344-20.046875-2.515625-2.644531-1.023438-5.226562-2.210938-7.722656-3.558594-2.609375-1.457031-5.105469-3.109375-7.464844-4.945313-5.347656-4.007812-9.613281-9.289062-12.40625-15.363281-.328125-1.238281-.734375-2.457031-1.214844-3.644531-5.628906-14.214844-19.898437-23.074219-35.136718-21.816406-15.234376 1.261718-27.855469 12.339844-31.074219 27.289062-3.21875 14.945313 3.722656 30.238282 17.09375 37.660156 7.519531 4.199219 16.339843 5.433594 24.730469 3.46875 7.550781-1.464843 15.367187-.679687 22.476562 2.257813 2.523438.910156 4.964844 2.042969 7.289062 3.382813 2.757813 1.492187 5.371094 3.234374 7.808594 5.207031 5.808594 4.375 10.257813 10.300781 12.84375 17.097656 5.035156 14.648437 19.167969 24.1875 34.640625 23.378906 15.46875-.808593 28.527344-11.769531 32.011719-26.863281 3.480469-15.09375-3.460938-30.667969-17.011719-38.171875zm-100.320312-15.878906c-2.324219 4.1875-7.605469 5.703125-11.796875 3.378906-4.1875-2.324219-5.703125-7.605469-3.378906-11.796875 2.320312-4.191406 7.601562-5.707031 11.792968-3.386719 4.183594 2.332031 5.695313 7.609375 3.382813 11.804688zm91.03125 50.417969c-1.09375 2.03125-2.964844 3.539062-5.1875 4.175781-2.21875.636719-4.605469.351562-6.613281-.792969-4.191407-2.324219-5.707032-7.605469-3.382813-11.800781 2.324219-4.195313 7.605469-5.710938 11.800781-3.382813 2.023438 1.105469 3.523438 2.972656 4.160156 5.191406.632813 2.21875.355469 4.597657-.777343 6.609376zm0 0" fill="#bdc3c7"/><path d="m373.226562 329.765625c.023438 50.980469-31.796874 96.550781-79.667968 114.082031-47.871094 17.535156-101.597656 3.300782-134.507813-35.632812-4.328125-5.070313-8.214843-10.5-11.625-16.226563-31.152343-52.179687-18.941406-119.351562 28.578125-157.234375 47.519532-37.878906 115.722656-34.808594 159.644532 7.191406.425781.355469.832031.730469 1.214843 1.128907 23.308594 22.816406 36.417969 54.074219 36.363281 86.691406zm0 0" fill="#f9eab0"/><path d="m347.191406 329.765625c0 62.289063-42.75 112.8125-95.457031 112.8125-29.335937-.667969-56.503906-15.582031-72.820313-39.96875-3.441406-4.769531-6.496093-9.808594-9.136718-15.066406-8.980469-17.929688-13.605469-37.726563-13.5-57.777344 0-62.289063 42.75-112.8125 95.457031-112.8125 25.460937.414063 49.5 11.8125 65.933594 31.265625.335937.332031.652343.679688.953125 1.046875 18.816406 22.570313 28.949218 51.117187 28.570312 80.5zm0 0" fill="#f5efca"/><path d="m251.734375 321.089844c-4.792969 0-8.679687-3.886719-8.679687-8.679688v-60.746094c0-4.792968 3.886718-8.679687 8.679687-8.679687s8.675781 3.886719 8.675781 8.679687v60.746094c0 4.792969-3.882812 8.679688-8.675781 8.679688zm0 0" fill="#805333"/><path d="m269.089844 269.019531c-2.300782.003907-4.511719-.910156-6.136719-2.542969l-11.21875-11.21875-11.222656 11.21875c-3.402344 3.289063-8.816407 3.242188-12.164063-.105468s-3.394531-8.757813-.105468-12.164063l17.355468-17.355469c1.628906-1.628906 3.835938-2.542968 6.136719-2.542968s4.507813.914062 6.132813 2.542968l17.355468 17.355469c2.484375 2.480469 3.226563 6.214844 1.882813 9.457031-1.34375 3.242188-4.507813 5.355469-8.015625 5.355469zm0 0" fill="#805333"/><path d="m291.875 371.605469c-2.015625 0-3.96875-.703125-5.523438-1.988281l-26.761718-22.105469c-2.4375-1.960938-3.632813-5.078125-3.125-8.164063.503906-3.089844 2.628906-5.664062 5.566406-6.742187 2.933594-1.082031 6.222656-.5 8.609375 1.523437l26.761719 22.105469c2.824218 2.332031 3.878906 6.1875 2.640625 9.628906-1.242188 3.445313-4.507813 5.742188-8.167969 5.742188zm0 0" fill="#805333"/><path d="m274.121094 379.457031c-4.632813 0-8.449219-3.640625-8.667969-8.269531s3.242187-8.613281 7.855469-9.046875l15.792968-1.507813-1.507812-15.792968c-.453125-4.769532 3.046875-9.007813 7.820312-9.460938 4.769532-.453125 9.003907 3.046875 9.460938 7.816406l2.328125 24.433594c.453125 4.769532-3.046875 9.003906-7.816406 9.457032l-24.4375 2.328124c-.273438.03125-.550781.042969-.828125.042969zm0 0" fill="#805333"/><path d="m269.089844 329.765625c0 9.585937-7.769532 17.355469-17.355469 17.355469s-17.355469-7.769532-17.355469-17.355469 7.769532-17.355469 17.355469-17.355469 17.355469 7.769532 17.355469 17.355469zm0 0" fill="#b19046"/><path d="m251.734375 459.933594c-38.285156.03125-74.632813-16.847656-99.308594-46.117188-4.640625-5.445312-8.8125-11.269531-12.472656-17.414062-33.347656-55.910156-20.253906-127.859375 30.652344-168.433594s123.964843-37.289062 171.023437 7.691406c.484375.394532.941406.820313 1.367188 1.273438 37.683594 37.058594 49.222656 93.21875 29.203125 142.128906-20.015625 48.910156-67.617188 80.867188-120.464844 80.871094zm0-242.980469c-40.589844-.019531-78.058594 21.777344-98.105469 57.074219s-19.574218 78.640625 1.234375 113.492187c3.171875 5.324219 6.785157 10.371094 10.804688 15.085938 26.835937 31.699219 68.921875 46.082031 109.542969 37.445312 40.625-8.636719 73.214843-38.902343 84.828124-78.777343 11.617188-39.871094.378907-82.90625-29.25-112.007813-.191406-.152344-.949218-.867187-1.121093-1.042969-20.972657-20.082031-48.894531-31.289062-77.933594-31.269531zm0 0" fill="#b19046"/></svg>