<svg height="512pt" viewBox="-53 0 512 512" width="512pt" xmlns="http://www.w3.org/2000/svg"><path d="m387.441406 384.53125c3.992188 6.824219 7.277344 14.042969 9.800782 21.539062-6.082032 11.199219-15.28125 20.398438-26.484376 26.480469-1.921874-7.304687-4.339843-14.472656-7.238281-21.449219-41.402343 43.695313-106.019531 100.898438-160.484375 100.898438-54.46875 0-119.085937-57.203125-160.484375-100.898438-2.898437 6.976563-5.316406 14.144532-7.242187 21.449219-11.199219-6.082031-20.398438-15.28125-26.480469-26.480469 2.523437-7.496093 5.808594-14.714843 9.796875-21.539062-11.738281-13.597656-18.625-22.601562-18.625-22.601562 8.828125-44.136719 52.964844-70.621094 61.792969-150.066407 1.339843-18.226562-.847657-36.539062-6.445313-53.9375-9.507812-29.164062-21.4375-57.480469-35.664062-84.65625-.085938-.089843-.085938-.175781-.175782-.265625v-.089844c-15.800781-32.394531-26.480468-55.257812-10.679687-55.257812 35.308594 0 17.65625 26.480469 61.792969 26.480469 9.15625-.179688 18.242187-1.605469 27.011718-4.234375-.359374 1.382812-.539062 2.804687-.53125 4.234375 0 9.75 7.90625 17.65625 17.65625 17.65625s17.65625-7.90625 17.65625-17.65625c-.039062-5.546875-2.644531-10.765625-7.0625-14.121094 31.074219-12.976563 61.175782-30.015625 77.683594-30.015625 16.507813 0 46.609375 17.039062 77.683594 30.015625-4.417969 3.355469-7.027344 8.574219-7.0625 14.121094 0 9.75 7.902344 17.65625 17.652344 17.65625 9.753906 0 17.65625-7.90625 17.65625-17.65625.007812-1.429688-.167969-2.851563-.527344-4.234375 8.769531 2.628906 17.855469 4.054687 27.011719 4.234375 44.136719 0 26.480469-26.480469 61.792969-26.480469 15.800781 0 5.121093 22.863281-10.683594 55.257812v.089844c-.085938.089844-.085938.175782-.175782.265625-14.222656 27.175781-26.152343 55.492188-35.664062 84.65625-5.59375 17.398438-7.785156 35.710938-6.441406 53.9375 8.824218 79.445313 52.964844 105.929688 61.792968 150.066407 0 0-6.886718 9.003906-18.628906 22.601562zm0 0" fill="#e64c3c"/><path d="m406.070312 361.929688s-6.886718 9.003906-18.628906 22.601562c-4.65625-8.160156-10.257812-15.746094-16.683594-22.601562-11.292968.894531-21.3125 7.578124-26.480468 17.65625 8.316406 9.21875 14.839844 19.90625 19.242187 31.515624-41.402343 43.695313-106.019531 100.898438-160.484375 100.898438v-512c16.507813 0 46.609375 17.039062 77.683594 30.015625-4.417969 3.355469-7.027344 8.574219-7.0625 14.121094.027344 9.738281 7.914062 17.628906 17.652344 17.65625 0 0-8.824219 79.449219 35.3125 97.105469 7.753906 3.40625 16.644531 3.046874 24.097656-.972657-5.59375 17.398438-7.785156 35.710938-6.441406 53.9375 8.824218 79.445313 52.964844 105.929688 61.792968 150.066407zm0 0" fill="#c03a2b"/><path d="m386.382812 73.269531c-14.222656 27.175781-26.152343 55.492188-35.664062 84.65625-7.453125 4.019531-16.34375 4.378907-24.097656.972657-44.136719-17.65625-35.3125-97.105469-35.3125-97.105469 9.742187-.027344 17.628906-7.917969 17.65625-17.65625 0 0 0 61.792969 26.484375 61.792969 34.957031 0 44.402343-24.449219 50.933593-32.660157zm0 0" fill="#802d40"/><path d="m386.558594 72.914062v.089844c-.085938.089844-.085938.175782-.175782.265625-6.53125 8.210938-15.976562 32.660157-50.933593 32.660157-26.484375 0-26.484375-61.792969-26.484375-61.792969.007812-1.429688-.167969-2.851563-.527344-4.234375 8.769531 2.628906 17.855469 4.054687 27.011719 4.234375 44.136719 0 26.480469-26.480469 61.792969-26.480469 15.800781 0 5.121093 22.863281-10.683594 55.257812zm0 0" fill="#59474e"/><path d="m97.632812 39.902344c-.359374 1.382812-.539062 2.804687-.53125 4.234375 0 0 0 61.792969-26.480468 61.792969-34.957032 0-44.402344-24.449219-50.9375-32.660157-.085938-.089843-.085938-.175781-.175782-.265625v-.089844c-15.800781-32.394531-26.480468-55.257812-10.679687-55.257812 35.308594 0 17.65625 26.480469 61.792969 26.480469 9.15625-.179688 18.242187-1.605469 27.011718-4.234375zm0 0" fill="#59474e"/><path d="m61.792969 379.585938c-8.316407 9.21875-14.84375 19.90625-19.242188 31.515624-2.898437 6.976563-5.316406 14.144532-7.242187 21.449219-11.199219-6.082031-20.398438-15.28125-26.480469-26.480469 2.523437-7.496093 5.808594-14.714843 9.796875-21.539062 4.660156-8.160156 10.257812-15.746094 16.683594-22.601562 11.292968.894531 21.316406 7.578124 26.484375 17.65625zm0 0" fill="#c03a2b"/><path d="m397.242188 406.070312c-6.082032 11.199219-15.28125 20.398438-26.484376 26.480469-1.921874-7.304687-4.339843-14.472656-7.238281-21.449219-4.402343-11.609374-10.925781-22.296874-19.242187-31.515624 5.167968-10.078126 15.1875-16.761719 26.480468-17.65625 6.425782 6.855468 12.027344 14.441406 16.683594 22.601562 3.992188 6.824219 7.277344 14.042969 9.800782 21.539062zm0 0" fill="#c03a2b"/><path d="m167.722656 97.101562c-4.875 0-8.824218-3.949218-8.824218-8.824218v-35.3125c0-4.875 3.949218-8.828125 8.824218-8.828125s8.828125 3.953125 8.828125 8.828125v35.3125c0 4.875-3.953125 8.824218-8.828125 8.824218zm0 0" fill="#802d40"/><path d="m238.34375 97.101562c-4.875 0-8.828125-3.949218-8.828125-8.824218v-35.3125c0-4.875 3.953125-8.828125 8.828125-8.828125s8.828125 3.953125 8.828125 8.828125v35.3125c0 4.875-3.953125 8.824218-8.828125 8.824218zm0 0" fill="#802d40"/><path d="m238.34375 88.277344c-10.824219-.785156-20.382812-7.351563-25-17.171875-4.40625-6.617188-6.574219-9.3125-10.308594-9.3125-11.070312 1.75-21.277344 7.039062-29.082031 15.082031-3.464844 3.355469-8.980469 3.308594-12.390625-.105469-3.40625-3.414062-3.441406-8.929687-.078125-12.390625 2.066406-2.074218 20.835937-20.242187 41.550781-20.242187 10.824219.785156 20.382813 7.351562 25 17.171875 4.410156 6.617187 6.578125 9.3125 10.308594 9.3125 4.875 0 8.828125 3.953125 8.828125 8.828125s-3.953125 8.828125-8.828125 8.828125zm0 0" fill="#ecf0f1"/><path d="m167.722656 167.722656c-4.875 0-8.824218-3.949218-8.824218-8.824218v-35.3125c0-4.875 3.949218-8.828126 8.824218-8.828126s8.828125 3.953126 8.828125 8.828126v35.3125c0 4.875-3.953125 8.824218-8.828125 8.824218zm0 0" fill="#802d40"/><path d="m238.34375 167.722656c-4.875 0-8.828125-3.949218-8.828125-8.824218v-35.3125c0-4.875 3.953125-8.828126 8.828125-8.828126s8.828125 3.953126 8.828125 8.828126v35.3125c0 4.875-3.953125 8.824218-8.828125 8.824218zm0 0" fill="#802d40"/><path d="m238.34375 158.898438c-10.824219-.785157-20.382812-7.351563-25-17.175782-4.40625-6.613281-6.574219-9.308594-10.308594-9.308594-11.070312 1.746094-21.277344 7.039063-29.082031 15.082032-3.464844 3.355468-8.980469 3.308594-12.390625-.105469-3.40625-3.414063-3.441406-8.933594-.078125-12.390625 2.066406-2.074219 20.835937-20.242188 41.550781-20.242188 10.824219.785157 20.382813 7.351563 25 17.171876 4.410156 6.617187 6.578125 9.3125 10.308594 9.3125 4.875 0 8.828125 3.953124 8.828125 8.828124s-3.953125 8.828126-8.828125 8.828126zm0 0" fill="#ecf0f1"/><path d="m167.722656 238.34375c-4.875 0-8.824218-3.949219-8.824218-8.828125v-35.308594c0-4.875 3.949218-8.828125 8.824218-8.828125s8.828125 3.953125 8.828125 8.828125v35.308594c0 4.878906-3.953125 8.828125-8.828125 8.828125zm0 0" fill="#802d40"/><path d="m238.34375 238.34375c-4.875 0-8.828125-3.949219-8.828125-8.828125v-35.308594c0-4.875 3.953125-8.828125 8.828125-8.828125s8.828125 3.953125 8.828125 8.828125v35.308594c0 4.878906-3.953125 8.828125-8.828125 8.828125zm0 0" fill="#802d40"/><path d="m238.34375 229.515625c-10.824219-.78125-20.382812-7.347656-25-17.171875-4.40625-6.613281-6.574219-9.308594-10.308594-9.308594-11.070312 1.746094-21.277344 7.039063-29.082031 15.082032-3.464844 3.355468-8.980469 3.304687-12.390625-.109376-3.40625-3.410156-3.441406-8.929687-.078125-12.386718 2.066406-2.074219 20.835937-20.242188 41.550781-20.242188 10.824219.785156 20.382813 7.347656 25 17.171875 4.410156 6.617188 6.578125 9.3125 10.308594 9.3125 4.875 0 8.828125 3.949219 8.828125 8.828125 0 4.875-3.953125 8.824219-8.828125 8.824219zm0 0" fill="#ecf0f1"/><path d="m167.722656 308.964844c-4.875 0-8.824218-3.953125-8.824218-8.828125v-35.308594c0-4.875 3.949218-8.828125 8.824218-8.828125s8.828125 3.953125 8.828125 8.828125v35.308594c0 4.875-3.953125 8.828125-8.828125 8.828125zm0 0" fill="#802d40"/><path d="m238.34375 308.964844c-4.875 0-8.828125-3.953125-8.828125-8.828125v-35.308594c0-4.875 3.953125-8.828125 8.828125-8.828125s8.828125 3.953125 8.828125 8.828125v35.308594c0 4.875-3.953125 8.828125-8.828125 8.828125zm0 0" fill="#802d40"/><path d="m238.34375 300.136719c-10.824219-.78125-20.382812-7.347657-25-17.171875-4.40625-6.617188-6.574219-9.308594-10.308594-9.308594-11.070312 1.746094-21.277344 7.039062-29.082031 15.082031-3.464844 3.355469-8.980469 3.304688-12.390625-.109375-3.40625-3.414062-3.441406-8.929687-.078125-12.386718 2.066406-2.074219 20.835937-20.242188 41.550781-20.242188 10.824219.78125 20.382813 7.347656 25 17.171875 4.410156 6.617187 6.578125 9.3125 10.308594 9.3125 4.875 0 8.828125 3.949219 8.828125 8.824219 0 4.878906-3.953125 8.828125-8.828125 8.828125zm0 0" fill="#ecf0f1"/><path d="m167.722656 379.585938c-4.875 0-8.824218-3.953126-8.824218-8.828126v-35.308593c0-4.875 3.949218-8.828125 8.824218-8.828125s8.828125 3.953125 8.828125 8.828125v35.308593c0 4.875-3.953125 8.828126-8.828125 8.828126zm0 0" fill="#802d40"/><path d="m238.34375 379.585938c-4.875 0-8.828125-3.953126-8.828125-8.828126v-35.308593c0-4.875 3.953125-8.828125 8.828125-8.828125s8.828125 3.953125 8.828125 8.828125v35.308593c0 4.875-3.953125 8.828126-8.828125 8.828126zm0 0" fill="#802d40"/><path d="m238.34375 370.757812c-10.824219-.78125-20.382812-7.347656-25-17.171874-4.40625-6.617188-6.574219-9.308594-10.308594-9.308594-11.070312 1.746094-21.277344 7.039062-29.082031 15.082031-3.464844 3.351563-8.980469 3.304687-12.390625-.109375-3.40625-3.414062-3.441406-8.929688-.078125-12.386719 2.066406-2.074219 20.835937-20.242187 41.550781-20.242187 10.824219.78125 20.382813 7.347656 25 17.171875 4.410156 6.617187 6.578125 9.308593 10.308594 9.308593 4.875 0 8.828125 3.953126 8.828125 8.828126s-3.953125 8.828124-8.828125 8.828124zm0 0" fill="#ecf0f1"/><path d="m167.722656 450.207031c-4.875 0-8.824218-3.953125-8.824218-8.828125v-35.308594c0-4.875 3.949218-8.828124 8.824218-8.828124s8.828125 3.953124 8.828125 8.828124v35.308594c0 4.875-3.953125 8.828125-8.828125 8.828125zm0 0" fill="#802d40"/><path d="m238.34375 450.207031c-4.875 0-8.828125-3.953125-8.828125-8.828125v-35.308594c0-4.875 3.953125-8.828124 8.828125-8.828124s8.828125 3.953124 8.828125 8.828124v35.308594c0 4.875-3.953125 8.828125-8.828125 8.828125zm0 0" fill="#802d40"/><path d="m238.34375 441.378906c-10.824219-.78125-20.382812-7.347656-25-17.171875-4.40625-6.617187-6.574219-9.308593-10.308594-9.308593-11.070312 1.746093-21.277344 7.039062-29.082031 15.078124-3.464844 3.355469-8.980469 3.308594-12.390625-.105468-3.40625-3.414063-3.441406-8.929688-.078125-12.386719 2.066406-2.074219 20.835937-20.242187 41.550781-20.242187 10.824219.78125 20.382813 7.347656 25 17.171874 4.410156 6.617188 6.578125 9.308594 10.308594 9.308594 4.875 0 8.828125 3.953125 8.828125 8.828125s-3.953125 8.828125-8.828125 8.828125zm0 0" fill="#ecf0f1"/><path d="m132.414062 44.136719c0 9.75-7.90625 17.65625-17.65625 17.65625s-17.65625-7.90625-17.65625-17.65625c-.007812-1.429688.171876-2.851563.53125-4.234375 2.140626-8.664063 10.410157-14.363282 19.265626-13.285156 8.859374 1.078124 15.515624 8.597656 15.515624 17.519531zm0 0" fill="#bdc3c7"/><path d="m79.449219 158.898438c-7.753907 3.40625-16.644531 3.046874-24.101563-.972657-9.507812-29.164062-21.4375-57.480469-35.664062-84.65625 6.535156 8.210938 15.980468 32.660157 50.9375 32.660157 26.480468 0 26.480468-61.792969 26.480468-61.792969.03125 9.738281 7.917969 17.628906 17.65625 17.65625 0 0 8.828126 79.449219-35.308593 97.105469zm0 0" fill="#c03a2b"/><path d="m308.964844 44.136719c0 9.75-7.902344 17.65625-17.65625 17.65625-9.75 0-17.652344-7.90625-17.652344-17.65625-.007812-8.921875 6.652344-16.445313 15.511719-17.527344 8.859375-1.078125 17.128906 4.625 19.269531 13.292969.359375 1.382812.535156 2.804687.527344 4.234375zm0 0" fill="#bdc3c7"/><g fill="#2c2f38"><path d="m123.585938 185.378906c0 4.875-3.953126 8.828125-8.828126 8.828125s-8.828124-3.953125-8.828124-8.828125 3.953124-8.828125 8.828124-8.828125 8.828126 3.953125 8.828126 8.828125zm0 0"/><path d="m123.585938 229.515625c0 4.878906-3.953126 8.828125-8.828126 8.828125s-8.828124-3.949219-8.828124-8.828125c0-4.875 3.953124-8.824219 8.828124-8.824219s8.828126 3.949219 8.828126 8.824219zm0 0"/><path d="m105.929688 273.65625c0 4.875-3.949219 8.828125-8.828126 8.828125-4.875 0-8.824218-3.953125-8.824218-8.828125s3.949218-8.828125 8.824218-8.828125c4.878907 0 8.828126 3.953125 8.828126 8.828125zm0 0"/><path d="m79.449219 317.792969c0 4.875-3.953125 8.828125-8.828125 8.828125s-8.828125-3.953125-8.828125-8.828125 3.953125-8.828125 8.828125-8.828125 8.828125 3.953125 8.828125 8.828125zm0 0"/><path d="m300.136719 185.378906c0 4.875-3.949219 8.828125-8.828125 8.828125-4.875 0-8.824219-3.953125-8.824219-8.828125s3.949219-8.828125 8.824219-8.828125c4.878906 0 8.828125 3.953125 8.828125 8.828125zm0 0"/><path d="m300.136719 229.515625c0 4.878906-3.949219 8.828125-8.828125 8.828125-4.875 0-8.824219-3.949219-8.824219-8.828125 0-4.875 3.949219-8.824219 8.824219-8.824219 4.878906 0 8.828125 3.949219 8.828125 8.824219zm0 0"/><path d="m317.792969 273.65625c0 4.875-3.953125 8.828125-8.828125 8.828125s-8.828125-3.953125-8.828125-8.828125 3.953125-8.828125 8.828125-8.828125 8.828125 3.953125 8.828125 8.828125zm0 0"/><path d="m344.277344 317.792969c0 4.875-3.953125 8.828125-8.828125 8.828125s-8.828125-3.953125-8.828125-8.828125 3.953125-8.828125 8.828125-8.828125 8.828125 3.953125 8.828125 8.828125zm0 0"/></g></svg>