<svg height="511pt" viewBox="-52 0 511 511.997" width="511pt" xmlns="http://www.w3.org/2000/svg"><path d="m401.988281 167.191406-90.835937 107.34375v78.566406h-52.964844v-88.277343c-.011719-6.269531 2.210938-12.339844 6.265625-17.125l78.390625-92.601563-134.621094-94.191406-9.179687 8.742188-28.25 27.453124-10.59375-10.59375-25.597657-25.601562 51.90625-53.140625c2.261719-2.265625 4.925782-4.089844 7.855469-5.386719 8.488281-3.875 18.398438-2.96875 26.039063 2.386719l176.554687 123.585937c6.082031 4.285157 10.109375 10.902344 11.121094 18.273438.882813 7.398438-1.320313 14.839844-6.089844 20.566406zm0 0" fill="#bdc3c7"/><path d="m258.1875 335.445312h52.964844c4.875 0 8.828125 3.953126 8.828125 8.828126v35.308593h-70.621094v-35.308593c0-4.875 3.953125-8.828126 8.828125-8.828126zm0 0" fill="#7f8c8d"/><path d="m240.53125 388.410156h88.277344v70.621094h-88.277344zm0 0" fill="#d25627"/><path d="m372.945312 485.425781v26.570313h-176.550781v-26.570313c-.027343-11.707031 4.617188-22.941406 12.902344-31.207031 8.285156-8.269531 19.527344-12.894531 31.234375-12.84375h88.277344c11.703125-.050781 22.945312 4.574219 31.234375 12.84375 8.285156 8.265625 12.929687 19.5 12.902343 31.207031zm0 0" fill="#e57e25"/><path d="m355.289062 485.425781v26.570313h-141.242187v-26.570313c-.003906-5.976562.972656-11.910156 2.898437-17.566406 4.097657-14.808594 17.085938-25.421875 32.414063-26.484375h70.621094c15.324219 1.0625 28.316406 11.675781 32.414062 26.484375 1.921875 5.65625 2.902344 11.589844 2.894531 17.566406zm0 0" fill="#f29c1f"/><path d="m249.359375 406.066406h70.621094v35.308594h-70.621094zm0 0" fill="#e57e25"/><path d="m231.703125 370.753906h105.929687c4.878907 0 8.828126 3.953125 8.828126 8.828125v17.65625c0 4.875-3.949219 8.828125-8.828126 8.828125h-105.929687c-4.875 0-8.828125-3.953125-8.828125-8.828125v-17.65625c0-4.875 3.953125-8.828125 8.828125-8.828125zm0 0" fill="#b19046"/><path d="m240.53125 370.753906h88.277344c4.875 0 8.824218 3.953125 8.824218 8.828125v17.65625c0 4.875-3.949218 8.828125-8.824218 8.828125h-88.277344c-4.875 0-8.828125-3.953125-8.828125-8.828125v-17.65625c0-4.875 3.953125-8.828125 8.828125-8.828125zm0 0" fill="#e4c05c"/><path d="m267.015625 335.445312h35.308594c4.875 0 8.828125 3.953126 8.828125 8.828126v26.480468h-52.964844v-26.480468c0-4.875 3.949219-8.828126 8.828125-8.828126zm0 0" fill="#95a5a5"/><path d="m401.988281 167.191406-90.835937 107.34375v78.566406h-21.714844v-78.566406l90.835938-107.34375c4.769531-5.726562 6.96875-13.167968 6.089843-20.566406-1.011719-7.371094-5.042969-13.988281-11.125-18.273438l-176.550781-123.585937c-1.351562-.949219-2.800781-1.746094-4.324219-2.386719 8.488281-3.875 18.398438-2.96875 26.039063 2.386719l176.554687 123.585937c6.082031 4.285157 10.109375 10.902344 11.121094 18.273438.882813 7.398438-1.320313 14.839844-6.089844 20.566406zm0 0" fill="#95a5a5"/><path d="m152.253906 116.972656c-24.5625 18.65625-42.1875 44.984375-50.082031 74.804688-14.710937 51.640625-68.75 43.558594-87.4375 24.796875-18.691406-18.761719-26.558594-72.835938 25.140625-87.339844 29.847656-7.777344 56.246094-25.300781 75-49.789063zm0 0" fill="#f3d55b"/><path d="m144.863281 117.953125c-20.238281 15.371094-34.757812 37.058594-41.261719 61.625-12.117187 42.542969-56.636718 35.886719-72.03125 20.429687-15.398437-15.457031-21.878906-60.003906 20.707032-71.953124 24.59375-6.40625 46.34375-20.839844 61.796875-41.019532zm0 0" fill="#f0c419"/><path d="m103.390625 66.515625 24.96875-24.964844c3.445313-3.449219 9.035156-3.449219 12.484375 0l49.308594 49.308594c3.445312 3.445313 3.445312 9.035156 0 12.484375l-24.96875 24.964844c-3.449219 3.449218-9.035156 3.449218-12.484375 0l-49.308594-49.308594c-3.449219-3.445312-3.449219-9.035156 0-12.484375zm0 0" fill="#95a5a5"/><g fill="#d25627"><path d="m240.53125 476.6875c-.015625 4.867188-3.957031 8.8125-8.828125 8.828125h-34.425781c-.296875.011719-.597656-.015625-.882813-.089844.003907-6.039062 1.234375-12.015625 3.617188-17.566406h31.691406c4.871094.015625 8.8125 3.957031 8.828125 8.828125zm0 0"/><path d="m372.945312 485.425781c-.289062.074219-.585937.101563-.882812.089844h-96.222656c-4.875 0-8.824219-3.953125-8.824219-8.828125s3.949219-8.828125 8.824219-8.828125h93.484375c2.382812 5.550781 3.613281 11.527344 3.621093 17.566406zm0 0"/></g></svg>