<svg height="511pt" viewBox="0 -63 511.0589 511" width="511pt" xmlns="http://www.w3.org/2000/svg"><path d="m434.40625 249.355469c-12.09375 9.445312-6.972656 19.332031-19.507812 28.6875-12.359376 9.269531-49.789063 23.835937-74.152344 39.371093-.179688.089844-.265625.089844-.355469.179688-45.460937 28.863281-106.460937 60.644531-163.839844 66.382812-88.273437 8.828126-176.550781-44.140624-176.550781-132.414062 0-68.0625 68.238281-83.6875 99.488281-87.21875zm0 0" fill="#35495e"/><path d="m473.84375 19.628906c-26.515625 60.398438-40.503906 125.550782-41.109375 191.515625-31.300781 5.917969-63.140625 8.484375-94.984375 7.65625-64.539062 0-86.234375 28.53125-147.308594 47.765625-7.839844 2.460938-16.496094 4.832032-25.886718 6.925782-43.023438 9.570312-60.980469-8.472657-68.273438-27.800782 1.46875-26.84375.738281-53.765625-2.1875-80.488281-4.933594-50.285156-17.855469-99.457031-38.285156-145.667969 7.660156 9.484375 98.355468-6.316406 209.019531-6.316406 110.296875 0 200.8125 15.800781 209.015625 6.410156zm0 0" fill="#2c3e50"/><path d="m494.34375 242.734375c-22.332031 22.332031-82.359375 38.398437-153.597656 74.679687 24.363281-15.535156 44.136718-30.101562 56.496094-39.371093 12.535156-9.355469 25.070312-19.242188 37.164062-28.6875.175781-.089844.351562-.265625.527344-.355469 1.324218-1.144531 2.648437-2.117188 3.972656-3.085938.097656-.007812.171875-.082031.179688-.179687 17.339843-14.261719 35.820312-27.074219 55.257812-38.308594 26.484375-13.773437 17.65625 17.652344 0 35.308594zm0 0" fill="#2c3e50"/><g fill="#cb8252"><path d="m220.679688 127.976562c-1.496094 0-2.96875-.382812-4.273438-1.113281l-79.449219-44.136719c-2.832031-1.492187-4.636719-4.398437-4.714843-7.601562-.078126-3.199219 1.582031-6.191406 4.339843-7.816406 2.757813-1.625 6.179688-1.632813 8.945313-.015625l79.445312 44.140625c3.519532 1.953125 5.265625 6.039062 4.257813 9.933594-1.011719 3.890624-4.527344 6.609374-8.550781 6.609374zm0 0"/><path d="m141.25 127.976562c-4.023438 0-7.539062-2.71875-8.546875-6.609374-1.011719-3.894532.738281-7.980469 4.253906-9.933594l79.449219-44.140625c2.761719-1.617188 6.183594-1.609375 8.941406.015625 2.757813 1.625 4.417969 4.617187 4.339844 7.816406-.074219 3.203125-1.878906 6.109375-4.714844 7.601562l-79.445312 44.136719c-1.308594.730469-2.78125 1.113281-4.277344 1.113281zm0 0"/><path d="m220.679688 207.425781c-1.496094 0-2.96875-.382812-4.273438-1.113281l-79.449219-44.140625c-2.832031-1.488281-4.636719-4.398437-4.714843-7.597656-.078126-3.199219 1.582031-6.191407 4.339843-7.816407 2.757813-1.625 6.179688-1.632812 8.945313-.015624l79.445312 44.140624c3.519532 1.953126 5.265625 6.039063 4.257813 9.929688-1.011719 3.894531-4.527344 6.613281-8.550781 6.613281zm0 0"/><path d="m141.25 207.425781c-4.023438 0-7.539062-2.71875-8.546875-6.613281-1.011719-3.890625.738281-7.976562 4.253906-9.929688l79.449219-44.140624c2.761719-1.617188 6.183594-1.609376 8.941406.015624 2.757813 1.625 4.417969 4.617188 4.339844 7.816407-.074219 3.199219-1.878906 6.109375-4.714844 7.597656l-79.445312 44.140625c-1.308594.730469-2.78125 1.113281-4.277344 1.113281zm0 0"/><path d="m192.785156 271.335938c-1.496094 0-2.96875-.382813-4.277344-1.109376l-51.550781-28.601562c-4.265625-2.363281-5.804687-7.738281-3.4375-12.003906 2.367188-4.261719 7.742188-5.800782 12.007813-3.433594l51.550781 28.601562c3.519531 1.953126 5.273437 6.039063 4.261719 9.9375-1.007813 3.894532-4.527344 6.613282-8.554688 6.609376zm0 0"/></g><path d="m282.484375 83.835938c-4.878906 0-8.828125-3.949219-8.828125-8.824219 0-4.878907 3.949219-8.828125 8.828125-8.828125.78125 0 79.09375-.105469 121.851563-8.652344 4.757812-.90625 9.359374 2.191406 10.308593 6.9375.949219 4.75-2.101562 9.378906-6.84375 10.375-44.480469 8.890625-122.042969 8.992188-125.316406 8.992188zm0 0" fill="#2c2f38"/><path d="m441.378906 242.734375c-.597656 1.117187-1.375 2.128906-2.292968 3-.007813.097656-.082032.171875-.179688.179687-1.324219.96875-2.648438 1.941407-3.972656 3.085938-.175782.089844-.351563.265625-.527344.355469-22.246094 13.683593-87.128906 23.390625-125.441406 46.34375-30.808594 18.449219-163.398438 81.566406-203.035156 35.3125-52.964844-61.792969-35.308594-97.105469-8.828126-123.585938-1 11.808594.535157 23.699219 4.503907 34.867188 7.0625 18.714843 24.453125 36.191406 66.117187 26.925781 9.09375-2.03125 17.480469-4.328125 25.070313-6.710938 59.144531-18.625 80.15625-46.257812 142.65625-46.257812 30.835937.804688 61.671875-1.683594 91.984375-7.414062 3.527344-.882813 5.117187-1.410157 5.117187-1.410157s17.65625 17.652344 8.828125 35.308594zm0 0" fill="#67b9cc"/><path d="m141.242188 322.183594c-4.875.003906-8.832032-3.945313-8.835938-8.820313-.007812-4.875 3.941406-8.832031 8.816406-8.835937 29.546875-1.503906 58.289063-10.160156 83.75-25.222656 22.871094-14.40625 47.113282-26.503907 72.371094-36.117188 4.617188-1.523438 9.597656.976562 11.136719 5.585938 1.539062 4.609374-.9375 9.597656-5.539063 11.160156-24.015625 9.265625-47.082031 20.820312-68.882812 34.507812-28.152344 16.816406-60.054688 26.351563-92.816406 27.742188zm0 0" fill="#4482c3"/><path d="m474.484375 18.261719c-.011719.09375-.042969.1875-.089844.273437-.027343.421875-.226562.816406-.546875 1.09375-8.203125 9.386719-98.722656 16.859375-209.015625 16.859375-110.664062 0-201.359375-7.476562-209.019531-16.957031l-.550781-1.089844c-.050781-.046875-.082031-.109375-.089844-.179687 0-10.027344 93.890625-18.230469 209.65625-18.230469s209.65625 8.203125 209.65625 18.230469zm0 0" fill="#35495e"/></svg>