<svg height="511.96658pt" viewBox="0 0 511.96658 511.96658" width="511.96658pt" xmlns="http://www.w3.org/2000/svg"><g fill="#7f6e5d"><path d="m192.882812 40.785156-3.820312-18.359375c-1.988281-9.699219 4.230469-19.183593 13.917969-21.230469 9.6875-1.941406 19.144531 4.257813 21.226562 13.917969l3.820313 18.359375"/><path d="m319.070312 471.195312 3.820313 18.359376c1.945313 9.691406-4.253906 19.144531-13.917969 21.226562-9.699218 1.988281-19.179687-4.230469-21.226562-13.917969l-3.816406-18.359375"/><path d="m471.179688 192.894531 18.363281-3.820312c9.699219-1.988281 19.183593 4.230469 21.226562 13.917969 1.941407 9.691406-4.253906 19.144531-13.917969 21.226562l-18.359374 3.820312"/><path d="m40.773438 319.085938-18.363282 3.816406c-4.65625.996094-9.515625.054687-13.464844-2.605469-4.015624-2.5625-6.816406-6.644531-7.761718-11.308594-1.988282-9.699219 4.230468-19.183593 13.917968-21.226562l18.359376-3.820313"/><path d="m363.535156 59.203125 10.28125-15.6875c5.453125-8.261719 16.558594-10.570313 24.851563-5.167969 8.226562 5.476563 10.527343 16.542969 5.171875 24.847656l-10.285156 15.6875"/><path d="m148.417969 452.777344-10.28125 15.683594c-5.480469 8.226562-16.546875 10.527343-24.851563 5.171874-8.261718-5.453124-10.570312-16.554687-5.171875-24.847656l10.285157-15.6875"/><path d="m452.765625 363.546875 15.683594 10.285156c8.261719 5.453125 10.574219 16.554688 5.167969 24.847657-5.476563 8.226562-16.542969 10.527343-24.847657 5.171874l-15.683593-10.285156"/><path d="m59.191406 148.433594-15.6875-10.285156c-8.226562-5.476563-10.527344-16.546876-5.167968-24.851563 5.453124-8.261719 16.550781-10.570313 24.847656-5.167969l15.683594 10.28125"/><path d="m115.328125 81.3125-10.554687-15.503906c-5.546876-8.199219-3.433594-19.339844 4.734374-24.9375 8.210938-5.503906 19.316407-3.394532 24.9375 4.734375l10.554688 15.503906"/><path d="m430.65625 115.34375 15.5-10.558594c8.203125-5.546875 19.34375-3.429687 24.9375 4.734375 5.503906 8.210938 3.394531 19.316407-4.734375 24.9375l-15.503906 10.554688"/><path d="m81.300781 396.636719-15.503906 10.554687c-8.210937 5.503906-19.316406 3.394532-24.9375-4.734375-5.546875-8.199219-3.433594-19.339843 4.734375-24.9375l15.503906-10.554687"/><path d="m280.039062 33.023438 3.5-18.429688c1.875-9.71875 11.246094-16.101562 20.980469-14.285156 4.683594.863281 8.8125 3.59375 11.445313 7.5625 2.726562 3.902344 3.753906 8.746094 2.839844 13.417968l-3.5 18.425782"/><path d="m231.914062 478.957031-3.5 18.425781c-1.910156 9.699219-11.257812 16.0625-20.980468 14.289063-9.71875-1.878906-16.101563-11.25-14.285156-20.984375l3.5-18.421875"/><path d="m478.945312 280.054688 18.425782 3.496093c9.722656 1.875 16.105468 11.25 14.285156 20.980469-1.914062 9.695312-11.257812 16.058594-20.980469 14.285156l-18.421875-3.496094"/><path d="m33.007812 231.925781-18.425781-3.496093c-9.695312-1.914063-16.058593-11.257813-14.285156-20.980469 1.875-9.722657 11.25-16.105469 20.980469-14.289063l18.421875 3.5"/></g><path d="m485.496094 255.988281c0 126.761719-102.761719 229.519531-229.519532 229.519531-126.757812 0-229.515624-102.757812-229.515624-229.519531 0-126.757812 102.757812-229.515625 229.515624-229.515625 126.757813 0 229.519532 102.757813 229.519532 229.515625zm0 0" fill="#e4c05c"/><path d="m467.839844 255.988281c0-126.757812-94.855469-229.515625-211.863282-229.515625-117.007812 0-211.863281 102.757813-211.863281 229.515625 0 126.761719 94.855469 229.519531 211.863281 229.519531 117.007813 0 211.863282-102.757812 211.863282-229.519531zm0 0" fill="#b19046"/><path d="m441.355469 255.988281c0 102.382813-82.996094 185.378907-185.378907 185.378907-102.382812 0-185.378906-82.996094-185.378906-185.378907 0-102.378906 82.996094-185.378906 185.378906-185.378906 102.382813 0 185.378907 83 185.378907 185.378906zm0 0" fill="#7f6e5d"/><path d="m406.046875 255.988281c0 82.882813-67.1875 150.070313-150.070313 150.070313-82.878906 0-150.070312-67.1875-150.070312-150.070313 0-82.878906 67.191406-150.066406 150.070312-150.066406 82.882813 0 150.070313 67.1875 150.070313 150.066406zm0 0" fill="#f9eab0"/><path d="m379.5625 255.988281c0-78.003906-55.332031-141.238281-123.585938-141.238281-68.253906 0-123.585937 63.234375-123.585937 141.238281 0 78.007813 55.332031 141.242188 123.585937 141.242188 68.253907 0 123.585938-63.234375 123.585938-141.242188zm0 0" fill="#f5efca"/><path d="m255.976562 414.886719c-87.753906 0-158.894531-71.140625-158.894531-158.898438 0-87.753906 71.140625-158.894531 158.894531-158.894531 87.757813 0 158.898438 71.140625 158.898438 158.894531-.101562 87.714844-71.183594 158.796875-158.898438 158.898438zm0-300.136719c-78.003906 0-141.242187 63.234375-141.242187 141.238281 0 78.007813 63.238281 141.242188 141.242187 141.242188 78.003907 0 141.242188-63.234375 141.242188-141.242188-.089844-77.96875-63.273438-141.152343-141.242188-141.238281zm0 0" fill="#f3d55b"/><path d="m396.625 430.667969 10.554688 15.503906c5.503906 8.207031 3.394531 19.316406-4.734376 24.933594-8.199218 5.550781-19.339843 3.433593-24.9375-4.730469l-10.554687-15.503906" fill="#7f6e5d"/><path d="m281.046875 231.183594-50.140625 49.613281-33.078125-71.691406c-1.554687-3.371094-.832031-7.355469 1.804687-9.96875 2.636719-2.613281 6.628907-3.296875 9.984376-1.710938zm0 0" fill="#f18d46"/><path d="m302.335938 314.550781-71.429688-33.753906 50.140625-49.613281 33.078125 71.6875c1.554688 3.375.832031 7.355468-1.804688 9.96875-2.636718 2.613281-6.625 3.296875-9.984374 1.710937zm0 0" fill="#805333"/><path d="m255.976562 132.402344c-4.875 0-8.828124-3.949219-8.828124-8.828125v-17.652344c0-4.875 3.953124-8.828125 8.828124-8.828125s8.828126 3.953125 8.828126 8.828125v17.652344c0 4.878906-3.953126 8.828125-8.828126 8.828125zm0 0" fill="#f3d55b"/><path d="m406.046875 264.816406h-17.65625c-4.875 0-8.828125-3.953125-8.828125-8.828125s3.953125-8.828125 8.828125-8.828125h17.65625c4.875 0 8.828125 3.953125 8.828125 8.828125s-3.953125 8.828125-8.828125 8.828125zm0 0" fill="#f3d55b"/><path d="m255.976562 414.886719c-4.875 0-8.828124-3.953125-8.828124-8.828125v-17.65625c0-4.875 3.953124-8.828125 8.828124-8.828125s8.828126 3.953125 8.828126 8.828125v17.65625c0 4.875-3.953126 8.828125-8.828126 8.828125zm0 0" fill="#f3d55b"/><path d="m123.5625 264.816406h-17.65625c-4.875 0-8.824219-3.953125-8.824219-8.828125s3.949219-8.828125 8.824219-8.828125h17.65625c4.875 0 8.828125 3.953125 8.828125 8.828125s-3.953125 8.828125-8.828125 8.828125zm0 0" fill="#f3d55b"/></svg>