<svg height="150pt" viewBox="0 -17 511.98305 511" width="150pt" xmlns="http://www.w3.org/2000/svg"><path d="m483.539062 152.703125c2.082032 47.992187 7.898438 138.9375-12.582031 212.179687-1.128906 4.25-2.429687 8.503907-3.90625 12.667969l-41.132812 71.507813c-21.261719 23.777344-39.917969 29.332031-63.609375 28.636718h-1.476563c-20.390625-.695312-44.691406-5.816406-77.667969-7.550781-2.167968-.085937-4.425781-.261719-6.769531-.347656-5.117187-.257813-10.5-.347656-16.050781-.347656-5.554688 0-10.9375.089843-16.054688.347656-2.34375.085937-4.601562.261719-6.855468.347656-33.671875 1.734375-58.230469 6.941407-78.882813 7.550781-30.808593.867188-53.023437-8.59375-83.742187-55.019531-5.019532-7.65625-9.375-15.726562-13.019532-24.125l-20.738281-74.457031c-9.808593-63.695312-5.554687-131.992188-3.90625-171.390625.347657-8.070313.609375-14.835937.609375-20.21875-.089844-6.027344-.875-12.027344-2.34375-17.875.011719-.125-.019531-.246094-.085937-.347656-10.328125-45.386719-50.160157-101.964844-6.859375-112.8125 5.335937-1.246094 10.882812-1.277344 16.230468-.089844 33.929688 6.769531 73.761719 51.894531 113.59375 51.894531 1.824219 0 3.558594 0 5.207032-.085937.085937.085937.085937.085937.171875 0 .261719.042969.523437.042969.78125 0 17.796875-.675781 35.507812-2.851563 52.9375-6.507813h85.910156c17.683594 3.714844 35.65625 5.890625 53.71875 6.507813.085937.085937.085937.085937.171875 0 1.648438.085937 3.386719.085937 5.207031.085937 39.832031 0 79.664063-45.125 113.59375-51.894531 5.347657-1.1875 10.894531-1.15625 16.230469.089844 43.300781 10.847656 3.46875 67.425781-6.855469 112.8125-.070312.101562-.101562.222656-.089843.347656-1.46875 5.847656-2.253907 11.847656-2.339844 17.875 0 5.382813.257812 12.0625.605468 20.132813zm0 0" fill="#b19046"/><path d="m468.179688 152.703125c1.910156 47.992187 7.375 138.9375-11.714844 212.179687-1.042969 4.25-2.257813 8.503907-3.644532 12.667969l-38.269531 71.507813c-17.703125 21.261718-33.410156 27.941406-52.242187 28.636718h-1.476563c-20.132812.519532-43.996093-5.46875-77.667969-7.550781-2.167968-.085937-4.425781-.261719-6.769531-.347656-5.117187-.257813-10.5-.347656-16.050781-.347656-5.554688 0-10.9375.089843-16.054688.347656-2.34375.085937-4.601562.261719-6.855468.347656-34.367188 2.257813-58.492188 8.332031-78.882813 7.550781-25.253906-.957031-44.867187-12.496093-70.988281-55.019531-4.671875-7.699219-8.707031-15.765625-12.0625-24.125l-19.351562-74.457031c-9.109376-63.695312-5.117188-131.992188-3.644532-171.390625.347656-8.070313.609375-14.835937.609375-20.21875-.113281-6.015625-.839843-12.007813-2.171875-17.875.015625-.125-.015625-.246094-.085937-.347656-9.632813-45.386719-46.773438-101.964844-6.421875-112.8125.085937 0 .175781-.089844.261718-.089844 33.929688 6.769531 73.761719 51.894531 113.59375 51.894531 1.824219 0 3.558594 0 5.207032-.085937.085937.085937.085937.085937.171875 0 .261719.042969.523437.042969.78125 0 .285156.074219.578125.101562.867187.085937 9.171875.09375 18.339844-.484375 27.425782-1.734375 10.066406-1.300781 17.613281-3.296875 27.59375-4.859375h80.011718c9.980469 1.5625 17.527344 3.558594 27.59375 4.859375 9.089844 1.25 18.253906 1.828125 27.425782 1.734375.550781.015625 1.101562-.011718 1.648437-.085937.085937.085937.085937.085937.171875 0 1.648438.085937 3.386719.085937 5.207031.085937 39.832031 0 79.664063-45.125 113.59375-51.894531.089844 0 .175781.089844.261719.089844 40.351562 10.847656 3.210938 67.425781-6.421875 112.8125-.070313.101562-.101563.222656-.085937.347656-1.332032 5.867187-2.058594 11.859375-2.171876 17.875 0 5.382813.261719 12.0625.609376 20.132813zm0 0" fill="#e4c05c"/><path d="m327.941406 51.519531c-10.066406-1.300781-17.613281-3.296875-27.59375-4.859375h-25.6875c43.648438 7.441406 74.328125 47.070313 70.597656 91.191406-3.734374 44.121094-40.636718 78.03125-84.914062 78.03125-44.28125 0-81.183594-33.910156-84.914062-78.03125-3.734376-44.121093 26.945312-83.75 70.59375-91.191406h-25.6875c-9.980469 1.5625-17.527344 3.558594-27.59375 4.859375-33.179688 28.316407-45.195313 74.308594-30.105469 115.234375 15.089843 40.925782 54.085937 68.113282 97.707031 68.113282 43.617188 0 82.613281-27.1875 97.703125-68.113282 15.089844-40.925781 3.074219-86.917968-30.105469-115.234375zm0 0" fill="#b19046"/><path d="m112.816406 356.289062c0 23.964844-19.425781 43.390626-43.390625 43.390626-23.960937 0-43.390625-19.425782-43.390625-43.390626 0-23.960937 19.429688-43.390624 43.390625-43.390624 23.964844 0 43.390625 19.429687 43.390625 43.390624zm0 0" fill="#cbb292"/><path d="m199.597656 399.679688c0 19.171874-15.542968 34.710937-34.714844 34.710937-19.167968 0-34.710937-15.539063-34.710937-34.710937 0-19.171876 15.542969-34.710938 34.710937-34.710938 19.171876 0 34.714844 15.539062 34.714844 34.710938zm0 0" fill="#f29c1f"/><path d="m468.613281 391c0 33.550781-27.195312 60.746094-60.746093 60.746094-33.546876 0-60.746094-27.195313-60.746094-60.746094 0-33.546875 27.199218-60.742188 60.746094-60.742188 33.550781 0 60.746093 27.195313 60.746093 60.742188zm0 0" fill="#e57e25"/><path d="m451.257812 391c0-33.546875-19.425781-60.742188-43.390624-60.742188-23.964844 0-43.390626 27.195313-43.390626 60.742188 0 33.550781 19.425782 60.746094 43.390626 60.746094 23.964843 0 43.390624-27.195313 43.390624-60.746094zm0 0" fill="#f29c1f"/><path d="m347.121094 121.984375c0 47.925781-38.851563 86.78125-86.777344 86.78125-47.929688 0-86.78125-38.855469-86.78125-86.78125s38.851562-86.777344 86.78125-86.777344c47.925781 0 86.777344 38.851563 86.777344 86.777344zm0 0" fill="#ecf0f1"/><path d="m216.953125 295.542969s-8.679687-95.457031-121.492187-78.101563c0 0 8.675781 69.425782 60.746093 69.425782 52.066407 0 60.746094 8.675781 60.746094 8.675781zm0 0" fill="#ecf0f1"/><path d="m303.730469 295.542969s8.679687-95.457031 121.492187-78.101563c0 0-8.675781 69.425782-60.746094 69.425782-52.066406 0-60.746093 8.675781-60.746093 8.675781zm0 0" fill="#ecf0f1"/><path d="m251.664062 208.765625h17.355469c4.792969 0 8.679688 3.882813 8.679688 8.675781v17.355469c0 4.792969-3.886719 8.679687-8.679688 8.679687h-17.355469c-4.792968 0-8.679687-3.886718-8.679687-8.679687v-17.355469c0-4.792968 3.886719-8.675781 8.679687-8.675781zm0 0" fill="#805333"/><path d="m260.34375 382.324219c-20.367188 0-38.816406-17.859375-40.847656-19.898438-3.394532-3.386719-3.398438-8.882812-.011719-12.273437s8.882813-3.398438 12.273437-.011719c7.671876 7.90625 17.703126 13.109375 28.585938 14.828125 10.878906-1.71875 20.910156-6.921875 28.582031-14.828125 3.390625-3.386719 8.886719-3.378906 12.273438.011719s3.382812 8.886718-.011719 12.273437c-2.03125 2.039063-20.480469 19.898438-40.84375 19.898438zm0 0" fill="#b19046"/><g fill="#805333"><path d="m407.867188 460.425781c-38.339844 0-69.421876-31.082031-69.421876-69.425781 0-38.339844 31.082032-69.421875 69.421876-69.421875 38.34375 0 69.425781 31.082031 69.425781 69.421875-.046875 38.324219-31.101563 69.382812-69.425781 69.425781zm0-121.492187c-21.058594 0-40.046876 12.6875-48.105469 32.144531-8.058594 19.453125-3.601563 41.851563 11.289062 56.742187 14.890625 14.890626 37.285157 19.34375 56.742188 11.285157 19.457031-8.058594 32.140625-27.042969 32.140625-48.105469-.03125-28.742188-23.324219-52.035156-52.066406-52.066406zm0 0"/><path d="m407.867188 417.035156c-10.53125 0-20.023438-6.34375-24.050782-16.070312-4.03125-9.730469-1.804687-20.925782 5.640625-28.371094 7.445313-7.445312 18.644531-9.671875 28.375-5.644531 9.726563 4.03125 16.070313 13.523437 16.070313 24.050781-.015625 14.375-11.664063 26.019531-26.035156 26.035156zm0-34.710937c-4.792969 0-8.679688 3.886719-8.679688 8.675781 0 4.792969 3.886719 8.679688 8.679688 8.679688 4.792968 0 8.679687-3.886719 8.679687-8.679688-.003906-4.789062-3.886719-8.671875-8.679687-8.675781zm0 0"/><path d="m407.867188 338.933594c-4.792969 0-8.679688-3.886719-8.679688-8.675782v-8.679687c0-4.792969 3.886719-8.679687 8.679688-8.679687 4.792968 0 8.679687 3.886718 8.679687 8.679687v8.679687c0 4.789063-3.886719 8.675782-8.679687 8.675782zm0 0"/><path d="m407.867188 469.101562c-4.792969 0-8.679688-3.882812-8.679688-8.675781v-8.679687c0-4.792969 3.886719-8.675782 8.679688-8.675782 4.792968 0 8.679687 3.882813 8.679687 8.675782v8.679687c0 4.792969-3.886719 8.675781-8.679687 8.675781zm0 0"/><path d="m477.292969 399.679688h-8.679688c-4.792969 0-8.679687-3.886719-8.679687-8.679688 0-4.789062 3.886718-8.675781 8.679687-8.675781h8.679688c4.789062 0 8.675781 3.886719 8.675781 8.675781 0 4.792969-3.886719 8.679688-8.675781 8.679688zm0 0"/><path d="m347.121094 399.679688h-8.675782c-4.792968 0-8.679687-3.886719-8.679687-8.679688 0-4.789062 3.886719-8.675781 8.679687-8.675781h8.675782c4.792968 0 8.679687 3.886719 8.679687 8.675781 0 4.792969-3.886719 8.679688-8.679687 8.679688zm0 0"/><path d="m343.730469 426.25c-4.140625.007812-7.710938-2.917969-8.519531-6.984375-.808594-4.0625 1.367187-8.132813 5.199218-9.714844l8.015625-3.320312c4.417969-1.792969 9.453125.316406 11.277344 4.71875 1.828125 4.40625-.242187 9.457031-4.632813 11.316406l-8.015624 3.320313c-1.054688.4375-2.183594.664062-3.324219.664062zm0 0"/><path d="m463.984375 376.4375c-4.140625.003906-7.710937-2.917969-8.519531-6.984375-.808594-4.0625 1.371094-8.132813 5.199218-9.714844l8.015626-3.320312c2.867187-1.1875 6.144531-.757813 8.605468 1.128906 2.460938 1.886719 3.726563 4.945313 3.320313 8.019531-.402344 3.074219-2.417969 5.699219-5.28125 6.882813l-8.015625 3.324219c-1.054688.4375-2.183594.664062-3.324219.664062zm0 0"/><path d="m384.621094 343.5625c-3.511719-.003906-6.675782-2.117188-8.015625-5.363281l-3.324219-8.015625c-1.832031-4.425782.269531-9.503906 4.695312-11.339844 4.429688-1.832031 9.503907.269531 11.339844 4.695312l3.320313 8.019532c1.109375 2.675781.804687 5.730468-.804688 8.140625-1.609375 2.410156-4.3125 3.859375-7.210937 3.863281zm0 0"/><path d="m434.433594 463.824219c-3.507813 0-6.671875-2.117188-8.015625-5.359375l-3.320313-8.019532c-1.792968-4.417968.316406-9.453124 4.71875-11.277343s9.457032.246093 11.3125 4.636719l3.324219 8.015624c1.105469 2.675782.804687 5.730469-.804687 8.140626-1.609376 2.410156-4.316407 3.859374-7.214844 3.863281zm0 0"/><path d="m358.773438 448.769531c-3.507813 0-6.671876-2.117187-8.015626-5.359375-1.34375-3.242187-.601562-6.972656 1.878907-9.453125l6.136719-6.136719c3.40625-3.289062 8.820312-3.242187 12.164062.105469 3.347656 3.347657 3.394531 8.757813.109375 12.164063l-6.136719 6.136718c-1.625 1.628907-3.832031 2.542969-6.136718 2.542969zm0 0"/><path d="m450.824219 356.722656c-3.511719 0-6.671875-2.113281-8.015625-5.355468-1.34375-3.242188-.601563-6.976563 1.878906-9.457032l6.136719-6.136718c2.1875-2.207032 5.390625-3.074219 8.394531-2.277344 3.007812.800781 5.351562 3.148437 6.152344 6.152344.800781 3.003906-.066406 6.207031-2.273438 8.398437l-6.136718 6.132813c-1.625 1.632812-3.835938 2.546874-6.136719 2.542968zm0 0"/><path d="m364.910156 356.722656c-2.300781.003906-4.507812-.910156-6.132812-2.542968l-6.136719-6.132813c-2.261719-2.179687-3.171875-5.410156-2.378906-8.445313.792969-3.039062 3.164062-5.414062 6.203125-6.207031 3.039062-.792969 6.269531.121094 8.445312 2.382813l6.136719 6.136718c2.480469 2.480469 3.222656 6.210938 1.878906 9.453126-1.339843 3.246093-4.503906 5.359374-8.015625 5.359374zm0 0"/><path d="m456.960938 448.769531c-2.300782 0-4.511719-.914062-6.136719-2.542969l-6.132813-6.136718c-3.289062-3.40625-3.242187-8.816406.105469-12.164063 3.347656-3.347656 8.757813-3.394531 12.164063-.105469l6.136718 6.136719c2.480469 2.480469 3.222656 6.210938 1.878906 9.453125-1.34375 3.242188-4.507812 5.359375-8.015624 5.359375zm0 0"/><path d="m381.300781 463.824219c-2.898437-.003907-5.601562-1.453125-7.210937-3.863281-1.613282-2.410157-1.914063-5.464844-.808594-8.140626l3.324219-8.015624c1.859375-4.390626 6.910156-6.460938 11.3125-4.636719 4.40625 1.824219 6.511719 6.859375 4.71875 11.277343l-3.320313 8.019532c-1.34375 3.242187-4.507812 5.359375-8.015625 5.359375zm0 0"/><path d="m431.113281 343.5625c-2.898437-.003906-5.601562-1.453125-7.210937-3.863281-1.609375-2.410157-1.914063-5.464844-.804688-8.140625l3.320313-8.019532c1.835937-4.425781 6.910156-6.527343 11.339843-4.695312 4.425782 1.835938 6.53125 6.914062 4.695313 11.339844l-3.324219 8.015625c-1.339844 3.246093-4.503906 5.359375-8.015625 5.363281zm0 0"/><path d="m351.75 376.4375c-1.140625 0-2.269531-.226562-3.324219-.664062l-8.015625-3.324219c-2.863281-1.183594-4.878906-3.808594-5.28125-6.882813-.40625-3.074218.859375-6.132812 3.320313-8.019531 2.460937-1.886719 5.742187-2.316406 8.605469-1.128906l8.015624 3.320312c3.832032 1.582031 6.007813 5.652344 5.199219 9.714844-.808593 4.066406-4.378906 6.988281-8.519531 6.984375zm0 0"/><path d="m472.003906 426.25c-1.140625 0-2.269531-.226562-3.324218-.664062l-8.015626-3.320313c-4.390624-1.859375-6.457031-6.910156-4.632812-11.316406 1.824219-4.402344 6.859375-6.511719 11.277344-4.71875l8.015625 3.320312c3.832031 1.582031 6.007812 5.652344 5.199219 9.714844-.808594 4.066406-4.378907 6.992187-8.519532 6.984375zm0 0"/><path d="m164.882812 439.039062c-15.917968 0-30.269531-9.585937-36.363281-24.292968-6.09375-14.710938-2.726562-31.640625 8.527344-42.898438 11.257813-11.253906 28.1875-14.625 42.894531-8.53125 14.710938 6.089844 24.300782 20.445313 24.300782 36.363282-.023438 21.726562-17.628907 39.335937-39.359376 39.359374zm0-61.363281c-8.898437 0-16.921874 5.359375-20.328124 13.582031-3.410157 8.222657-1.527344 17.6875 4.765624 23.980469 6.292969 6.292969 15.757813 8.175781 23.980469 4.769531 8.222657-3.40625 13.582031-11.429687 13.582031-20.328124-.011718-12.144532-9.855468-21.988282-22-22.003907zm0 0"/><path d="m164.894531 377.675781c-4.027343.007813-7.53125-2.761719-8.457031-6.679687-.929688-3.917969.960938-7.960938 4.566406-9.761719l20.457032-10.222656c4.285156-2.144531 9.5-.40625 11.640624 3.878906 2.144532 4.289063.40625 9.5-3.878906 11.644531l-20.457031 10.226563c-1.203125.601562-2.527344.914062-3.871094.914062zm0 0"/><path d="m144.4375 449.265625c-4.03125.003906-7.53125-2.761719-8.460938-6.679687-.925781-3.921876.964844-7.960938 4.570313-9.761719l20.457031-10.226563c4.285156-2.140625 9.5-.40625 11.644532 3.882813 2.140624 4.289062.40625 9.5-3.882813 11.644531l-20.457031 10.222656c-1.203125.605469-2.527344.917969-3.871094.917969zm0 0"/><path d="m143.1875 386.667969c-2.785156-.003907-5.402344-1.347657-7.03125-3.609375-1.628906-2.261719-2.074219-5.167969-1.195312-7.816406l7.230468-21.695313c.976563-2.9375 3.449219-5.132813 6.488282-5.753906 3.035156-.621094 6.171874.421875 8.226562 2.742187 2.054688 2.316406 2.71875 5.554688 1.742188 8.496094l-7.230469 21.695312c-1.175781 3.546876-4.492188 5.941407-8.230469 5.941407zm0 0"/><path d="m179.351562 451.75c-2.789062-.003906-5.40625-1.34375-7.035156-3.605469s-2.074218-5.171875-1.195312-7.816406l7.230468-21.695313c1.511719-4.542968 6.425782-7 10.96875-5.488281 4.542969 1.515625 7 6.425781 5.488282 10.972657l-7.230469 21.695312c-1.175781 3.546875-4.492187 5.941406-8.226563 5.9375zm0 0"/><path d="m134.214844 408.359375c-3.289063.003906-6.300782-1.855469-7.769532-4.796875l-10.230468-20.457031c-1.386719-2.773438-1.1875-6.078125.519531-8.664063 1.710937-2.585937 4.667969-4.066406 7.761719-3.882812 3.097656.1875 5.859375 2.011718 7.246094 4.785156l10.226562 20.453125c1.347656 2.6875 1.203125 5.882813-.375 8.441406-1.578125 2.558594-4.371094 4.117188-7.378906 4.121094zm0 0"/><path d="m205.800781 428.8125c-3.292969 0-6.300781-1.855469-7.773437-4.796875l-10.226563-20.453125c-2.144531-4.289062-.40625-9.5 3.878907-11.644531 4.289062-2.144531 9.5-.40625 11.644531 3.878906l10.230469 20.457031c1.34375 2.6875 1.199218 5.878906-.378907 8.4375s-4.371093 4.117188-7.375 4.121094zm0 0"/><path d="m143.1875 430.058594c-.929688-.003906-1.859375-.152344-2.742188-.453125l-21.695312-7.230469c-2.941406-.980469-5.136719-3.457031-5.757812-6.496094-.621094-3.035156.425781-6.175781 2.746093-8.230468 2.320313-2.058594 5.5625-2.71875 8.5-1.738282l21.695313 7.230469c4.046875 1.34375 6.519531 5.421875 5.835937 9.628906-.683593 4.207031-4.320312 7.292969-8.582031 7.289063zm0 0"/><path d="m208.273438 393.898438c-.933594 0-1.859376-.152344-2.746094-.449219l-21.695313-7.230469c-4.546875-1.515625-7.003906-6.433594-5.484375-10.980469 1.515625-4.546875 6.429688-7.003906 10.976563-5.484375l21.695312 7.230469c4.046875 1.339844 6.519531 5.421875 5.835938 9.628906-.683594 4.207031-4.320313 7.292969-8.582031 7.285157zm0 0"/></g><path d="m69.425781 407.921875c-28.515625 0-51.632812-23.117187-51.632812-51.632813 0-28.515624 23.117187-51.632812 51.632812-51.632812s51.636719 23.117188 51.636719 51.632812c-.03125 28.503907-23.132812 51.605469-51.636719 51.632813zm0-85.910156c-18.929687 0-34.277343 15.347656-34.277343 34.277343 0 18.933594 15.347656 34.277344 34.277343 34.277344 18.933594 0 34.277344-15.34375 34.277344-34.277344-.019531-18.921874-15.355469-34.253906-34.277344-34.277343zm0 0" fill="#7f6e5d"/><path d="m69.433594 322.011719c-4.023438.003906-7.527344-2.761719-8.453125-6.679688-.929688-3.917969.960937-7.960937 4.566406-9.761719l28.636719-14.316406c4.285156-2.144531 9.5-.40625 11.644531 3.878906 2.140625 4.289063.40625 9.5-3.882813 11.644532l-28.636718 14.320312c-1.203125.601563-2.527344.914063-3.875.914063zm0 0" fill="#7f6e5d"/><path d="m40.800781 422.242188c-4.027343.003906-7.527343-2.761719-8.457031-6.679688-.925781-3.917969.964844-7.960938 4.566406-9.761719l28.636719-14.316406c4.285156-2.144531 9.5-.40625 11.644531 3.878906 2.144532 4.289063.40625 9.5-3.882812 11.644531l-28.636719 14.320313c-1.199219.601563-2.527344.914063-3.871094.914063zm0 0" fill="#7f6e5d"/><path d="m26.476562 364.96875c-3.289062.003906-6.296874-1.855469-7.769531-4.796875l-14.3125-28.636719c-2.144531-4.289062-.40625-9.5 3.878907-11.644531 4.289062-2.144531 9.5-.40625 11.644531 3.878906l14.3125 28.640625c1.347656 2.6875 1.203125 5.878906-.375 8.4375-1.582031 2.558594-4.371094 4.117188-7.378907 4.121094zm0 0" fill="#7f6e5d"/><path d="m126.707031 393.605469c-3.289062.003906-6.300781-1.855469-7.773437-4.796875l-14.3125-28.636719c-2.144532-4.289063-.40625-9.5 3.882812-11.644531 4.285156-2.144532 9.5-.40625 11.644532 3.882812l14.3125 28.636719c1.34375 2.6875 1.203124 5.878906-.378907 8.4375-1.578125 2.558594-4.371093 4.117187-7.375 4.121094zm0 0" fill="#7f6e5d"/><path d="m39.054688 395.34375c-.933594 0-1.863282-.152344-2.746094-.449219l-30.375-10.121093c-4.546875-1.515626-7-6.433594-5.484375-10.980469s6.429687-7.003907 10.976562-5.484375l30.375 10.121094c4.042969 1.339843 6.515625 5.421874 5.832031 9.628906-.679687 4.207031-4.316406 7.292968-8.578124 7.285156zm0 0" fill="#7f6e5d"/><path d="m130.171875 344.722656c-.933594 0-1.859375-.152344-2.746094-.449218l-30.371093-10.125c-2.941407-.980469-5.136719-3.457032-5.757813-6.492188-.621094-3.039062.425781-6.175781 2.746094-8.234375 2.320312-2.054687 5.5625-2.71875 8.503906-1.738281l30.371094 10.125c4.046875 1.339844 6.519531 5.417968 5.835937 9.625-.683594 4.207031-4.320312 7.296875-8.582031 7.289062zm0 0" fill="#7f6e5d"/><path d="m30.375 325.917969c0-.933594.152344-1.863281.449219-2.746094l10.125-30.375c1.515625-4.546875 6.429687-7.003906 10.976562-5.484375 4.546875 1.515625 7.003907 6.429688 5.488281 10.976562l-10.125 30.375c-1.339843 4.042969-5.417968 6.515626-9.625 5.832032-4.207031-.679688-7.296874-4.316406-7.289062-8.578125zm0 0" fill="#7f6e5d"/><path d="m80.996094 417.035156c0-.933594.152344-1.859375.449218-2.746094l10.121094-30.371093c1.515625-4.546875 6.433594-7.003907 10.980469-5.488281 4.546875 1.515624 7.003906 6.433593 5.488281 10.980468l-10.125 30.371094c-1.339844 4.046875-5.421875 6.519531-9.628906 5.835938-4.207031-.683594-7.292969-4.320313-7.285156-8.582032zm0 0" fill="#7f6e5d"/><path d="m78.105469 356.289062c0 4.792969-3.886719 8.679688-8.679688 8.679688s-8.675781-3.886719-8.675781-8.679688c0-4.792968 3.882812-8.675781 8.675781-8.675781s8.679688 3.882813 8.679688 8.675781zm0 0" fill="#7f6e5d"/><path d="m132.6875 173.707031c-11.546875 3.613281-23.5625 5.515625-35.664062 5.640625-14.238282.238282-28.277344-3.390625-40.613282-10.5-7.253906-4.300781-13.761718-9.753906-19.265625-16.144531.347657-8.070313.609375-14.835937.609375-20.21875-.089844-6.027344-.875-12.027344-2.34375-17.875 5 16.261719 15.609375 30.222656 29.9375 39.398437 16.402344 9.542969 37.316406 10.585938 62.308594 3.035157 4.601562-1.390625 9.457031 1.214843 10.847656 5.816406s-1.214844 9.457031-5.816406 10.847656zm0 0" fill="#b19046"/><path d="m482.933594 132.484375c0 5.382813.257812 12.0625.605468 20.132813v.085937c-5.503906 6.390625-12.007812 11.84375-19.265624 16.144531-12.335938 7.109375-26.375 10.738282-40.613282 10.5-12.101562-.125-24.117187-2.027344-35.664062-5.640625-4.601563-1.390625-7.207032-6.246093-5.816406-10.847656 1.390624-4.601563 6.246093-7.207031 10.847656-5.816406 24.992187 7.464843 45.90625 6.507812 62.308594-3.035157 14.3125-9.195312 24.917968-23.148437 29.9375-39.398437-1.46875 5.847656-2.253907 11.847656-2.339844 17.875zm0 0" fill="#b19046"/><path d="m260.34375 69.917969c-4.792969 0-8.679688-3.886719-8.679688-8.679688v-26.03125c0-4.792969 3.886719-8.679687 8.679688-8.679687 4.789062 0 8.675781 3.886718 8.675781 8.679687v26.03125c0 4.792969-3.886719 8.679688-8.675781 8.679688zm0 0" fill="#d25627"/><path d="m225.640625 70.539062c-3.105469.003907-5.976563-1.648437-7.527344-4.339843l-8.679687-15.027344c-1.546875-2.6875-1.546875-5.996094.003906-8.679687 1.550781-2.6875 4.414062-4.339844 7.515625-4.339844s5.964844 1.65625 7.515625 4.339844l8.679688 15.03125c1.546874 2.683593 1.546874 5.988281 0 8.675781-1.546876 2.683593-4.410157 4.339843-7.507813 4.339843zm0 0" fill="#bdc3c7"/><path d="m200.214844 95.949219c-1.519532.003906-3.015625-.398438-4.332032-1.160157l-15.03125-8.675781c-2.6875-1.550781-4.339843-4.417969-4.34375-7.515625 0-3.101562 1.65625-5.96875 4.339844-7.519531 2.6875-1.550781 5.996094-1.550781 8.679688 0l15.035156 8.679687c3.40625 1.960938 5.0625 5.96875 4.046875 9.765626-1.019531 3.796874-4.464844 6.433593-8.394531 6.425781zm0 0" fill="#bdc3c7"/><path d="m199.597656 130.664062h-26.035156c-4.792969 0-8.679688-3.886718-8.679688-8.679687s3.886719-8.675781 8.679688-8.675781h26.035156c4.792969 0 8.675782 3.882812 8.675782 8.675781s-3.882813 8.679687-8.675782 8.679687zm0 0" fill="#d25627"/><path d="m185.199219 174.050781c-3.933594.007813-7.375-2.628906-8.394531-6.425781-1.019532-3.796875.640624-7.804688 4.046874-9.765625l15.03125-8.679687c2.6875-1.550782 5.996094-1.550782 8.679688 0 2.6875 1.550781 4.339844 4.417968 4.339844 7.519531 0 3.097656-1.652344 5.964843-4.339844 7.515625l-15.035156 8.675781c-1.316406.761719-2.808594 1.164063-4.328125 1.160156zm0 0" fill="#bdc3c7"/><path d="m216.945312 205.8125c-3.101562 0-5.964843-1.65625-7.511718-4.339844s-1.546875-5.992187 0-8.675781l8.679687-15.03125c2.394531-4.148437 7.703125-5.574219 11.855469-3.175781 4.152344 2.394531 5.574219 7.703125 3.179688 11.855468l-8.679688 15.03125c-1.550781 2.6875-4.421875 4.339844-7.523438 4.335938zm0 0" fill="#bdc3c7"/><path d="m260.34375 217.441406c-4.792969 0-8.679688-3.882812-8.679688-8.675781v-26.035156c0-4.792969 3.886719-8.679688 8.679688-8.679688 4.789062 0 8.675781 3.886719 8.675781 8.679688v26.035156c0 4.792969-3.886719 8.675781-8.675781 8.675781zm0 0" fill="#d25627"/><path d="m303.742188 205.8125c-3.105469.003906-5.976563-1.648438-7.527344-4.335938l-8.679688-15.03125c-2.394531-4.152343-.972656-9.460937 3.179688-11.855468 4.152344-2.398438 9.460937-.972656 11.855468 3.175781l8.679688 15.03125c1.546875 2.683594 1.550781 5.992187 0 8.675781-1.546875 2.683594-4.410156 4.339844-7.507812 4.339844zm0 0" fill="#bdc3c7"/><path d="m335.484375 174.050781c-1.519531.003907-3.011719-.398437-4.328125-1.160156l-15.035156-8.675781c-4.152344-2.398438-5.574219-7.707032-3.175782-11.855469 2.394532-4.152344 7.703126-5.574219 11.855469-3.179687l15.03125 8.679687c3.40625 1.960937 5.066407 5.96875 4.046875 9.765625-1.019531 3.796875-4.460937 6.433594-8.394531 6.425781zm0 0" fill="#bdc3c7"/><path d="m347.121094 130.664062h-26.035156c-4.789063 0-8.675782-3.886718-8.675782-8.679687s3.886719-8.675781 8.675782-8.675781h26.035156c4.792968 0 8.679687 3.882812 8.679687 8.675781s-3.886719 8.679687-8.679687 8.679687zm0 0" fill="#d25627"/><path d="m320.46875 95.949219c-3.929688.007812-7.375-2.628907-8.390625-6.425781-1.019531-3.796876.640625-7.804688 4.042969-9.765626l15.035156-8.679687c4.152344-2.394531 9.460938-.972656 11.855469 3.179687 2.394531 4.148438.972656 9.457032-3.179688 11.855469l-15.03125 8.675781c-1.316406.761719-2.8125 1.164063-4.332031 1.160157zm0 0" fill="#bdc3c7"/><path d="m295.046875 70.539062c-3.101563 0-5.964844-1.65625-7.511719-4.339843-1.546875-2.6875-1.546875-5.992188 0-8.675781l8.679688-15.03125c2.394531-4.152344 7.703125-5.574219 11.855468-3.175782 4.152344 2.394532 5.574219 7.703125 3.179688 11.855469l-8.679688 15.027344c-1.550781 2.691406-4.421874 4.34375-7.523437 4.339843zm0 0" fill="#bdc3c7"/><path d="m277.699219 148.019531c-2.304688 0-4.511719-.914062-6.136719-2.542969l-17.355469-17.355468c-1.628906-1.628906-2.542969-3.835938-2.542969-6.136719v-34.710937c0-4.792969 3.886719-8.679688 8.679688-8.679688 4.789062 0 8.675781 3.886719 8.675781 8.679688v31.117187l14.8125 14.816406c2.480469 2.480469 3.222657 6.210938 1.882813 9.453125-1.34375 3.242188-4.507813 5.359375-8.015625 5.359375zm0 0" fill="#805333"/><path d="m260.34375 217.441406c-52.722656 0-95.460938-42.738281-95.460938-95.457031s42.738282-95.457031 95.460938-95.457031c52.71875 0 95.457031 42.738281 95.457031 95.457031-.0625 52.695313-42.765625 95.398437-95.457031 95.457031zm0-173.558594c-43.136719 0-78.101562 34.96875-78.101562 78.101563 0 43.136719 34.964843 78.101563 78.101562 78.101563 43.132812 0 78.101562-34.964844 78.101562-78.101563-.050781-43.113281-34.988281-78.054687-78.101562-78.101563zm0 0" fill="#e57e25"/></svg>