<svg height="508pt" viewBox="-69 0 508 508.62664" width="508pt" xmlns="http://www.w3.org/2000/svg"><path d="m316.277344 363.605469c-3.144532-6.960938-5.558594-14.234375-7.203125-21.695313h.085937v-.085937l.347656-.347657c4.949219-4.539062 9.640626-9.347656 14.058594-14.402343 60.226563-68.472657 51.546875-160.195313 35.582032-200.289063-17.359376-43.390625-17.359376-126.785156-17.359376-126.785156-2.429687 0-8.761718 6.335938-16.832031 16.75-10.402343 13.671875-19.882812 28.023438-28.378906 42.953125l1.824219 1.042969s-8.679688 74.71875 8.675781 109.429687c17.355469 34.710938 8.679687 86.777344-8.675781 104.132813l-17.355469 17.359375c-1.824219-1.824219-3.820313-3.644531-5.816406-5.296875-6.460938-5.335938-13.542969-9.882813-21.085938-13.535156-.089843.085937-.089843.257812-.175781.347656-.53125 1.058594-1.304688 1.980468-2.253906 2.6875-1.527344 1.367187-3.507813 2.109375-5.554688 2.085937-1.164062-.015625-2.3125-.25-3.386718-.695312-.085938 0-.171876-.085938-.257813-.085938-.484375-.15625-.949219-.359375-1.390625-.609375-1.472656-.605468-3.035156-1.128906-4.597656-1.734375.171875.867188.261718 1.734375.347656 2.601563.171875 1.042968.171875 2.171875.257812 3.296875l13.453126 26.988281c2.152343 4.269531.441406 9.46875-3.820313 11.628906-1.214844.601563-2.546875.929688-3.902344.957032-1.144531 0-2.273437-.269532-3.300781-.78125-1.941406-.742188-3.523438-2.203126-4.425781-4.078126l-4.078125-8.070312c-.871094 1.636719-1.824219 3.230469-2.863282 4.769531-1.386718 1.996094-2.925781 3.882813-4.597656 5.644531l-9.546875 28.636719c-1.175781 3.558594-4.496093 5.96875-8.242187 5.988281-.351563.011719-.699219-.015624-1.042969-.089843h-.261719c-.472656-.0625-.9375-.179688-1.386718-.347657-4.554688-1.535156-7.03125-6.445312-5.554688-11.019531l2.863281-8.503906c-.597656.183594-1.203125.332031-1.820312.433594-2.464844.691406-4.996094 1.128906-7.550781 1.300781-1.042969.175781-2.167969.261719-3.210938.347656l-2.34375 1.214844-24.644531 12.238281c-.675781.359375-1.410157.59375-2.167969.691407-.5625.179687-1.148438.265624-1.738281.261718-4.007813-.046875-7.46875-2.820312-8.390625-6.71875-.925782-3.902344.925781-7.929687 4.488281-9.769531l8.070313-4.078125c-3.722657-1.96875-7.164063-4.417969-10.242188-7.289062l-28.808594-9.632813c-4.507812-1.570313-6.90625-6.472656-5.382812-10.992187 1.519531-4.523438 6.398437-6.972657 10.933594-5.496094l.871093.257812 7.632813 2.605469c-.25-.738281-.453125-1.492187-.605469-2.257813-.847656-3.4375-1.34375-6.957031-1.476563-10.5l-6.765624-13.535156-1.304688-2.605468c-10.882812 4.195312-21.019531 10.113281-30.023438 17.53125-2.039062 1.617187-3.984374 3.355468-5.816406 5.207031l-17.355468-17.359375c-17.355469-17.355469-26.035157-69.421875-8.675782-104.132813 17.355469-34.710937 8.675782-109.429687 8.675782-109.429687l1.824218-1.042969c-8.5-14.929687-17.976562-29.28125-28.378906-42.953125-8.070312-10.414062-14.40625-16.75-16.835938-16.75 0 0 0 83.394531-17.355468 126.785156-15.964844 40.09375-24.644532 131.992188 35.667968 200.460938 4.476563 5.085937 9.226563 9.925781 14.230469 14.492187l.175781.171875c-.019531.269532-.078124.535156-.175781.78125-2.890625 12.726563-8.035156 24.835938-15.1875 35.753906-17.355469 26.035157 8.679688 43.390626 17.359375 69.425782 8.675782 26.03125 8.675782 34.710937 43.386719 43.386718 20.222656 5.035157 28.636719 13.019532 40.789063 11.890626 8.675781-.695313 19.175781-6.074219 37.3125-20.566407 18.136718 14.492188 28.640624 19.871094 37.316406 20.566407 12.148437 1.128906 20.566406-6.855469 40.785156-11.890626 34.714844-8.675781 34.714844-17.355468 43.390625-43.386718 1.679687-4.859375 3.828125-9.535156 6.421875-13.972656 10.585938-19.003907 24.992188-34.363282 10.933594-55.453126-3.109375-4.71875-5.839844-9.683593-8.15625-14.839843zm-252.441406-35.230469.261718-1.996094s0 .78125-.089844 2.253906c-.308593 4.292969-.917968 8.554688-1.820312 12.757813zm243.503906 0 1.5625 12.410156c-.84375-4.007812-1.421875-8.066406-1.738282-12.152344v-.085937c-.085937-1.386719-.085937-2.167969-.085937-2.167969zm0 0" fill="#bdc3c7"/><path d="m81.453125 269.015625c-17.355469-17.355469-26.035156-64.128906-8.679687-98.839844 17.355468-34.710937 0-109.429687 0-109.429687l1.824218-1.042969c-8.5-14.929687-17.976562-29.28125-28.378906-42.953125-.867188 26.640625-3.992188 78.707031-15.097656 110.035156-14.234375 40.09375-21.957032 131.992188 31.761718 200.460938.289063.398437.609376.773437.953126 1.128906 0 .085938.085937.171875.171874.257812 3.664063 4.632813 7.574219 9.066407 11.714844 13.277344-.015625.269532-.074218.535156-.171875.78125-2.527343 12.578125-7.101562 24.65625-13.539062 35.753906-15.445313 26.035157 7.726562 43.390626 15.449219 69.425782 7.722656 26.03125 7.722656 34.710937 38.617187 43.386718 15.621094 4.425782 23.34375 11.023438 32.195313 11.890626 8.589843 1.042968 18.222656-3.382813 37.3125-20.566407 19.09375 17.183594 28.726562 21.609375 37.316406 20.566407 8.851562-.867188 16.574218-7.464844 32.195312-11.890626 30.894532-8.675781 30.894532-17.355468 38.617188-43.386718 1.480468-4.824219 3.398437-9.5 5.726562-13.972656 9.375-19.003907 22.214844-34.363282 9.71875-55.453126-2.808594-4.75-5.246094-9.710937-7.289062-14.839843-2.769532-7.027344-4.917969-14.289063-6.421875-21.695313h.089843v-.085937c4.105469-4.183594 7.988282-8.589844 11.625-13.191407v-.085937c.089844-.085937.175782-.085937.175782-.171875l1.039062-1.300781c53.632813-68.472657 45.90625-160.195313 31.675782-200.289063-11.105469-31.328125-14.230469-83.394531-15.097657-110.035156-10.402343 13.671875-19.882812 28.023438-28.378906 42.953125l1.824219 1.042969s-17.355469 74.71875 0 109.429687c17.355468 34.710938 8.675781 81.484375-8.679688 98.839844zm-5.640625 72.375 1.648438-15.011719c-.140626 5.039063-.691407 10.0625-1.648438 15.011719zm217.902344-15.011719 1.648437 14.40625c-.957031-4.746094-1.507812-9.566406-1.648437-14.40625zm0 0" fill="#ecf0f1"/><path d="m298.402344 274.308594-17.355469 17.359375c-7.890625-7.695313-16.976563-14.054688-26.902344-18.832031-2.691406-1.300782-5.292969-2.515626-7.984375-3.558594l2.515625-6.074219c.519531-.519531.953125-1.128906 1.390625-1.648437 20.566406-25.601563 5.378906-59.792969 13.621094-117.414063 5.917969-29.859375 17.050781-58.441406 32.890625-84.4375l1.824219 1.042969s-8.679688 74.71875 8.675781 109.429687c17.355469 34.710938 8.679687 86.777344-8.675781 104.132813zm0 0" fill="#fb7b76"/><path d="m126.144531 268.84375c-.089843 0-.089843.085938-.175781.085938-13.355469 5.082031-25.546875 12.816406-35.839844 22.738281l-17.355468-17.359375c-17.355469-17.355469-26.035157-69.421875-8.675782-104.132813 17.355469-34.710937 8.675782-109.429687 8.675782-109.429687l1.824218-1.042969c15.839844 25.996094 26.972656 54.578125 32.886719 84.4375 8.59375 59.878906-8.15625 94.417969 16.316406 120.363281.324219.398438.671875.773438 1.039063 1.128906zm0 0" fill="#fb7b76"/><path d="m254.144531 272.835938c-.089843.085937-.089843.257812-.175781.347656-1.492188 2.933594-4.515625 4.78125-7.808594 4.773437-1.164062-.015625-2.3125-.25-3.386718-.695312-.5625-.199219-1.109376-.433594-1.648438-.695313-1.472656-.605468-3.035156-1.128906-4.597656-1.734375-1.734375-.609375-3.472656-1.128906-5.207032-1.738281-3.382812-.953125-6.855468-1.90625-10.328124-2.773438-2.167969-.484374-4.066407-1.792968-5.292969-3.644531-.109375-.28125-.257813-.542969-.433594-.78125-.921875-1.855469-1.167969-3.972656-.695313-5.988281.742188-3.515625 3.636719-6.167969 7.203126-6.597656 1.070312-.15625 2.164062-.097656 3.210937.175781 1.214844.257813 2.429687.519531 3.558594.867187 6.703125 1.695313 13.285156 3.839844 19.699219 6.421876.636718.191406 1.246093.453124 1.824218.78125 4.148438 2.070312 5.941406 7.035156 4.078125 11.28125zm0 0" fill="#95a5a5"/><path d="m151.308594 282.988281c-.015625 3.265625-1.859375 6.25-4.773438 7.722657-1.214844.601562-2.546875.929687-3.902344.957031-1.054687.027343-2.101562-.210938-3.039062-.695313-2.070312-.683594-3.765625-2.191406-4.6875-4.164062l-.867188-1.738282-8.070312-16.140624-2.167969-4.425782-3.210937-6.335937c-1.417969-2.761719-1.242188-6.074219.460937-8.671875s4.671875-4.082032 7.769531-3.882813c3.097657.195313 5.855469 2.042969 7.214844 4.832031l4.078125 8.15625 2.777344 5.46875 7.464844 15.011719c.609375 1.214844.9375 2.550781.953125 3.90625zm0 0" fill="#95a5a5"/><path d="m231.582031 274.917969c-.046875-.613281-.132812-1.222657-.261719-1.824219-1.582031-7.253906-4.851562-14.03125-9.546874-19.785156-4.621094-5.652344-10.507813-10.140625-17.179688-13.101563h-.089844c-5.941406-2.695312-12.390625-4.085937-18.917968-4.078125-2.707032-.007812-5.410157.253906-8.070313.78125h-.085937c-1.464844.222656-2.914063.542969-4.339844.953125-1.472656.433594-2.949219.953125-4.25 1.476563h-.085938c-8.671875 3.289062-16.144531 9.128906-21.4375 16.746094-.605468.867187-1.125 1.738281-1.648437 2.605468-.292969.414063-.550781.847656-.78125 1.300782-.265625.414062-.496094.851562-.691407 1.300781-.523437.882812-.960937 1.8125-1.304687 2.777343-2.734375 5.929688-4.128906 12.390626-4.078125 18.917969.011719 2.675781.246094 5.347657.695312 7.984375h.085938c.421875 3.003906 1.210938 5.949219 2.34375 8.765625h.085938c3.292968 8.695313 9.128906 16.195313 16.75 21.519531 2.441406 1.742188 5.058593 3.226563 7.808593 4.425782 5.972657 2.695312 12.453125 4.085937 19.003907 4.078125 2.710937.007812 5.414062-.253907 8.070312-.78125 1.496094-.222657 2.972656-.542969 4.425781-.953125.871094-.261719 1.738281-.519532 2.519531-.78125.589844-.164063 1.171876-.367188 1.734376-.609375 8.683593-3.351563 16.175781-9.210938 21.519531-16.832031 1.757812-2.511719 3.265625-5.1875 4.515625-7.984376 2.648437-5.925781 4.007812-12.34375 3.992187-18.832031.003907-2.710937-.257812-5.414062-.78125-8.070312zm0 0" fill="#7f8c8d"/><path d="m185.585938 317.265625c2.84375 0 5.503906 1.398437 7.113281 3.738281 1.613281 2.339844 1.972656 5.324219.957031 7.976563 1.496094-.222657 2.972656-.542969 4.425781-.953125.871094-.261719 1.738281-.519532 2.519531-.78125.589844-.164063 1.171876-.367188 1.734376-.609375l5.378906-16.050781c.453125-1.261719 1.164062-2.414063 2.085937-3.386719-6.394531 6.46875-15.117187 10.097656-24.214843 10.066406zm-7.722657-73.414063c-1.105469-2.160156-1.230469-4.6875-.347656-6.941406h-.085937c-1.464844.222656-2.914063.542969-4.339844.953125-1.472656.433594-2.949219.953125-4.25 1.476563l-.433594 1.300781-.609375 1.820313-.433594 1.214843-3.90625 11.628907-.519531 1.304687c-.085938.085937-.085938.171875-.171875.257813-.261719.347656-.433594.695312-.695313 1.042968-.238281.308594-.5.597656-.78125.867188-1.21875 1.191406-2.753906 2.007812-4.425781 2.34375-.164062.070312-.34375.097656-.519531.085937h-.347656c-.253906.070313-.519532.101563-.78125.085938-.941406-.023438-1.875-.167969-2.777344-.433594l-.519531-.261719c-.414063-.082031-.800781-.261718-1.128907-.519531-.085937 0-.171874-.085937-.261718-.171875-.527344-.359375-1.023438-.765625-1.472656-1.214844l-.347657-.347656c-.175781-.261719-.433593-.519531-.609375-.78125-.132812-.238281-.277344-.472656-.433594-.695312-.078124-.273438-.195312-.539063-.347656-.78125-.605468.867187-1.125 1.738281-1.648437 2.605468-.292969.414063-.550781.847656-.78125 1.300782-.265625.414062-.496094.851562-.691407 1.300781-.523437.882812-.960937 1.8125-1.304687 2.777343l7.464844 15.011719c.609375 1.214844.9375 2.550781.953125 3.90625.050781-18.910156 15.367187-34.226562 34.277344-34.277343-3.300782.03125-6.320313-1.867188-7.722657-4.859376zm53.457031 29.242188c-1.582031-7.253906-4.851562-14.03125-9.546874-19.785156-3.566407.429687-6.460938 3.082031-7.203126 6.597656-.472656 2.015625-.226562 4.132812.695313 5.988281.175781.238281.324219.5.433594.78125 2.765625 4.957031 4.199219 10.546875 4.167969 16.226563.015624-3.265625 1.855468-6.25 4.769531-7.722656 2.160156-1.121094 4.707031-1.21875 6.945312-.261719-.046875-.613281-.132812-1.222657-.261719-1.824219zm-38.007812 48.945312c1.101562 2.15625 1.230469 4.6875.34375 6.941407 1.496094-.222657 2.972656-.542969 4.425781-.953125.871094-.261719 1.738281-.519532 2.519531-.78125.589844-.164063 1.171876-.367188 1.734376-.609375l5.378906-16.050781c.453125-1.261719 1.164062-2.414063 2.085937-3.386719-6.394531 6.46875-15.117187 10.097656-24.214843 10.066406 3.28125-.027344 6.285156 1.828125 7.726562 4.773437zm-7.726562-73.328124c-2.84375-.035157-5.496094-1.453126-7.105469-3.800782-1.605469-2.351562-1.964844-5.335937-.964844-8h-.085937c-1.464844.222656-2.914063.542969-4.339844.953125-1.472656.433594-2.949219.953125-4.25 1.476563l-.433594 1.300781-.609375 1.820313-.433594 1.214843-3.90625 11.628907-.519531 1.304687c-.085938.085937-.085938.171875-.171875.257813-.261719.347656-.433594.695312-.695313 1.042968-.238281.308594-.5.597656-.78125.867188-1.21875 1.191406-2.753906 2.007812-4.425781 2.34375-.164062.070312-.34375.097656-.519531.085937h-.347656c-.253906.070313-.519532.101563-.78125.085938-.941406-.023438-1.875-.167969-2.777344-.433594l-.519531-.261719c-.414063-.082031-.800781-.261718-1.128907-.519531-.085937 0-.171874-.085937-.261718-.171875-.527344-.359375-1.023438-.765625-1.472656-1.214844l-.347657-.347656c-.175781-.261719-.433593-.519531-.609375-.78125-.164062-.21875-.308594-.453125-.433594-.695312-.085937-.257813-.257812-.519532-.347656-.78125-.605468.867187-1.125 1.738281-1.648437 2.605468-.292969.414063-.550781.847656-.78125 1.300782-.265625.414062-.496094.851562-.691407 1.300781-.523437.882812-.960937 1.8125-1.304687 2.777343l7.464844 15.011719c.609375 1.214844.9375 2.550781.953125 3.90625.050781-18.910156 15.367187-34.226562 34.277344-34.277343zm-39.050782 42c-1.214844.601562-2.546875.929687-3.902344.957031-1.054687.027343-2.101562-.210938-3.039062-.695313.421875 3.003906 1.210938 5.949219 2.34375 8.765625h.085938l15.96875 5.378907c1.257812.453124 2.414062 1.160156 3.382812 2.082031-6.453125-6.402344-10.078125-15.121094-10.066406-24.210938-.015625 3.265625-1.859375 6.25-4.773438 7.722657zm90.597656-9.980469c-.066406-1.976563-.269531-3.949219-.605468-5.898438-1.113282-7.335937-3.839844-14.328125-7.984375-20.480469-9.601563-14.332031-25.703125-22.953124-42.957031-22.996093-.78125-.015625-1.5625.011719-2.339844.085937h-.089844c-4.207031.164063-8.378906.863282-12.40625 2.082032-8.90625 2.664062-16.917969 7.703124-23.171875 14.578124l-.085937.089844c-2.882813 3.148438-5.359376 6.648438-7.378907 10.410156-4.070312 7.480469-6.191406 15.871094-6.160156 24.386719-.015625.695313.015625 1.390625.085937 2.082031.15625 4.324219.855469 8.609376 2.082032 12.757813 2.695312 8.957031 7.796875 17.003906 14.753906 23.257813 3.078125 2.871093 6.519531 5.320312 10.242188 7.289062 7.5 4.109375 15.917968 6.257812 24.46875 6.246094.753906.015625 1.507812-.011719 2.257812-.085938 4.265625-.15625 8.496094-.855468 12.582031-2.082031 8.921875-2.675781 16.9375-7.746094 23.171875-14.664063 2.933594-3.128906 5.445313-6.628906 7.460938-10.414062 4.074218-7.480469 6.195312-15.871094 6.164062-24.386719.011719-.753906-.015625-1.507812-.089844-2.257812zm-51.546874 36.535156h-.085938c-9.019531.003906-17.671875-3.585937-24.039062-9.980469-.046876 0-.085938-.039062-.085938-.085937-9.425781-9.410157-12.542969-23.4375-7.984375-35.953125 4.554687-12.519532 15.957031-21.257813 29.230469-22.40625 13.273437-1.148438 26.007812 5.503906 32.644531 17.054687.175781.238281.324219.5.433594.78125 2.765625 4.957031 4.199219 10.546875 4.167969 16.226563v.085937c-.015626 9.042969-3.601563 17.714844-9.980469 24.125 0 .046875-.039063.085938-.085938.085938-6.394531 6.46875-15.117187 10.097656-24.214843 10.066406zm-34.277344-34.277344c-.015625 3.265625-1.859375 6.25-4.773438 7.722657-1.214844.601562-2.546875.929687-3.902344.957031-1.054687.027343-2.101562-.210938-3.039062-.695313.421875 3.003906 1.210938 5.949219 2.34375 8.765625h.085938l15.96875 5.378907c1.257812.453124 2.414062 1.160156 3.382812 2.082031-6.453125-6.402344-10.078125-15.121094-10.066406-24.210938zm26.554687-39.136719c-1.105469-2.160156-1.230469-4.6875-.347656-6.941406h-.085937c-1.464844.222656-2.914063.542969-4.339844.953125-1.472656.433594-2.949219.953125-4.25 1.476563l-.433594 1.300781-.609375 1.820313-.433594 1.214843-3.90625 11.628907-.519531 1.304687c-.085938.085937-.085938.171875-.171875.257813-.261719.347656-.433594.695312-.695313 1.042968-.238281.308594-.5.597656-.78125.867188-1.21875 1.191406-2.753906 2.007812-4.425781 2.34375-.164062.070312-.34375.097656-.519531.085937h-.347656c-.253906.070313-.519532.101563-.78125.085938-.941406-.023438-1.875-.167969-2.777344-.433594l-.519531-.261719c-.414063-.082031-.800781-.261718-1.128907-.519531-.085937 0-.171874-.085937-.261718-.171875-.527344-.359375-1.023438-.765625-1.472656-1.214844l-.347657-.347656c-.175781-.261719-.433593-.519531-.609375-.78125-.132812-.238281-.277344-.472656-.433594-.695312-.078124-.273438-.195312-.539063-.347656-.78125-.605468.867187-1.125 1.738281-1.648437 2.605468-.292969.414063-.550781.847656-.78125 1.300782-.265625.414062-.496094.851562-.691407 1.300781-.523437.882812-.960937 1.8125-1.304687 2.777343l7.464844 15.011719c.609375 1.214844.9375 2.550781.953125 3.90625.050781-18.910156 15.367187-34.226562 34.277344-34.277343-3.300782.03125-6.320313-1.867188-7.722657-4.859376zm-16.402343 63.433594c2.238281 2.328125 3.003906 5.699219 1.996093 8.765625-.738281 2.332031-2.445312 4.226563-4.683593 5.207031 2.441406 1.742188 5.058593 3.226563 7.808593 4.425782l15.101563-7.550782c1.1875-.582031 2.492187-.878906 3.816406-.867187-9.019531.003906-17.671875-3.585937-24.039062-9.980469zm24.125 9.980469c2.84375 0 5.503906 1.398437 7.113281 3.738281 1.613281 2.339844 1.972656 5.324219.957031 7.976563 1.496094-.222657 2.972656-.542969 4.425781-.953125.871094-.261719 1.738281-.519532 2.519531-.78125.589844-.164063 1.171876-.367188 1.734376-.609375l5.378906-16.050781c.453125-1.261719 1.164062-2.414063 2.085937-3.386719-6.394531 6.46875-15.117187 10.097656-24.214843 10.066406zm45.734374-44.171875c-1.582031-7.253906-4.851562-14.03125-9.546874-19.785156-3.566407.429687-6.460938 3.082031-7.203126 6.597656-.472656 2.015625-.226562 4.132812.695313 5.988281.175781.238281.324219.5.433594.78125 2.765625 4.957031 4.199219 10.546875 4.167969 16.226563.015624-3.265625 1.855468-6.25 4.769531-7.722656 2.160156-1.121094 4.707031-1.21875 6.945312-.261719-.046875-.613281-.132812-1.222657-.261719-1.824219zm0 0" fill="#95a5a5"/><path d="m185.597656 248.6875c-4.027344.003906-7.53125-2.761719-8.457031-6.679688-.925781-3.921874.964844-7.960937 4.566406-9.761718l28.636719-14.320313c4.285156-2.140625 9.5-.40625 11.644531 3.882813 2.144531 4.285156.40625 9.5-3.882812 11.644531l-28.636719 14.320313c-1.203125.601562-2.527344.914062-3.871094.914062zm0 0" fill="#95a5a5"/><path d="m155.214844 261.269531c-2.789063 0-5.40625-1.34375-7.039063-3.609375-1.628906-2.261718-2.070312-5.171875-1.191406-7.816406l10.128906-30.375c.914063-3.023438 3.398438-5.3125 6.488281-5.972656 3.089844-.660156 6.292969.40625 8.367188 2.792968 2.074219 2.382813 2.6875 5.707032 1.601562 8.671876l-10.128906 30.375c-1.179687 3.542968-4.492187 5.933593-8.226562 5.933593zm0 0" fill="#95a5a5"/><path d="m307.078125 508.589844c-49.363281 0-68.304687-64.304688-69.09375-67.039063-.851563-2.980469-.050781-6.191406 2.105469-8.421875 2.152344-2.226562 5.332031-3.140625 8.339844-2.386718 3.007812.75 5.386718 3.046874 6.242187 6.03125.164063.539062 16.132813 54.460937 52.40625 54.460937 4.605469.503906 9.140625-1.460937 11.914063-5.171875 9.882812-13.714844 1.078124-49.910156-2.785157-61.507812-1.085937-2.96875-.472656-6.289063 1.601563-8.671876 2.070312-2.386718 5.277344-3.453124 8.367187-2.792968 3.085938.660156 5.574219 2.949218 6.488281 5.972656 1.8125 5.441406 17.230469 53.808594.40625 77.148438-6.027343 8.234374-15.796874 12.886718-25.992187 12.378906zm0 0" fill="#7f8c8d"/><path d="m289.722656 395.777344c0 23.960937-19.425781 43.386718-43.390625 43.386718-23.960937 0-43.386719-19.425781-43.386719-43.386718 0-23.964844 19.425782-43.390625 43.386719-43.390625 23.964844 0 43.390625 19.425781 43.390625 43.390625zm0 0" fill="#67b9cc"/><path d="m159.554688 404.453125s8.675781-8.675781-34.714844-26.03125c-43.386719-17.359375-43.386719 8.675781-43.386719 8.675781s17.355469 34.710938 78.101563 17.355469zm0 0" fill="#7f8c8d"/><path d="m292.152344 371.070312c-11.078125-20.617187-34.539063-31.324218-57.371094-26.179687s-39.4375 24.875-40.609375 48.25c-1.167969 23.375 13.386719 44.664063 35.59375 52.058594s46.617187-.917969 59.695313-20.324219c10.867187-16.03125 11.902343-36.773438 2.691406-53.804688zm-45.820313 59.445313c-19.167969 0-34.710937-15.542969-34.710937-34.714844 0-19.167969 15.542968-34.710937 34.710937-34.710937 19.171875 0 34.714844 15.542968 34.714844 34.710937-.027344 19.160157-15.554687 34.6875-34.714844 34.714844zm0 0" fill="#f3d55b"/><g fill="#95a5a5"><path d="m193.65625 328.980469c-.734375 2.039062-2.226562 3.71875-4.164062 4.6875l-1.648438.867187-26.988281 13.453125c-1.214844.597657-2.550781.925781-3.90625.953125-4.007813-.046875-7.46875-2.820312-8.390625-6.71875-.925782-3.902344.925781-7.929687 4.488281-9.769531l8.070313-4.078125 5.464843-2.691406 15.101563-7.550782c1.1875-.582031 2.492187-.878906 3.816406-.867187h.085938c2.84375 0 5.503906 1.398437 7.113281 3.738281 1.613281 2.339844 1.972656 5.324219.957031 7.976563zm0 0"/><path d="m224.203125 316.050781-.605469 1.738281-9.546875 28.636719c-1.175781 3.558594-4.496093 5.96875-8.242187 5.988281-.914063-.019531-1.820313-.164062-2.691406-.4375-4.554688-1.535156-7.03125-6.445312-5.554688-11.019531l2.863281-8.503906 1.910157-5.816406 5.378906-16.050781c.453125-1.261719 1.164062-2.414063 2.085937-3.386719.046875 0 .085938-.039063.085938-.085938 2.335937-2.285156 5.761719-3.054687 8.851562-1.996093 2.308594.742187 4.175781 2.453124 5.117188 4.6875.898437 1.964843 1.019531 4.195312.347656 6.246093zm0 0"/><path d="m246.765625 319.347656c-1.214844.601563-2.546875.929688-3.902344.957032-3.292969-.007813-6.292969-1.894532-7.726562-4.859376l-4.078125-8.070312-2.6875-5.554688-7.550782-15.011718c-.609374-1.183594-.9375-2.492188-.953124-3.820313v-.085937c.015624-3.265625 1.855468-6.25 4.769531-7.722656 4.296875-2.023438 9.425781-.300782 11.628906 3.902343l.867187 1.648438 13.453126 26.988281c2.152343 4.269531.441406 9.46875-3.820313 11.628906zm0 0"/><path d="m163.457031 316.050781c-1.179687 3.554688-4.496093 5.964844-8.242187 5.988281-.941406-.023437-1.875-.167968-2.777344-.433593l-1.5625-.519531-28.808594-9.632813c-4.507812-1.570313-6.90625-6.472656-5.382812-10.992187 1.519531-4.523438 6.398437-6.972657 10.933594-5.496094l8.503906 2.863281 5.902344 1.910156 15.96875 5.378907c1.257812.453124 2.414062 1.160156 3.382812 2.082031 0 .023437.011719.046875.027344.0625s.039062.023437.058594.023437c2.238281 2.328125 3.003906 5.699219 1.996093 8.765625zm0 0"/><path d="m194.265625 282.960938c0 4.792968-3.886719 8.679687-8.679687 8.679687-4.792969 0-8.675782-3.886719-8.675782-8.679687 0-4.792969 3.882813-8.675782 8.675782-8.675782 4.792968 0 8.679687 3.882813 8.679687 8.675782zm0 0"/></g><path d="m185.585938 473.875c-11.761719.507812-23.273438-3.503906-32.167969-11.21875-3.375-3.371094-3.394531-8.835938-.046875-12.230469 3.351562-3.398437 8.816406-3.453125 12.234375-.125 5.703125 4.394531 12.792969 6.601563 19.980469 6.21875 7.199218.390625 14.296874-1.824219 20-6.230469 3.46875-3.25 8.894531-3.136718 12.222656.253907 3.304687 3.371093 3.28125 8.773437-.050782 12.113281-8.898437 7.714844-20.40625 11.726562-32.171874 11.21875zm0 0" fill="#5e5f62"/><path d="m66.265625 316.832031c-.304687 8.503907-1.703125 16.933594-4.164063 25.078125-5.0625-4.625-9.871093-9.519531-14.40625-14.664062.707032-3.429688 1.113282-6.914063 1.214844-10.414063 0-4.792969 3.882813-8.675781 8.675782-8.675781 4.792968 0 8.679687 3.882812 8.679687 8.675781zm0 0" fill="#95a5a5"/><path d="m323.566406 327.074219c-4.53125 5.171875-9.339844 10.097656-14.40625 14.75-.066406-.351563-.152344-.699219-.257812-1.039063-2.253906-7.796875-3.539063-15.84375-3.820313-23.953125 0-4.792969 3.886719-8.675781 8.679688-8.675781s8.675781 3.882812 8.675781 8.675781c.097656 3.4375.472656 6.863281 1.128906 10.242188zm0 0" fill="#95a5a5"/></svg>