<svg height="512pt" viewBox="0 -9 512 512" width="512pt" xmlns="http://www.w3.org/2000/svg"><path d="m79.558594 158.898438s-54.742188-63.371094-1.25-145.089844c1.835937-2.703125 2.03125-6.195313.507812-9.082032-1.519531-2.890624-4.507812-4.7070308-7.773437-4.726562h-37.71875c-3.714844-.0273438-7.039063 2.292969-8.296875 5.789062-7.261719 20.226563-28.488282 91.8125-6.476563 188.417969" fill="#cb8252"/><path d="m423.613281 158.898438s54.742188-63.371094 1.25-145.089844c-1.832031-2.703125-2.03125-6.195313-.507812-9.082032 1.519531-2.890624 4.507812-4.7070308 7.773437-4.726562h37.71875c3.714844-.0273438 7.042969 2.292969 8.296875 5.789062 7.265625 20.226563 28.492188 91.8125 6.480469 188.417969" fill="#cb8252"/><path d="m362.195312 487.460938c-35.175781 4.960937-70.675781 7.265624-106.195312 6.882812-35.519531.382812-71.019531-1.921875-106.195312-6.882812l.265624-1.945313s35.308594-114.757813 35.308594-194.203125c-.535156-49.199219-12.628906-97.582031-35.308594-141.242188 44.136719-8.828124 44.136719-52.964843 105.929688-52.964843s61.792969 44.136719 105.929688 52.964843c-22.679688 43.660157-34.773438 92.042969-35.308594 141.242188 0 79.445312 35.308594 194.203125 35.308594 194.203125zm0 0" fill="#cb9080"/><path d="m185.378906 291.3125c0 79.445312-35.308594 194.203125-35.308594 194.203125l-.265624 1.945313c-149.804688-22.953126-149.804688-101.605469-149.804688-204.976563 0-61.792969 8.828125-141.242187 52.964844-141.242187 44.136718 0 69.738281 14.300781 97.105468 8.828124 22.679688 43.660157 34.773438 92.042969 35.308594 141.242188zm0 0" fill="#804537"/><path d="m512 282.484375c0 103.371094 0 182.023437-149.804688 204.976563l-.265624-1.945313s-35.308594-114.757813-35.308594-194.203125c.535156-49.199219 12.628906-97.582031 35.308594-141.242188 27.367187 5.472657 52.96875-8.828124 97.105468-8.828124 44.136719 0 52.964844 79.449218 52.964844 141.242187zm0 0" fill="#804537"/><path d="m190.25 291.3125c0 79.445312-32.875 194.203125-32.875 194.203125l-.246094 1.945313c-139.472656-22.953126-139.472656-101.605469-139.472656-204.976563 0-61.792969 8.21875-141.242187 49.3125-141.242187s64.929688 14.300781 90.40625 8.828124c21.246094 44.078126 32.472656 92.3125 32.875 141.242188zm0 0" fill="#7f5b53"/><path d="m494.34375 282.484375c0 103.371094 0 182.023437-139.476562 204.976563l-.246094-1.945313s-32.875-114.757813-32.875-194.203125c.402344-48.929688 11.628906-97.164062 32.875-141.242188 25.480468 5.472657 49.3125-8.828124 90.40625-8.828124s49.316406 79.449218 49.316406 141.242187zm0 0" fill="#7f5b53"/><path d="m467.863281 300.136719c0-43.875-23.714843-79.445313-52.964843-79.445313-29.253907 0-52.96875 35.570313-52.96875 79.445313 0 43.878906 23.714843 79.449219 52.96875 79.449219 29.25 0 52.964843-35.570313 52.964843-79.449219zm0 0" fill="#af8066"/><path d="m150.070312 300.136719c0-43.875-23.714843-79.445313-52.96875-79.445313-29.25 0-52.964843 35.570313-52.964843 79.445313 0 43.878906 23.714843 79.449219 52.964843 79.449219 29.253907 0 52.96875-35.570313 52.96875-79.449219zm0 0" fill="#af8066"/><g fill="#2c2f38"><path d="m230.496094 238.34375c0 4.875-3.953125 8.828125-8.828125 8.828125s-8.828125-3.953125-8.828125-8.828125 3.953125-8.828125 8.828125-8.828125 8.828125 3.953125 8.828125 8.828125zm0 0"/><path d="m247.171875 264.828125c0 4.875-3.953125 8.828125-8.828125 8.828125s-8.828125-3.953125-8.828125-8.828125 3.953125-8.828125 8.828125-8.828125 8.828125 3.953125 8.828125 8.828125zm0 0"/><path d="m229.515625 291.3125c0 4.875-3.949219 8.824219-8.824219 8.824219-4.878906 0-8.828125-3.949219-8.828125-8.824219 0-4.878906 3.949219-8.828125 8.828125-8.828125 4.875 0 8.824219 3.949219 8.824219 8.828125zm0 0"/><path d="m247.171875 317.792969c0 4.875-3.953125 8.828125-8.828125 8.828125s-8.828125-3.953125-8.828125-8.828125 3.953125-8.828125 8.828125-8.828125 8.828125 3.953125 8.828125 8.828125zm0 0"/><path d="m247.171875 370.757812c0 4.875-3.953125 8.828126-8.828125 8.828126s-8.828125-3.953126-8.828125-8.828126 3.953125-8.828124 8.828125-8.828124 8.828125 3.953124 8.828125 8.828124zm0 0"/><path d="m229.515625 344.277344c0 4.875-3.949219 8.828125-8.824219 8.828125-4.878906 0-8.828125-3.953125-8.828125-8.828125s3.949219-8.828125 8.828125-8.828125c4.875 0 8.824219 3.953125 8.824219 8.828125zm0 0"/><path d="m299.160156 238.34375c0 4.875-3.953125 8.828125-8.828125 8.828125s-8.828125-3.953125-8.828125-8.828125 3.953125-8.828125 8.828125-8.828125 8.828125 3.953125 8.828125 8.828125zm0 0"/><path d="m282.484375 264.828125c0 4.875-3.953125 8.828125-8.828125 8.828125s-8.828125-3.953125-8.828125-8.828125 3.953125-8.828125 8.828125-8.828125 8.828125 3.953125 8.828125 8.828125zm0 0"/><path d="m300.136719 291.3125c0 4.875-3.949219 8.824219-8.828125 8.824219-4.875 0-8.824219-3.949219-8.824219-8.824219 0-4.878906 3.949219-8.828125 8.824219-8.828125 4.878906 0 8.828125 3.949219 8.828125 8.828125zm0 0"/><path d="m282.484375 317.792969c0 4.875-3.953125 8.828125-8.828125 8.828125s-8.828125-3.953125-8.828125-8.828125 3.953125-8.828125 8.828125-8.828125 8.828125 3.953125 8.828125 8.828125zm0 0"/><path d="m282.484375 370.757812c0 4.875-3.953125 8.828126-8.828125 8.828126s-8.828125-3.953126-8.828125-8.828126 3.953125-8.828124 8.828125-8.828124 8.828125 3.953124 8.828125 8.828124zm0 0"/><path d="m300.136719 344.277344c0 4.875-3.949219 8.828125-8.828125 8.828125-4.875 0-8.824219-3.953125-8.824219-8.828125s3.949219-8.828125 8.824219-8.828125c4.878906 0 8.828125 3.953125 8.828125 8.828125zm0 0"/><path d="m97.101562 335.449219c-4.875 0-8.824218-3.953125-8.824218-8.828125v-52.964844c0-4.875 3.949218-8.828125 8.824218-8.828125 4.878907 0 8.828126 3.953125 8.828126 8.828125v52.964844c0 4.875-3.949219 8.828125-8.828126 8.828125zm0 0"/><path d="m114.757812 308.964844h-35.308593c-4.875 0-8.828125-3.953125-8.828125-8.828125s3.953125-8.824219 8.828125-8.824219h35.308593c4.875 0 8.828126 3.949219 8.828126 8.824219s-3.953126 8.828125-8.828126 8.828125zm0 0"/><path d="m414.898438 335.449219c-4.878907 0-8.828126-3.953125-8.828126-8.828125v-52.964844c0-4.875 3.949219-8.828125 8.828126-8.828125 4.875 0 8.824218 3.953125 8.824218 8.828125v52.964844c0 4.875-3.949218 8.828125-8.824218 8.828125zm0 0"/><path d="m432.550781 308.964844h-35.308593c-4.875 0-8.828126-3.953125-8.828126-8.828125s3.953126-8.824219 8.828126-8.824219h35.308593c4.875 0 8.828125 3.949219 8.828125 8.824219s-3.953125 8.828125-8.828125 8.828125zm0 0"/></g><path d="m114.757812 203.035156c0 9.75-7.902343 17.65625-17.65625 17.65625-9.75 0-17.652343-7.90625-17.652343-17.65625s7.902343-17.65625 17.652343-17.65625c9.753907 0 17.65625 7.90625 17.65625 17.65625zm0 0" fill="#cb9080"/><path d="m114.757812 397.242188c0 9.75-7.902343 17.65625-17.65625 17.65625-9.75 0-17.652343-7.90625-17.652343-17.65625s7.902343-17.65625 17.652343-17.65625c9.753907 0 17.65625 7.90625 17.65625 17.65625zm0 0" fill="#cb9080"/><path d="m432.550781 397.242188c0 9.75-7.902343 17.65625-17.652343 17.65625-9.753907 0-17.65625-7.90625-17.65625-17.65625s7.902343-17.65625 17.65625-17.65625c9.75 0 17.652343 7.90625 17.652343 17.65625zm0 0" fill="#cb9080"/><path d="m432.550781 203.035156c0 9.75-7.902343 17.65625-17.652343 17.65625-9.753907 0-17.65625-7.90625-17.65625-17.65625s7.902343-17.65625 17.65625-17.65625c9.75 0 17.652343 7.90625 17.652343 17.65625zm0 0" fill="#cb9080"/></svg>