<svg xmlns="http://www.w3.org/2000/svg" height="100" viewBox="0 0 512 512" width="100" class=""><g><g transform="matrix(1 0 0 1 0 0)"><path d="m42.667969 8.535156h426.664062c18.851563 0 34.132813 15.28125 34.132813 34.132813v307.199219c0 18.851562-15.28125 34.132812-34.132813 34.132812h-426.664062c-18.851563 0-34.132813-15.28125-34.132813-34.132812v-307.199219c0-18.851563 15.28125-34.132813 34.132813-34.132813zm0 0" fill="#0377bc" data-original="#323438" class="active-path" style="fill:#D2D2D2" data-old_color="#323438"></path><path d="m42.667969 8.535156h401.066406c18.851563 0 34.132813 15.28125 34.132813 34.132813v307.199219c0 18.851562-15.28125 34.132812-34.132813 34.132812h-401.066406c-18.851563 0-34.132813-15.28125-34.132813-34.132812v-307.199219c0-18.851563 15.28125-34.132813 34.132813-34.132813zm0 0" fill="#02a9f4" data-original="#3E3E3E" class="" style="fill:#D2D2D2" data-old_color="#D1D0D0"></path><path d="m503.464844 183.722656v166.144532c.003906 9.054687-3.589844 17.738281-9.992188 24.136718-6.402344 6.402344-15.085937 10-24.140625 9.996094h-426.664062c-9.054688.003906-17.738281-3.59375-24.140625-9.996094-6.402344-6.398437-9.996094-15.082031-9.992188-24.136718v-50.519532c63.484375-89.34375 208.039063-211.796875 494.929688-115.625zm0 0" fill="#0377bc" data-original="#323438" class="active-path" style="fill:#D2D2D2" data-old_color="#323438"></path><path d="m324.265625 475.050781h-136.53125l25.597656-97.707031h85.335938zm0 0" fill="#00695c" data-original="#EABB19" class="" style="fill:#E4D64D" data-old_color="#EABB19"></path><path d="m358.398438 486.398438c-.066407 9.398437-7.667969 17-17.066407 17.066406h-170.664062c-9.414063-.027344-17.039063-7.652344-17.066407-17.066406.066407-9.394532 7.667969-16.996094 17.066407-17.066407h170.664062c9.414063.027344 17.039063 7.652344 17.066407 17.066407zm0 0" fill="#00695c" data-original="#EABB19" class="" style="fill:#E4D64D" data-old_color="#EABB19"></path><path d="m332.800781 486.398438c-.070312 9.398437-7.671875 17-17.066406 17.066406h-145.066406c-9.414063-.027344-17.039063-7.652344-17.066407-17.066406.066407-9.394532 7.667969-16.996094 17.066407-17.066407h145.066406c9.414063.027344 17.039063 7.652344 17.066406 17.066407zm0 0" fill="#009688" data-original="#FED137" class="" style="fill:#E4D64D" data-old_color="#FED137"></path><path d="m503.464844 324.265625v25.601563c.003906 9.054687-3.589844 17.738281-9.992188 24.136718-6.402344 6.402344-15.085937 10-24.140625 9.996094h-426.664062c-9.054688.003906-17.738281-3.59375-24.140625-9.996094-6.402344-6.398437-9.996094-15.082031-9.992188-24.136718v-25.601563zm0 0" fill="#00695c" data-original="#EABB19" class="" style="fill:#E4D64D" data-old_color="#EABB19"></path><path d="m477.867188 324.265625v25.601563c.003906 9.054687-3.59375 17.738281-9.996094 24.136718-6.402344 6.402344-15.085938 10-24.136719 9.996094h-401.066406c-9.054688.003906-17.738281-3.59375-24.140625-9.996094-6.402344-6.398437-9.996094-15.082031-9.992188-24.136718v-25.601563zm0 0" fill="#009688" data-original="#FED137" class="" style="fill:#E4D64D" data-old_color="#FED137"></path><path d="m119.464844 230.398438h59.734375c4.714843 0 8.535156-3.820313 8.535156-8.53125v-25.601563c0-4.710937-3.820313-8.53125-8.535156-8.53125h-34.132813c-4.710937 0-8.53125-3.820313-8.53125-8.535156v-25.597657c0-4.714843 3.820313-8.535156 8.53125-8.535156h34.132813c4.714843 0 8.535156-3.820312 8.535156-8.53125v-25.601562c0-4.714844-3.820313-8.535156-8.535156-8.535156h-59.734375c-4.710938 0-8.53125-3.820313-8.53125-8.53125v-25.601563c0-4.710937 3.820312-8.53125 8.53125-8.53125h93.867187c9.425781 0 17.066407 7.640625 17.066407 17.066406v179.199219c0 9.425781-7.640626 17.066406-17.066407 17.066406h-93.867187c-4.710938 0-8.53125-3.820312-8.53125-8.53125v-25.601562c0-4.714844 3.820312-8.535156 8.53125-8.535156zm0 0" fill="#9d27b0" data-original="#E4D64D" class="" style="fill:#E4D64D" data-old_color="#9D27B0"></path><path d="m332.800781 59.734375h-51.199219c-4.707031.011719-8.519531 3.824219-8.535156 8.53125v196.269531c.015625 4.707032 3.828125 8.519532 8.535156 8.53125h51.199219c15.84375.011719 31.046875-6.277344 42.25-17.484375 11.203125-11.203125 17.492188-26.402343 17.484375-42.25v-93.867187c.007813-15.84375-6.28125-31.042969-17.484375-42.25-11.203125-11.203125-26.40625-17.492188-42.25-17.480469zm17.066407 136.53125c.011718 9.058594-3.582032 17.746094-9.984376 24.152344-6.402343 6.402343-15.09375 9.996093-24.148437 9.980469v-128c9.050781 0 17.734375 3.59375 24.136719 9.996093 6.402344 6.402344 10 15.085938 9.996094 24.140625zm0 0" fill="#9d27b0" data-original="#E4D64D" class="" style="fill:#E4D64D" data-old_color="#9D27B0"></path><path d="m469.332031 392.535156h-426.664062c-23.554688-.03125-42.6406252-19.117187-42.667969-42.667968v-307.199219c.0273438-23.554688 19.113281-42.6406252 42.667969-42.667969h426.664062c23.554688.0273438 42.640625 19.113281 42.667969 42.667969v307.199219c-.027344 23.550781-19.113281 42.636718-42.667969 42.667968zm-426.664062-375.46875c-14.132813.015625-25.585938 11.46875-25.601563 25.601563v307.199219c.015625 14.132812 11.46875 25.582031 25.601563 25.597656h426.664062c14.132813-.015625 25.585938-11.464844 25.601563-25.597656v-307.199219c-.015625-14.132813-11.46875-25.585938-25.601563-25.601563zm0 0" data-original="#000000" class="" style="fill:#000000"></path><path d="m324.265625 477.867188h-136.53125c-2.699219 0-5.238281-1.273438-6.851563-3.4375-1.609374-2.164063-2.101562-4.960938-1.324218-7.546876l25.601562-85.332031c1.082032-3.613281 4.402344-6.085937 8.171875-6.085937h85.335938c3.769531 0 7.089843 2.472656 8.171875 6.085937l25.601562 85.332031c.777344 2.585938.285156 5.382813-1.324218 7.546876-1.613282 2.164062-4.152344 3.4375-6.851563 3.4375zm-125.066406-17.066407h113.601562l-20.480469-68.265625h-72.636718zm0 0" data-original="#000000" class="" style="fill:#000000"></path><path d="m341.332031 512h-170.664062c-14.140625 0-25.601563-11.460938-25.601563-25.601562 0-14.136719 11.460938-25.597657 25.601563-25.597657h170.664062c14.140625 0 25.601563 11.460938 25.601563 25.597657 0 14.140624-11.460938 25.601562-25.601563 25.601562zm-170.664062-34.132812c-4.714844 0-8.535157 3.820312-8.535157 8.53125 0 4.714843 3.820313 8.535156 8.535157 8.535156h170.664062c4.714844 0 8.535157-3.820313 8.535157-8.535156 0-4.710938-3.820313-8.53125-8.535157-8.53125zm0 0" data-original="#000000" class="" style="fill:#000000"></path><path d="m503.464844 332.800781h-494.929688c-4.714844 0-8.535156-3.820312-8.535156-8.535156 0-4.710937 3.820312-8.53125 8.535156-8.53125h494.929688c4.714844 0 8.535156 3.820313 8.535156 8.53125 0 4.714844-3.820312 8.535156-8.535156 8.535156zm0 0" data-original="#000000" class="" style="fill:#000000"></path><path d="m213.332031 281.601562h-93.867187c-9.417969-.011718-17.054688-7.648437-17.066406-17.066406v-25.601562c.011718-9.421875 7.648437-17.054688 17.066406-17.066406h59.734375v-25.601563h-34.132813c-9.421875-.011719-17.054687-7.644531-17.066406-17.066406v-25.597657c.011719-9.421874 7.644531-17.058593 17.066406-17.066406h34.132813v-25.601562h-59.734375c-9.417969-.011719-17.054688-7.644532-17.066406-17.066406v-25.601563c.011718-9.421875 7.648437-17.054687 17.066406-17.066406h93.867187c14.132813.015625 25.585938 11.46875 25.601563 25.601562v179.199219c-.015625 14.132812-11.46875 25.585938-25.601563 25.601562zm-93.867187-42.667968h-.007813l.007813 25.601562h93.867187c4.710938-.007812 8.53125-3.824218 8.535157-8.535156v-179.199219c-.003907-4.710937-3.824219-8.53125-8.535157-8.535156h-93.867187v25.601563h59.734375c9.421875.011718 17.054687 7.644531 17.066406 17.066406v25.601562c-.011719 9.417969-7.644531 17.054688-17.066406 17.066406h-34.132813v25.597657h34.132813c9.421875.011719 17.054687 7.644531 17.066406 17.066406v25.601563c-.011719 9.421874-7.644531 17.054687-17.066406 17.066406zm0 0" data-original="#000000" class="" style="fill:#000000"></path><path d="m332.800781 281.601562h-51.199219c-9.421874-.011718-17.058593-7.648437-17.066406-17.066406v-196.269531c.007813-9.421875 7.644532-17.054687 17.066406-17.066406h51.199219c37.683594.042969 68.222657 30.582031 68.265625 68.265625v93.867187c-.042968 37.6875-30.582031 68.226563-68.265625 68.269531zm-51.199219-213.335937v196.269531h51.199219c28.261719-.03125 51.167969-22.9375 51.199219-51.203125v-93.867187c-.03125-28.261719-22.9375-51.167969-51.199219-51.199219zm0 0" data-original="#000000" class="" style="fill:#000000"></path><path d="m315.734375 238.933594c-4.714844 0-8.535156-3.820313-8.535156-8.535156v-128c0-4.710938 3.820312-8.53125 8.535156-8.53125 23.550781.027343 42.636719 19.113281 42.664063 42.667968v59.730469c-.027344 23.554687-19.113282 42.640625-42.664063 42.667969zm8.53125-126.539063v108.007813c10.222656-3.625 17.054687-13.289063 17.066406-24.136719v-59.730469c-.011719-10.847656-6.84375-20.511718-17.066406-24.140625zm0 0" data-original="#000000" class="" style="fill:#000000"></path><path d="m256 392.535156c-4.710938 0-8.535156-3.824218-8.535156-8.535156v-25.601562c0-4.710938 3.824218-8.53125 8.535156-8.53125s8.535156 3.820312 8.535156 8.53125v25.601562c0 4.710938-3.824218 8.535156-8.535156 8.535156zm0 0" data-original="#000000" class="" style="fill:#000000"></path><path d="m42.667969 68.265625c-4.714844 0-8.535157-3.820313-8.535157-8.53125v-8.535156c0-4.710938 3.820313-8.53125 8.535157-8.53125 4.710937 0 8.53125 3.820312 8.53125 8.53125v8.535156c0 4.710937-3.820313 8.53125-8.53125 8.53125zm0 0" data-original="#000000" class="" style="fill:#000000"></path><path d="m42.667969 187.734375c-4.714844 0-8.535157-3.820313-8.535157-8.535156v-85.332031c0-4.714844 3.820313-8.535157 8.535157-8.535157 4.710937 0 8.53125 3.820313 8.53125 8.535157v85.332031c0 4.714843-3.820313 8.535156-8.53125 8.535156zm0 0" data-original="#000000" class="" style="fill:#000000"></path></g></g> </svg>