<?xml version="1.0"?>
<svg xmlns="http://www.w3.org/2000/svg" height="100px" viewBox="0 0 512 512.00015" width="100px" class=""><g><path d="m405.503906 503.464844h-.085937c-4.546875-.003906-8.984375-1.40625-12.714844-4.007813-2.714844-1.851562-4.964844-4.304687-6.570313-7.167969l-27.734374-48.554687 25.601562-17.066406 25.601562 17.066406 15.1875 26.539063c3.921876 6.871093 3.890626 15.308593-.085937 22.148437-3.972656 6.839844-11.289063 11.050781-19.199219 11.042969zm0 0" fill="#6d4122" data-original="#6D4122" class="" style="fill:#0A0301" data-old_color="#0A0401"/><path d="m153.601562 443.734375-27.734374 48.554687c-3.960938 6.914063-11.316407 11.175782-19.285157 11.175782h-.085937c-7.921875.035156-15.257813-4.167969-19.238282-11.019532-3.980468-6.851562-4-15.304687-.046874-22.171874l15.1875-26.539063 25.601562-17.066406zm0 0" fill="#6d4122" data-original="#6D4122" class="" style="fill:#0A0301" data-old_color="#0A0401"/><path d="m392.703125 499.457031c-2.714844-1.851562-4.964844-4.304687-6.570313-7.167969l-27.734374-48.554687 12.800781-8.535156 12.800781 8.535156 15.1875 26.539063c5.683594 9.945312 2.875 22.578124-6.484375 29.183593zm0 0" fill="#91562d" data-original="#91562D" class="" style="fill:#000000" data-old_color="#91562D"/><path d="m128 443.734375-27.734375 48.554687c-1.605469 2.863282-3.855469 5.316407-6.570313 7.167969-9.359374-6.605469-12.167968-19.238281-6.484374-29.183593l15.1875-26.539063 12.800781-8.535156zm0 0" fill="#91562d" data-original="#91562D" class="" style="fill:#000000" data-old_color="#91562D"/><path d="m281.601562 34.132812v34.132813h-51.203124v-34.132813c0-14.136718 11.464843-25.597656 25.601562-25.597656s25.601562 11.460938 25.601562 25.597656zm0 0" fill="#6d4122" data-original="#6D4122" class="" style="fill:#0A0301" data-old_color="#0A0401"/><path d="m256 34.132812v34.132813h-25.601562v-34.132813c-.011719-9.152343 4.871093-17.613281 12.800781-22.1875 1.921875 1.152344 3.695312 2.527344 5.292969 4.097657 4.804687 4.792969 7.507812 11.300781 7.507812 18.089843zm0 0" fill="#91562d" data-original="#91562D" class="" style="fill:#000000" data-old_color="#91562D"/><path d="m42.667969 51.199219h426.664062c18.851563 0 34.132813 15.28125 34.132813 34.132812v324.269531c0 18.851563-15.28125 34.132813-34.132813 34.132813h-426.664062c-18.851563 0-34.132813-15.28125-34.132813-34.132813v-324.269531c0-18.851562 15.28125-34.132812 34.132813-34.132812zm0 0" fill="#545c60" data-original="#545C60" class="" style="fill:#D2D2D2" data-old_color="#545C60"/><path d="m42.667969 51.199219h401.066406c18.851563 0 34.132813 15.28125 34.132813 34.132812v324.269531c0 18.851563-15.28125 34.132813-34.132813 34.132813h-401.066406c-18.851563 0-34.132813-15.28125-34.132813-34.132813v-324.269531c0-18.851562 15.28125-34.132812 34.132813-34.132812zm0 0" fill="#7f8e94" data-original="#7F8E94" class="" style="fill:#D2D2D2" data-old_color="#7F8E94"/><path d="m51.199219 85.332031h409.601562c4.710938 0 8.53125 3.820313 8.53125 8.535157v307.199218c0 4.714844-3.820312 8.535156-8.53125 8.535156h-409.601562c-4.710938 0-8.53125-3.820312-8.53125-8.535156v-307.199218c0-4.714844 3.820312-8.535157 8.53125-8.535157zm0 0" fill="#cfd8dc" data-original="#CFD8DC" class="" style="fill:#D2D2D2" data-old_color="#CFD8DC"/><path d="m51.199219 85.332031h384c4.714843 0 8.535156 3.820313 8.535156 8.535157v307.199218c0 4.714844-3.820313 8.535156-8.535156 8.535156h-384c-4.710938 0-8.53125-3.820312-8.53125-8.535156v-307.199218c0-4.714844 3.820312-8.535157 8.53125-8.535157zm0 0" fill="#f5f5f5" data-original="#F5F5F5" class="" style="fill:#D2D2D2" data-old_color="#F5F5F5"/><path d="m332.800781 298.667969v196.265625c-.015625 4.707031-3.828125 8.519531-8.535156 8.53125h-136.53125c-4.707031-.011719-8.519531-3.824219-8.535156-8.53125v-196.265625zm0 0" fill="#c81e1e" data-original="#C81E1E" class="" style="fill:#E4D64D" data-old_color="#C81E1E"/><path d="m307.199219 298.667969v196.265625c-.011719 4.707031-3.824219 8.519531-8.53125 8.53125h-110.933594c-4.707031-.011719-8.519531-3.824219-8.535156-8.53125v-196.265625zm0 0" fill="#f44335" data-original="#F44335" class="" style="fill:#E4D64D" data-old_color="#F44335"/><path d="m332.800781 298.667969c0 14.136719-11.460937 25.597656-25.601562 25.597656-14.136719 0-25.597657-11.460937-25.597657-25.597656 0 14.136719-11.464843 25.597656-25.601562 25.597656s-25.601562-11.460937-25.601562-25.597656c0 14.136719-11.460938 25.597656-25.597657 25.597656-14.140625 0-25.601562-11.460937-25.601562-25.597656l9.300781-25.601563 31.148438-86.101562 2.21875.769531 34.132812-17.066406 34.132812 17.066406 2.21875-.769531 31.148438 86.101562zm0 0" fill="#dfc49c" data-original="#DFC49C" class="" style="fill:#E4D64D" data-old_color="#DFC49C"/><path d="m307.199219 298.667969c.011719 9.152343-4.867188 17.613281-12.800781 22.183593-7.929688-4.570312-12.8125-13.03125-12.796876-22.183593.011719 9.152343-4.871093 17.613281-12.800781 22.183593-7.679687-4.4375-12.800781 4.355469-12.800781-5.117187 0 9.472656-5.121094.679687-12.800781 5.117187-7.929688-4.570312-12.8125-13.03125-12.800781-22.183593.015624 9.152343-4.867188 17.613281-12.796876 22.183593-7.679687-4.4375-12.800781 4.355469-12.800781-5.117187 0 9.472656-5.121093.679687-12.800781 5.117187-7.929688-4.570312-12.8125-13.03125-12.800781-22.183593l9.300781-25.601563 31.148438-86.101562 2.21875.769531 21.332031-10.667969 21.335937 10.667969 2.21875-.769531 31.144532 86.101562zm0 0" fill="#ffe0b2" data-original="#FFE0B2" class="" style="fill:#D2D2D2" data-old_color="#FFE0B2"/><path d="m292.351562 186.964844-2.21875.769531h-68.265624l-2.21875-.769531 20.308593-56.234375c.71875-2.011719 1.820313-3.867188 3.242188-5.460938 3.980469-4.527343 10.054687-6.617187 15.980469-5.496093 5.921874 1.121093 10.8125 5.289062 12.863281 10.957031zm0 0" fill="#37474f" data-original="#37474F" class="active-path" style="fill:#E4D64D" data-old_color="#D2D2D2"/><path d="m266.753906 186.964844-2.21875.769531h-42.667968l-2.21875-.769531 20.308593-56.234375c.71875-2.011719 1.820313-3.867188 3.242188-5.460938 1.421875 1.59375 2.523437 3.449219 3.242187 5.460938zm0 0" fill="#607d8b" data-original="#607D8B" class="" style="fill:#E4D64D" data-old_color="#D2D2D2"/><path d="m469.332031 452.265625h-136.53125c-4.714843 0-8.535156-3.820313-8.535156-8.53125 0-4.714844 3.820313-8.535156 8.535156-8.535156h136.53125c14.132813-.015625 25.585938-11.46875 25.601563-25.597657v-324.269531c-.015625-14.128906-11.46875-25.582031-25.601563-25.597656h-426.664062c-14.132813.015625-25.585938 11.46875-25.601563 25.597656v324.269531c.015625 14.128907 11.46875 25.582032 25.601563 25.597657h136.53125c4.714843 0 8.535156 3.820312 8.535156 8.535156 0 4.710937-3.820313 8.53125-8.535156 8.53125h-136.53125c-23.554688-.027344-42.6406252-19.113281-42.667969-42.664063v-324.269531c.0273438-23.550781 19.113281-42.636719 42.667969-42.664062h426.664062c23.554688.027343 42.640625 19.113281 42.667969 42.664062v324.269531c-.027344 23.550782-19.113281 42.636719-42.667969 42.664063zm0 0" data-original="#000000" class="" style="fill:#000000"/><path d="m460.800781 418.132812h-128c-4.714843 0-8.535156-3.820312-8.535156-8.53125 0-4.714843 3.820313-8.535156 8.535156-8.535156h128v-307.199218h-409.601562v307.199218h128c4.714843 0 8.535156 3.820313 8.535156 8.535156 0 4.710938-3.820313 8.53125-8.535156 8.53125h-128c-9.421875-.007812-17.054688-7.644531-17.066407-17.066406v-307.199218c.011719-9.421876 7.644532-17.058594 17.066407-17.066407h409.601562c9.421875.011719 17.054688 7.644531 17.066407 17.066407v307.199218c-.011719 9.421875-7.644532 17.054688-17.066407 17.066406zm0 0" data-original="#000000" class="" style="fill:#000000"/><path d="m281.601562 59.734375h-51.203124c-4.710938 0-8.53125-3.820313-8.53125-8.535156v-17.066407c0-18.851562 15.28125-34.132812 34.132812-34.132812s34.132812 15.28125 34.132812 34.132812v17.066407c0 4.714843-3.820312 8.535156-8.53125 8.535156zm-42.667968-17.066406h34.132812v-8.535157c0-9.425781-7.640625-17.066406-17.066406-17.066406s-17.066406 7.640625-17.066406 17.066406zm0 0" data-original="#000000" class="" style="fill:#000000"/><path d="m179.199219 452.265625c-4.710938 0-8.53125-3.820313-8.53125-8.53125v-145.066406c0-.996094.171875-1.980469.511719-2.914063l60.757812-167.925781c3.664062-10.140625 13.292969-16.898437 24.078125-16.894531s20.410156 6.773437 24.0625 16.921875l51.445313 142.308593c1.605468 4.433594-.691407 9.324219-5.121094 10.929688-4.433594 1.601562-9.324219-.695312-10.925782-5.125l-51.457031-142.335938c-1.214843-3.375-4.414062-5.625-8-5.628906-3.589843-.007812-6.796875 2.234375-8.023437 5.601563l-60.261719 166.5625v143.566406c0 4.710937-3.820313 8.53125-8.535156 8.53125zm0 0" data-original="#000000" class="" style="fill:#000000"/><path d="m332.800781 452.265625c-4.714843 0-8.535156-3.820313-8.535156-8.53125v-145.066406c0-4.714844 3.820313-8.535157 8.535156-8.535157 4.710938 0 8.53125 3.820313 8.53125 8.535157v145.066406c0 4.710937-3.820312 8.53125-8.53125 8.53125zm0 0" data-original="#000000" class="" style="fill:#000000"/><path d="m332.800781 512h-153.601562c-4.710938 0-8.53125-3.820312-8.53125-8.535156v-204.796875c0-4.714844 3.820312-8.535157 8.53125-8.535157 4.714843 0 8.535156 3.820313 8.535156 8.535157v196.265625h136.53125v-196.265625c0-4.714844 3.820313-8.535157 8.535156-8.535157 4.710938 0 8.53125 3.820313 8.53125 8.535157v204.796875c0 4.714844-3.820312 8.535156-8.53125 8.535156zm0 0" data-original="#000000" class="" style="fill:#000000"/><path d="m204.800781 332.800781c-18.84375-.023437-34.113281-15.292969-34.132812-34.132812 0-4.714844 3.820312-8.535157 8.53125-8.535157 4.714843 0 8.535156 3.820313 8.535156 8.535157 0 9.425781 7.640625 17.066406 17.066406 17.066406s17.066407-7.640625 17.066407-17.066406c0-4.714844 3.820312-8.535157 8.53125-8.535157 4.714843 0 8.535156 3.820313 8.535156 8.535157-.019532 18.839843-15.289063 34.109375-34.132813 34.132812zm0 0" data-original="#000000" class="" style="fill:#000000"/><path d="m256 332.800781c-18.84375-.023437-34.113281-15.292969-34.132812-34.132812 0-4.714844 3.820312-8.535157 8.53125-8.535157 4.714843 0 8.535156 3.820313 8.535156 8.535157 0 9.425781 7.640625 17.066406 17.066406 17.066406s17.066406-7.640625 17.066406-17.066406c0-4.714844 3.820313-8.535157 8.535156-8.535157 4.710938 0 8.53125 3.820313 8.53125 8.535157-.019531 18.839843-15.289062 34.109375-34.132812 34.132812zm0 0" data-original="#000000" class="" style="fill:#000000"/><path d="m307.199219 332.800781c-18.839844-.023437-34.109375-15.292969-34.132813-34.132812 0-4.714844 3.820313-8.535157 8.535156-8.535157 4.710938 0 8.53125 3.820313 8.53125 8.535157 0 9.425781 7.640626 17.066406 17.066407 17.066406s17.066406-7.640625 17.066406-17.066406c0-4.714844 3.820313-8.535157 8.535156-8.535157 4.710938 0 8.53125 3.820313 8.53125 8.535157-.019531 18.839843-15.289062 34.109375-34.132812 34.132812zm0 0" data-original="#000000" class="" style="fill:#000000"/><path d="m332.800781 307.203125c-3.589843 0-6.796875-2.246094-8.023437-5.625l-60.757813-167.945313c-1.214843-3.375-4.414062-5.625-8-5.628906-3.589843-.007812-6.796875 2.234375-8.023437 5.601563l-60.773438 167.972656c-1.609375 4.429687-6.503906 6.71875-10.933594 5.109375-4.429687-1.609375-6.71875-6.503906-5.109374-10.933594l60.757812-167.925781c3.664062-10.140625 13.292969-16.898437 24.078125-16.894531s20.410156 6.773437 24.0625 16.921875l60.742187 167.898437c.945313 2.617188.558594 5.53125-1.035156 7.808594-1.597656 2.277344-4.203125 3.636719-6.984375 3.640625zm0 0" data-original="#000000" class="" style="fill:#000000"/><path d="m290.132812 196.265625h-68.265624c-4.714844 0-8.535157-3.820313-8.535157-8.53125 0-4.714844 3.820313-8.535156 8.535157-8.535156h68.265624c4.714844 0 8.535157 3.820312 8.535157 8.535156 0 4.710937-3.820313 8.53125-8.535157 8.53125zm0 0" data-original="#000000" class="" style="fill:#000000"/><path d="m230.398438 375.464844c-4.710938 0-8.53125-3.820313-8.53125-8.53125v-8.535156c0-4.710938 3.820312-8.53125 8.53125-8.53125 4.714843 0 8.535156 3.820312 8.535156 8.53125v8.535156c0 4.710937-3.820313 8.53125-8.535156 8.53125zm0 0" data-original="#000000" class="" style="fill:#000000"/><path d="m230.398438 512c-4.710938 0-8.53125-3.820312-8.53125-8.535156v-102.398438c0-4.710937 3.820312-8.53125 8.53125-8.53125 4.714843 0 8.535156 3.820313 8.535156 8.53125v102.398438c0 4.714844-3.820313 8.535156-8.535156 8.535156zm0 0" data-original="#000000" class="" style="fill:#000000"/><path d="m281.601562 375.464844c-4.714843 0-8.535156-3.820313-8.535156-8.53125v-8.535156c0-4.710938 3.820313-8.53125 8.535156-8.53125 4.710938 0 8.53125 3.820312 8.53125 8.53125v8.535156c0 4.710937-3.820312 8.53125-8.53125 8.53125zm0 0" data-original="#000000" class="" style="fill:#000000"/><path d="m281.601562 512c-4.714843 0-8.535156-3.820312-8.535156-8.535156v-102.398438c0-4.710937 3.820313-8.53125 8.535156-8.53125 4.710938 0 8.53125 3.820313 8.53125 8.53125v102.398438c0 4.714844-3.820312 8.535156-8.53125 8.535156zm0 0" data-original="#000000" class="" style="fill:#000000"/><path d="m106.589844 512c-10.964844.035156-21.121094-5.78125-26.640625-15.261719-5.519531-9.476562-5.566407-21.179687-.125-30.699219l15.167969-26.539062c1.492187-2.683594 4.3125-4.355469 7.382812-4.378906 3.070312-.023438 5.917969 1.601562 7.457031 4.257812 1.535157 2.660156 1.527344 5.9375-.023437 8.585938l-15.167969 26.539062c-2.410156 4.226563-2.390625 9.417969.050781 13.628906 2.445313 4.207032 6.941406 6.800782 11.808594 6.800782 4.929688.019531 9.488281-2.609375 11.945312-6.878906l27.746094-48.554688c2.363282-4.035156 7.535156-5.417969 11.597656-3.097656 4.0625 2.320312 5.496094 7.476562 3.21875 11.5625l-27.746093 48.554687c-5.476563 9.5625-15.648438 15.46875-26.671875 15.480469zm0 0" data-original="#000000" class="" style="fill:#000000"/><path d="m405.503906 512c-11.050781.011719-21.261718-5.894531-26.761718-15.480469l-27.746094-48.554687c-1.550782-2.648438-1.5625-5.925782-.023438-8.585938 1.539063-2.65625 4.382813-4.28125 7.453125-4.257812 3.070313.023437 5.890625 1.695312 7.386719 4.378906l27.746094 48.554688c2.433594 4.246093 6.953125 6.871093 11.851562 6.878906 4.882813.03125 9.410156-2.546875 11.875-6.761719s2.492188-9.425781.070313-13.667969l-15.167969-26.539062c-1.550781-2.648438-1.558594-5.925782-.023438-8.585938 1.539063-2.65625 4.386719-4.28125 7.457032-4.257812 3.070312.023437 5.890625 1.695312 7.382812 4.378906l15.167969 26.539062c5.429687 9.507813 5.390625 21.183594-.105469 30.65625-5.496094 9.46875-15.613281 15.300782-26.5625 15.304688zm0 0" data-original="#000000" class="" style="fill:#000000"/><path d="m110.933594 204.800781c-2.996094 0-5.773438-1.574219-7.316406-4.144531l-23.117188-38.523438h-12.234375c-4.710937 0-8.53125-3.820312-8.53125-8.53125 0-4.714843 3.820313-8.535156 8.53125-8.535156h17.066406c3 0 5.777344 1.574219 7.316407 4.140625l16.054687 26.757813 19.734375-59.199219c1.164062-3.484375 4.421875-5.832031 8.097656-5.832031h59.730469c4.714844 0 8.535156 3.820312 8.535156 8.53125 0 4.714844-3.820312 8.535156-8.535156 8.535156h-53.582031l-23.65625 70.964844c-1.054688 3.164062-3.851563 5.421875-7.167969 5.785156-.304687.03125-.617187.050781-.925781.050781zm0 0" data-original="#000000" class="" style="fill:#000000"/><path d="m170.667969 204.800781c-14.132813-.015625-25.585938-11.46875-25.601563-25.601562v-17.066407c0-14.136718 11.460938-25.597656 25.601563-25.597656 14.136719 0 25.597656 11.460938 25.597656 25.597656v17.066407c-.015625 14.132812-11.46875 25.585937-25.597656 25.601562zm0-51.199219c-4.710938.003907-8.527344 3.820313-8.535157 8.53125v17.066407c0 4.714843 3.820313 8.535156 8.535157 8.535156 4.710937 0 8.53125-3.820313 8.53125-8.535156v-17.066407c-.003907-4.710937-3.820313-8.527343-8.53125-8.53125zm0 0" data-original="#000000" class="" style="fill:#000000"/><path d="m110.933594 281.601562h-17.066406c-4.714844 0-8.535157-3.820312-8.535157-8.535156 0-4.710937 3.820313-8.53125 8.535157-8.53125v-17.070312c-3.453126 0-6.5625-2.078125-7.882813-5.265625s-.589844-6.859375 1.847656-9.300781l8.535157-8.53125c2.441406-2.441407 6.109374-3.167969 9.296874-1.847657 3.191407 1.320313 5.269532 4.429688 5.269532 7.878907v34.136718c4.710937 0 8.53125 3.820313 8.53125 8.53125 0 4.714844-3.820313 8.535156-8.53125 8.535156zm0 0" data-original="#000000" class="" style="fill:#000000"/><path d="m128 315.734375h-51.199219c-4.714843 0-8.535156-3.820313-8.535156-8.535156 0-4.710938 3.820313-8.53125 8.535156-8.53125h51.199219c4.714844 0 8.535156 3.820312 8.535156 8.53125 0 4.714843-3.820312 8.535156-8.535156 8.535156zm0 0" data-original="#000000" class="" style="fill:#000000"/><path d="m119.464844 384h-34.132813c-3.074219 0-5.910156-1.652344-7.425781-4.328125-1.511719-2.675781-1.472656-5.960937.109375-8.597656l25.601563-42.664063c1.558593-2.640625 4.410156-4.238281 7.472656-4.195312 3.0625.042968 5.867187 1.726562 7.347656 4.410156 1.480469 2.679688 1.40625 5.949219-.1875 8.566406l-17.847656 29.742188h19.0625c4.714844 0 8.535156 3.820312 8.535156 8.53125 0 4.714844-3.820312 8.535156-8.535156 8.535156zm0 0" data-original="#000000" class="" style="fill:#000000"/><path d="m110.933594 392.535156c-4.714844 0-8.535156-3.824218-8.535156-8.535156v-8.535156c0-4.710938 3.820312-8.53125 8.535156-8.53125 4.710937 0 8.53125 3.820312 8.53125 8.53125v8.535156c0 4.710938-3.820313 8.535156-8.53125 8.535156zm0 0" data-original="#000000" class="" style="fill:#000000"/><path d="m361.933594 162.132812c-4.710938 0-8.53125-3.820312-8.53125-8.53125 0-4.714843 3.820312-8.535156 8.53125-8.535156 3.453125 0 6.5625-2.078125 7.886718-5.265625 1.320313-3.1875.589844-6.859375-1.847656-9.300781-3.378906-3.222656-8.691406-3.222656-12.070312 0-2.140625 2.210938-5.308594 3.097656-8.289063 2.316406-2.980469-.777344-5.304687-3.101562-6.089843-6.082031-.785157-2.976563.097656-6.148437 2.304687-8.292969 10.128906-9.675781 26.078125-9.679687 36.210937-.003906 7.316407 7.324219 9.503907 18.332031 5.539063 27.894531-3.960937 9.5625-13.292969 15.800781-23.644531 15.800781zm0 0" data-original="#000000" class="" style="fill:#000000"/><path d="m361.933594 196.265625c-6.796875.019531-13.316406-2.683594-18.105469-7.503906-2.207031-2.144531-3.089844-5.316407-2.304687-8.292969.785156-2.976562 3.109374-5.300781 6.089843-6.082031s6.148438.105469 8.289063 2.316406c3.378906 3.222656 8.691406 3.222656 12.070312 0 2.441406-2.441406 3.171875-6.113281 1.851563-9.304687-1.324219-3.1875-4.4375-5.269532-7.890625-5.265626-4.710938 0-8.53125-3.820312-8.53125-8.53125 0-4.714843 3.820312-8.535156 8.53125-8.535156 14.136718 0 25.601562 11.460938 25.601562 25.601563 0 14.136719-11.464844 25.597656-25.601562 25.597656zm0 0" data-original="#000000" class="" style="fill:#000000"/><path d="m421.667969 281.601562c-4.714844 0-8.535157-3.820312-8.535157-8.535156 0-4.710937 3.820313-8.53125 8.535157-8.53125 3.449219 0 6.5625-2.078125 7.882812-5.265625 1.320313-3.1875.589844-6.859375-1.851562-9.296875-3.371094-3.230468-8.691407-3.234375-12.066407-.003906-3.347656 3.246094-8.679687 3.203125-11.976562-.09375s-3.335938-8.628906-.089844-11.976562c10.132813-9.671876 26.082032-9.667969 36.207032.011718 7.316406 7.320313 9.5 18.328125 5.539062 27.890625-3.964844 9.5625-13.292969 15.796875-23.644531 15.800781zm0 0" data-original="#000000" class="" style="fill:#000000"/><path d="m421.667969 315.734375c-6.792969.015625-13.3125-2.683594-18.101563-7.5-3.246094-3.347656-3.207031-8.679687.089844-11.976563 3.296875-3.296874 8.628906-3.335937 11.976562-.089843 3.371094 3.222656 8.683594 3.226562 12.058594.007812 2.445313-2.4375 3.179688-6.109375 1.859375-9.300781-1.320312-3.191406-4.429687-5.273438-7.882812-5.273438-4.714844 0-8.535157-3.820312-8.535157-8.535156 0-4.710937 3.820313-8.53125 8.535157-8.53125 14.136719 0 25.597656 11.460938 25.597656 25.597656 0 14.140626-11.460937 25.601563-25.597656 25.601563zm0 0" data-original="#000000" class="" style="fill:#000000"/><path d="m358.398438 256c-3.449219 0-6.558594-2.078125-7.878907-5.269531-1.320312-3.1875-.59375-6.855469 1.847657-9.296875l76.800781-76.800782c3.347656-3.234374 8.667969-3.1875 11.960937.105469 3.292969 3.289063 3.339844 8.613281.105469 11.960938l-76.800781 76.800781c-1.597656 1.601562-3.769532 2.503906-6.035156 2.5zm0 0" data-original="#000000" class="" style="fill:#000000"/><path d="m375.464844 349.867188h-8.53125c-4.714844 0-8.535156-3.820313-8.535156-8.535157 0-4.710937 3.820312-8.53125 8.535156-8.53125h8.53125c4.714844 0 8.535156 3.820313 8.535156 8.53125 0 4.714844-3.820312 8.535157-8.535156 8.535157zm0 0" data-original="#000000" class="" style="fill:#000000"/><path d="m435.199219 349.867188h-34.132813c-4.710937 0-8.53125-3.820313-8.53125-8.535157 0-4.710937 3.820313-8.53125 8.53125-8.53125h34.132813c4.714843 0 8.535156 3.820313 8.535156 8.53125 0 4.714844-3.820313 8.535157-8.535156 8.535157zm0 0" data-original="#000000" class="" style="fill:#000000"/><path d="m435.199219 384h-68.265625c-4.714844 0-8.535156-3.820312-8.535156-8.535156 0-4.710938 3.820312-8.53125 8.535156-8.53125h68.265625c4.714843 0 8.535156 3.820312 8.535156 8.53125 0 4.714844-3.820313 8.535156-8.535156 8.535156zm0 0" data-original="#000000" class="" style="fill:#000000"/></g> </svg>
