<?xml version="1.0"?>
<svg xmlns="http://www.w3.org/2000/svg" height="100px" viewBox="0 -4 512 512" width="100px" class=""><g><path d="m501.164062 222.769531-18.6875 60.503907-11.011718-20.824219-24.832032-47.101563c-4.246093-8.113281-12.511718-13.335937-21.664062-13.6875-9.148438-.355468-17.792969 4.210938-22.65625 11.96875-4.867188 7.761719-5.210938 17.527344-.90625 25.613282l24.664062 46.761718 11.175782 21.160156-60.5-18.6875c-12.96875-3.992187-23.808594-12.988281-30.121094-25l-8.960938-16.898437c-3.328124-6.351563-5.304687-13.324219-5.800781-20.480469l-3.414062-50.855468c-.320313-4.242188.203125-8.507813 1.535156-12.546876l77.566406-50.34375c9.667969-1.902343 19.679688.527344 27.394531 6.652344l40.019532 31.574219c5.640625 4.417969 10.292968 9.972656 13.652344 16.300781l8.960937 16.894532c6.308594 12.011718 7.597656 26.035156 3.585937 38.996093zm0 0" fill="#2c3e50" data-original="#2C3E50" class="" style="fill:#000000" data-old_color="#2C3E50"/><path d="m484.523438 220.210938-13.058594 42.238281-24.832032-47.101563c-4.246093-8.113281-12.511718-13.335937-21.664062-13.6875-9.148438-.355468-17.792969 4.210938-22.65625 11.96875-4.867188 7.761719-5.210938 17.527344-.90625 25.613282l24.664062 46.761718-41.730468-12.886718c-10.414063-3.257813-19.125-10.496094-24.234375-20.136719l-7.167969-13.65625c-2.710938-5.09375-4.3125-10.707031-4.691406-16.46875l-2.730469-40.960938c-.300781-3.402343.105469-6.828125 1.195313-10.066406l62.460937-40.535156c7.789063-1.523438 15.851563.410156 22.101563 5.292969l32.171874 25.425781c4.539063 3.574219 8.285157 8.046875 11.007813 13.144531l7.253906 13.652344c5.042969 9.6875 6.058594 20.972656 2.816407 31.402344zm0 0" fill="#35495e" data-original="#35495E" class="active-path" style="fill:#D2D2D2" data-old_color="#000000"/><path d="m192.511719.136719c.539062-.0703128 1.078125-.0976565 1.621093-.0859378 7.511719-.3359372 15.003907 1.0039068 21.929688 3.9257808l160.429688 67.242188c19.046874 7.945312 31.460937 26.550781 31.488281 47.191406.003906 6.800782-1.359375 13.53125-4.011719 19.796875-10.980469 26.0625-40.988281 38.316407-67.074219 27.390625l-136.445312-57.089844zm0 0" fill="#e57e25" data-original="#E57E25" class="" style="fill:#D2D2D2" data-old_color="#000000"/><path d="m176.554688 356.316406-148.480469-188.074218c-3.257813-4.042969-5.824219-8.601563-7.59375-13.480469-.601563-1.652344-1.113281-3.332031-1.535157-5.035157-.5-1.5625-.871093-3.160156-1.109374-4.78125-.15625-.789062-.269532-1.585937-.34375-2.386718-.269532-2.066406-.414063-4.148438-.425782-6.230469 0-3.734375.429688-7.457031 1.28125-11.09375.101563-.605469.242188-1.203125.425782-1.792969.304687-1.242187.671874-2.464844 1.109374-3.667968.253907-.851563.597657-1.792969.9375-2.644532.703126-1.792968 1.53125-3.53125 2.476563-5.207031.433594-.851563.917969-1.679687 1.449219-2.472656 1.023437-1.621094 2.132812-3.242188 3.328125-4.78125 2.488281-3.097657 5.324219-5.902344 8.449219-8.359375l105.984374 51.539062 152.574219 193.453125zm0 0" fill="#e57e25" data-original="#E57E25" class="" style="fill:#D2D2D2" data-old_color="#000000"/><path d="m236.078125 22.496094c15.878906 23.398437 9.78125 55.238281-13.617187 71.117187l-125.4375 85.125c-23.398438 15.878907-55.238282 9.78125-71.117188-13.617187-15.878906-23.398438-9.78125-55.238282 13.617188-71.117188l125.4375-85.125c23.398437-15.878906 55.238281-9.78125 71.117187 13.617188zm0 0" fill="#f29c1f" data-original="#F29C1F" class="" style="fill:#E4D64D" data-old_color="#F29C1F"/><path d="m85.332031 136.5c0 9.425781-7.640625 17.066406-17.066406 17.066406s-17.066406-7.640625-17.066406-17.066406 7.640625-17.066406 17.066406-17.066406 17.066406 7.640625 17.066406 17.066406zm0 0" fill="#e57e25" data-original="#E57E25" class="" style="fill:#D2D2D2" data-old_color="#000000"/><path d="m213.332031 51.164062c0 9.425782-7.640625 17.066407-17.066406 17.066407s-17.066406-7.640625-17.066406-17.066407c0-9.425781 7.640625-17.066406 17.066406-17.066406s17.066406 7.640625 17.066406 17.066406zm0 0" fill="#e57e25" data-original="#E57E25" class="" style="fill:#D2D2D2" data-old_color="#000000"/><path d="m375.464844 119.433594c0 9.425781-7.640625 17.066406-17.066406 17.066406-9.425782 0-17.066407-7.640625-17.066407-17.066406 0-9.425782 7.640625-17.066406 17.066407-17.066406 9.425781 0 17.066406 7.640624 17.066406 17.066406zm0 0" fill="#d25627" data-original="#D25627" class="" style="fill:#D2D2D2" data-old_color="#D25627"/><path d="m196.273438 307.164062c-2.59375.007813-5.050782-1.171874-6.671876-3.203124l-68.269531-85.332032c-1.902343-2.382812-2.390625-5.597656-1.28125-8.4375 1.113281-2.839844 3.652344-4.871094 6.667969-5.328125 3.015625-.460937 6.042969.726563 7.949219 3.105469l68.265625 85.335938c2.046875 2.558593 2.445312 6.066406 1.027344 9.023437-1.421876 2.953125-4.40625 4.835937-7.6875 4.835937zm0 0" fill="#d25627" data-original="#D25627" class="" style="fill:#D2D2D2" data-old_color="#D25627"/><path d="m93.875 110.898438c-3.710938.003906-7-2.390626-8.136719-5.925782-1.132812-3.535156.148438-7.398437 3.167969-9.554687l59.734375-42.664063c3.835937-2.738281 9.167969-1.851562 11.90625 1.988282 2.738281 3.835937 1.847656 9.164062-1.988281 11.902343l-59.734375 42.667969c-1.441407 1.03125-3.171875 1.585938-4.949219 1.585938zm0 0" fill="#e57e25" data-original="#E57E25" class="" style="fill:#D2D2D2" data-old_color="#000000"/><path d="m110.941406 136.5c-3.710937.003906-7-2.390625-8.136718-5.925781-1.132813-3.535157.148437-7.398438 3.171874-9.554688l59.730469-42.667969c3.835938-2.738281 9.167969-1.847656 11.90625 1.988282 2.738281 3.835937 1.847657 9.167968-1.988281 11.90625l-59.734375 42.664062c-1.441406 1.035156-3.171875 1.589844-4.949219 1.589844zm0 0" fill="#e57e25" data-original="#E57E25" class="" style="fill:#D2D2D2" data-old_color="#000000"/><path d="m204.800781 341.300781h102.398438c18.851562 0 34.132812 15.28125 34.132812 34.132813v68.265625h-170.664062v-68.265625c0-18.851563 15.28125-34.132813 34.132812-34.132813zm0 0" fill="#f29c1f" data-original="#F29C1F" class="" style="fill:#E4D64D" data-old_color="#F29C1F"/><path d="m238.933594 392.5c0 9.425781-7.640625 17.066406-17.066406 17.066406-9.425782 0-17.066407-7.640625-17.066407-17.066406s7.640625-17.066406 17.066407-17.066406c9.425781 0 17.066406 7.640625 17.066406 17.066406zm0 0" fill="#e57e25" data-original="#E57E25" class="" style="fill:#D2D2D2" data-old_color="#000000"/><path d="m307.199219 392.5c0 9.425781-7.640625 17.066406-17.066407 17.066406-9.425781 0-17.066406-7.640625-17.066406-17.066406s7.640625-17.066406 17.066406-17.066406c9.425782 0 17.066407 7.640625 17.066407 17.066406zm0 0" fill="#e57e25" data-original="#E57E25" class="" style="fill:#D2D2D2" data-old_color="#000000"/><path d="m17.066406 443.699219h477.867188v51.199219h-477.867188zm0 0" fill="#35495e" data-original="#35495E" class="active-path" style="fill:#D2D2D2" data-old_color="#000000"/><g fill="#285680"><path d="m34.132812 486.367188c-1.15625 0-2.308593-.117188-3.4375-.347657-2.183593-.449219-4.257812-1.320312-6.105468-2.570312-2.742188-1.851563-4.890625-4.460938-6.183594-7.507813-.433594-1.03125-.769531-2.105468-.992188-3.203125-.230468-1.132812-.347656-2.285156-.347656-3.4375 0-1.15625.117188-2.308593.347656-3.441406.445313-2.183594 1.320313-4.257813 2.566407-6.101563 1.855469-2.746093 4.460937-4.890624 7.511719-6.183593 1.03125-.4375 2.105468-.769531 3.203124-.996094 1.128907-.230469 2.28125-.347656 3.4375-.347656s2.308594.117187 3.441407.347656c2.183593.449219 4.253906 1.320313 6.101562 2.570313 2.742188 1.851562 4.890625 4.460937 6.183594 7.507812.4375 1.03125.769531 2.105469.996094 3.203125.230469 1.132813.34375 2.285156.34375 3.441406 0 1.152344-.113281 2.304688-.34375 3.4375-.449219 2.183594-1.320313 4.257813-2.570313 6.101563-1.851562 2.746094-4.460937 4.894531-7.507812 6.183594-1.035156.4375-2.105469.769531-3.203125.996093-1.132813.230469-2.285157.347657-3.441407.347657zm0 0" data-original="#000000" class="" style="fill:#000000"/><path d="m145.066406 486.367188c-1.15625 0-2.308594-.117188-3.441406-.347657-2.179688-.449219-4.253906-1.320312-6.101562-2.570312-2.742188-1.851563-4.890626-4.460938-6.183594-7.507813-.433594-1.03125-.769532-2.105468-.992188-3.203125-.230468-1.132812-.347656-2.285156-.347656-3.4375 0-1.15625.117188-2.308593.347656-3.441406.445313-2.183594 1.320313-4.257813 2.566406-6.101563 1.851563-2.746093 4.460938-4.890624 7.511719-6.183593 1.03125-.4375 2.105469-.769531 3.203125-.996094 1.128906-.230469 2.28125-.347656 3.4375-.347656s2.308594.117187 3.441406.347656c2.179688.449219 4.253907 1.320313 6.101563 2.570313 2.742187 1.851562 4.890625 4.460937 6.183594 7.507812.4375 1.03125.769531 2.105469.992187 3.203125.234375 1.132813.347656 2.285156.347656 3.441406 0 1.152344-.113281 2.304688-.347656 3.4375-.445312 2.183594-1.320312 4.257813-2.566406 6.101563-1.851562 2.746094-4.460938 4.894531-7.507812 6.183594-1.035157.4375-2.105469.769531-3.207032.996093-1.128906.230469-2.28125.347657-3.4375.347657zm0 0" data-original="#000000" class="" style="fill:#000000"/><path d="m366.933594 486.367188c-1.15625 0-2.308594-.117188-3.441406-.347657-2.179688-.449219-4.253907-1.320312-6.101563-2.570312-2.742187-1.851563-4.890625-4.460938-6.183594-7.507813-.4375-1.03125-.769531-2.105468-.992187-3.203125-.234375-1.132812-.347656-2.285156-.347656-3.4375 0-1.15625.113281-2.308593.347656-3.441406.445312-2.183594 1.320312-4.257813 2.566406-6.101563 1.851562-2.746093 4.460938-4.890624 7.507812-6.183593 1.035157-.4375 2.105469-.769531 3.207032-.996094 1.128906-.230469 2.28125-.347656 3.4375-.347656s2.308594.117187 3.441406.347656c2.179688.449219 4.253906 1.320313 6.101562 2.570313 2.742188 1.851562 4.890626 4.460937 6.183594 7.507812.433594 1.03125.769532 2.105469.992188 3.203125.230468 1.132813.347656 2.285156.347656 3.441406 0 1.152344-.117188 2.304688-.347656 3.4375-.445313 2.183594-1.320313 4.257813-2.566406 6.101563-1.851563 2.746094-4.460938 4.894531-7.511719 6.183594-1.03125.4375-2.105469.769531-3.203125.996093-1.128906.230469-2.28125.347657-3.4375.347657zm0 0" data-original="#000000" class="" style="fill:#000000"/><path d="m256 486.367188c-1.15625 0-2.308594-.117188-3.441406-.347657-2.179688-.449219-4.253906-1.320312-6.101563-2.570312-2.742187-1.851563-4.890625-4.460938-6.183593-7.507813-.433594-1.03125-.769532-2.105468-.992188-3.203125-.230469-1.132812-.347656-2.285156-.347656-3.4375 0-1.15625.117187-2.308593.347656-3.441406.445312-2.183594 1.320312-4.257813 2.566406-6.101563 1.851563-2.746093 4.460938-4.890624 7.511719-6.183593 1.03125-.4375 2.105469-.769531 3.203125-.996094 1.128906-.230469 2.28125-.347656 3.4375-.347656s2.308594.117187 3.441406.347656c2.179688.449219 4.253906 1.320313 6.101563 2.570313 2.742187 1.851562 4.890625 4.460937 6.183593 7.507812.433594 1.03125.769532 2.105469.992188 3.203125.230469 1.132813.347656 2.285156.347656 3.441406 0 1.152344-.117187 2.304688-.347656 3.4375-.445312 2.183594-1.320312 4.257813-2.566406 6.101563-1.851563 2.746094-4.460938 4.894531-7.511719 6.183594-1.03125.4375-2.105469.769531-3.203125.996093-1.128906.230469-2.28125.347657-3.4375.347657zm0 0" data-original="#000000" class="" style="fill:#000000"/><path d="m477.867188 486.367188c-1.15625 0-2.308594-.117188-3.441407-.347657-2.183593-.449219-4.253906-1.320312-6.101562-2.570312-2.742188-1.851563-4.890625-4.460938-6.183594-7.507813-.4375-1.03125-.769531-2.105468-.996094-3.203125-.230469-1.132812-.34375-2.285156-.34375-3.4375 0-1.15625.113281-2.308593.34375-3.441406.449219-2.183594 1.320313-4.257813 2.570313-6.101563 1.851562-2.746093 4.460937-4.890624 7.507812-6.183593 1.035156-.4375 2.105469-.769531 3.203125-.996094 1.132813-.230469 2.285157-.347656 3.441407-.347656s2.308593.117187 3.4375.347656c2.183593.449219 4.257812 1.320313 6.105468 2.570313 2.742188 1.851562 4.890625 4.460937 6.183594 7.507812.433594 1.03125.769531 2.105469.992188 3.203125.230468 1.132813.347656 2.285156.347656 3.441406 0 1.152344-.117188 2.304688-.347656 3.4375-.445313 2.183594-1.320313 4.257813-2.566407 6.101563-1.855469 2.746094-4.460937 4.894531-7.511719 6.183594-1.03125.4375-2.105468.769531-3.203124.996093-1.128907.230469-2.28125.347657-3.4375.347657zm0 0" data-original="#000000" class="" style="fill:#000000"/></g><path d="m477.867188 503.433594h-443.734376c-18.851562 0-34.132812-15.285156-34.132812-34.132813 0-18.851562 15.28125-34.136719 34.132812-34.136719h443.734376c18.851562 0 34.132812 15.285157 34.132812 34.136719 0 18.847657-15.28125 34.132813-34.132812 34.132813zm-443.734376-51.203125c-9.425781 0-17.066406 7.644531-17.066406 17.070312s7.640625 17.066407 17.066406 17.066407h443.734376c9.425781 0 17.066406-7.640626 17.066406-17.066407s-7.640625-17.070312-17.066406-17.070312zm0 0" fill="#2c2f38" data-original="#2C2F38" class="" style="fill:#000000" data-old_color="#2C2F38"/><path d="m93.867188 477.832031h-8.535157c-4.710937 0-8.53125-3.820312-8.53125-8.53125 0-4.714843 3.820313-8.535156 8.53125-8.535156h8.535157c4.710937 0 8.53125 3.820313 8.53125 8.535156 0 4.710938-3.820313 8.53125-8.53125 8.53125zm0 0" fill="#4482c3" data-original="#4482C3" class="" style="fill:#E4D64D" data-old_color="#4482C3"/><path d="m204.800781 477.832031h-8.535156c-4.710937 0-8.53125-3.820312-8.53125-8.53125 0-4.714843 3.820313-8.535156 8.53125-8.535156h8.535156c4.710938 0 8.53125 3.820313 8.53125 8.535156 0 4.710938-3.820312 8.53125-8.53125 8.53125zm0 0" fill="#4482c3" data-original="#4482C3" class="" style="fill:#E4D64D" data-old_color="#4482C3"/><path d="m315.734375 477.832031h-8.535156c-4.710938 0-8.53125-3.820312-8.53125-8.53125 0-4.714843 3.820312-8.535156 8.53125-8.535156h8.535156c4.710937 0 8.53125 3.820313 8.53125 8.535156 0 4.710938-3.820313 8.53125-8.53125 8.53125zm0 0" fill="#4482c3" data-original="#4482C3" class="" style="fill:#E4D64D" data-old_color="#4482C3"/><path d="m426.667969 477.832031h-8.535157c-4.710937 0-8.53125-3.820312-8.53125-8.53125 0-4.714843 3.820313-8.535156 8.53125-8.535156h8.535157c4.710937 0 8.53125 3.820313 8.53125 8.535156 0 4.710938-3.820313 8.53125-8.53125 8.53125zm0 0" fill="#4482c3" data-original="#4482C3" class="" style="fill:#E4D64D" data-old_color="#4482C3"/></g> </svg>
